<svg width="305" height="279" viewBox="0 0 305 279" fill="none" xmlns="http://www.w3.org/2000/svg">
<ellipse cx="103" cy="187" rx="13" ry="12" fill="#7C4EFF"/>
<path d="M9.196 21.264C7.62667 21.264 6.204 20.9267 4.928 20.252C3.66667 19.5627 2.66933 18.6167 1.936 17.414C1.21733 16.1967 0.858 14.8253 0.858 13.3C0.858 11.7747 1.21733 10.4107 1.936 9.208C2.66933 7.99067 3.66667 7.04467 4.928 6.37C6.204 5.68067 7.634 5.336 9.218 5.336C10.5527 5.336 11.7553 5.57067 12.826 6.04C13.9113 6.50933 14.8207 7.184 15.554 8.064L13.266 10.176C12.2247 8.97333 10.934 8.372 9.394 8.372C8.44067 8.372 7.59 8.58467 6.842 9.01C6.094 9.42067 5.50733 10 5.082 10.748C4.67133 11.496 4.466 12.3467 4.466 13.3C4.466 14.2533 4.67133 15.104 5.082 15.852C5.50733 16.6 6.094 17.1867 6.842 17.612C7.59 18.0227 8.44067 18.228 9.394 18.228C10.934 18.228 12.2247 17.6193 13.266 16.402L15.554 18.514C14.8207 19.4087 13.9113 20.0907 12.826 20.56C11.7407 21.0293 10.5307 21.264 9.196 21.264ZM29.3226 9.164V21H26.0446V19.636C25.1939 20.6627 23.9619 21.176 22.3486 21.176C21.2339 21.176 20.2219 20.9267 19.3126 20.428C18.4179 19.9293 17.7139 19.218 17.2006 18.294C16.6872 17.37 16.4306 16.2993 16.4306 15.082C16.4306 13.8647 16.6872 12.794 17.2006 11.87C17.7139 10.946 18.4179 10.2347 19.3126 9.736C20.2219 9.23733 21.2339 8.988 22.3486 8.988C23.8592 8.988 25.0399 9.46467 25.8906 10.418V9.164H29.3226ZM22.9426 18.36C23.8079 18.36 24.5266 18.0667 25.0986 17.48C25.6706 16.8787 25.9566 16.0793 25.9566 15.082C25.9566 14.0847 25.6706 13.2927 25.0986 12.706C24.5266 12.1047 23.8079 11.804 22.9426 11.804C22.0626 11.804 21.3366 12.1047 20.7646 12.706C20.1926 13.2927 19.9066 14.0847 19.9066 15.082C19.9066 16.0793 20.1926 16.8787 20.7646 17.48C21.3366 18.0667 22.0626 18.36 22.9426 18.36ZM36.746 21.176C35.4113 21.176 34.37 20.824 33.622 20.12C32.874 19.4013 32.5 18.3893 32.5 17.084V4.676H35.932V16.886C35.932 17.3847 36.0567 17.7733 36.306 18.052C36.57 18.316 36.9367 18.448 37.406 18.448C37.582 18.448 37.758 18.426 37.934 18.382C38.1247 18.338 38.2713 18.2867 38.374 18.228L38.528 20.89C37.956 21.0807 37.362 21.176 36.746 21.176ZM45.9601 18.426C46.5761 18.426 47.1187 18.338 47.5881 18.162C48.0721 17.9713 48.5194 17.678 48.9301 17.282L50.7561 19.262C49.6414 20.538 48.0134 21.176 45.8721 21.176C44.5374 21.176 43.3567 20.9193 42.3301 20.406C41.3034 19.878 40.5114 19.152 39.9541 18.228C39.3967 17.304 39.1181 16.2553 39.1181 15.082C39.1181 13.9233 39.3894 12.882 39.9321 11.958C40.4894 11.0193 41.2447 10.2933 42.1981 9.78C43.1661 9.252 44.2514 8.988 45.4541 8.988C46.5834 8.988 47.6101 9.23 48.5341 9.714C49.4581 10.1833 50.1914 10.8727 50.7341 11.782C51.2914 12.6767 51.5701 13.74 51.5701 14.972L42.8141 16.666C43.0634 17.2527 43.4521 17.6927 43.9801 17.986C44.5227 18.2793 45.1827 18.426 45.9601 18.426ZM45.4541 11.584C44.5887 11.584 43.8847 11.8627 43.3421 12.42C42.7994 12.9773 42.5134 13.7473 42.4841 14.73L48.2481 13.608C48.0867 12.992 47.7567 12.5007 47.2581 12.134C46.7594 11.7673 46.1581 11.584 45.4541 11.584ZM61.071 8.988C62.5376 8.988 63.7183 9.428 64.613 10.308C65.5223 11.188 65.977 12.4933 65.977 14.224V21H62.545V14.752C62.545 13.8133 62.3396 13.1167 61.929 12.662C61.5183 12.1927 60.9243 11.958 60.147 11.958C59.2816 11.958 58.5923 12.2293 58.079 12.772C57.5656 13.3 57.309 14.092 57.309 15.148V21H53.877V9.164H57.155V10.55C57.6096 10.0513 58.1743 9.67 58.849 9.406C59.5236 9.12733 60.2643 8.988 61.071 8.988ZM81.2728 4.676V21H77.9948V19.636C77.1441 20.6627 75.9121 21.176 74.2988 21.176C73.1841 21.176 72.1721 20.9267 71.2628 20.428C70.3681 19.9293 69.6641 19.218 69.1508 18.294C68.6375 17.37 68.3808 16.2993 68.3808 15.082C68.3808 13.8647 68.6375 12.794 69.1508 11.87C69.6641 10.946 70.3681 10.2347 71.2628 9.736C72.1721 9.23733 73.1841 8.988 74.2988 8.988C75.8095 8.988 76.9901 9.46467 77.8408 10.418V4.676H81.2728ZM74.8928 18.36C75.7581 18.36 76.4768 18.0667 77.0488 17.48C77.6208 16.8787 77.9068 16.0793 77.9068 15.082C77.9068 14.0847 77.6208 13.2927 77.0488 12.706C76.4768 12.1047 75.7581 11.804 74.8928 11.804C74.0128 11.804 73.2868 12.1047 72.7148 12.706C72.1428 13.2927 71.8568 14.0847 71.8568 15.082C71.8568 16.0793 72.1428 16.8787 72.7148 17.48C73.2868 18.0667 74.0128 18.36 74.8928 18.36ZM96.4612 9.164V21H93.1832V19.636C92.3326 20.6627 91.1006 21.176 89.4872 21.176C88.3726 21.176 87.3606 20.9267 86.4512 20.428C85.5566 19.9293 84.8526 19.218 84.3392 18.294C83.8259 17.37 83.5692 16.2993 83.5692 15.082C83.5692 13.8647 83.8259 12.794 84.3392 11.87C84.8526 10.946 85.5566 10.2347 86.4512 9.736C87.3606 9.23733 88.3726 8.988 89.4872 8.988C90.9979 8.988 92.1786 9.46467 93.0292 10.418V9.164H96.4612ZM90.0812 18.36C90.9466 18.36 91.6652 18.0667 92.2372 17.48C92.8092 16.8787 93.0952 16.0793 93.0952 15.082C93.0952 14.0847 92.8092 13.2927 92.2372 12.706C91.6652 12.1047 90.9466 11.804 90.0812 11.804C89.2012 11.804 88.4752 12.1047 87.9032 12.706C87.3312 13.2927 87.0452 14.0847 87.0452 15.082C87.0452 16.0793 87.3312 16.8787 87.9032 17.48C88.4752 18.0667 89.2012 18.36 90.0812 18.36ZM102.917 10.726C103.327 10.154 103.877 9.72133 104.567 9.428C105.271 9.13467 106.077 8.988 106.987 8.988V12.156C106.605 12.1267 106.349 12.112 106.217 12.112C105.234 12.112 104.464 12.3907 103.907 12.948C103.349 13.4907 103.071 14.312 103.071 15.412V21H99.6387V9.164H102.917V10.726Z" fill="black"/>
<path d="M4.85857 62.18C4.02857 62.18 3.22357 62.07 2.44357 61.85C1.67357 61.62 1.05357 61.325 0.583574 60.965L1.40857 59.135C1.85857 59.465 2.39357 59.73 3.01357 59.93C3.63357 60.13 4.25357 60.23 4.87357 60.23C5.56357 60.23 6.07357 60.13 6.40357 59.93C6.73357 59.72 6.89857 59.445 6.89857 59.105C6.89857 58.855 6.79857 58.65 6.59857 58.49C6.40857 58.32 6.15857 58.185 5.84857 58.085C5.54857 57.985 5.13857 57.875 4.61857 57.755C3.81857 57.565 3.16357 57.375 2.65357 57.185C2.14357 56.995 1.70357 56.69 1.33357 56.27C0.973574 55.85 0.793574 55.29 0.793574 54.59C0.793574 53.98 0.958574 53.43 1.28857 52.94C1.61857 52.44 2.11357 52.045 2.77357 51.755C3.44357 51.465 4.25857 51.32 5.21857 51.32C5.88857 51.32 6.54357 51.4 7.18357 51.56C7.82357 51.72 8.38357 51.95 8.86357 52.25L8.11357 54.095C7.14357 53.545 6.17357 53.27 5.20357 53.27C4.52357 53.27 4.01857 53.38 3.68857 53.6C3.36857 53.82 3.20857 54.11 3.20857 54.47C3.20857 54.83 3.39357 55.1 3.76357 55.28C4.14357 55.45 4.71857 55.62 5.48857 55.79C6.28857 55.98 6.94357 56.17 7.45357 56.36C7.96357 56.55 8.39857 56.85 8.75857 57.26C9.12857 57.67 9.31357 58.225 9.31357 58.925C9.31357 59.525 9.14357 60.075 8.80357 60.575C8.47357 61.065 7.97357 61.455 7.30357 61.745C6.63357 62.035 5.81857 62.18 4.85857 62.18ZM18.714 57.995C18.714 58.025 18.699 58.235 18.669 58.625H12.564C12.674 59.125 12.934 59.52 13.344 59.81C13.754 60.1 14.264 60.245 14.874 60.245C15.294 60.245 15.664 60.185 15.984 60.065C16.314 59.935 16.619 59.735 16.899 59.465L18.144 60.815C17.384 61.685 16.274 62.12 14.814 62.12C13.904 62.12 13.099 61.945 12.399 61.595C11.699 61.235 11.159 60.74 10.779 60.11C10.399 59.48 10.209 58.765 10.209 57.965C10.209 57.175 10.394 56.465 10.764 55.835C11.144 55.195 11.659 54.7 12.309 54.35C12.969 53.99 13.704 53.81 14.514 53.81C15.304 53.81 16.019 53.98 16.659 54.32C17.299 54.66 17.799 55.15 18.159 55.79C18.529 56.42 18.714 57.155 18.714 57.995ZM14.529 55.58C13.999 55.58 13.554 55.73 13.194 56.03C12.834 56.33 12.614 56.74 12.534 57.26H16.509C16.429 56.75 16.209 56.345 15.849 56.045C15.489 55.735 15.049 55.58 14.529 55.58ZM25.0419 53.81C25.7919 53.81 26.4719 53.985 27.0819 54.335C27.7019 54.675 28.1869 55.16 28.5369 55.79C28.8869 56.41 29.0619 57.135 29.0619 57.965C29.0619 58.795 28.8869 59.525 28.5369 60.155C28.1869 60.775 27.7019 61.26 27.0819 61.61C26.4719 61.95 25.7919 62.12 25.0419 62.12C24.0119 62.12 23.2019 61.795 22.6119 61.145V64.91H20.2719V53.93H22.5069V54.86C23.0869 54.16 23.9319 53.81 25.0419 53.81ZM24.6369 60.2C25.2369 60.2 25.7269 60 26.1069 59.6C26.4969 59.19 26.6919 58.645 26.6919 57.965C26.6919 57.285 26.4969 56.745 26.1069 56.345C25.7269 55.935 25.2369 55.73 24.6369 55.73C24.0369 55.73 23.5419 55.935 23.1519 56.345C22.7719 56.745 22.5819 57.285 22.5819 57.965C22.5819 58.645 22.7719 59.19 23.1519 59.6C23.5419 60 24.0369 60.2 24.6369 60.2ZM35.8333 61.61C35.6033 61.78 35.3183 61.91 34.9783 62C34.6483 62.08 34.2983 62.12 33.9283 62.12C32.9683 62.12 32.2233 61.875 31.6933 61.385C31.1733 60.895 30.9133 60.175 30.9133 59.225V55.91H29.6683V54.11H30.9133V52.145H33.2533V54.11H35.2633V55.91H33.2533V59.195C33.2533 59.535 33.3383 59.8 33.5083 59.99C33.6883 60.17 33.9383 60.26 34.2583 60.26C34.6283 60.26 34.9433 60.16 35.2033 59.96L35.8333 61.61ZM37.1469 53.93H39.4869V62H37.1469V53.93ZM38.3169 52.805C37.8869 52.805 37.5369 52.68 37.2669 52.43C36.9969 52.18 36.8619 51.87 36.8619 51.5C36.8619 51.13 36.9969 50.82 37.2669 50.57C37.5369 50.32 37.8869 50.195 38.3169 50.195C38.7469 50.195 39.0969 50.315 39.3669 50.555C39.6369 50.795 39.7719 51.095 39.7719 51.455C39.7719 51.845 39.6369 52.17 39.3669 52.43C39.0969 52.68 38.7469 52.805 38.3169 52.805ZM49.5636 57.995C49.5636 58.025 49.5486 58.235 49.5186 58.625H43.4136C43.5236 59.125 43.7836 59.52 44.1936 59.81C44.6036 60.1 45.1136 60.245 45.7236 60.245C46.1436 60.245 46.5136 60.185 46.8336 60.065C47.1636 59.935 47.4686 59.735 47.7486 59.465L48.9936 60.815C48.2336 61.685 47.1236 62.12 45.6636 62.12C44.7536 62.12 43.9486 61.945 43.2486 61.595C42.5486 61.235 42.0086 60.74 41.6286 60.11C41.2486 59.48 41.0586 58.765 41.0586 57.965C41.0586 57.175 41.2436 56.465 41.6136 55.835C41.9936 55.195 42.5086 54.7 43.1586 54.35C43.8186 53.99 44.5536 53.81 45.3636 53.81C46.1536 53.81 46.8686 53.98 47.5086 54.32C48.1486 54.66 48.6486 55.15 49.0086 55.79C49.3786 56.42 49.5636 57.155 49.5636 57.995ZM45.3786 55.58C44.8486 55.58 44.4036 55.73 44.0436 56.03C43.6836 56.33 43.4636 56.74 43.3836 57.26H47.3586C47.2786 56.75 47.0586 56.345 46.6986 56.045C46.3386 55.735 45.8986 55.58 45.3786 55.58ZM61.4565 53.81C62.4665 53.81 63.2665 54.11 63.8565 54.71C64.4565 55.3 64.7565 56.19 64.7565 57.38V62H62.4165V57.74C62.4165 57.1 62.2815 56.625 62.0115 56.315C61.7515 55.995 61.3765 55.835 60.8865 55.835C60.3365 55.835 59.9015 56.015 59.5815 56.375C59.2615 56.725 59.1015 57.25 59.1015 57.95V62H56.7615V57.74C56.7615 56.47 56.2515 55.835 55.2315 55.835C54.6915 55.835 54.2615 56.015 53.9415 56.375C53.6215 56.725 53.4615 57.25 53.4615 57.95V62H51.1215V53.93H53.3565V54.86C53.6565 54.52 54.0215 54.26 54.4515 54.08C54.8915 53.9 55.3715 53.81 55.8915 53.81C56.4615 53.81 56.9765 53.925 57.4365 54.155C57.8965 54.375 58.2665 54.7 58.5465 55.13C58.8765 54.71 59.2915 54.385 59.7915 54.155C60.3015 53.925 60.8565 53.81 61.4565 53.81ZM71.6239 53.81C72.3739 53.81 73.0539 53.985 73.6639 54.335C74.2839 54.675 74.7689 55.16 75.1189 55.79C75.4689 56.41 75.6439 57.135 75.6439 57.965C75.6439 58.795 75.4689 59.525 75.1189 60.155C74.7689 60.775 74.2839 61.26 73.6639 61.61C73.0539 61.95 72.3739 62.12 71.6239 62.12C70.5139 62.12 69.6689 61.77 69.0889 61.07V62H66.8539V50.87H69.1939V54.785C69.7839 54.135 70.5939 53.81 71.6239 53.81ZM71.2189 60.2C71.8189 60.2 72.3089 60 72.6889 59.6C73.0789 59.19 73.2739 58.645 73.2739 57.965C73.2739 57.285 73.0789 56.745 72.6889 56.345C72.3089 55.935 71.8189 55.73 71.2189 55.73C70.6189 55.73 70.1239 55.935 69.7339 56.345C69.3539 56.745 69.1639 57.285 69.1639 57.965C69.1639 58.645 69.3539 59.19 69.7339 59.6C70.1239 60 70.6189 60.2 71.2189 60.2ZM79.4454 54.995C79.7254 54.605 80.1004 54.31 80.5704 54.11C81.0504 53.91 81.6004 53.81 82.2204 53.81V55.97C81.9604 55.95 81.7854 55.94 81.6954 55.94C81.0254 55.94 80.5004 56.13 80.1204 56.51C79.7404 56.88 79.5504 57.44 79.5504 58.19V62H77.2104V53.93H79.4454V54.995ZM91.4435 57.995C91.4435 58.025 91.4285 58.235 91.3985 58.625H85.2935C85.4035 59.125 85.6635 59.52 86.0735 59.81C86.4835 60.1 86.9935 60.245 87.6035 60.245C88.0235 60.245 88.3935 60.185 88.7135 60.065C89.0435 59.935 89.3485 59.735 89.6285 59.465L90.8735 60.815C90.1135 61.685 89.0035 62.12 87.5435 62.12C86.6335 62.12 85.8285 61.945 85.1285 61.595C84.4285 61.235 83.8885 60.74 83.5085 60.11C83.1285 59.48 82.9385 58.765 82.9385 57.965C82.9385 57.175 83.1235 56.465 83.4935 55.835C83.8735 55.195 84.3885 54.7 85.0385 54.35C85.6985 53.99 86.4335 53.81 87.2435 53.81C88.0335 53.81 88.7485 53.98 89.3885 54.32C90.0285 54.66 90.5285 55.15 90.8885 55.79C91.2585 56.42 91.4435 57.155 91.4435 57.995ZM87.2585 55.58C86.7285 55.58 86.2835 55.73 85.9235 56.03C85.5635 56.33 85.3435 56.74 85.2635 57.26H89.2385C89.1585 56.75 88.9385 56.345 88.5785 56.045C88.2185 55.735 87.7785 55.58 87.2585 55.58ZM96.9494 56.84H101.194V58.715H96.9494V56.84ZM114.634 60.02V62H106.699V60.425L110.749 56.6C111.179 56.19 111.469 55.84 111.619 55.55C111.769 55.25 111.844 54.955 111.844 54.665C111.844 54.245 111.699 53.925 111.409 53.705C111.129 53.475 110.714 53.36 110.164 53.36C109.704 53.36 109.289 53.45 108.919 53.63C108.549 53.8 108.239 54.06 107.989 54.41L106.219 53.27C106.629 52.66 107.194 52.185 107.914 51.845C108.634 51.495 109.459 51.32 110.389 51.32C111.169 51.32 111.849 51.45 112.429 51.71C113.019 51.96 113.474 52.32 113.794 52.79C114.124 53.25 114.289 53.795 114.289 54.425C114.289 54.995 114.169 55.53 113.929 56.03C113.689 56.53 113.224 57.1 112.534 57.74L110.119 60.02H114.634ZM120.107 62.18C119.237 62.18 118.462 61.965 117.782 61.535C117.102 61.105 116.567 60.485 116.177 59.675C115.797 58.855 115.607 57.88 115.607 56.75C115.607 55.62 115.797 54.65 116.177 53.84C116.567 53.02 117.102 52.395 117.782 51.965C118.462 51.535 119.237 51.32 120.107 51.32C120.977 51.32 121.752 51.535 122.432 51.965C123.112 52.395 123.642 53.02 124.022 53.84C124.412 54.65 124.607 55.62 124.607 56.75C124.607 57.88 124.412 58.855 124.022 59.675C123.642 60.485 123.112 61.105 122.432 61.535C121.752 61.965 120.977 62.18 120.107 62.18ZM120.107 60.125C120.747 60.125 121.247 59.85 121.607 59.3C121.977 58.75 122.162 57.9 122.162 56.75C122.162 55.6 121.977 54.75 121.607 54.2C121.247 53.65 120.747 53.375 120.107 53.375C119.477 53.375 118.977 53.65 118.607 54.2C118.247 54.75 118.067 55.6 118.067 56.75C118.067 57.9 118.247 58.75 118.607 59.3C118.977 59.85 119.477 60.125 120.107 60.125ZM133.545 60.02V62H125.61V60.425L129.66 56.6C130.09 56.19 130.38 55.84 130.53 55.55C130.68 55.25 130.755 54.955 130.755 54.665C130.755 54.245 130.61 53.925 130.32 53.705C130.04 53.475 129.625 53.36 129.075 53.36C128.615 53.36 128.2 53.45 127.83 53.63C127.46 53.8 127.15 54.06 126.9 54.41L125.13 53.27C125.54 52.66 126.105 52.185 126.825 51.845C127.545 51.495 128.37 51.32 129.3 51.32C130.08 51.32 130.76 51.45 131.34 51.71C131.93 51.96 132.385 52.32 132.705 52.79C133.035 53.25 133.2 53.795 133.2 54.425C133.2 54.995 133.08 55.53 132.84 56.03C132.6 56.53 132.135 57.1 131.445 57.74L129.03 60.02H133.545ZM138.597 51.5V62H136.167V53.45H134.067V51.5H138.597Z" fill="black"/>
<path d="M4.03897 80.6H7.85497C8.76697 80.6 9.57097 80.776 10.267 81.128C10.971 81.472 11.515 81.96 11.899 82.592C12.291 83.224 12.487 83.96 12.487 84.8C12.487 85.64 12.291 86.376 11.899 87.008C11.515 87.64 10.971 88.132 10.267 88.484C9.57097 88.828 8.76697 89 7.85497 89H4.03897V80.6ZM7.75897 87.404C8.59897 87.404 9.26697 87.172 9.76297 86.708C10.267 86.236 10.519 85.6 10.519 84.8C10.519 84 10.267 83.368 9.76297 82.904C9.26697 82.432 8.59897 82.196 7.75897 82.196H5.98297V87.404H7.75897Z" fill="#7C4EFF"/>
<path d="M103.784 107.6V116H102.92V108.368H100.94V107.6H103.784Z" fill="black"/>
<path d="M57.0188 144.6V145.212L53.5028 153H52.5668L56.0228 145.368H51.7028V146.94H50.8508V144.6H57.0188Z" fill="black"/>
<path d="M8.44775 147.972C8.99975 147.972 9.48775 148.076 9.91175 148.284C10.3438 148.492 10.6798 148.788 10.9198 149.172C11.1598 149.548 11.2798 149.988 11.2798 150.492C11.2798 151.004 11.1558 151.456 10.9078 151.848C10.6598 152.24 10.3158 152.544 9.87575 152.76C9.44375 152.968 8.95575 153.072 8.41175 153.072C7.29975 153.072 6.44775 152.708 5.85575 151.98C5.26375 151.244 4.96775 150.208 4.96775 148.872C4.96775 147.936 5.12775 147.144 5.44775 146.496C5.76775 145.848 6.21575 145.36 6.79175 145.032C7.36775 144.696 8.03975 144.528 8.80775 144.528C9.63975 144.528 10.3038 144.68 10.7998 144.984L10.4518 145.68C10.0518 145.416 9.50775 145.284 8.81975 145.284C7.89175 145.284 7.16375 145.58 6.63575 146.172C6.10775 146.756 5.84375 147.608 5.84375 148.728C5.84375 148.928 5.85575 149.156 5.87975 149.412C6.08775 148.956 6.41975 148.604 6.87575 148.356C7.33175 148.1 7.85575 147.972 8.44775 147.972ZM8.37575 152.34C8.98375 152.34 9.47575 152.176 9.85175 151.848C10.2358 151.512 10.4278 151.068 10.4278 150.516C10.4278 149.964 10.2358 149.524 9.85175 149.196C9.47575 148.868 8.96375 148.704 8.31575 148.704C7.89175 148.704 7.51575 148.784 7.18775 148.944C6.86775 149.104 6.61575 149.324 6.43175 149.604C6.24775 149.884 6.15575 150.196 6.15575 150.54C6.15575 150.86 6.23975 151.156 6.40775 151.428C6.58375 151.7 6.83975 151.92 7.17575 152.088C7.51175 152.256 7.91175 152.34 8.37575 152.34Z" fill="black"/>
<path d="M51.3172 182.6V191H50.4532V183.368H48.4732V182.6H51.3172ZM60.4652 188.792H58.7852V191H57.9212V188.792H53.1812V188.168L57.6332 182.6H58.5932L54.2972 188.024H57.9452V186.08H58.7852V188.024H60.4652V188.792Z" fill="black"/>
<path d="M6.39731 182.6V191H5.53331V183.368H3.55331V182.6H6.39731ZM11.2613 186.2C12.1413 186.248 12.8093 186.488 13.2653 186.92C13.7293 187.344 13.9613 187.9 13.9613 188.588C13.9613 189.068 13.8453 189.496 13.6133 189.872C13.3813 190.24 13.0373 190.532 12.5813 190.748C12.1253 190.964 11.5693 191.072 10.9133 191.072C10.3053 191.072 9.72925 190.976 9.18525 190.784C8.64925 190.584 8.21725 190.32 7.88925 189.992L8.30925 189.308C8.58925 189.596 8.96125 189.832 9.42525 190.016C9.88925 190.192 10.3853 190.28 10.9133 190.28C11.6013 190.28 12.1333 190.132 12.5093 189.836C12.8853 189.532 13.0733 189.116 13.0733 188.588C13.0733 188.068 12.8853 187.66 12.5093 187.364C12.1333 187.068 11.5653 186.92 10.8053 186.92H10.2053V186.284L12.5333 183.368H8.23725V182.6H13.6373V183.212L11.2613 186.2Z" fill="black"/>
<path d="M54.7819 232.232V233H48.8899V232.388L52.3819 228.968C52.8219 228.536 53.1179 228.164 53.2699 227.852C53.4299 227.532 53.5099 227.212 53.5099 226.892C53.5099 226.396 53.3379 226.012 52.9939 225.74C52.6579 225.46 52.1739 225.32 51.5419 225.32C50.5579 225.32 49.7939 225.632 49.2499 226.256L48.6379 225.728C48.9659 225.344 49.3819 225.048 49.8859 224.84C50.3979 224.632 50.9739 224.528 51.6139 224.528C52.4699 224.528 53.1459 224.732 53.6419 225.14C54.1459 225.54 54.3979 226.092 54.3979 226.796C54.3979 227.228 54.3019 227.644 54.1099 228.044C53.9179 228.444 53.5539 228.904 53.0179 229.424L50.1619 232.232H54.7819ZM58.1942 224.6V233H57.3302V225.368H55.3502V224.6H58.1942Z" fill="black"/>
<path d="M7.50063 232.232V233H1.60863V232.388L5.10063 228.968C5.54063 228.536 5.83663 228.164 5.98863 227.852C6.14863 227.532 6.22863 227.212 6.22863 226.892C6.22863 226.396 6.05663 226.012 5.71263 225.74C5.37663 225.46 4.89263 225.32 4.26063 225.32C3.27663 225.32 2.51263 225.632 1.96863 226.256L1.35663 225.728C1.68463 225.344 2.10063 225.048 2.60463 224.84C3.11663 224.632 3.69263 224.528 4.33263 224.528C5.18863 224.528 5.86463 224.732 6.36063 225.14C6.86463 225.54 7.11663 226.092 7.11663 226.796C7.11663 227.228 7.02063 227.644 6.82863 228.044C6.63663 228.444 6.27263 228.904 5.73663 229.424L2.88063 232.232H7.50063ZM11.8861 233.072C11.2381 233.072 10.6581 232.9 10.1461 232.556C9.64206 232.212 9.24606 231.72 8.95806 231.08C8.67806 230.432 8.53806 229.672 8.53806 228.8C8.53806 227.928 8.67806 227.172 8.95806 226.532C9.24606 225.884 9.64206 225.388 10.1461 225.044C10.6581 224.7 11.2381 224.528 11.8861 224.528C12.5341 224.528 13.1101 224.7 13.6141 225.044C14.1261 225.388 14.5261 225.884 14.8141 226.532C15.1021 227.172 15.2461 227.928 15.2461 228.8C15.2461 229.672 15.1021 230.432 14.8141 231.08C14.5261 231.72 14.1261 232.212 13.6141 232.556C13.1101 232.9 12.5341 233.072 11.8861 233.072ZM11.8861 232.28C12.3741 232.28 12.8021 232.144 13.1701 231.872C13.5461 231.6 13.8381 231.204 14.0461 230.684C14.2541 230.164 14.3581 229.536 14.3581 228.8C14.3581 228.064 14.2541 227.436 14.0461 226.916C13.8381 226.396 13.5461 226 13.1701 225.728C12.8021 225.456 12.3741 225.32 11.8861 225.32C11.3981 225.32 10.9661 225.456 10.5901 225.728C10.2221 226 9.93406 226.396 9.72606 226.916C9.51806 227.436 9.41406 228.064 9.41406 228.8C9.41406 229.536 9.51806 230.164 9.72606 230.684C9.93406 231.204 10.2221 231.6 10.5901 231.872C10.9661 232.144 11.3981 232.28 11.8861 232.28Z" fill="black"/>
<path d="M155.95 115.232V116H150.058V115.388L153.55 111.968C153.99 111.536 154.286 111.164 154.438 110.852C154.598 110.532 154.678 110.212 154.678 109.892C154.678 109.396 154.506 109.012 154.162 108.74C153.826 108.46 153.342 108.32 152.71 108.32C151.726 108.32 150.962 108.632 150.418 109.256L149.806 108.728C150.134 108.344 150.55 108.048 151.054 107.84C151.566 107.632 152.142 107.528 152.782 107.528C153.638 107.528 154.314 107.732 154.81 108.14C155.314 108.54 155.566 109.092 155.566 109.796C155.566 110.228 155.47 110.644 155.278 111.044C155.086 111.444 154.722 111.904 154.186 112.424L151.33 115.232H155.95Z" fill="black"/>
<path d="M200.093 111.2C200.973 111.248 201.641 111.488 202.097 111.92C202.561 112.344 202.793 112.9 202.793 113.588C202.793 114.068 202.677 114.496 202.445 114.872C202.213 115.24 201.869 115.532 201.413 115.748C200.957 115.964 200.401 116.072 199.745 116.072C199.137 116.072 198.561 115.976 198.017 115.784C197.481 115.584 197.049 115.32 196.721 114.992L197.141 114.308C197.421 114.596 197.793 114.832 198.257 115.016C198.721 115.192 199.217 115.28 199.745 115.28C200.433 115.28 200.965 115.132 201.341 114.836C201.717 114.532 201.905 114.116 201.905 113.588C201.905 113.068 201.717 112.66 201.341 112.364C200.965 112.068 200.397 111.92 199.637 111.92H199.037V111.284L201.365 108.368H197.069V107.6H202.469V108.212L200.093 111.2Z" fill="black"/>
<path d="M249.797 113.792H248.117V116H247.253V113.792H242.513V113.168L246.965 107.6H247.925L243.629 113.024H247.277V111.08H248.117V113.024H249.797V113.792Z" fill="black"/>
<path d="M291.434 111.044C292.65 111.044 293.534 111.264 294.086 111.704C294.646 112.136 294.926 112.744 294.926 113.528C294.926 114.016 294.81 114.452 294.578 114.836C294.354 115.22 294.014 115.524 293.558 115.748C293.102 115.964 292.542 116.072 291.878 116.072C291.278 116.072 290.706 115.976 290.162 115.784C289.626 115.584 289.194 115.32 288.866 114.992L289.286 114.308C289.566 114.596 289.934 114.832 290.39 115.016C290.846 115.192 291.338 115.28 291.866 115.28C292.562 115.28 293.098 115.124 293.474 114.812C293.858 114.5 294.05 114.084 294.05 113.564C294.05 112.988 293.834 112.552 293.402 112.256C292.978 111.96 292.258 111.812 291.242 111.812H289.454L289.886 107.6H294.482V108.368H290.642L290.354 111.044H291.434Z" fill="black"/>
<path d="M105.11 148.596C105.638 148.772 106.042 149.036 106.322 149.388C106.61 149.74 106.754 150.164 106.754 150.66C106.754 151.148 106.622 151.576 106.358 151.944C106.094 152.304 105.714 152.584 105.218 152.784C104.73 152.976 104.154 153.072 103.49 153.072C102.482 153.072 101.69 152.856 101.114 152.424C100.538 151.992 100.25 151.404 100.25 150.66C100.25 150.156 100.386 149.732 100.658 149.388C100.938 149.036 101.342 148.772 101.87 148.596C101.438 148.428 101.11 148.188 100.886 147.876C100.662 147.556 100.55 147.18 100.55 146.748C100.55 146.068 100.814 145.528 101.342 145.128C101.878 144.728 102.594 144.528 103.49 144.528C104.082 144.528 104.598 144.62 105.038 144.804C105.486 144.98 105.834 145.236 106.082 145.572C106.33 145.908 106.454 146.3 106.454 146.748C106.454 147.18 106.338 147.556 106.106 147.876C105.874 148.188 105.542 148.428 105.11 148.596ZM101.414 146.772C101.414 147.236 101.598 147.604 101.966 147.876C102.334 148.148 102.842 148.284 103.49 148.284C104.138 148.284 104.646 148.148 105.014 147.876C105.39 147.604 105.578 147.24 105.578 146.784C105.578 146.312 105.386 145.94 105.002 145.668C104.626 145.396 104.122 145.26 103.49 145.26C102.85 145.26 102.342 145.396 101.966 145.668C101.598 145.94 101.414 146.308 101.414 146.772ZM103.49 152.34C104.234 152.34 104.814 152.188 105.23 151.884C105.654 151.58 105.866 151.168 105.866 150.648C105.866 150.128 105.654 149.72 105.23 149.424C104.814 149.12 104.234 148.968 103.49 148.968C102.754 148.968 102.174 149.12 101.75 149.424C101.334 149.72 101.126 150.128 101.126 150.648C101.126 151.176 101.334 151.592 101.75 151.896C102.166 152.192 102.746 152.34 103.49 152.34Z" fill="black"/>
<path d="M153.084 144.528C154.196 144.528 155.048 144.896 155.64 145.632C156.232 146.36 156.528 147.392 156.528 148.728C156.528 149.664 156.368 150.456 156.048 151.104C155.728 151.752 155.28 152.244 154.704 152.58C154.128 152.908 153.456 153.072 152.688 153.072C151.856 153.072 151.192 152.92 150.696 152.616L151.044 151.92C151.444 152.184 151.988 152.316 152.676 152.316C153.604 152.316 154.332 152.024 154.86 151.44C155.388 150.848 155.652 149.992 155.652 148.872C155.652 148.664 155.64 148.436 155.616 148.188C155.408 148.644 155.076 149 154.62 149.256C154.164 149.504 153.64 149.628 153.048 149.628C152.496 149.628 152.004 149.524 151.572 149.316C151.148 149.108 150.816 148.816 150.576 148.44C150.336 148.056 150.216 147.612 150.216 147.108C150.216 146.596 150.34 146.144 150.588 145.752C150.836 145.36 151.176 145.06 151.608 144.852C152.048 144.636 152.54 144.528 153.084 144.528ZM153.18 148.896C153.604 148.896 153.976 148.816 154.296 148.656C154.624 148.496 154.88 148.276 155.064 147.996C155.248 147.716 155.34 147.404 155.34 147.06C155.34 146.74 155.252 146.444 155.076 146.172C154.908 145.9 154.656 145.68 154.32 145.512C153.984 145.344 153.584 145.26 153.12 145.26C152.512 145.26 152.016 145.428 151.632 145.764C151.256 146.092 151.068 146.532 151.068 147.084C151.068 147.636 151.256 148.076 151.632 148.404C152.016 148.732 152.532 148.896 153.18 148.896Z" fill="black"/>
<path d="M196.811 144.6V153H195.947V145.368H193.967V144.6H196.811ZM202.167 153.072C201.519 153.072 200.939 152.9 200.427 152.556C199.923 152.212 199.527 151.72 199.239 151.08C198.959 150.432 198.819 149.672 198.819 148.8C198.819 147.928 198.959 147.172 199.239 146.532C199.527 145.884 199.923 145.388 200.427 145.044C200.939 144.7 201.519 144.528 202.167 144.528C202.815 144.528 203.391 144.7 203.895 145.044C204.407 145.388 204.807 145.884 205.095 146.532C205.383 147.172 205.527 147.928 205.527 148.8C205.527 149.672 205.383 150.432 205.095 151.08C204.807 151.72 204.407 152.212 203.895 152.556C203.391 152.9 202.815 153.072 202.167 153.072ZM202.167 152.28C202.655 152.28 203.083 152.144 203.451 151.872C203.827 151.6 204.119 151.204 204.327 150.684C204.535 150.164 204.639 149.536 204.639 148.8C204.639 148.064 204.535 147.436 204.327 146.916C204.119 146.396 203.827 146 203.451 145.728C203.083 145.456 202.655 145.32 202.167 145.32C201.679 145.32 201.247 145.456 200.871 145.728C200.503 146 200.215 146.396 200.007 146.916C199.799 147.436 199.695 148.064 199.695 148.8C199.695 149.536 199.799 150.164 200.007 150.684C200.215 151.204 200.503 151.6 200.871 151.872C201.247 152.144 201.679 152.28 202.167 152.28Z" fill="black"/>
<path d="M244.616 144.6V153H243.752V145.368H241.772V144.6H244.616ZM248.952 144.6V153H248.088V145.368H246.108V144.6H248.952Z" fill="black"/>
<path d="M289.874 144.6V153H289.01V145.368H287.03V144.6H289.874ZM297.618 152.232V153H291.726V152.388L295.218 148.968C295.658 148.536 295.954 148.164 296.106 147.852C296.266 147.532 296.346 147.212 296.346 146.892C296.346 146.396 296.174 146.012 295.83 145.74C295.494 145.46 295.01 145.32 294.378 145.32C293.394 145.32 292.63 145.632 292.086 146.256L291.474 145.728C291.802 145.344 292.218 145.048 292.722 144.84C293.234 144.632 293.81 144.528 294.45 144.528C295.306 144.528 295.982 144.732 296.478 145.14C296.982 145.54 297.234 146.092 297.234 146.796C297.234 147.228 297.138 147.644 296.946 148.044C296.754 148.444 296.39 148.904 295.854 149.424L292.998 152.232H297.618Z" fill="black"/>
<path d="M100.79 182.6V191H98.846V184.16H97.166V182.6H100.79ZM105.129 185.756C106.313 185.756 107.185 185.992 107.745 186.464C108.313 186.936 108.597 187.568 108.597 188.36C108.597 188.872 108.469 189.34 108.213 189.764C107.957 190.18 107.565 190.516 107.037 190.772C106.517 191.02 105.873 191.144 105.105 191.144C104.513 191.144 103.929 191.068 103.353 190.916C102.785 190.756 102.301 190.532 101.901 190.244L102.669 188.756C102.989 188.996 103.357 189.184 103.773 189.32C104.189 189.448 104.617 189.512 105.057 189.512C105.545 189.512 105.929 189.416 106.209 189.224C106.489 189.032 106.629 188.764 106.629 188.42C106.629 188.06 106.481 187.788 106.185 187.604C105.897 187.42 105.393 187.328 104.673 187.328H102.525L102.957 182.6H108.081V184.16H104.577L104.445 185.756H105.129Z" fill="white"/>
<path d="M150.128 182.6V191H149.264V183.368H147.284V182.6H150.128ZM155.616 185.972C156.168 185.972 156.656 186.076 157.08 186.284C157.512 186.492 157.848 186.788 158.088 187.172C158.328 187.548 158.448 187.988 158.448 188.492C158.448 189.004 158.324 189.456 158.076 189.848C157.828 190.24 157.484 190.544 157.044 190.76C156.612 190.968 156.124 191.072 155.58 191.072C154.468 191.072 153.616 190.708 153.024 189.98C152.432 189.244 152.136 188.208 152.136 186.872C152.136 185.936 152.296 185.144 152.616 184.496C152.936 183.848 153.384 183.36 153.96 183.032C154.536 182.696 155.208 182.528 155.976 182.528C156.808 182.528 157.472 182.68 157.968 182.984L157.62 183.68C157.22 183.416 156.676 183.284 155.988 183.284C155.06 183.284 154.332 183.58 153.804 184.172C153.276 184.756 153.012 185.608 153.012 186.728C153.012 186.928 153.024 187.156 153.048 187.412C153.256 186.956 153.588 186.604 154.044 186.356C154.5 186.1 155.024 185.972 155.616 185.972ZM155.544 190.34C156.152 190.34 156.644 190.176 157.02 189.848C157.404 189.512 157.596 189.068 157.596 188.516C157.596 187.964 157.404 187.524 157.02 187.196C156.644 186.868 156.132 186.704 155.484 186.704C155.06 186.704 154.684 186.784 154.356 186.944C154.036 187.104 153.784 187.324 153.6 187.604C153.416 187.884 153.324 188.196 153.324 188.54C153.324 188.86 153.408 189.156 153.576 189.428C153.752 189.7 154.008 189.92 154.344 190.088C154.68 190.256 155.08 190.34 155.544 190.34Z" fill="black"/>
<path d="M197.251 182.6V191H196.387V183.368H194.407V182.6H197.251ZM205.187 182.6V183.212L201.671 191H200.735L204.191 183.368H199.871V184.94H199.019V182.6H205.187Z" fill="black"/>
<path d="M242.958 182.6V191H242.094V183.368H240.114V182.6H242.958ZM249.778 186.596C250.306 186.772 250.71 187.036 250.99 187.388C251.278 187.74 251.422 188.164 251.422 188.66C251.422 189.148 251.29 189.576 251.026 189.944C250.762 190.304 250.382 190.584 249.886 190.784C249.398 190.976 248.822 191.072 248.158 191.072C247.15 191.072 246.358 190.856 245.782 190.424C245.206 189.992 244.918 189.404 244.918 188.66C244.918 188.156 245.054 187.732 245.326 187.388C245.606 187.036 246.01 186.772 246.538 186.596C246.106 186.428 245.778 186.188 245.554 185.876C245.33 185.556 245.218 185.18 245.218 184.748C245.218 184.068 245.482 183.528 246.01 183.128C246.546 182.728 247.262 182.528 248.158 182.528C248.75 182.528 249.266 182.62 249.706 182.804C250.154 182.98 250.502 183.236 250.75 183.572C250.998 183.908 251.122 184.3 251.122 184.748C251.122 185.18 251.006 185.556 250.774 185.876C250.542 186.188 250.21 186.428 249.778 186.596ZM246.082 184.772C246.082 185.236 246.266 185.604 246.634 185.876C247.002 186.148 247.51 186.284 248.158 186.284C248.806 186.284 249.314 186.148 249.682 185.876C250.058 185.604 250.246 185.24 250.246 184.784C250.246 184.312 250.054 183.94 249.67 183.668C249.294 183.396 248.79 183.26 248.158 183.26C247.518 183.26 247.01 183.396 246.634 183.668C246.266 183.94 246.082 184.308 246.082 184.772ZM248.158 190.34C248.902 190.34 249.482 190.188 249.898 189.884C250.322 189.58 250.534 189.168 250.534 188.648C250.534 188.128 250.322 187.72 249.898 187.424C249.482 187.12 248.902 186.968 248.158 186.968C247.422 186.968 246.842 187.12 246.418 187.424C246.002 187.72 245.794 188.128 245.794 188.648C245.794 189.176 246.002 189.592 246.418 189.896C246.834 190.192 247.414 190.34 248.158 190.34Z" fill="black"/>
<path d="M289.628 182.6V191H288.764V183.368H286.784V182.6H289.628ZM294.252 182.528C295.364 182.528 296.216 182.896 296.808 183.632C297.4 184.36 297.696 185.392 297.696 186.728C297.696 187.664 297.536 188.456 297.216 189.104C296.896 189.752 296.448 190.244 295.872 190.58C295.296 190.908 294.624 191.072 293.856 191.072C293.024 191.072 292.36 190.92 291.864 190.616L292.212 189.92C292.612 190.184 293.156 190.316 293.844 190.316C294.772 190.316 295.5 190.024 296.028 189.44C296.556 188.848 296.82 187.992 296.82 186.872C296.82 186.664 296.808 186.436 296.784 186.188C296.576 186.644 296.244 187 295.788 187.256C295.332 187.504 294.808 187.628 294.216 187.628C293.664 187.628 293.172 187.524 292.74 187.316C292.316 187.108 291.984 186.816 291.744 186.44C291.504 186.056 291.384 185.612 291.384 185.108C291.384 184.596 291.508 184.144 291.756 183.752C292.004 183.36 292.344 183.06 292.776 182.852C293.216 182.636 293.708 182.528 294.252 182.528ZM294.348 186.896C294.772 186.896 295.144 186.816 295.464 186.656C295.792 186.496 296.048 186.276 296.232 185.996C296.416 185.716 296.508 185.404 296.508 185.06C296.508 184.74 296.42 184.444 296.244 184.172C296.076 183.9 295.824 183.68 295.488 183.512C295.152 183.344 294.752 183.26 294.288 183.26C293.68 183.26 293.184 183.428 292.8 183.764C292.424 184.092 292.236 184.532 292.236 185.084C292.236 185.636 292.424 186.076 292.8 186.404C293.184 186.732 293.7 186.896 294.348 186.896Z" fill="black"/>
<path d="M102.54 232.232V233H96.6477V232.388L100.14 228.968C100.58 228.536 100.876 228.164 101.028 227.852C101.188 227.532 101.268 227.212 101.268 226.892C101.268 226.396 101.096 226.012 100.752 225.74C100.416 225.46 99.9317 225.32 99.2997 225.32C98.3157 225.32 97.5517 225.632 97.0077 226.256L96.3957 225.728C96.7237 225.344 97.1397 225.048 97.6437 224.84C98.1557 224.632 98.7317 224.528 99.3717 224.528C100.228 224.528 100.904 224.732 101.4 225.14C101.904 225.54 102.156 226.092 102.156 226.796C102.156 227.228 102.06 227.644 101.868 228.044C101.676 228.444 101.312 228.904 100.776 229.424L97.9197 232.232H102.54ZM109.36 232.232V233H103.468V232.388L106.96 228.968C107.4 228.536 107.696 228.164 107.848 227.852C108.008 227.532 108.088 227.212 108.088 226.892C108.088 226.396 107.916 226.012 107.572 225.74C107.236 225.46 106.752 225.32 106.12 225.32C105.136 225.32 104.372 225.632 103.828 226.256L103.216 225.728C103.544 225.344 103.96 225.048 104.464 224.84C104.976 224.632 105.552 224.528 106.192 224.528C107.048 224.528 107.724 224.732 108.22 225.14C108.724 225.54 108.976 226.092 108.976 226.796C108.976 227.228 108.88 227.644 108.688 228.044C108.496 228.444 108.132 228.904 107.596 229.424L104.74 232.232H109.36Z" fill="black"/>
<path d="M152.563 232.232V233H146.671V232.388L150.163 228.968C150.603 228.536 150.899 228.164 151.051 227.852C151.211 227.532 151.291 227.212 151.291 226.892C151.291 226.396 151.119 226.012 150.775 225.74C150.439 225.46 149.955 225.32 149.323 225.32C148.339 225.32 147.575 225.632 147.031 226.256L146.419 225.728C146.747 225.344 147.163 225.048 147.667 224.84C148.179 224.632 148.755 224.528 149.395 224.528C150.251 224.528 150.927 224.732 151.423 225.14C151.927 225.54 152.179 226.092 152.179 226.796C152.179 227.228 152.083 227.644 151.891 228.044C151.699 228.444 151.335 228.904 150.799 229.424L147.943 232.232H152.563ZM156.503 228.2C157.383 228.248 158.051 228.488 158.507 228.92C158.971 229.344 159.203 229.9 159.203 230.588C159.203 231.068 159.087 231.496 158.855 231.872C158.623 232.24 158.279 232.532 157.823 232.748C157.367 232.964 156.811 233.072 156.155 233.072C155.547 233.072 154.971 232.976 154.427 232.784C153.891 232.584 153.459 232.32 153.131 231.992L153.551 231.308C153.831 231.596 154.203 231.832 154.667 232.016C155.131 232.192 155.627 232.28 156.155 232.28C156.843 232.28 157.375 232.132 157.751 231.836C158.127 231.532 158.315 231.116 158.315 230.588C158.315 230.068 158.127 229.66 157.751 229.364C157.375 229.068 156.807 228.92 156.047 228.92H155.447V228.284L157.775 225.368H153.479V224.6H158.879V225.212L156.503 228.2Z" fill="black"/>
<path d="M53.6237 273.232V274H47.7317V273.388L51.2237 269.968C51.6637 269.536 51.9597 269.164 52.1117 268.852C52.2717 268.532 52.3517 268.212 52.3517 267.892C52.3517 267.396 52.1797 267.012 51.8357 266.74C51.4997 266.46 51.0157 266.32 50.3837 266.32C49.3997 266.32 48.6357 266.632 48.0917 267.256L47.4797 266.728C47.8077 266.344 48.2237 266.048 48.7277 265.84C49.2397 265.632 49.8157 265.528 50.4557 265.528C51.3117 265.528 51.9877 265.732 52.4837 266.14C52.9877 266.54 53.2397 267.092 53.2397 267.796C53.2397 268.228 53.1437 268.644 52.9517 269.044C52.7597 269.444 52.3957 269.904 51.8597 270.424L49.0037 273.232H53.6237ZM59.52 269.596C60.048 269.772 60.452 270.036 60.732 270.388C61.02 270.74 61.164 271.164 61.164 271.66C61.164 272.148 61.032 272.576 60.768 272.944C60.504 273.304 60.124 273.584 59.628 273.784C59.14 273.976 58.564 274.072 57.9 274.072C56.892 274.072 56.1 273.856 55.524 273.424C54.948 272.992 54.66 272.404 54.66 271.66C54.66 271.156 54.796 270.732 55.068 270.388C55.348 270.036 55.752 269.772 56.28 269.596C55.848 269.428 55.52 269.188 55.296 268.876C55.072 268.556 54.96 268.18 54.96 267.748C54.96 267.068 55.224 266.528 55.752 266.128C56.288 265.728 57.004 265.528 57.9 265.528C58.492 265.528 59.008 265.62 59.448 265.804C59.896 265.98 60.244 266.236 60.492 266.572C60.74 266.908 60.864 267.3 60.864 267.748C60.864 268.18 60.748 268.556 60.516 268.876C60.284 269.188 59.952 269.428 59.52 269.596ZM55.824 267.772C55.824 268.236 56.008 268.604 56.376 268.876C56.744 269.148 57.252 269.284 57.9 269.284C58.548 269.284 59.056 269.148 59.424 268.876C59.8 268.604 59.988 268.24 59.988 267.784C59.988 267.312 59.796 266.94 59.412 266.668C59.036 266.396 58.532 266.26 57.9 266.26C57.26 266.26 56.752 266.396 56.376 266.668C56.008 266.94 55.824 267.308 55.824 267.772ZM57.9 273.34C58.644 273.34 59.224 273.188 59.64 272.884C60.064 272.58 60.276 272.168 60.276 271.648C60.276 271.128 60.064 270.72 59.64 270.424C59.224 270.12 58.644 269.968 57.9 269.968C57.164 269.968 56.584 270.12 56.16 270.424C55.744 270.72 55.536 271.128 55.536 271.648C55.536 272.176 55.744 272.592 56.16 272.896C56.576 273.192 57.156 273.34 57.9 273.34Z" fill="black"/>
<path d="M7.44008 273.232V274H1.54808V273.388L5.04008 269.968C5.48008 269.536 5.77608 269.164 5.92808 268.852C6.08808 268.532 6.16808 268.212 6.16808 267.892C6.16808 267.396 5.99608 267.012 5.65208 266.74C5.31608 266.46 4.83208 266.32 4.20008 266.32C3.21608 266.32 2.45208 266.632 1.90808 267.256L1.29608 266.728C1.62408 266.344 2.04008 266.048 2.54408 265.84C3.05608 265.632 3.63208 265.528 4.27208 265.528C5.12808 265.528 5.80408 265.732 6.30008 266.14C6.80408 266.54 7.05608 267.092 7.05608 267.796C7.05608 268.228 6.96008 268.644 6.76808 269.044C6.57608 269.444 6.21208 269.904 5.67608 270.424L2.82008 273.232H7.44008ZM14.4055 265.6V266.212L10.8895 274H9.95352L13.4095 266.368H9.08952V267.94H8.23752V265.6H14.4055Z" fill="black"/>
<path d="M102.294 273.232V274H96.4016V273.388L99.8936 269.968C100.334 269.536 100.63 269.164 100.782 268.852C100.942 268.532 101.022 268.212 101.022 267.892C101.022 267.396 100.85 267.012 100.506 266.74C100.17 266.46 99.6856 266.32 99.0536 266.32C98.0696 266.32 97.3056 266.632 96.7616 267.256L96.1496 266.728C96.4776 266.344 96.8936 266.048 97.3976 265.84C97.9096 265.632 98.4856 265.528 99.1256 265.528C99.9816 265.528 100.658 265.732 101.154 266.14C101.658 266.54 101.91 267.092 101.91 267.796C101.91 268.228 101.814 268.644 101.622 269.044C101.43 269.444 101.066 269.904 100.53 270.424L97.6736 273.232H102.294ZM105.994 265.528C107.106 265.528 107.958 265.896 108.55 266.632C109.142 267.36 109.438 268.392 109.438 269.728C109.438 270.664 109.278 271.456 108.958 272.104C108.638 272.752 108.19 273.244 107.614 273.58C107.038 273.908 106.366 274.072 105.598 274.072C104.766 274.072 104.102 273.92 103.606 273.616L103.954 272.92C104.354 273.184 104.898 273.316 105.586 273.316C106.514 273.316 107.242 273.024 107.77 272.44C108.298 271.848 108.562 270.992 108.562 269.872C108.562 269.664 108.55 269.436 108.526 269.188C108.318 269.644 107.986 270 107.53 270.256C107.074 270.504 106.55 270.628 105.958 270.628C105.406 270.628 104.914 270.524 104.482 270.316C104.058 270.108 103.726 269.816 103.486 269.44C103.246 269.056 103.126 268.612 103.126 268.108C103.126 267.596 103.25 267.144 103.498 266.752C103.746 266.36 104.086 266.06 104.518 265.852C104.958 265.636 105.45 265.528 105.994 265.528ZM106.09 269.896C106.514 269.896 106.886 269.816 107.206 269.656C107.534 269.496 107.79 269.276 107.974 268.996C108.158 268.716 108.25 268.404 108.25 268.06C108.25 267.74 108.162 267.444 107.986 267.172C107.818 266.9 107.566 266.68 107.23 266.512C106.894 266.344 106.494 266.26 106.03 266.26C105.422 266.26 104.926 266.428 104.542 266.764C104.166 267.092 103.978 267.532 103.978 268.084C103.978 268.636 104.166 269.076 104.542 269.404C104.926 269.732 105.442 269.896 106.09 269.896Z" fill="black"/>
<path d="M150.121 269.2C151.001 269.248 151.669 269.488 152.125 269.92C152.589 270.344 152.821 270.9 152.821 271.588C152.821 272.068 152.705 272.496 152.473 272.872C152.241 273.24 151.897 273.532 151.441 273.748C150.985 273.964 150.429 274.072 149.773 274.072C149.165 274.072 148.589 273.976 148.045 273.784C147.509 273.584 147.077 273.32 146.749 272.992L147.169 272.308C147.449 272.596 147.821 272.832 148.285 273.016C148.749 273.192 149.245 273.28 149.773 273.28C150.461 273.28 150.993 273.132 151.369 272.836C151.745 272.532 151.933 272.116 151.933 271.588C151.933 271.068 151.745 270.66 151.369 270.364C150.993 270.068 150.425 269.92 149.665 269.92H149.065V269.284L151.393 266.368H147.097V265.6H152.497V266.212L150.121 269.2ZM157.386 274.072C156.738 274.072 156.158 273.9 155.646 273.556C155.142 273.212 154.746 272.72 154.458 272.08C154.178 271.432 154.038 270.672 154.038 269.8C154.038 268.928 154.178 268.172 154.458 267.532C154.746 266.884 155.142 266.388 155.646 266.044C156.158 265.7 156.738 265.528 157.386 265.528C158.034 265.528 158.61 265.7 159.114 266.044C159.626 266.388 160.026 266.884 160.314 267.532C160.602 268.172 160.746 268.928 160.746 269.8C160.746 270.672 160.602 271.432 160.314 272.08C160.026 272.72 159.626 273.212 159.114 273.556C158.61 273.9 158.034 274.072 157.386 274.072ZM157.386 273.28C157.874 273.28 158.302 273.144 158.67 272.872C159.046 272.6 159.338 272.204 159.546 271.684C159.754 271.164 159.858 270.536 159.858 269.8C159.858 269.064 159.754 268.436 159.546 267.916C159.338 267.396 159.046 267 158.67 266.728C158.302 266.456 157.874 266.32 157.386 266.32C156.898 266.32 156.466 266.456 156.09 266.728C155.722 267 155.434 267.396 155.226 267.916C155.018 268.436 154.914 269.064 154.914 269.8C154.914 270.536 155.018 271.164 155.226 271.684C155.434 272.204 155.722 272.6 156.09 272.872C156.466 273.144 156.898 273.28 157.386 273.28Z" fill="black"/>
<path d="M199.124 232.232V233H193.232V232.388L196.724 228.968C197.164 228.536 197.46 228.164 197.612 227.852C197.772 227.532 197.852 227.212 197.852 226.892C197.852 226.396 197.68 226.012 197.336 225.74C197 225.46 196.516 225.32 195.884 225.32C194.9 225.32 194.136 225.632 193.592 226.256L192.98 225.728C193.308 225.344 193.724 225.048 194.228 224.84C194.74 224.632 195.316 224.528 195.956 224.528C196.812 224.528 197.488 224.732 197.984 225.14C198.488 225.54 198.74 226.092 198.74 226.796C198.74 227.228 198.644 227.644 198.452 228.044C198.26 228.444 197.896 228.904 197.36 229.424L194.504 232.232H199.124ZM207.067 230.792H205.387V233H204.523V230.792H199.783V230.168L204.235 224.6H205.195L200.899 230.024H204.547V228.08H205.387V230.024H207.067V230.792Z" fill="black"/>
<path d="M245.551 232.232V233H239.659V232.388L243.151 228.968C243.591 228.536 243.887 228.164 244.039 227.852C244.199 227.532 244.279 227.212 244.279 226.892C244.279 226.396 244.107 226.012 243.763 225.74C243.427 225.46 242.943 225.32 242.311 225.32C241.327 225.32 240.563 225.632 240.019 226.256L239.407 225.728C239.735 225.344 240.151 225.048 240.655 224.84C241.167 224.632 241.743 224.528 242.383 224.528C243.239 224.528 243.915 224.732 244.411 225.14C244.915 225.54 245.167 226.092 245.167 226.796C245.167 227.228 245.071 227.644 244.879 228.044C244.687 228.444 244.323 228.904 243.787 229.424L240.931 232.232H245.551ZM248.844 228.044C250.06 228.044 250.944 228.264 251.496 228.704C252.056 229.136 252.336 229.744 252.336 230.528C252.336 231.016 252.22 231.452 251.988 231.836C251.764 232.22 251.424 232.524 250.968 232.748C250.512 232.964 249.952 233.072 249.288 233.072C248.688 233.072 248.116 232.976 247.572 232.784C247.036 232.584 246.604 232.32 246.276 231.992L246.696 231.308C246.976 231.596 247.344 231.832 247.8 232.016C248.256 232.192 248.748 232.28 249.276 232.28C249.972 232.28 250.508 232.124 250.884 231.812C251.268 231.5 251.46 231.084 251.46 230.564C251.46 229.988 251.244 229.552 250.812 229.256C250.388 228.96 249.668 228.812 248.652 228.812H246.864L247.296 224.6H251.892V225.368H248.052L247.764 228.044H248.844Z" fill="black"/>
<path d="M291.317 232.232V233H285.425V232.388L288.917 228.968C289.357 228.536 289.653 228.164 289.805 227.852C289.965 227.532 290.045 227.212 290.045 226.892C290.045 226.396 289.873 226.012 289.529 225.74C289.193 225.46 288.709 225.32 288.077 225.32C287.093 225.32 286.329 225.632 285.785 226.256L285.173 225.728C285.501 225.344 285.917 225.048 286.421 224.84C286.933 224.632 287.509 224.528 288.149 224.528C289.005 224.528 289.681 224.732 290.177 225.14C290.681 225.54 290.933 226.092 290.933 226.796C290.933 227.228 290.837 227.644 290.645 228.044C290.453 228.444 290.089 228.904 289.553 229.424L286.697 232.232H291.317ZM295.834 227.972C296.386 227.972 296.874 228.076 297.298 228.284C297.73 228.492 298.066 228.788 298.306 229.172C298.546 229.548 298.666 229.988 298.666 230.492C298.666 231.004 298.542 231.456 298.294 231.848C298.046 232.24 297.702 232.544 297.262 232.76C296.83 232.968 296.342 233.072 295.798 233.072C294.686 233.072 293.834 232.708 293.242 231.98C292.65 231.244 292.354 230.208 292.354 228.872C292.354 227.936 292.514 227.144 292.834 226.496C293.154 225.848 293.602 225.36 294.178 225.032C294.754 224.696 295.426 224.528 296.194 224.528C297.026 224.528 297.69 224.68 298.186 224.984L297.838 225.68C297.438 225.416 296.894 225.284 296.206 225.284C295.278 225.284 294.55 225.58 294.022 226.172C293.494 226.756 293.23 227.608 293.23 228.728C293.23 228.928 293.242 229.156 293.266 229.412C293.474 228.956 293.806 228.604 294.262 228.356C294.718 228.1 295.242 227.972 295.834 227.972ZM295.762 232.34C296.37 232.34 296.862 232.176 297.238 231.848C297.622 231.512 297.814 231.068 297.814 230.516C297.814 229.964 297.622 229.524 297.238 229.196C296.862 228.868 296.35 228.704 295.702 228.704C295.278 228.704 294.902 228.784 294.574 228.944C294.254 229.104 294.002 229.324 293.818 229.604C293.634 229.884 293.542 230.196 293.542 230.54C293.542 230.86 293.626 231.156 293.794 231.428C293.97 231.7 294.226 231.92 294.562 232.088C294.898 232.256 295.298 232.34 295.762 232.34Z" fill="black"/>
<path d="M52.3749 80.6H54.3189V87.416H58.5309V89H52.3749V80.6Z" fill="#7C4EFF"/>
<path d="M106.91 89L106.898 83.96L104.426 88.112H103.55L101.09 84.068V89H99.2655V80.6H100.874L104.018 85.82L107.114 80.6H108.71L108.734 89H106.91Z" fill="#7C4EFF"/>
<path d="M156.005 89L153.977 86.084L151.985 89H149.753L152.861 84.728L149.909 80.6H152.117L154.049 83.324L155.945 80.6H158.045L155.117 84.656L158.249 89H156.005Z" fill="#7C4EFF"/>
<path d="M198.798 89.144C198.23 89.144 197.706 89.04 197.226 88.832C196.754 88.616 196.366 88.312 196.062 87.92L197.142 86.624C197.598 87.24 198.118 87.548 198.702 87.548C199.494 87.548 199.89 87.084 199.89 86.156V82.16H196.938V80.6H201.822V86.048C201.822 87.08 201.566 87.856 201.054 88.376C200.542 88.888 199.79 89.144 198.798 89.144Z" fill="#7C4EFF"/>
<path d="M250.095 80.6L246.459 89H244.539L240.915 80.6H243.015L245.571 86.6L248.163 80.6H250.095Z" fill="#7C4EFF"/>
<path d="M291.93 89.144C291.266 89.144 290.622 89.056 289.998 88.88C289.382 88.696 288.886 88.46 288.51 88.172L289.17 86.708C289.53 86.972 289.958 87.184 290.454 87.344C290.95 87.504 291.446 87.584 291.942 87.584C292.494 87.584 292.902 87.504 293.166 87.344C293.43 87.176 293.562 86.956 293.562 86.684C293.562 86.484 293.482 86.32 293.322 86.192C293.17 86.056 292.97 85.948 292.722 85.868C292.482 85.788 292.154 85.7 291.738 85.604C291.098 85.452 290.574 85.3 290.166 85.148C289.758 84.996 289.406 84.752 289.11 84.416C288.822 84.08 288.678 83.632 288.678 83.072C288.678 82.584 288.81 82.144 289.074 81.752C289.338 81.352 289.734 81.036 290.262 80.804C290.798 80.572 291.45 80.456 292.218 80.456C292.754 80.456 293.278 80.52 293.79 80.648C294.302 80.776 294.75 80.96 295.134 81.2L294.534 82.676C293.758 82.236 292.982 82.016 292.206 82.016C291.662 82.016 291.258 82.104 290.994 82.28C290.738 82.456 290.61 82.688 290.61 82.976C290.61 83.264 290.758 83.48 291.054 83.624C291.358 83.76 291.818 83.896 292.434 84.032C293.074 84.184 293.598 84.336 294.006 84.488C294.414 84.64 294.762 84.88 295.05 85.208C295.346 85.536 295.494 85.98 295.494 86.54C295.494 87.02 295.358 87.46 295.086 87.86C294.822 88.252 294.422 88.564 293.886 88.796C293.35 89.028 292.698 89.144 291.93 89.144Z" fill="#7C4EFF"/>
<path d="M288 63L296 55.5L288 48L288 63Z" fill="black"/>
<path d="M272 48L264 55.5L272 63L272 48Z" fill="black"/>
</svg>
