<svg width="339" height="307" viewBox="0 0 339 307" fill="none" xmlns="http://www.w3.org/2000/svg">
<path d="M7.596 243.292C9.108 243.292 10.29 243.742 11.142 244.642C12.006 245.542 12.438 246.826 12.438 248.494V256H11.106V248.53C11.106 247.198 10.776 246.19 10.116 245.506C9.456 244.822 8.532 244.48 7.344 244.48C6.096 244.48 5.124 244.846 4.428 245.578C3.732 246.298 3.384 247.384 3.384 248.836V256H2.052V243.4H3.33V245.524C4.134 244.036 5.556 243.292 7.596 243.292ZM20.2109 254.956C20.7989 254.956 21.3389 254.854 21.8309 254.65C22.3349 254.434 22.7609 254.122 23.1089 253.714L23.8289 254.542C23.4089 255.046 22.8869 255.43 22.2629 255.694C21.6389 255.958 20.9489 256.09 20.1929 256.09C19.2209 256.09 18.3569 255.886 17.6009 255.478C16.8449 255.058 16.2569 254.482 15.8369 253.75C15.4169 253.018 15.2069 252.19 15.2069 251.266C15.2069 250.342 15.4049 249.514 15.8009 248.782C16.2089 248.05 16.7669 247.48 17.4749 247.072C18.1829 246.664 18.9869 246.46 19.8869 246.46C20.7269 246.46 21.4829 246.652 22.1549 247.036C22.8389 247.42 23.3789 247.954 23.7749 248.638C24.1829 249.322 24.3989 250.102 24.4229 250.978L16.6469 252.49C16.8869 253.258 17.3189 253.864 17.9429 254.308C18.5789 254.74 19.3349 254.956 20.2109 254.956ZM19.8869 247.558C19.2269 247.558 18.6329 247.714 18.1049 248.026C17.5889 248.326 17.1809 248.752 16.8809 249.304C16.5929 249.844 16.4489 250.468 16.4489 251.176C16.4489 251.356 16.4549 251.488 16.4669 251.572L23.1449 250.276C23.0009 249.484 22.6349 248.836 22.0469 248.332C21.4589 247.816 20.7389 247.558 19.8869 247.558ZM31.0742 254.956C31.6622 254.956 32.2022 254.854 32.6942 254.65C33.1982 254.434 33.6242 254.122 33.9722 253.714L34.6922 254.542C34.2722 255.046 33.7502 255.43 33.1262 255.694C32.5022 255.958 31.8122 256.09 31.0562 256.09C30.0842 256.09 29.2202 255.886 28.4642 255.478C27.7082 255.058 27.1202 254.482 26.7002 253.75C26.2802 253.018 26.0702 252.19 26.0702 251.266C26.0702 250.342 26.2682 249.514 26.6642 248.782C27.0722 248.05 27.6302 247.48 28.3382 247.072C29.0462 246.664 29.8502 246.46 30.7502 246.46C31.5902 246.46 32.3462 246.652 33.0182 247.036C33.7022 247.42 34.2422 247.954 34.6382 248.638C35.0462 249.322 35.2622 250.102 35.2862 250.978L27.5102 252.49C27.7502 253.258 28.1822 253.864 28.8062 254.308C29.4422 254.74 30.1982 254.956 31.0742 254.956ZM30.7502 247.558C30.0902 247.558 29.4962 247.714 28.9682 248.026C28.4522 248.326 28.0442 248.752 27.7442 249.304C27.4562 249.844 27.3122 250.468 27.3122 251.176C27.3122 251.356 27.3182 251.488 27.3302 251.572L34.0082 250.276C33.8642 249.484 33.4982 248.836 32.9102 248.332C32.3222 247.816 31.6022 247.558 30.7502 247.558ZM46.5275 242.644V256H45.3035V254.128C44.9195 254.764 44.4095 255.25 43.7735 255.586C43.1495 255.922 42.4415 256.09 41.6495 256.09C40.7615 256.09 39.9575 255.886 39.2375 255.478C38.5175 255.07 37.9535 254.5 37.5455 253.768C37.1375 253.036 36.9335 252.202 36.9335 251.266C36.9335 250.33 37.1375 249.496 37.5455 248.764C37.9535 248.032 38.5175 247.468 39.2375 247.072C39.9575 246.664 40.7615 246.46 41.6495 246.46C42.4175 246.46 43.1075 246.622 43.7195 246.946C44.3435 247.258 44.8535 247.72 45.2495 248.332V242.644H46.5275ZM41.7575 254.956C42.4175 254.956 43.0115 254.806 43.5395 254.506C44.0795 254.194 44.4995 253.756 44.7995 253.192C45.1115 252.628 45.2675 251.986 45.2675 251.266C45.2675 250.546 45.1115 249.904 44.7995 249.34C44.4995 248.776 44.0795 248.344 43.5395 248.044C43.0115 247.732 42.4175 247.576 41.7575 247.576C41.0855 247.576 40.4795 247.732 39.9395 248.044C39.4115 248.344 38.9915 248.776 38.6795 249.34C38.3795 249.904 38.2295 250.546 38.2295 251.266C38.2295 251.986 38.3795 252.628 38.6795 253.192C38.9915 253.756 39.4115 254.194 39.9395 254.506C40.4795 254.806 41.0855 254.956 41.7575 254.956ZM59.4596 255.424C59.2196 255.64 58.9256 255.808 58.5776 255.928C58.2296 256.036 57.8636 256.09 57.4796 256.09C56.5916 256.09 55.9076 255.85 55.4276 255.37C54.9476 254.89 54.7076 254.212 54.7076 253.336V244.462H55.9856V246.532H58.8476V247.612H55.9856V253.264C55.9856 253.828 56.1236 254.26 56.3996 254.56C56.6756 254.848 57.0776 254.992 57.6056 254.992C58.1816 254.992 58.6496 254.83 59.0096 254.506L59.4596 255.424ZM65.3122 256.09C64.4002 256.09 63.5782 255.886 62.8462 255.478C62.1142 255.058 61.5382 254.482 61.1182 253.75C60.6982 253.018 60.4882 252.19 60.4882 251.266C60.4882 250.342 60.6982 249.514 61.1182 248.782C61.5382 248.05 62.1142 247.48 62.8462 247.072C63.5782 246.664 64.4002 246.46 65.3122 246.46C66.2242 246.46 67.0462 246.664 67.7782 247.072C68.5102 247.48 69.0802 248.05 69.4882 248.782C69.9082 249.514 70.1182 250.342 70.1182 251.266C70.1182 252.19 69.9082 253.018 69.4882 253.75C69.0802 254.482 68.5102 255.058 67.7782 255.478C67.0462 255.886 66.2242 256.09 65.3122 256.09ZM65.3122 254.956C65.9842 254.956 66.5842 254.806 67.1122 254.506C67.6522 254.194 68.0722 253.756 68.3722 253.192C68.6722 252.628 68.8222 251.986 68.8222 251.266C68.8222 250.546 68.6722 249.904 68.3722 249.34C68.0722 248.776 67.6522 248.344 67.1122 248.044C66.5842 247.732 65.9842 247.576 65.3122 247.576C64.6402 247.576 64.0342 247.732 63.4942 248.044C62.9662 248.344 62.5462 248.776 62.2342 249.34C61.9342 249.904 61.7842 250.546 61.7842 251.266C61.7842 251.986 61.9342 252.628 62.2342 253.192C62.5462 253.756 62.9662 254.194 63.4942 254.506C64.0342 254.806 64.6402 254.956 65.3122 254.956ZM82.1003 255.424C81.8603 255.64 81.5663 255.808 81.2183 255.928C80.8703 256.036 80.5043 256.09 80.1203 256.09C79.2323 256.09 78.5483 255.85 78.0683 255.37C77.5883 254.89 77.3483 254.212 77.3483 253.336V244.462H78.6263V246.532H81.4883V247.612H78.6263V253.264C78.6263 253.828 78.7643 254.26 79.0403 254.56C79.3163 254.848 79.7183 254.992 80.2463 254.992C80.8223 254.992 81.2903 254.83 81.6503 254.506L82.1003 255.424ZM92.7228 246.532V256H91.4988V254.128C91.1148 254.764 90.6048 255.25 89.9688 255.586C89.3448 255.922 88.6368 256.09 87.8448 256.09C86.9568 256.09 86.1528 255.886 85.4328 255.478C84.7128 255.07 84.1488 254.5 83.7408 253.768C83.3328 253.036 83.1288 252.202 83.1288 251.266C83.1288 250.33 83.3328 249.496 83.7408 248.764C84.1488 248.032 84.7128 247.468 85.4328 247.072C86.1528 246.664 86.9568 246.46 87.8448 246.46C88.6128 246.46 89.3028 246.622 89.9148 246.946C90.5388 247.258 91.0488 247.72 91.4448 248.332V246.532H92.7228ZM87.9528 254.956C88.6128 254.956 89.2068 254.806 89.7348 254.506C90.2748 254.194 90.6948 253.756 90.9948 253.192C91.3068 252.628 91.4628 251.986 91.4628 251.266C91.4628 250.546 91.3068 249.904 90.9948 249.34C90.6948 248.776 90.2748 248.344 89.7348 248.044C89.2068 247.732 88.6128 247.576 87.9528 247.576C87.2808 247.576 86.6748 247.732 86.1348 248.044C85.6068 248.344 85.1868 248.776 84.8748 249.34C84.5748 249.904 84.4248 250.546 84.4248 251.266C84.4248 251.986 84.5748 252.628 84.8748 253.192C85.1868 253.756 85.6068 254.194 86.1348 254.506C86.6748 254.806 87.2808 254.956 87.9528 254.956ZM98.946 256.09C98.094 256.09 97.434 255.85 96.966 255.37C96.51 254.89 96.282 254.224 96.282 253.372V242.644H97.56V253.264C97.56 253.828 97.692 254.26 97.956 254.56C98.22 254.848 98.616 254.992 99.144 254.992C99.48 254.992 99.768 254.938 100.008 254.83L100.098 255.892C99.726 256.024 99.342 256.09 98.946 256.09ZM105.347 251.248L103.115 253.3V256H101.837V242.644H103.115V251.698L108.767 246.532H110.351L106.301 250.402L110.729 256H109.163L105.347 251.248ZM122.02 255.424C121.78 255.64 121.486 255.808 121.138 255.928C120.79 256.036 120.424 256.09 120.04 256.09C119.152 256.09 118.468 255.85 117.988 255.37C117.508 254.89 117.268 254.212 117.268 253.336V244.462H118.546V246.532H121.408V247.612H118.546V253.264C118.546 253.828 118.684 254.26 118.96 254.56C119.236 254.848 119.638 254.992 120.166 254.992C120.742 254.992 121.21 254.83 121.57 254.506L122.02 255.424ZM127.873 256.09C126.961 256.09 126.139 255.886 125.407 255.478C124.675 255.058 124.099 254.482 123.679 253.75C123.259 253.018 123.049 252.19 123.049 251.266C123.049 250.342 123.259 249.514 123.679 248.782C124.099 248.05 124.675 247.48 125.407 247.072C126.139 246.664 126.961 246.46 127.873 246.46C128.785 246.46 129.607 246.664 130.339 247.072C131.071 247.48 131.641 248.05 132.049 248.782C132.469 249.514 132.679 250.342 132.679 251.266C132.679 252.19 132.469 253.018 132.049 253.75C131.641 254.482 131.071 255.058 130.339 255.478C129.607 255.886 128.785 256.09 127.873 256.09ZM127.873 254.956C128.545 254.956 129.145 254.806 129.673 254.506C130.213 254.194 130.633 253.756 130.933 253.192C131.233 252.628 131.383 251.986 131.383 251.266C131.383 250.546 131.233 249.904 130.933 249.34C130.633 248.776 130.213 248.344 129.673 248.044C129.145 247.732 128.545 247.576 127.873 247.576C127.201 247.576 126.595 247.732 126.055 248.044C125.527 248.344 125.107 248.776 124.795 249.34C124.495 249.904 124.345 250.546 124.345 251.266C124.345 251.986 124.495 252.628 124.795 253.192C125.107 253.756 125.527 254.194 126.055 254.506C126.595 254.806 127.201 254.956 127.873 254.956ZM142.537 256.09C141.769 256.09 141.031 255.982 140.323 255.766C139.627 255.538 139.081 255.256 138.685 254.92L139.261 253.912C139.657 254.224 140.155 254.482 140.755 254.686C141.355 254.878 141.979 254.974 142.627 254.974C143.491 254.974 144.127 254.842 144.535 254.578C144.955 254.302 145.165 253.918 145.165 253.426C145.165 253.078 145.051 252.808 144.823 252.616C144.595 252.412 144.307 252.262 143.959 252.166C143.611 252.058 143.149 251.956 142.573 251.86C141.805 251.716 141.187 251.572 140.719 251.428C140.251 251.272 139.849 251.014 139.513 250.654C139.189 250.294 139.027 249.796 139.027 249.16C139.027 248.368 139.357 247.72 140.017 247.216C140.677 246.712 141.595 246.46 142.771 246.46C143.383 246.46 143.995 246.544 144.607 246.712C145.219 246.868 145.723 247.078 146.119 247.342L145.561 248.368C144.781 247.828 143.851 247.558 142.771 247.558C141.955 247.558 141.337 247.702 140.917 247.99C140.509 248.278 140.305 248.656 140.305 249.124C140.305 249.484 140.419 249.772 140.647 249.988C140.887 250.204 141.181 250.366 141.529 250.474C141.877 250.57 142.357 250.672 142.969 250.78C143.725 250.924 144.331 251.068 144.787 251.212C145.243 251.356 145.633 251.602 145.957 251.95C146.281 252.298 146.443 252.778 146.443 253.39C146.443 254.218 146.095 254.878 145.399 255.37C144.715 255.85 143.761 256.09 142.537 256.09ZM152.675 256.09C151.763 256.09 150.941 255.886 150.209 255.478C149.477 255.058 148.901 254.482 148.481 253.75C148.061 253.018 147.851 252.19 147.851 251.266C147.851 250.342 148.061 249.514 148.481 248.782C148.901 248.05 149.477 247.48 150.209 247.072C150.941 246.664 151.763 246.46 152.675 246.46C153.587 246.46 154.409 246.664 155.141 247.072C155.873 247.48 156.443 248.05 156.851 248.782C157.271 249.514 157.481 250.342 157.481 251.266C157.481 252.19 157.271 253.018 156.851 253.75C156.443 254.482 155.873 255.058 155.141 255.478C154.409 255.886 153.587 256.09 152.675 256.09ZM152.675 254.956C153.347 254.956 153.947 254.806 154.475 254.506C155.015 254.194 155.435 253.756 155.735 253.192C156.035 252.628 156.185 251.986 156.185 251.266C156.185 250.546 156.035 249.904 155.735 249.34C155.435 248.776 155.015 248.344 154.475 248.044C153.947 247.732 153.347 247.576 152.675 247.576C152.003 247.576 151.397 247.732 150.857 248.044C150.329 248.344 149.909 248.776 149.597 249.34C149.297 249.904 149.147 250.546 149.147 251.266C149.147 251.986 149.297 252.628 149.597 253.192C149.909 253.756 150.329 254.194 150.857 254.506C151.397 254.806 152.003 254.956 152.675 254.956ZM171.899 246.46C173.087 246.46 174.017 246.802 174.689 247.486C175.373 248.17 175.715 249.178 175.715 250.51V256H174.437V250.636C174.437 249.652 174.197 248.902 173.717 248.386C173.249 247.87 172.583 247.612 171.719 247.612C170.735 247.612 169.961 247.918 169.397 248.53C168.833 249.13 168.551 249.964 168.551 251.032V256H167.273V250.636C167.273 249.652 167.033 248.902 166.553 248.386C166.085 247.87 165.413 247.612 164.537 247.612C163.565 247.612 162.791 247.918 162.215 248.53C161.651 249.13 161.369 249.964 161.369 251.032V256H160.091V246.532H161.315V248.26C161.651 247.684 162.119 247.24 162.719 246.928C163.319 246.616 164.009 246.46 164.789 246.46C165.581 246.46 166.265 246.628 166.841 246.964C167.429 247.3 167.867 247.798 168.155 248.458C168.503 247.834 169.001 247.348 169.649 247C170.309 246.64 171.059 246.46 171.899 246.46ZM183.266 254.956C183.854 254.956 184.394 254.854 184.886 254.65C185.39 254.434 185.816 254.122 186.164 253.714L186.884 254.542C186.464 255.046 185.942 255.43 185.318 255.694C184.694 255.958 184.004 256.09 183.248 256.09C182.276 256.09 181.412 255.886 180.656 255.478C179.9 255.058 179.312 254.482 178.892 253.75C178.472 253.018 178.262 252.19 178.262 251.266C178.262 250.342 178.46 249.514 178.856 248.782C179.264 248.05 179.822 247.48 180.53 247.072C181.238 246.664 182.042 246.46 182.942 246.46C183.782 246.46 184.538 246.652 185.21 247.036C185.894 247.42 186.434 247.954 186.83 248.638C187.238 249.322 187.454 250.102 187.478 250.978L179.702 252.49C179.942 253.258 180.374 253.864 180.998 254.308C181.634 254.74 182.39 254.956 183.266 254.956ZM182.942 247.558C182.282 247.558 181.688 247.714 181.16 248.026C180.644 248.326 180.236 248.752 179.936 249.304C179.648 249.844 179.504 250.468 179.504 251.176C179.504 251.356 179.51 251.488 179.522 251.572L186.2 250.276C186.056 249.484 185.69 248.836 185.102 248.332C184.514 247.816 183.794 247.558 182.942 247.558ZM193.949 256.09C193.037 256.09 192.215 255.886 191.483 255.478C190.751 255.058 190.175 254.482 189.755 253.75C189.335 253.018 189.125 252.19 189.125 251.266C189.125 250.342 189.335 249.514 189.755 248.782C190.175 248.05 190.751 247.48 191.483 247.072C192.215 246.664 193.037 246.46 193.949 246.46C194.861 246.46 195.683 246.664 196.415 247.072C197.147 247.48 197.717 248.05 198.125 248.782C198.545 249.514 198.755 250.342 198.755 251.266C198.755 252.19 198.545 253.018 198.125 253.75C197.717 254.482 197.147 255.058 196.415 255.478C195.683 255.886 194.861 256.09 193.949 256.09ZM193.949 254.956C194.621 254.956 195.221 254.806 195.749 254.506C196.289 254.194 196.709 253.756 197.009 253.192C197.309 252.628 197.459 251.986 197.459 251.266C197.459 250.546 197.309 249.904 197.009 249.34C196.709 248.776 196.289 248.344 195.749 248.044C195.221 247.732 194.621 247.576 193.949 247.576C193.277 247.576 192.671 247.732 192.131 248.044C191.603 248.344 191.183 248.776 190.871 249.34C190.571 249.904 190.421 250.546 190.421 251.266C190.421 251.986 190.571 252.628 190.871 253.192C191.183 253.756 191.603 254.194 192.131 254.506C192.671 254.806 193.277 254.956 193.949 254.956ZM206.188 246.46C207.376 246.46 208.318 246.808 209.014 247.504C209.722 248.188 210.076 249.19 210.076 250.51V256H208.798V250.636C208.798 249.652 208.552 248.902 208.06 248.386C207.568 247.87 206.866 247.612 205.954 247.612C204.934 247.612 204.124 247.918 203.524 248.53C202.936 249.13 202.642 249.964 202.642 251.032V256H201.364V246.532H202.588V248.278C202.936 247.702 203.416 247.258 204.028 246.946C204.652 246.622 205.372 246.46 206.188 246.46ZM217.631 254.956C218.219 254.956 218.759 254.854 219.251 254.65C219.755 254.434 220.181 254.122 220.529 253.714L221.249 254.542C220.829 255.046 220.307 255.43 219.683 255.694C219.059 255.958 218.369 256.09 217.613 256.09C216.641 256.09 215.777 255.886 215.021 255.478C214.265 255.058 213.677 254.482 213.257 253.75C212.837 253.018 212.627 252.19 212.627 251.266C212.627 250.342 212.825 249.514 213.221 248.782C213.629 248.05 214.187 247.48 214.895 247.072C215.603 246.664 216.407 246.46 217.307 246.46C218.147 246.46 218.903 246.652 219.575 247.036C220.259 247.42 220.799 247.954 221.195 248.638C221.603 249.322 221.819 250.102 221.843 250.978L214.067 252.49C214.307 253.258 214.739 253.864 215.363 254.308C215.999 254.74 216.755 254.956 217.631 254.956ZM217.307 247.558C216.647 247.558 216.053 247.714 215.525 248.026C215.009 248.326 214.601 248.752 214.301 249.304C214.013 249.844 213.869 250.468 213.869 251.176C213.869 251.356 213.875 251.488 213.887 251.572L220.565 250.276C220.421 249.484 220.055 248.836 219.467 248.332C218.879 247.816 218.159 247.558 217.307 247.558ZM226.031 252.22C226.031 251.728 226.109 251.296 226.265 250.924C226.433 250.552 226.637 250.234 226.877 249.97C227.117 249.706 227.429 249.406 227.813 249.07C228.329 248.614 228.707 248.218 228.947 247.882C229.199 247.534 229.325 247.114 229.325 246.622C229.325 245.962 229.067 245.434 228.551 245.038C228.035 244.63 227.327 244.426 226.427 244.426C224.939 244.426 223.793 244.912 222.989 245.884L222.035 245.164C223.055 243.916 224.549 243.292 226.517 243.292C227.777 243.292 228.779 243.574 229.523 244.138C230.279 244.702 230.657 245.464 230.657 246.424C230.657 246.916 230.573 247.354 230.405 247.738C230.249 248.11 230.051 248.428 229.811 248.692C229.583 248.956 229.277 249.262 228.893 249.61C228.377 250.078 227.993 250.498 227.741 250.87C227.489 251.23 227.363 251.68 227.363 252.22H226.031ZM226.697 256.09C226.433 256.09 226.211 256 226.031 255.82C225.851 255.628 225.761 255.406 225.761 255.154C225.761 254.89 225.851 254.674 226.031 254.506C226.211 254.326 226.433 254.236 226.697 254.236C226.973 254.236 227.201 254.326 227.381 254.506C227.561 254.674 227.651 254.89 227.651 255.154C227.651 255.406 227.555 255.628 227.363 255.82C227.183 256 226.961 256.09 226.697 256.09Z" fill="black"/>
<path d="M143 287.5C143 276.73 151.73 268 162.5 268H298.5C309.27 268 318 276.73 318 287.5C318 298.27 309.27 307 298.5 307H162.5C151.73 307 143 298.27 143 287.5Z" fill="#00E9B1"/>
<path d="M187.536 287.448C188.256 287.676 188.82 288.06 189.228 288.6C189.636 289.128 189.84 289.782 189.84 290.562C189.84 291.666 189.408 292.518 188.544 293.118C187.692 293.706 186.444 294 184.8 294H178.284V281.4H184.44C185.976 281.4 187.152 281.694 187.968 282.282C188.796 282.87 189.21 283.668 189.21 284.676C189.21 285.288 189.06 285.834 188.76 286.314C188.472 286.794 188.064 287.172 187.536 287.448ZM181.182 283.596V286.566H184.08C184.8 286.566 185.346 286.44 185.718 286.188C186.09 285.936 186.276 285.564 186.276 285.072C186.276 284.58 186.09 284.214 185.718 283.974C185.346 283.722 184.8 283.596 184.08 283.596H181.182ZM184.584 291.804C185.352 291.804 185.928 291.678 186.312 291.426C186.708 291.174 186.906 290.784 186.906 290.256C186.906 289.212 186.132 288.69 184.584 288.69H181.182V291.804H184.584ZM196.458 294.144C195.438 294.144 194.52 293.934 193.704 293.514C192.9 293.082 192.27 292.488 191.814 291.732C191.358 290.976 191.13 290.118 191.13 289.158C191.13 288.198 191.358 287.34 191.814 286.584C192.27 285.828 192.9 285.24 193.704 284.82C194.52 284.388 195.438 284.172 196.458 284.172C197.478 284.172 198.39 284.388 199.194 284.82C199.998 285.24 200.628 285.828 201.084 286.584C201.54 287.34 201.768 288.198 201.768 289.158C201.768 290.118 201.54 290.976 201.084 291.732C200.628 292.488 199.998 293.082 199.194 293.514C198.39 293.934 197.478 294.144 196.458 294.144ZM196.458 291.84C197.178 291.84 197.766 291.6 198.222 291.12C198.69 290.628 198.924 289.974 198.924 289.158C198.924 288.342 198.69 287.694 198.222 287.214C197.766 286.722 197.178 286.476 196.458 286.476C195.738 286.476 195.144 286.722 194.676 287.214C194.208 287.694 193.974 288.342 193.974 289.158C193.974 289.974 194.208 290.628 194.676 291.12C195.144 291.6 195.738 291.84 196.458 291.84ZM208.253 294.144C207.233 294.144 206.315 293.934 205.499 293.514C204.695 293.082 204.065 292.488 203.609 291.732C203.153 290.976 202.925 290.118 202.925 289.158C202.925 288.198 203.153 287.34 203.609 286.584C204.065 285.828 204.695 285.24 205.499 284.82C206.315 284.388 207.233 284.172 208.253 284.172C209.273 284.172 210.185 284.388 210.989 284.82C211.793 285.24 212.423 285.828 212.879 286.584C213.335 287.34 213.563 288.198 213.563 289.158C213.563 290.118 213.335 290.976 212.879 291.732C212.423 292.488 211.793 293.082 210.989 293.514C210.185 293.934 209.273 294.144 208.253 294.144ZM208.253 291.84C208.973 291.84 209.561 291.6 210.017 291.12C210.485 290.628 210.719 289.974 210.719 289.158C210.719 288.342 210.485 287.694 210.017 287.214C209.561 286.722 208.973 286.476 208.253 286.476C207.533 286.476 206.939 286.722 206.471 287.214C206.003 287.694 205.769 288.342 205.769 289.158C205.769 289.974 206.003 290.628 206.471 291.12C206.939 291.6 207.533 291.84 208.253 291.84ZM219.598 290.202L218.248 291.534V294H215.44V280.644H218.248V288.204L222.352 284.316H225.7L221.668 288.42L226.06 294H222.658L219.598 290.202ZM242.248 284.316V294H239.566V292.884C238.87 293.724 237.862 294.144 236.542 294.144C235.63 294.144 234.802 293.94 234.058 293.532C233.326 293.124 232.75 292.542 232.33 291.786C231.91 291.03 231.7 290.154 231.7 289.158C231.7 288.162 231.91 287.286 232.33 286.53C232.75 285.774 233.326 285.192 234.058 284.784C234.802 284.376 235.63 284.172 236.542 284.172C237.778 284.172 238.744 284.562 239.44 285.342V284.316H242.248ZM237.028 291.84C237.736 291.84 238.324 291.6 238.792 291.12C239.26 290.628 239.494 289.974 239.494 289.158C239.494 288.342 239.26 287.694 238.792 287.214C238.324 286.722 237.736 286.476 237.028 286.476C236.308 286.476 235.714 286.722 235.246 287.214C234.778 287.694 234.544 288.342 234.544 289.158C234.544 289.974 234.778 290.628 235.246 291.12C235.714 291.6 236.308 291.84 237.028 291.84ZM254.625 294.144C253.593 294.144 252.663 293.934 251.835 293.514C251.019 293.082 250.377 292.488 249.909 291.732C249.453 290.976 249.225 290.118 249.225 289.158C249.225 288.198 249.453 287.34 249.909 286.584C250.377 285.828 251.019 285.24 251.835 284.82C252.663 284.388 253.593 284.172 254.625 284.172C255.645 284.172 256.533 284.388 257.289 284.82C258.057 285.24 258.615 285.846 258.963 286.638L256.785 287.808C256.281 286.92 255.555 286.476 254.607 286.476C253.875 286.476 253.269 286.716 252.789 287.196C252.309 287.676 252.069 288.33 252.069 289.158C252.069 289.986 252.309 290.64 252.789 291.12C253.269 291.6 253.875 291.84 254.607 291.84C255.567 291.84 256.293 291.396 256.785 290.508L258.963 291.696C258.615 292.464 258.057 293.064 257.289 293.496C256.533 293.928 255.645 294.144 254.625 294.144ZM270.285 284.316V294H267.603V292.884C266.907 293.724 265.899 294.144 264.579 294.144C263.667 294.144 262.839 293.94 262.095 293.532C261.363 293.124 260.787 292.542 260.367 291.786C259.947 291.03 259.737 290.154 259.737 289.158C259.737 288.162 259.947 287.286 260.367 286.53C260.787 285.774 261.363 285.192 262.095 284.784C262.839 284.376 263.667 284.172 264.579 284.172C265.815 284.172 266.781 284.562 267.477 285.342V284.316H270.285ZM265.065 291.84C265.773 291.84 266.361 291.6 266.829 291.12C267.297 290.628 267.531 289.974 267.531 289.158C267.531 288.342 267.297 287.694 266.829 287.214C266.361 286.722 265.773 286.476 265.065 286.476C264.345 286.476 263.751 286.722 263.283 287.214C262.815 287.694 262.581 288.342 262.581 289.158C262.581 289.974 262.815 290.628 263.283 291.12C263.751 291.6 264.345 291.84 265.065 291.84ZM276.359 294.144C275.267 294.144 274.415 293.856 273.803 293.28C273.191 292.692 272.885 291.864 272.885 290.796V280.644H275.693V290.634C275.693 291.042 275.795 291.36 275.999 291.588C276.215 291.804 276.515 291.912 276.899 291.912C277.043 291.912 277.187 291.894 277.331 291.858C277.487 291.822 277.607 291.78 277.691 291.732L277.817 293.91C277.349 294.066 276.863 294.144 276.359 294.144ZM282.669 294.144C281.577 294.144 280.725 293.856 280.113 293.28C279.501 292.692 279.195 291.864 279.195 290.796V280.644H282.003V290.634C282.003 291.042 282.105 291.36 282.309 291.588C282.525 291.804 282.825 291.912 283.209 291.912C283.353 291.912 283.497 291.894 283.641 291.858C283.797 291.822 283.917 291.78 284.001 291.732L284.127 293.91C283.659 294.066 283.173 294.144 282.669 294.144Z" fill="white"/>
<g clip-path="url(#clip0)">
<path d="M145.997 0C83.0425 0 32.0001 51.0423 32.0001 113.997C31.9792 129.516 35.1363 144.875 41.2771 159.128C47.4178 173.381 56.4119 186.225 67.7054 196.87C66.0117 189.476 65.2554 181.82 63.1618 174.514C61.6243 169.127 59.3681 163.971 57.7244 158.614C56.1498 152.331 54.9622 145.956 54.1682 139.527L52.4245 133.178C52.2992 132.359 52.36 131.522 52.6023 130.73C52.8447 129.938 53.2624 129.211 53.8245 128.603C54.1745 126.228 55.012 124.897 56.5807 125.378C57.4182 125.64 57.9494 126.459 58.3931 127.253C58.5119 127.453 58.6244 127.659 58.7369 127.878H61.568L61.0431 122.115C59.9056 121.184 58.9244 119.565 58.1994 117.116C57.1619 113.597 55.6432 110.297 56.0494 106.878L53.6745 99.2785C53.6023 99.0602 53.5738 98.8298 53.5906 98.6005C53.6074 98.3711 53.6692 98.1474 53.7725 97.9419C53.8758 97.7365 54.0186 97.5534 54.1926 97.4031C54.3667 97.2528 54.5687 97.1383 54.787 97.0661C55.0053 96.9939 55.2357 96.9654 55.465 96.9822C55.6944 96.999 55.9182 97.0608 56.1236 97.1641C56.329 97.2674 56.5121 97.4102 56.6624 97.5842C56.8127 97.7583 56.9272 97.9602 56.9994 98.1786L58.1681 101.928C58.3313 101.819 58.5003 101.719 58.6744 101.628L56.4994 94.6599C56.4172 94.4395 56.3807 94.2046 56.3922 93.9696C56.4037 93.7346 56.463 93.5045 56.5665 93.2932C56.6699 93.0819 56.8154 92.8939 56.9939 92.7407C57.1725 92.5875 57.3804 92.4723 57.6049 92.4021C57.8295 92.3319 58.066 92.3082 58.3 92.3325C58.534 92.3568 58.7606 92.4285 58.966 92.5433C59.1714 92.6581 59.3512 92.8136 59.4945 93.0002C59.6377 93.1868 59.7415 93.4006 59.7993 93.6287L61.9868 100.628C62.5618 100.51 63.143 100.416 63.7242 100.341L60.8556 91.2475C60.7466 90.8183 60.8064 90.3636 61.0224 89.977C61.2385 89.5905 61.5945 89.3014 62.0172 89.1693C62.4399 89.0372 62.8972 89.0721 63.2949 89.2669C63.6926 89.4616 64.0006 89.8014 64.1555 90.2163L67.2804 100.172C67.7273 100.196 68.1721 100.25 68.6116 100.335L65.7492 91.185C65.6403 90.7558 65.7 90.3011 65.9161 89.9145C66.1321 89.528 66.4881 89.2389 66.9108 89.1068C67.3335 88.9747 67.7908 89.0096 68.1885 89.2044C68.5862 89.3991 68.8942 89.7389 69.0491 90.1538L73.249 103.547C73.3088 103.75 73.3321 103.961 73.3177 104.172C73.399 104.366 73.474 104.553 73.5427 104.747L75.2927 101.728C75.3986 101.486 75.5545 101.269 75.7503 101.091C75.9461 100.913 76.1773 100.779 76.4287 100.697C76.68 100.615 76.9459 100.587 77.2089 100.615C77.4719 100.643 77.7259 100.726 77.9544 100.859C78.1829 100.992 78.3807 101.172 78.5347 101.387C78.6888 101.602 78.7956 101.847 78.8482 102.106C78.9008 102.366 78.898 102.633 78.8399 102.891C78.7818 103.149 78.6699 103.392 78.5113 103.603L73.6177 112.028C73.5556 112.138 73.4823 112.24 73.399 112.334C72.3615 115.747 71.7365 117.534 70.0616 119.353L71.4803 127.722L78.1238 127.665L93.8734 184.332L110.023 155.852L108.461 147.833C115.723 122.415 153.516 118.272 153.516 118.272L153.584 118.847L153.997 118.759L155.753 118.403C157.14 118.128 158.54 117.874 159.953 117.641C162.211 117.266 164.503 116.949 166.828 116.691L166.309 101.591C155.484 102.178 147.953 94.2287 147.322 83.0665L147.203 80.9915C143.76 80.5603 141.06 76.4354 141.06 71.398C141.06 67.9356 142.347 64.9107 144.266 63.2108C142.391 61.1733 141.141 56.336 143.153 54.0298C143.685 53.4048 144.403 52.9736 144.897 52.3048C145.966 50.8174 145.453 48.8237 145.591 47.0175C145.728 45.2113 147.703 43.0926 148.916 44.2488C148.291 41.6239 147.747 38.4614 149.541 36.2928C152.934 32.2179 159.897 36.5865 163.671 32.8991C164.796 31.7929 165.39 30.1367 166.653 29.2242C168.396 27.9742 170.759 28.643 172.171 30.0617C173.093 31.081 173.856 32.2335 174.434 33.4803C174.58 33.5686 174.732 33.6458 174.89 33.7116C176.24 34.2053 176.959 33.9366 178.509 33.5741C181.44 32.8804 184.133 35.199 185.79 38.2864C186.477 39.5864 188.683 37.7302 189.471 38.9552C191.277 41.7426 195.014 43.0426 195.758 46.3925C196.158 48.2049 195.552 50.2799 196.177 52.0173C196.839 53.8548 198.789 54.9672 199.039 56.9422C199.446 60.0671 196.639 62.9858 196.539 66.0732C196.49 66.6442 196.319 67.1981 196.039 67.6982C196.959 69.4919 197.429 71.4824 197.408 73.498C197.408 78.2416 195.002 82.179 191.839 82.9727C191.721 83.4165 191.596 83.8602 191.464 84.3102C190.738 87.0071 189.487 89.5344 187.783 91.7475L187.158 92.4662L187.946 115.534C191.471 115.534 194.977 115.578 198.414 115.703L198.596 115.128C199.889 115.178 201.189 115.228 202.464 115.291C205.452 115.447 208.395 115.628 211.214 115.859C229.076 118.203 245.882 139.277 237.463 169.608L235.676 184.37C251.467 164.315 260.036 139.522 260 113.997C260 51.0423 208.958 0 145.997 0Z" fill="#7C4EFF"/>
<path d="M70.0363 119.372C71.7113 117.553 72.3363 115.766 73.3737 112.353C73.4571 112.259 73.5304 112.156 73.5925 112.047L78.4861 103.622C78.6446 103.411 78.7566 103.168 78.8147 102.91C78.8727 102.652 78.8755 102.384 78.8229 102.125C78.7704 101.866 78.6635 101.621 78.5095 101.406C78.3555 101.191 78.1577 101.011 77.9292 100.878C77.7007 100.745 77.4466 100.662 77.1837 100.634C76.9207 100.606 76.6548 100.634 76.4034 100.716C76.152 100.798 75.9209 100.932 75.7251 101.11C75.5293 101.288 75.3733 101.505 75.2674 101.747L73.5175 104.766C73.4487 104.572 73.3737 104.385 73.2925 104.191C73.3068 103.98 73.2835 103.769 73.2237 103.566L69.0426 90.1725C68.8767 89.7761 68.5692 89.4555 68.18 89.2731C67.7908 89.0908 67.3477 89.0598 66.9369 89.186C66.5261 89.3123 66.1769 89.5869 65.9573 89.9564C65.7378 90.3259 65.6635 90.7638 65.7489 91.185L68.6051 100.335C68.1656 100.25 67.7208 100.196 67.2739 100.172L64.149 90.2163C63.9862 89.8127 63.6773 89.4853 63.284 89.2991C62.8906 89.113 62.4416 89.0818 62.0262 89.2119C61.6109 89.3419 61.2598 89.6236 61.0429 90.0008C60.8259 90.378 60.7589 90.8231 60.8553 91.2475L63.699 100.341C63.1178 100.416 62.5365 100.51 61.9615 100.629L59.7741 93.6287C59.7162 93.4007 59.6125 93.1868 59.4692 93.0002C59.3259 92.8136 59.1461 92.6581 58.9408 92.5433C58.7354 92.4285 58.5088 92.3568 58.2748 92.3325C58.0408 92.3082 57.8043 92.3319 57.5797 92.4021C57.3551 92.4723 57.1472 92.5875 56.9687 92.7407C56.7902 92.8939 56.6447 93.0819 56.5413 93.2932C56.4378 93.5045 56.3785 93.7347 56.367 93.9696C56.3554 94.2046 56.3919 94.4395 56.4742 94.6599L58.6491 101.628C58.475 101.719 58.306 101.819 58.1429 101.928L56.9742 98.1786C56.8193 97.7637 56.5113 97.4239 56.1136 97.2292C55.7159 97.0344 55.2586 96.9995 54.8359 97.1316C54.4132 97.2637 54.0572 97.5528 53.8412 97.9393C53.6251 98.3259 53.5654 98.7805 53.6743 99.2098L56.0492 106.81C55.643 110.228 57.1617 113.528 58.1991 117.047C58.9241 119.484 59.9054 121.103 61.0428 122.047L61.5678 127.809L71.455 127.728L70.0363 119.372Z" fill="#FF9985"/>
<path d="M204.827 137.246L198.527 118.059L198.152 141.571L204.089 138.977C204.41 138.838 204.665 138.581 204.803 138.259C204.94 137.937 204.948 137.574 204.827 137.246Z" fill="white"/>
<path d="M211.17 115.847C208.339 115.616 205.395 115.434 202.42 115.278C201.17 115.216 199.845 115.166 198.552 115.116L198.37 115.691H198.508C198.655 115.663 198.808 115.69 198.938 115.765C199.067 115.841 199.166 115.961 199.214 116.103L206.02 136.821C206.249 137.448 206.231 138.138 205.968 138.751C205.706 139.365 205.219 139.854 204.608 140.121L198.139 142.94L198.102 145.202L199.814 147.115C200.064 147.388 200.274 147.696 200.439 148.027L199.564 149.34C199.473 148.823 199.242 148.341 198.895 147.946L198.095 147.052L198.02 151.64L177.921 181.639L174.552 186.639L172.459 189.764C170.124 193.246 166.547 195.706 162.459 196.638C162.215 196.695 161.965 196.745 161.715 196.788L161.215 196.882L146.459 199.507L153.578 118.834H153.622L153.553 118.259C153.553 118.259 115.76 122.403 108.498 147.821L110.06 155.839L93.8732 184.332L78.0986 127.659L71.4551 127.715L61.5678 127.796H58.7367C58.6242 127.597 58.5117 127.39 58.3929 127.172C57.9492 126.403 57.4179 125.584 56.5805 125.297C55.0118 124.815 54.1743 126.147 53.8243 128.521C53.2622 129.13 52.8445 129.857 52.6021 130.649C52.3597 131.441 52.299 132.278 52.4243 133.096L54.168 139.446C54.9619 145.875 56.1496 152.25 57.7242 158.533C59.3679 163.889 61.6241 169.045 63.1615 174.433C65.2552 181.739 66.0115 189.395 67.7052 196.788C68.6551 197.68 69.6176 198.557 70.5926 199.42C74.6338 202.986 78.9214 206.262 83.4235 209.226C84.2276 209.759 85.0443 210.282 85.8734 210.794C87.8109 211.998 89.79 213.15 91.8108 214.25C92.9232 214.85 94.0482 215.434 95.1857 216C95.6294 216.219 96.0669 216.444 96.5106 216.625C97.5231 217.113 98.5418 217.584 99.5668 218.038C101.179 218.763 102.817 219.444 104.467 220.094C106.217 220.781 107.985 221.419 109.779 222.019C111.962 222.748 114.171 223.413 116.404 224.013L118.279 224.5L118.835 224.631C124.709 226.07 130.688 227.036 136.716 227.519C139.091 227.71 141.489 227.829 143.909 227.875V228.05H144.097L144.953 227.913C149.472 227.181 153.215 226.394 157.89 226.156C159.946 226.056 162.134 226.081 164.346 226.125L166.059 226.169H166.371L166.452 226.081C175.138 224.508 183.61 221.924 191.696 218.382C192.158 217.975 192.62 217.563 193.064 217.132C194.533 215.467 195.857 213.679 197.02 211.788L196.952 215.907C212.025 208.375 225.248 197.606 235.676 184.37L237.394 169.558C245.838 139.265 229.032 118.191 211.17 115.847ZM137.897 132.496L150.309 120.065C150.367 120.007 150.436 119.96 150.513 119.929C150.589 119.897 150.67 119.881 150.753 119.881C150.835 119.881 150.917 119.897 150.993 119.929C151.069 119.96 151.139 120.007 151.197 120.065C151.255 120.124 151.302 120.193 151.333 120.269C151.365 120.345 151.381 120.427 151.381 120.509C151.381 120.592 151.365 120.673 151.333 120.75C151.302 120.826 151.255 120.895 151.197 120.953L138.797 133.378C138.672 133.506 138.575 133.659 138.512 133.827C138.448 133.995 138.42 134.173 138.428 134.353C138.437 134.686 138.568 135.004 138.797 135.246L143.997 140.796C144.214 141.03 144.373 141.313 144.46 141.62C144.548 141.927 144.562 142.25 144.501 142.564C144.44 142.878 144.306 143.172 144.11 143.424C143.914 143.677 143.661 143.879 143.372 144.015L140.047 145.559C139.525 145.803 139.09 146.201 138.8 146.699C138.509 147.197 138.378 147.771 138.422 148.346L139.297 159.508L142.509 200.238L141.259 200.457L138.247 161.777L137.197 148.427C137.131 147.597 137.321 146.768 137.739 146.048C138.158 145.329 138.787 144.755 139.541 144.402L142.866 142.859C142.977 142.807 143.074 142.729 143.149 142.633C143.224 142.536 143.274 142.423 143.297 142.302C143.321 142.184 143.316 142.061 143.282 141.944C143.249 141.828 143.187 141.721 143.103 141.634L137.903 136.084C137.612 135.77 137.402 135.389 137.293 134.975C137.184 134.56 137.179 134.126 137.278 133.709C137.375 133.257 137.588 132.839 137.897 132.496Z" fill="white"/>
<path d="M143.778 71.3981C143.771 69.4855 144.198 67.5963 145.028 65.8732C145.065 65.5682 145.217 65.2888 145.453 65.092C145.119 64.6607 144.934 64.1317 144.928 63.5858L144.797 63.7108C144.609 63.5606 144.435 63.3932 144.278 63.2108C142.36 64.9108 141.072 67.9357 141.072 71.3981C141.072 76.4355 143.772 80.5603 147.216 80.9916L147.147 79.7416C145.122 78.0354 143.778 74.948 143.778 71.3981Z" fill="white"/>
<path d="M144.997 66.0669C144.991 66.0025 144.991 65.9376 144.997 65.8732C144.167 67.5962 143.74 69.4854 143.747 71.398C143.747 74.9479 145.091 78.0353 147.091 79.7103L146.385 67.2106H146.216C145.903 67.2174 145.601 67.1015 145.373 66.8876C145.145 66.6738 145.01 66.3791 144.997 66.0669Z" fill="#91B4DE"/>
<path d="M193.071 217.219C192.627 217.644 192.165 218.057 191.702 218.469C193.477 217.69 195.229 216.867 196.958 216L197.027 211.882C195.863 213.771 194.54 215.556 193.071 217.219Z" fill="#010080"/>
<path d="M157.872 226.244C153.197 226.481 149.453 227.269 144.935 228H145.997C152.194 228 158.381 227.497 164.497 226.494L164.322 226.2C162.115 226.156 159.928 226.131 157.872 226.244Z" fill="#010080"/>
<path d="M197.183 143.709C197.154 143.827 197.155 143.95 197.186 144.068C197.216 144.186 197.275 144.294 197.358 144.384L198.089 145.208L198.127 142.946L197.627 143.171C197.515 143.218 197.415 143.291 197.338 143.385C197.261 143.478 197.207 143.59 197.183 143.709Z" fill="#010080"/>
<path d="M146.416 199.526L161.171 196.901L161.934 192.413L170.871 139.952C170.515 139.718 170.221 139.401 170.015 139.027L167.977 135.459C166.565 132.959 168.027 129.078 170.296 129.265L174.927 129.646C177.196 129.834 178.008 133.934 176.208 136.14L173.621 139.327C173.427 139.57 173.198 139.78 172.94 139.952L174.496 186.664L177.865 181.664L197.964 151.665L198.039 147.077L196.395 145.24C196.182 145.002 196.028 144.716 195.946 144.407C195.865 144.097 195.858 143.773 195.926 143.461C195.995 143.148 196.136 142.856 196.34 142.609C196.543 142.362 196.802 142.167 197.095 142.04L198.127 141.59L198.502 118.078L198.039 116.672L197.989 116.516C197.945 116.372 197.954 116.216 198.015 116.079C198.075 115.941 198.184 115.83 198.32 115.766C198.32 115.766 198.358 115.766 198.389 115.728C198.416 115.725 198.443 115.725 198.47 115.728H198.333C194.895 115.603 191.389 115.541 187.864 115.559L188.058 121.24C172.252 133.178 167.04 123.997 166.971 122.009L166.79 116.728C164.469 116.991 162.178 117.307 159.915 117.678C158.503 117.911 157.103 118.165 155.715 118.44L153.959 118.797L153.547 118.884H153.503L146.416 199.526Z" fill="#010080"/>
<path d="M198.346 115.747C198.209 115.811 198.101 115.922 198.04 116.06C197.979 116.198 197.97 116.353 198.014 116.497L198.064 116.653L198.527 118.059L204.827 137.246C204.948 137.574 204.94 137.937 204.803 138.259C204.665 138.581 204.41 138.838 204.089 138.977L198.152 141.571L197.121 142.021C196.827 142.148 196.568 142.344 196.365 142.591C196.161 142.838 196.02 143.129 195.951 143.442C195.883 143.754 195.89 144.079 195.972 144.388C196.053 144.697 196.207 144.983 196.421 145.221L198.064 147.058L198.864 147.952C199.211 148.347 199.442 148.829 199.533 149.346L200.408 148.033C200.243 147.702 200.033 147.395 199.783 147.121L198.071 145.209L197.358 144.371C197.278 144.28 197.221 144.172 197.19 144.055C197.16 143.937 197.158 143.815 197.184 143.697C197.211 143.578 197.264 143.468 197.341 143.375C197.418 143.281 197.516 143.207 197.627 143.159L198.127 142.934L204.595 140.115C205.207 139.848 205.693 139.358 205.956 138.745C206.218 138.132 206.237 137.441 206.008 136.815L199.202 116.097C199.153 115.955 199.055 115.835 198.925 115.759C198.796 115.683 198.643 115.657 198.496 115.684C198.469 115.681 198.441 115.681 198.414 115.684C198.414 115.684 198.371 115.734 198.346 115.747Z" fill="#B2C3EB"/>
<path d="M190.533 83.1227H187.846C187.485 83.1185 187.127 83.0724 186.777 82.9852L187.102 92.4661L187.727 91.7474C189.431 89.5343 190.682 87.0071 191.408 84.3101C191.539 83.8601 191.664 83.4164 191.783 82.9727C191.4 83.0753 191.005 83.1278 190.608 83.1289L190.533 83.1227Z" fill="#000543"/>
<path d="M144.772 63.7108L144.903 63.5858C144.909 64.1317 145.094 64.6607 145.428 65.092C145.192 65.2888 145.04 65.5682 145.003 65.8732C144.997 65.9377 144.997 66.0026 145.003 66.067C145.021 66.3815 145.162 66.6762 145.397 66.8869C145.631 67.0977 145.939 67.2073 146.253 67.192H146.422L150.722 66.967C150.878 66.9592 151.031 66.9207 151.172 66.8539C151.313 66.787 151.439 66.693 151.544 66.5772C151.649 66.4614 151.73 66.3261 151.782 66.1791C151.835 66.032 151.858 65.8761 151.85 65.7201C151.842 65.5642 151.804 65.4113 151.737 65.2702C151.67 65.1291 151.576 65.0026 151.46 64.8979C151.344 64.7931 151.209 64.7122 151.062 64.6597C150.915 64.6072 150.759 64.5842 150.603 64.592L146.403 64.8108C146.403 64.442 146.441 64.0858 146.472 63.7296C146.528 63.1046 146.616 62.4796 146.728 61.9046C147.054 60.0975 147.626 58.3437 148.428 56.6922C150.584 55.536 154.922 54.0611 162.178 55.0423C172.971 56.5048 170.515 68.7107 181.421 70.8481C182.184 67.0232 184.546 64.1733 187.433 63.8858C187.008 54.7861 184.115 47.755 178.834 42.9739C170.746 35.6241 159.759 36.1616 159.653 36.1678C159.496 36.1684 159.345 36.1104 159.23 36.0051C159.114 35.8998 159.042 35.7549 159.028 35.5991C159.027 35.4436 159.084 35.2934 159.188 35.1779C159.292 35.0623 159.436 34.9896 159.59 34.9741C160.059 34.9741 171.19 34.4179 179.634 42.0551C185.171 47.055 188.202 54.3861 188.64 63.8358C188.64 63.8358 188.64 63.8358 188.64 63.8671H190.446H190.646C192.846 63.8671 194.789 65.3795 196.021 67.7044C196.301 67.2044 196.471 66.6505 196.521 66.0795C196.652 62.9921 199.458 60.0922 199.021 56.9485C198.771 54.9735 196.821 53.8611 196.158 52.0236C195.533 50.2987 196.158 48.2237 195.739 46.3988C194.996 43.0489 191.258 41.7489 189.452 38.9615C188.665 37.7115 186.458 39.5865 185.771 38.2928C184.14 35.2053 181.396 32.8867 178.49 33.5804C176.94 33.9429 176.221 34.2054 174.871 33.7179C174.714 33.6522 174.561 33.5749 174.415 33.4866C173.837 32.2398 173.074 31.0873 172.153 30.068C170.74 28.6493 168.403 27.968 166.634 29.2305C165.384 30.143 164.759 31.7992 163.653 32.9054C159.903 36.5928 152.916 32.2242 149.522 36.2991C147.716 38.4677 148.272 41.6302 148.897 44.2551C147.685 43.0989 145.716 45.2238 145.572 47.0238C145.428 48.8237 145.947 50.8237 144.878 52.3111C144.391 52.9798 143.666 53.4111 143.135 54.0361C141.122 56.3735 142.397 61.1796 144.247 63.2171C144.406 63.3976 144.582 63.5629 144.772 63.7108Z" fill="#000543"/>
<path d="M188.083 121.203L187.89 115.522L187.102 92.4538L186.777 82.9728H186.721C186.043 82.7946 185.407 82.4869 184.846 82.0665C182.465 85.1477 178.04 88.5101 169.934 89.1351C169.915 89.3186 169.83 89.4889 169.694 89.6134C169.558 89.7379 169.381 89.8079 169.196 89.8101H167.746C167.545 89.8084 167.353 89.7274 167.211 89.5846C167.07 89.4417 166.99 89.2487 166.99 89.0476V88.8601C166.99 88.7608 167.01 88.6625 167.048 88.5707C167.086 88.479 167.141 88.3956 167.212 88.3254C167.282 88.2551 167.365 88.1994 167.457 88.1614C167.549 88.1234 167.647 88.1039 167.746 88.1039H169.196C169.339 88.1056 169.478 88.1469 169.598 88.223C169.718 88.2992 169.815 88.4072 169.878 88.5351C177.796 87.9101 182.09 84.6665 184.383 81.6916C182.471 80.0041 181.19 76.9979 181.177 73.5668C181.177 73.5668 181.177 73.523 181.177 73.5043C181.18 72.6167 181.268 71.7315 181.44 70.8606C170.534 68.7232 172.99 56.5172 162.197 55.0548C154.934 54.0736 150.597 55.5485 148.447 56.7047C147.64 58.3411 147.059 60.08 146.722 61.8733C146.609 62.4983 146.522 63.0796 146.466 63.6983C146.434 64.0545 146.409 64.4108 146.397 64.7795L150.597 64.5608C150.753 64.553 150.909 64.576 151.056 64.6284C151.203 64.6809 151.338 64.7618 151.454 64.8666C151.57 64.9713 151.664 65.0979 151.731 65.239C151.797 65.38 151.836 65.5329 151.844 65.6889C151.852 65.8448 151.829 66.0008 151.776 66.1478C151.724 66.2949 151.643 66.4301 151.538 66.5459C151.433 66.6617 151.307 66.7557 151.166 66.8226C151.024 66.8895 150.872 66.9279 150.716 66.9357L146.416 67.1607L147.122 79.6604L147.191 80.9103L147.309 82.9853C147.934 94.1475 155.472 102.097 166.296 101.51L166.815 116.609L166.996 121.89C167.065 123.959 172.278 133.121 188.083 121.203ZM167.653 72.4981C166.89 72.5356 166.228 71.6231 166.171 70.4606C166.115 69.2981 166.678 68.3169 167.421 68.2794C168.165 68.2419 168.84 69.1544 168.903 70.3169C168.965 71.4793 168.409 72.4543 167.653 72.4981ZM163.759 64.1733L168.234 63.942C168.39 63.9338 168.546 63.9564 168.693 64.0085C168.84 64.0606 168.976 64.1412 169.092 64.2456C169.208 64.3501 169.302 64.4764 169.37 64.6173C169.437 64.7583 169.476 64.9111 169.484 65.067C169.492 65.2229 169.469 65.379 169.417 65.5262C169.365 65.6734 169.285 65.8089 169.18 65.925C169.076 66.041 168.949 66.1354 168.809 66.2027C168.668 66.2699 168.515 66.3088 168.359 66.317L163.884 66.5482C163.569 66.5648 163.26 66.4556 163.026 66.2446C162.792 66.0336 162.651 65.7382 162.634 65.4232C162.617 65.1083 162.727 64.7997 162.938 64.5653C163.149 64.3309 163.444 64.1899 163.759 64.1733ZM150.634 68.8232C151.397 68.7794 152.059 69.6919 152.116 70.8606C152.172 72.0293 151.609 73.0043 150.866 73.0418C150.122 73.0793 149.447 72.1668 149.384 70.9981C149.322 69.8294 149.884 68.8544 150.641 68.8169L150.634 68.8232ZM156.997 80.6228C156.486 80.5113 156.025 80.235 155.687 79.8364C155.348 79.4378 155.149 78.939 155.122 78.4166C155.1 78.0918 155.147 77.7659 155.259 77.4604L155.409 77.0542C155.451 77.2705 155.52 77.4805 155.615 77.6792C155.769 77.9925 155.99 78.2675 156.264 78.4839C156.538 78.7002 156.856 78.8524 157.197 78.9291L159.559 79.4541C159.926 79.5326 160.308 79.4947 160.652 79.3457C160.996 79.1967 161.284 78.944 161.478 78.6229L161.534 78.8416C161.61 79.1487 161.607 79.47 161.525 79.7756C161.444 80.0812 161.286 80.3612 161.067 80.5895C160.848 80.8178 160.575 80.987 160.273 81.0813C159.971 81.1757 159.65 81.1921 159.34 81.1291L156.997 80.6228ZM165.746 86.0789C163.359 89.3288 159.609 87.1914 159.609 87.1914L165.721 85.2415L166.346 85.029C166.178 85.3942 165.977 85.7436 165.746 86.0727V86.0789Z" fill="#FF9985"/>
<path d="M163.872 66.5419L168.347 66.3107C168.503 66.3025 168.655 66.2636 168.796 66.1963C168.937 66.1291 169.063 66.0347 169.168 65.9187C169.272 65.8026 169.353 65.6671 169.405 65.5199C169.457 65.3727 169.48 65.2166 169.472 65.0607C169.463 64.9048 169.425 64.752 169.357 64.611C169.29 64.4701 169.196 64.3438 169.08 64.2393C168.963 64.1349 168.828 64.0543 168.681 64.0022C168.534 63.9501 168.378 63.9275 168.222 63.9357L163.747 64.167C163.432 64.1835 163.136 64.3245 162.925 64.559C162.714 64.7934 162.605 65.102 162.622 65.4169C162.638 65.7319 162.779 66.0273 163.014 66.2383C163.248 66.4493 163.557 66.5585 163.872 66.5419Z" fill="#000543"/>
<path d="M150.86 73.0356C151.616 72.9981 152.184 72.0168 152.109 70.8544C152.034 69.6919 151.391 68.7732 150.628 68.8169C149.866 68.8607 149.31 69.8294 149.378 70.9919C149.447 72.1543 150.122 73.0731 150.86 73.0356Z" fill="#000543"/>
<path d="M167.434 68.2731C166.678 68.3106 166.109 69.2856 166.184 70.4543C166.259 71.623 166.903 72.5292 167.665 72.4917C168.428 72.4542 168.984 71.4793 168.915 70.3105C168.846 69.1418 168.19 68.2356 167.434 68.2731Z" fill="#000543"/>
<path d="M161.553 78.8541L161.497 78.6354C161.303 78.9565 161.014 79.2091 160.67 79.3582C160.326 79.5072 159.944 79.5451 159.578 79.4666L157.215 78.9416C156.875 78.8648 156.556 78.7127 156.283 78.4963C156.009 78.28 155.788 78.005 155.634 77.6916C155.539 77.493 155.47 77.2829 155.428 77.0667L155.278 77.4729C155.165 77.7784 155.119 78.1042 155.141 78.4291C155.168 78.9515 155.367 79.4503 155.705 79.8489C156.044 80.2475 156.504 80.5238 157.015 80.6353L159.378 81.1603C159.689 81.2208 160.009 81.2018 160.311 81.105C160.612 81.0081 160.884 80.8366 161.101 80.6064C161.318 80.3762 161.473 80.0948 161.552 79.7884C161.631 79.482 161.632 79.1606 161.553 78.8541Z" fill="#FA694F"/>
<path d="M165.747 85.2352L159.634 87.1852C159.634 87.1852 163.384 89.3226 165.772 86.0727C166.012 85.7426 166.221 85.3911 166.397 85.0227L165.747 85.2352Z" fill="white"/>
<path d="M173.621 139.327L176.208 136.14C178.008 133.934 177.196 129.834 174.927 129.646L170.296 129.265C168.027 129.078 166.546 132.984 167.977 135.459L170.015 139.027C170.221 139.401 170.515 139.718 170.871 139.952L161.934 192.413L161.171 196.901L161.671 196.807C161.921 196.763 162.171 196.713 162.415 196.657C166.503 195.724 170.08 193.265 172.415 189.782L174.509 186.657L172.927 139.921C173.187 139.76 173.421 139.559 173.621 139.327Z" fill="#91B4DE"/>
<path d="M187.902 63.8482H188.102H188.627C188.627 63.8482 188.627 63.8482 188.627 63.8169C188.189 54.3672 185.158 47.0424 179.621 42.0363C171.184 34.4115 160.053 34.9427 159.584 34.999C159.429 35.0145 159.286 35.0872 159.182 35.2027C159.078 35.3183 159.021 35.4685 159.021 35.6239C159.036 35.7798 159.108 35.9246 159.223 36.0299C159.339 36.1352 159.49 36.1933 159.646 36.1927C159.753 36.1927 170.759 35.6677 178.827 42.9737C184.108 47.7549 187.002 54.7859 187.427 63.8857H187.696L187.902 63.8482Z" fill="#91B4DE"/>
<path d="M137.878 136.084L143.078 141.634C143.162 141.721 143.224 141.828 143.257 141.944C143.291 142.061 143.296 142.184 143.272 142.302C143.25 142.423 143.199 142.536 143.124 142.633C143.049 142.729 142.952 142.807 142.841 142.859L139.497 144.402C138.743 144.755 138.115 145.329 137.696 146.048C137.277 146.767 137.088 147.597 137.153 148.427L138.247 161.777L141.291 200.438L142.541 200.219L139.328 159.489L138.453 148.327C138.409 147.752 138.541 147.178 138.831 146.68C139.121 146.182 139.556 145.784 140.078 145.54L143.403 143.996C143.692 143.86 143.945 143.658 144.141 143.406C144.337 143.154 144.471 142.859 144.532 142.545C144.593 142.232 144.579 141.908 144.492 141.601C144.404 141.294 144.245 141.012 144.028 140.777L138.828 135.228C138.6 134.985 138.469 134.667 138.46 134.334C138.451 134.155 138.48 133.976 138.543 133.808C138.606 133.64 138.703 133.488 138.828 133.359L151.228 120.934C151.287 120.876 151.333 120.807 151.365 120.731C151.396 120.655 151.413 120.573 151.413 120.49C151.413 120.408 151.396 120.326 151.365 120.25C151.333 120.174 151.287 120.105 151.228 120.047C151.17 119.988 151.101 119.942 151.025 119.91C150.948 119.878 150.867 119.862 150.784 119.862C150.702 119.862 150.62 119.878 150.544 119.91C150.468 119.942 150.399 119.988 150.34 120.047L137.897 132.496C137.569 132.845 137.342 133.278 137.241 133.746C137.15 134.158 137.16 134.586 137.271 134.994C137.382 135.401 137.591 135.775 137.878 136.084Z" fill="#B2C3EB"/>
<path d="M187.846 82.3353V82.2478C187.439 81.9782 187.062 81.666 186.721 81.3165C186.442 81.0324 186.185 80.7274 185.952 80.4041C185.612 80.9757 185.239 81.5267 184.833 82.054C185.394 82.4743 186.031 82.7821 186.708 82.9602H186.765C187.114 83.0474 187.473 83.0936 187.833 83.0977L187.846 82.3353Z" fill="white"/>
<path d="M183.871 73.5917C183.871 73.5542 183.871 73.523 183.871 73.4855C183.872 72.519 183.974 71.5554 184.177 70.6105C184.574 68.418 185.718 66.4306 187.414 64.9857V63.8607C184.54 64.1482 182.165 66.9856 181.402 70.823C181.231 71.6939 181.143 72.5791 181.14 73.4667C181.14 73.4667 181.14 73.5042 181.14 73.5292C181.14 76.9666 182.433 79.9728 184.346 81.654C184.794 81.0742 185.2 80.4622 185.558 79.8228C184.446 77.9352 183.863 75.7826 183.871 73.5917Z" fill="white"/>
<path d="M189.271 64.0482C189.649 63.9383 190.039 63.8753 190.433 63.8607H187.433V64.9982C187.98 64.5683 188.604 64.2459 189.271 64.0482Z" fill="#D7E1FC"/>
<path d="M187.846 83.1227H190.533C190.109 83.1171 189.689 83.0519 189.283 82.9289C188.812 82.7859 188.363 82.5753 187.952 82.304L187.858 82.2415V83.1227H187.846Z" fill="#D7E1FC"/>
<path d="M190.633 63.8483H190.433C190.04 63.8629 189.649 63.9258 189.271 64.0358C188.603 64.2373 187.979 64.5639 187.433 64.9982C185.737 66.4432 184.593 68.4306 184.196 70.6231C183.993 71.568 183.891 72.5316 183.89 73.498C183.89 73.5355 183.89 73.5667 183.89 73.6042C183.879 75.8016 184.462 77.961 185.577 79.8541C185.219 80.4935 184.813 81.1055 184.365 81.6853C182.071 84.6602 177.777 87.9351 169.859 88.5288C169.906 88.6309 169.931 88.7415 169.934 88.8538V89.0476C169.936 89.0746 169.936 89.1018 169.934 89.1288C178.059 88.5038 182.434 85.1414 184.846 82.0603C185.251 81.5329 185.625 80.982 185.965 80.4103C186.197 80.7336 186.454 81.0387 186.733 81.3228C187.074 81.6723 187.451 81.9844 187.858 82.254L187.952 82.3165C188.363 82.5879 188.812 82.7984 189.283 82.9415C189.689 83.0644 190.11 83.1297 190.533 83.1352H190.633C191.03 83.1341 191.425 83.0816 191.808 82.979C194.971 82.1853 197.377 78.2479 197.377 73.5043C197.397 71.4886 196.928 69.4982 196.008 67.7044C194.777 65.3607 192.833 63.8483 190.633 63.8483Z" fill="#91B4DE"/>
<path d="M169.94 88.8475C169.937 88.7352 169.912 88.6246 169.865 88.5225C169.802 88.3946 169.706 88.2866 169.585 88.2105C169.465 88.1343 169.326 88.0931 169.184 88.0913H167.734C167.634 88.0913 167.536 88.1109 167.444 88.1489C167.353 88.1869 167.269 88.2426 167.199 88.3128C167.129 88.383 167.073 88.4664 167.035 88.5581C166.997 88.6499 166.978 88.7482 166.978 88.8475V89.035C166.978 89.2362 167.057 89.4292 167.199 89.572C167.34 89.7148 167.533 89.7959 167.734 89.7975H169.184C169.368 89.7954 169.545 89.7253 169.681 89.6008C169.817 89.4763 169.903 89.306 169.921 89.1225C169.923 89.0955 169.923 89.0683 169.921 89.0413L169.94 88.8475Z" fill="#D7E1FC"/>
</g>
<defs>
<clipPath id="clip0">
<rect width="228" height="228.15" fill="white" transform="translate(32)"/>
</clipPath>
</defs>
</svg>
