<svg width="228" height="229" viewBox="0 0 228 229" fill="none" xmlns="http://www.w3.org/2000/svg">
<g clip-path="url(#clip0)">
<path d="M113.997 0C51.0425 0 0.000103246 51.0423 0.000103246 113.997C-0.0208125 129.516 3.13635 144.875 9.27705 159.128C15.4178 173.381 24.4119 186.225 35.7054 196.87C34.0117 189.476 33.2554 181.82 31.1618 174.514C29.6243 169.127 27.3681 163.971 25.7244 158.614C24.1498 152.331 22.9622 145.956 22.1682 139.527L20.4245 133.178C20.2992 132.359 20.36 131.522 20.6023 130.73C20.8447 129.938 21.2624 129.211 21.8245 128.603C22.1745 126.228 23.012 124.897 24.5807 125.378C25.4182 125.64 25.9494 126.459 26.3931 127.253C26.5119 127.453 26.6244 127.659 26.7369 127.878H29.568L29.0431 122.115C27.9056 121.184 26.9244 119.565 26.1994 117.116C25.1619 113.597 23.6432 110.297 24.0494 106.878L21.6745 99.2785C21.6023 99.0602 21.5738 98.8298 21.5906 98.6005C21.6074 98.3711 21.6692 98.1474 21.7725 97.9419C21.8758 97.7365 22.0186 97.5534 22.1926 97.4031C22.3667 97.2528 22.5687 97.1383 22.787 97.0661C23.0053 96.9939 23.2357 96.9654 23.465 96.9822C23.6944 96.999 23.9182 97.0608 24.1236 97.1641C24.329 97.2674 24.5121 97.4102 24.6624 97.5842C24.8127 97.7583 24.9272 97.9602 24.9994 98.1786L26.1681 101.928C26.3313 101.819 26.5003 101.719 26.6744 101.628L24.4994 94.6599C24.4172 94.4395 24.3807 94.2046 24.3922 93.9696C24.4037 93.7346 24.463 93.5045 24.5665 93.2932C24.6699 93.0819 24.8154 92.8939 24.9939 92.7407C25.1725 92.5875 25.3804 92.4723 25.6049 92.4021C25.8295 92.3319 26.066 92.3082 26.3 92.3325C26.534 92.3568 26.7606 92.4285 26.966 92.5433C27.1714 92.6581 27.3512 92.8136 27.4945 93.0002C27.6377 93.1868 27.7415 93.4006 27.7993 93.6287L29.9868 100.628C30.5618 100.51 31.143 100.416 31.7242 100.341L28.8556 91.2475C28.7466 90.8183 28.8064 90.3636 29.0224 89.977C29.2385 89.5905 29.5945 89.3014 30.0172 89.1693C30.4399 89.0372 30.8972 89.0721 31.2949 89.2669C31.6926 89.4616 32.0006 89.8014 32.1555 90.2163L35.2804 100.172C35.7273 100.196 36.1721 100.25 36.6116 100.335L33.7492 91.185C33.6403 90.7558 33.7 90.3011 33.9161 89.9145C34.1321 89.528 34.4881 89.2389 34.9108 89.1068C35.3335 88.9747 35.7908 89.0096 36.1885 89.2044C36.5862 89.3991 36.8942 89.7389 37.0491 90.1538L41.249 103.547C41.3088 103.75 41.3321 103.961 41.3177 104.172C41.399 104.366 41.474 104.553 41.5427 104.747L43.2927 101.728C43.3986 101.486 43.5545 101.269 43.7503 101.091C43.9461 100.913 44.1773 100.779 44.4287 100.697C44.68 100.615 44.9459 100.587 45.2089 100.615C45.4719 100.643 45.7259 100.726 45.9544 100.859C46.1829 100.992 46.3807 101.172 46.5347 101.387C46.6888 101.602 46.7956 101.847 46.8482 102.106C46.9008 102.366 46.898 102.633 46.8399 102.891C46.7818 103.149 46.6699 103.392 46.5113 103.603L41.6177 112.028C41.5556 112.138 41.4823 112.24 41.399 112.334C40.3615 115.747 39.7365 117.534 38.0616 119.353L39.4803 127.722L46.1238 127.665L61.8734 184.332L78.023 155.852L76.4605 147.833C83.7228 122.415 121.516 118.272 121.516 118.272L121.584 118.847L121.997 118.759L123.753 118.403C125.14 118.128 126.54 117.874 127.953 117.641C130.211 117.266 132.503 116.949 134.828 116.691L134.309 101.591C123.484 102.178 115.953 94.2287 115.322 83.0665L115.203 80.9915C111.76 80.5603 109.06 76.4354 109.06 71.398C109.06 67.9356 110.347 64.9107 112.266 63.2108C110.391 61.1733 109.141 56.336 111.153 54.0298C111.685 53.4048 112.403 52.9736 112.897 52.3048C113.966 50.8174 113.453 48.8237 113.591 47.0175C113.728 45.2113 115.703 43.0926 116.916 44.2488C116.291 41.6239 115.747 38.4614 117.541 36.2928C120.934 32.2179 127.897 36.5865 131.671 32.8991C132.796 31.7929 133.39 30.1367 134.653 29.2242C136.396 27.9742 138.759 28.643 140.171 30.0617C141.093 31.081 141.856 32.2335 142.434 33.4803C142.58 33.5686 142.732 33.6458 142.89 33.7116C144.24 34.2053 144.959 33.9366 146.509 33.5741C149.44 32.8804 152.133 35.199 153.79 38.2864C154.477 39.5864 156.683 37.7302 157.471 38.9552C159.277 41.7426 163.014 43.0426 163.758 46.3925C164.158 48.2049 163.552 50.2799 164.177 52.0173C164.839 53.8548 166.789 54.9672 167.039 56.9422C167.446 60.0671 164.639 62.9858 164.539 66.0732C164.49 66.6442 164.319 67.1981 164.039 67.6982C164.959 69.4919 165.429 71.4824 165.408 73.498C165.408 78.2416 163.002 82.179 159.839 82.9727C159.721 83.4165 159.596 83.8602 159.464 84.3102C158.738 87.0071 157.487 89.5344 155.783 91.7475L155.158 92.4662L155.946 115.534C159.471 115.534 162.977 115.578 166.414 115.703L166.596 115.128C167.889 115.178 169.189 115.228 170.464 115.291C173.452 115.447 176.395 115.628 179.214 115.859C197.076 118.203 213.882 139.277 205.463 169.608L203.676 184.37C219.467 164.315 228.036 139.522 228 113.997C228 51.0423 176.958 0 113.997 0Z" fill="#7C4EFF"/>
<path d="M38.0363 119.372C39.7113 117.553 40.3363 115.766 41.3737 112.353C41.4571 112.259 41.5304 112.156 41.5925 112.047L46.4861 103.622C46.6446 103.411 46.7566 103.168 46.8147 102.91C46.8727 102.652 46.8755 102.384 46.8229 102.125C46.7704 101.866 46.6635 101.621 46.5095 101.406C46.3555 101.191 46.1577 101.011 45.9292 100.878C45.7007 100.745 45.4466 100.662 45.1837 100.634C44.9207 100.606 44.6548 100.634 44.4034 100.716C44.152 100.798 43.9209 100.932 43.7251 101.11C43.5293 101.288 43.3733 101.505 43.2674 101.747L41.5175 104.766C41.4487 104.572 41.3737 104.385 41.2925 104.191C41.3068 103.98 41.2835 103.769 41.2237 103.566L37.0426 90.1725C36.8767 89.7761 36.5692 89.4555 36.18 89.2731C35.7908 89.0908 35.3477 89.0598 34.9369 89.186C34.5261 89.3123 34.1769 89.5869 33.9573 89.9564C33.7378 90.3259 33.6635 90.7638 33.7489 91.185L36.6051 100.335C36.1656 100.25 35.7208 100.196 35.2739 100.172L32.149 90.2163C31.9862 89.8127 31.6773 89.4853 31.284 89.2991C30.8906 89.113 30.4416 89.0818 30.0262 89.2119C29.6109 89.3419 29.2598 89.6236 29.0429 90.0008C28.8259 90.378 28.7589 90.8231 28.8553 91.2475L31.699 100.341C31.1178 100.416 30.5365 100.51 29.9615 100.629L27.7741 93.6287C27.7162 93.4007 27.6125 93.1868 27.4692 93.0002C27.3259 92.8136 27.1461 92.6581 26.9408 92.5433C26.7354 92.4285 26.5088 92.3568 26.2748 92.3325C26.0408 92.3082 25.8043 92.3319 25.5797 92.4021C25.3551 92.4723 25.1472 92.5875 24.9687 92.7407C24.7902 92.8939 24.6447 93.0819 24.5413 93.2932C24.4378 93.5045 24.3785 93.7347 24.367 93.9696C24.3554 94.2046 24.3919 94.4395 24.4742 94.6599L26.6491 101.628C26.475 101.719 26.306 101.819 26.1429 101.928L24.9742 98.1786C24.8193 97.7637 24.5113 97.4239 24.1136 97.2292C23.7159 97.0344 23.2586 96.9995 22.8359 97.1316C22.4132 97.2637 22.0572 97.5528 21.8412 97.9393C21.6251 98.3259 21.5654 98.7805 21.6743 99.2098L24.0492 106.81C23.643 110.228 25.1617 113.528 26.1991 117.047C26.9241 119.484 27.9054 121.103 29.0428 122.047L29.5678 127.809L39.455 127.728L38.0363 119.372Z" fill="#FF9985"/>
<path d="M172.827 137.246L166.527 118.059L166.152 141.571L172.089 138.977C172.41 138.838 172.665 138.581 172.803 138.259C172.94 137.937 172.948 137.574 172.827 137.246Z" fill="white"/>
<path d="M179.17 115.847C176.339 115.616 173.395 115.434 170.42 115.278C169.17 115.216 167.845 115.166 166.552 115.116L166.37 115.691H166.508C166.655 115.663 166.808 115.69 166.938 115.765C167.067 115.841 167.166 115.961 167.214 116.103L174.02 136.821C174.249 137.448 174.231 138.138 173.968 138.751C173.706 139.365 173.219 139.854 172.608 140.121L166.139 142.94L166.102 145.202L167.814 147.115C168.064 147.388 168.274 147.696 168.439 148.027L167.564 149.34C167.473 148.823 167.242 148.341 166.895 147.946L166.095 147.052L166.02 151.64L145.921 181.639L142.552 186.639L140.459 189.764C138.124 193.246 134.547 195.706 130.459 196.638C130.215 196.695 129.965 196.745 129.715 196.788L129.215 196.882L114.459 199.507L121.578 118.834H121.622L121.553 118.259C121.553 118.259 83.7601 122.403 76.4978 147.821L78.0603 155.839L61.8732 184.332L46.0986 127.659L39.4551 127.715L29.5678 127.796H26.7367C26.6242 127.597 26.5117 127.39 26.3929 127.172C25.9492 126.403 25.4179 125.584 24.5805 125.297C23.0118 124.815 22.1743 126.147 21.8243 128.521C21.2622 129.13 20.8445 129.857 20.6021 130.649C20.3597 131.441 20.299 132.278 20.4243 133.096L22.168 139.446C22.9619 145.875 24.1496 152.25 25.7242 158.533C27.3679 163.889 29.6241 169.045 31.1615 174.433C33.2552 181.739 34.0115 189.395 35.7052 196.788C36.6551 197.68 37.6176 198.557 38.5926 199.42C42.6338 202.986 46.9214 206.262 51.4235 209.226C52.2276 209.759 53.0443 210.282 53.8734 210.794C55.8109 211.998 57.79 213.15 59.8108 214.25C60.9232 214.85 62.0482 215.434 63.1857 216C63.6294 216.219 64.0669 216.444 64.5106 216.625C65.5231 217.113 66.5418 217.584 67.5668 218.038C69.1792 218.763 70.8167 219.444 72.4667 220.094C74.2166 220.781 75.9853 221.419 77.779 222.019C79.9623 222.748 82.1706 223.413 84.4038 224.013L86.2788 224.5L86.835 224.631C92.7085 226.07 98.6879 227.036 104.716 227.519C107.091 227.71 109.489 227.829 111.909 227.875V228.05H112.097L112.953 227.913C117.472 227.181 121.215 226.394 125.89 226.156C127.946 226.056 130.134 226.081 132.346 226.125L134.059 226.169H134.371L134.452 226.081C143.138 224.508 151.61 221.924 159.696 218.382C160.158 217.975 160.62 217.563 161.064 217.132C162.533 215.467 163.857 213.679 165.02 211.788L164.952 215.907C180.025 208.375 193.248 197.606 203.676 184.37L205.394 169.558C213.838 139.265 197.032 118.191 179.17 115.847ZM105.897 132.496L118.309 120.065C118.367 120.007 118.436 119.96 118.513 119.929C118.589 119.897 118.67 119.881 118.753 119.881C118.835 119.881 118.917 119.897 118.993 119.929C119.069 119.96 119.139 120.007 119.197 120.065C119.255 120.124 119.302 120.193 119.333 120.269C119.365 120.345 119.381 120.427 119.381 120.509C119.381 120.592 119.365 120.673 119.333 120.75C119.302 120.826 119.255 120.895 119.197 120.953L106.797 133.378C106.672 133.506 106.575 133.659 106.512 133.827C106.448 133.995 106.42 134.173 106.428 134.353C106.437 134.686 106.568 135.004 106.797 135.246L111.997 140.796C112.214 141.03 112.373 141.313 112.46 141.62C112.548 141.927 112.562 142.25 112.501 142.564C112.44 142.878 112.306 143.172 112.11 143.424C111.914 143.677 111.661 143.879 111.372 144.015L108.047 145.559C107.525 145.803 107.09 146.201 106.8 146.699C106.509 147.197 106.378 147.771 106.422 148.346L107.297 159.508L110.509 200.238L109.259 200.457L106.247 161.777L105.197 148.427C105.131 147.597 105.321 146.768 105.739 146.048C106.158 145.329 106.787 144.755 107.541 144.402L110.866 142.859C110.977 142.807 111.074 142.729 111.149 142.633C111.224 142.536 111.274 142.423 111.297 142.302C111.321 142.184 111.316 142.061 111.282 141.944C111.249 141.828 111.187 141.721 111.103 141.634L105.903 136.084C105.612 135.77 105.402 135.389 105.293 134.975C105.184 134.56 105.179 134.126 105.278 133.709C105.375 133.257 105.588 132.839 105.897 132.496Z" fill="white"/>
<path d="M111.778 71.3981C111.771 69.4855 112.198 67.5963 113.028 65.8732C113.065 65.5682 113.217 65.2888 113.453 65.092C113.119 64.6607 112.934 64.1317 112.928 63.5858L112.797 63.7108C112.609 63.5606 112.435 63.3932 112.278 63.2108C110.36 64.9108 109.072 67.9357 109.072 71.3981C109.072 76.4355 111.772 80.5603 115.216 80.9916L115.147 79.7416C113.122 78.0354 111.778 74.948 111.778 71.3981Z" fill="white"/>
<path d="M112.997 66.0669C112.991 66.0025 112.991 65.9376 112.997 65.8732C112.167 67.5962 111.74 69.4854 111.747 71.398C111.747 74.9479 113.091 78.0353 115.091 79.7103L114.385 67.2106H114.216C113.903 67.2174 113.601 67.1015 113.373 66.8876C113.145 66.6738 113.01 66.3791 112.997 66.0669Z" fill="#91B4DE"/>
<path d="M161.071 217.219C160.627 217.644 160.165 218.057 159.702 218.469C161.477 217.69 163.229 216.867 164.958 216L165.027 211.882C163.863 213.771 162.54 215.556 161.071 217.219Z" fill="#010080"/>
<path d="M125.872 226.244C121.197 226.481 117.453 227.269 112.935 228H113.997C120.194 228 126.381 227.497 132.497 226.494L132.322 226.2C130.115 226.156 127.928 226.131 125.872 226.244Z" fill="#010080"/>
<path d="M165.183 143.709C165.154 143.827 165.155 143.95 165.186 144.068C165.216 144.186 165.275 144.294 165.358 144.384L166.089 145.208L166.127 142.946L165.627 143.171C165.515 143.218 165.415 143.291 165.338 143.385C165.261 143.478 165.207 143.59 165.183 143.709Z" fill="#010080"/>
<path d="M114.416 199.526L129.171 196.901L129.934 192.413L138.871 139.952C138.515 139.718 138.221 139.401 138.015 139.027L135.977 135.459C134.565 132.959 136.027 129.078 138.296 129.265L142.927 129.646C145.196 129.834 146.008 133.934 144.208 136.14L141.621 139.327C141.427 139.57 141.198 139.78 140.94 139.952L142.496 186.664L145.865 181.664L165.964 151.665L166.039 147.077L164.395 145.24C164.182 145.002 164.028 144.716 163.946 144.407C163.865 144.097 163.858 143.773 163.926 143.461C163.995 143.148 164.136 142.856 164.34 142.609C164.543 142.362 164.802 142.167 165.095 142.04L166.127 141.59L166.502 118.078L166.039 116.672L165.989 116.516C165.945 116.372 165.954 116.216 166.015 116.079C166.075 115.941 166.184 115.83 166.32 115.766C166.32 115.766 166.358 115.766 166.389 115.728C166.416 115.725 166.443 115.725 166.47 115.728H166.333C162.895 115.603 159.389 115.541 155.864 115.559L156.058 121.24C140.252 133.178 135.04 123.997 134.971 122.009L134.79 116.728C132.469 116.991 130.178 117.307 127.915 117.678C126.503 117.911 125.103 118.165 123.715 118.44L121.959 118.797L121.547 118.884H121.503L114.416 199.526Z" fill="#010080"/>
<path d="M166.346 115.747C166.209 115.811 166.101 115.922 166.04 116.06C165.979 116.198 165.97 116.353 166.014 116.497L166.064 116.653L166.527 118.059L172.827 137.246C172.948 137.574 172.94 137.937 172.803 138.259C172.665 138.581 172.41 138.838 172.089 138.977L166.152 141.571L165.121 142.021C164.827 142.148 164.568 142.344 164.365 142.591C164.161 142.838 164.02 143.129 163.951 143.442C163.883 143.754 163.89 144.079 163.972 144.388C164.053 144.697 164.207 144.983 164.421 145.221L166.064 147.058L166.864 147.952C167.211 148.347 167.442 148.829 167.533 149.346L168.408 148.033C168.243 147.702 168.033 147.395 167.783 147.121L166.071 145.209L165.358 144.371C165.278 144.28 165.221 144.172 165.19 144.055C165.16 143.937 165.158 143.815 165.184 143.697C165.211 143.578 165.264 143.468 165.341 143.375C165.418 143.281 165.516 143.207 165.627 143.159L166.127 142.934L172.595 140.115C173.207 139.848 173.693 139.358 173.956 138.745C174.218 138.132 174.237 137.441 174.008 136.815L167.202 116.097C167.153 115.955 167.055 115.835 166.925 115.759C166.796 115.683 166.643 115.657 166.496 115.684C166.469 115.681 166.441 115.681 166.414 115.684C166.414 115.684 166.371 115.734 166.346 115.747Z" fill="#B2C3EB"/>
<path d="M158.533 83.1227H155.846C155.485 83.1185 155.127 83.0724 154.777 82.9852L155.102 92.4661L155.727 91.7474C157.431 89.5343 158.682 87.0071 159.408 84.3101C159.539 83.8601 159.664 83.4164 159.783 82.9727C159.4 83.0753 159.005 83.1278 158.608 83.1289L158.533 83.1227Z" fill="#000543"/>
<path d="M112.772 63.7108L112.903 63.5858C112.909 64.1317 113.094 64.6607 113.428 65.092C113.192 65.2888 113.04 65.5682 113.003 65.8732C112.997 65.9377 112.997 66.0026 113.003 66.067C113.021 66.3815 113.162 66.6762 113.397 66.8869C113.631 67.0977 113.939 67.2073 114.253 67.192H114.422L118.722 66.967C118.878 66.9592 119.031 66.9207 119.172 66.8539C119.313 66.787 119.439 66.693 119.544 66.5772C119.649 66.4614 119.73 66.3261 119.782 66.1791C119.835 66.032 119.858 65.8761 119.85 65.7201C119.842 65.5642 119.804 65.4113 119.737 65.2702C119.67 65.1291 119.576 65.0026 119.46 64.8979C119.344 64.7931 119.209 64.7122 119.062 64.6597C118.915 64.6072 118.759 64.5842 118.603 64.592L114.403 64.8108C114.403 64.442 114.441 64.0858 114.472 63.7296C114.528 63.1046 114.616 62.4796 114.728 61.9046C115.054 60.0975 115.626 58.3437 116.428 56.6922C118.584 55.536 122.922 54.0611 130.178 55.0423C140.971 56.5048 138.515 68.7107 149.421 70.8481C150.184 67.0232 152.546 64.1733 155.433 63.8858C155.008 54.7861 152.115 47.755 146.834 42.9739C138.746 35.6241 127.759 36.1616 127.653 36.1678C127.496 36.1684 127.345 36.1104 127.23 36.0051C127.114 35.8998 127.042 35.7549 127.028 35.5991C127.027 35.4436 127.084 35.2934 127.188 35.1779C127.292 35.0623 127.436 34.9896 127.59 34.9741C128.059 34.9741 139.19 34.4179 147.634 42.0551C153.171 47.055 156.202 54.3861 156.64 63.8358C156.64 63.8358 156.64 63.8358 156.64 63.8671H158.446H158.646C160.846 63.8671 162.789 65.3795 164.021 67.7044C164.301 67.2044 164.471 66.6505 164.521 66.0795C164.652 62.9921 167.458 60.0922 167.021 56.9485C166.771 54.9735 164.821 53.8611 164.158 52.0236C163.533 50.2987 164.158 48.2237 163.739 46.3988C162.996 43.0489 159.258 41.7489 157.452 38.9615C156.665 37.7115 154.458 39.5865 153.771 38.2928C152.14 35.2053 149.396 32.8867 146.49 33.5804C144.94 33.9429 144.221 34.2054 142.871 33.7179C142.714 33.6522 142.561 33.5749 142.415 33.4866C141.837 32.2398 141.074 31.0873 140.153 30.068C138.74 28.6493 136.403 27.968 134.634 29.2305C133.384 30.143 132.759 31.7992 131.653 32.9054C127.903 36.5928 120.916 32.2242 117.522 36.2991C115.716 38.4677 116.272 41.6302 116.897 44.2551C115.685 43.0989 113.716 45.2238 113.572 47.0238C113.428 48.8237 113.947 50.8237 112.878 52.3111C112.391 52.9798 111.666 53.4111 111.135 54.0361C109.122 56.3735 110.397 61.1796 112.247 63.2171C112.406 63.3976 112.582 63.5629 112.772 63.7108Z" fill="#000543"/>
<path d="M156.083 121.203L155.89 115.522L155.102 92.4538L154.777 82.9728H154.721C154.043 82.7946 153.407 82.4869 152.846 82.0665C150.465 85.1477 146.04 88.5101 137.934 89.1351C137.915 89.3186 137.83 89.4889 137.694 89.6134C137.558 89.7379 137.381 89.8079 137.196 89.8101H135.746C135.545 89.8084 135.353 89.7274 135.211 89.5846C135.07 89.4417 134.99 89.2487 134.99 89.0476V88.8601C134.99 88.7608 135.01 88.6625 135.048 88.5707C135.086 88.479 135.141 88.3956 135.212 88.3254C135.282 88.2551 135.365 88.1994 135.457 88.1614C135.549 88.1234 135.647 88.1039 135.746 88.1039H137.196C137.339 88.1056 137.478 88.1469 137.598 88.223C137.718 88.2992 137.815 88.4072 137.878 88.5351C145.796 87.9101 150.09 84.6665 152.383 81.6916C150.471 80.0041 149.19 76.9979 149.177 73.5668C149.177 73.5668 149.177 73.523 149.177 73.5043C149.18 72.6167 149.268 71.7315 149.44 70.8606C138.534 68.7232 140.99 56.5172 130.197 55.0548C122.934 54.0736 118.597 55.5485 116.447 56.7047C115.64 58.3411 115.059 60.08 114.722 61.8733C114.609 62.4983 114.522 63.0796 114.466 63.6983C114.434 64.0545 114.409 64.4108 114.397 64.7795L118.597 64.5608C118.753 64.553 118.909 64.576 119.056 64.6284C119.203 64.6809 119.338 64.7618 119.454 64.8666C119.57 64.9713 119.664 65.0979 119.731 65.239C119.797 65.38 119.836 65.5329 119.844 65.6889C119.852 65.8448 119.829 66.0008 119.776 66.1478C119.724 66.2949 119.643 66.4301 119.538 66.5459C119.433 66.6617 119.307 66.7557 119.166 66.8226C119.024 66.8895 118.872 66.9279 118.716 66.9357L114.416 67.1607L115.122 79.6604L115.191 80.9103L115.309 82.9853C115.934 94.1475 123.472 102.097 134.296 101.51L134.815 116.609L134.996 121.89C135.065 123.959 140.278 133.121 156.083 121.203ZM135.653 72.4981C134.89 72.5356 134.228 71.6231 134.171 70.4606C134.115 69.2981 134.678 68.3169 135.421 68.2794C136.165 68.2419 136.84 69.1544 136.903 70.3169C136.965 71.4793 136.409 72.4543 135.653 72.4981ZM131.759 64.1733L136.234 63.942C136.39 63.9338 136.546 63.9564 136.693 64.0085C136.84 64.0606 136.976 64.1412 137.092 64.2456C137.208 64.3501 137.302 64.4764 137.37 64.6173C137.437 64.7583 137.476 64.9111 137.484 65.067C137.492 65.2229 137.469 65.379 137.417 65.5262C137.365 65.6734 137.285 65.8089 137.18 65.925C137.076 66.041 136.949 66.1354 136.809 66.2027C136.668 66.2699 136.515 66.3088 136.359 66.317L131.884 66.5482C131.569 66.5648 131.26 66.4556 131.026 66.2446C130.792 66.0336 130.651 65.7382 130.634 65.4232C130.617 65.1083 130.727 64.7997 130.938 64.5653C131.149 64.3309 131.444 64.1899 131.759 64.1733ZM118.634 68.8232C119.397 68.7794 120.059 69.6919 120.116 70.8606C120.172 72.0293 119.609 73.0043 118.866 73.0418C118.122 73.0793 117.447 72.1668 117.384 70.9981C117.322 69.8294 117.884 68.8544 118.641 68.8169L118.634 68.8232ZM124.997 80.6228C124.486 80.5113 124.025 80.235 123.687 79.8364C123.348 79.4378 123.149 78.939 123.122 78.4166C123.1 78.0918 123.147 77.7659 123.259 77.4604L123.409 77.0542C123.451 77.2705 123.52 77.4805 123.615 77.6792C123.769 77.9925 123.99 78.2675 124.264 78.4839C124.538 78.7002 124.856 78.8524 125.197 78.9291L127.559 79.4541C127.926 79.5326 128.308 79.4947 128.652 79.3457C128.996 79.1967 129.284 78.944 129.478 78.6229L129.534 78.8416C129.61 79.1487 129.607 79.47 129.525 79.7756C129.444 80.0812 129.286 80.3612 129.067 80.5895C128.848 80.8178 128.575 80.987 128.273 81.0813C127.971 81.1757 127.65 81.1921 127.34 81.1291L124.997 80.6228ZM133.746 86.0789C131.359 89.3288 127.609 87.1914 127.609 87.1914L133.721 85.2415L134.346 85.029C134.178 85.3942 133.977 85.7436 133.746 86.0727V86.0789Z" fill="#FF9985"/>
<path d="M131.872 66.5419L136.347 66.3107C136.503 66.3025 136.655 66.2636 136.796 66.1963C136.937 66.1291 137.063 66.0347 137.168 65.9187C137.272 65.8026 137.353 65.6671 137.405 65.5199C137.457 65.3727 137.48 65.2166 137.472 65.0607C137.463 64.9048 137.425 64.752 137.357 64.611C137.29 64.4701 137.196 64.3438 137.08 64.2393C136.963 64.1349 136.828 64.0543 136.681 64.0022C136.534 63.9501 136.378 63.9275 136.222 63.9357L131.747 64.167C131.432 64.1835 131.136 64.3245 130.925 64.559C130.714 64.7934 130.605 65.102 130.622 65.4169C130.638 65.7319 130.779 66.0273 131.014 66.2383C131.248 66.4493 131.557 66.5585 131.872 66.5419Z" fill="#000543"/>
<path d="M118.86 73.0356C119.616 72.9981 120.184 72.0168 120.109 70.8544C120.034 69.6919 119.391 68.7732 118.628 68.8169C117.866 68.8607 117.31 69.8294 117.378 70.9919C117.447 72.1543 118.122 73.0731 118.86 73.0356Z" fill="#000543"/>
<path d="M135.434 68.2731C134.678 68.3106 134.109 69.2856 134.184 70.4543C134.259 71.623 134.903 72.5292 135.665 72.4917C136.428 72.4542 136.984 71.4793 136.915 70.3105C136.846 69.1418 136.19 68.2356 135.434 68.2731Z" fill="#000543"/>
<path d="M129.553 78.8541L129.497 78.6354C129.303 78.9565 129.014 79.2091 128.67 79.3582C128.326 79.5072 127.944 79.5451 127.578 79.4666L125.215 78.9416C124.875 78.8648 124.556 78.7127 124.283 78.4963C124.009 78.28 123.788 78.005 123.634 77.6916C123.539 77.493 123.47 77.2829 123.428 77.0667L123.278 77.4729C123.165 77.7784 123.119 78.1042 123.141 78.4291C123.168 78.9515 123.367 79.4503 123.705 79.8489C124.044 80.2475 124.504 80.5238 125.015 80.6353L127.378 81.1603C127.689 81.2208 128.009 81.2018 128.311 81.105C128.612 81.0081 128.884 80.8366 129.101 80.6064C129.318 80.3762 129.473 80.0948 129.552 79.7884C129.631 79.482 129.632 79.1606 129.553 78.8541Z" fill="#FA694F"/>
<path d="M133.747 85.2352L127.634 87.1852C127.634 87.1852 131.384 89.3226 133.772 86.0727C134.012 85.7426 134.221 85.3911 134.397 85.0227L133.747 85.2352Z" fill="white"/>
<path d="M141.621 139.327L144.208 136.14C146.008 133.934 145.196 129.834 142.927 129.646L138.296 129.265C136.027 129.078 134.546 132.984 135.977 135.459L138.015 139.027C138.221 139.401 138.515 139.718 138.871 139.952L129.934 192.413L129.171 196.901L129.671 196.807C129.921 196.763 130.171 196.713 130.415 196.657C134.503 195.724 138.08 193.265 140.415 189.782L142.509 186.657L140.927 139.921C141.187 139.76 141.421 139.559 141.621 139.327Z" fill="#91B4DE"/>
<path d="M155.902 63.8482H156.102H156.627C156.627 63.8482 156.627 63.8482 156.627 63.8169C156.189 54.3672 153.158 47.0424 147.621 42.0363C139.184 34.4115 128.053 34.9427 127.584 34.999C127.429 35.0145 127.286 35.0872 127.182 35.2027C127.078 35.3183 127.021 35.4685 127.021 35.6239C127.036 35.7798 127.108 35.9246 127.223 36.0299C127.339 36.1352 127.49 36.1933 127.646 36.1927C127.753 36.1927 138.759 35.6677 146.827 42.9737C152.108 47.7549 155.002 54.7859 155.427 63.8857H155.696L155.902 63.8482Z" fill="#91B4DE"/>
<path d="M105.878 136.084L111.078 141.634C111.162 141.721 111.224 141.828 111.257 141.944C111.291 142.061 111.296 142.184 111.272 142.302C111.25 142.423 111.199 142.536 111.124 142.633C111.049 142.729 110.952 142.807 110.841 142.859L107.497 144.402C106.743 144.755 106.115 145.329 105.696 146.048C105.277 146.767 105.088 147.597 105.153 148.427L106.247 161.777L109.291 200.438L110.541 200.219L107.328 159.489L106.453 148.327C106.409 147.752 106.541 147.178 106.831 146.68C107.121 146.182 107.556 145.784 108.078 145.54L111.403 143.996C111.692 143.86 111.945 143.658 112.141 143.406C112.337 143.154 112.471 142.859 112.532 142.545C112.593 142.232 112.579 141.908 112.492 141.601C112.404 141.294 112.245 141.012 112.028 140.777L106.828 135.228C106.6 134.985 106.469 134.667 106.46 134.334C106.451 134.155 106.48 133.976 106.543 133.808C106.606 133.64 106.703 133.488 106.828 133.359L119.228 120.934C119.287 120.876 119.333 120.807 119.365 120.731C119.396 120.655 119.413 120.573 119.413 120.49C119.413 120.408 119.396 120.326 119.365 120.25C119.333 120.174 119.287 120.105 119.228 120.047C119.17 119.988 119.101 119.942 119.025 119.91C118.948 119.878 118.867 119.862 118.784 119.862C118.702 119.862 118.62 119.878 118.544 119.91C118.468 119.942 118.399 119.988 118.34 120.047L105.897 132.496C105.569 132.845 105.342 133.278 105.241 133.746C105.15 134.158 105.16 134.586 105.271 134.994C105.382 135.401 105.591 135.775 105.878 136.084Z" fill="#B2C3EB"/>
<path d="M155.846 82.3353V82.2478C155.439 81.9782 155.062 81.666 154.721 81.3165C154.442 81.0324 154.185 80.7274 153.952 80.4041C153.612 80.9757 153.239 81.5267 152.833 82.054C153.394 82.4743 154.031 82.7821 154.708 82.9602H154.765C155.114 83.0474 155.473 83.0936 155.833 83.0977L155.846 82.3353Z" fill="white"/>
<path d="M151.871 73.5917C151.871 73.5542 151.871 73.523 151.871 73.4855C151.872 72.519 151.974 71.5554 152.177 70.6105C152.574 68.418 153.718 66.4306 155.414 64.9857V63.8607C152.54 64.1482 150.165 66.9856 149.402 70.823C149.231 71.6939 149.143 72.5791 149.14 73.4667C149.14 73.4667 149.14 73.5042 149.14 73.5292C149.14 76.9666 150.433 79.9728 152.346 81.654C152.794 81.0742 153.2 80.4622 153.558 79.8228C152.446 77.9352 151.863 75.7826 151.871 73.5917Z" fill="white"/>
<path d="M157.271 64.0482C157.649 63.9383 158.039 63.8753 158.433 63.8607H155.433V64.9982C155.98 64.5683 156.604 64.2459 157.271 64.0482Z" fill="#D7E1FC"/>
<path d="M155.846 83.1227H158.533C158.109 83.1171 157.689 83.0519 157.283 82.9289C156.812 82.7859 156.363 82.5753 155.952 82.304L155.858 82.2415V83.1227H155.846Z" fill="#D7E1FC"/>
<path d="M158.633 63.8483H158.433C158.04 63.8629 157.649 63.9258 157.271 64.0358C156.603 64.2373 155.979 64.5639 155.433 64.9982C153.737 66.4432 152.593 68.4306 152.196 70.6231C151.993 71.568 151.891 72.5316 151.89 73.498C151.89 73.5355 151.89 73.5667 151.89 73.6042C151.879 75.8016 152.462 77.961 153.577 79.8541C153.219 80.4935 152.813 81.1055 152.365 81.6853C150.071 84.6602 145.777 87.9351 137.859 88.5288C137.906 88.6309 137.931 88.7415 137.934 88.8538V89.0476C137.936 89.0746 137.936 89.1018 137.934 89.1288C146.059 88.5038 150.434 85.1414 152.846 82.0603C153.251 81.5329 153.625 80.982 153.965 80.4103C154.197 80.7336 154.454 81.0387 154.733 81.3228C155.074 81.6723 155.451 81.9844 155.858 82.254L155.952 82.3165C156.363 82.5879 156.812 82.7984 157.283 82.9415C157.689 83.0644 158.11 83.1297 158.533 83.1352H158.633C159.03 83.1341 159.425 83.0816 159.808 82.979C162.971 82.1853 165.377 78.2479 165.377 73.5043C165.397 71.4886 164.928 69.4982 164.008 67.7044C162.777 65.3607 160.833 63.8483 158.633 63.8483Z" fill="#91B4DE"/>
<path d="M137.94 88.8475C137.937 88.7352 137.912 88.6246 137.865 88.5225C137.802 88.3946 137.706 88.2866 137.585 88.2105C137.465 88.1343 137.326 88.0931 137.184 88.0913H135.734C135.634 88.0913 135.536 88.1109 135.444 88.1489C135.353 88.1869 135.269 88.2426 135.199 88.3128C135.129 88.383 135.073 88.4664 135.035 88.5581C134.997 88.6499 134.978 88.7482 134.978 88.8475V89.035C134.978 89.2362 135.057 89.4292 135.199 89.572C135.34 89.7148 135.533 89.7959 135.734 89.7975H137.184C137.368 89.7954 137.545 89.7253 137.681 89.6008C137.817 89.4763 137.903 89.306 137.921 89.1225C137.923 89.0955 137.923 89.0683 137.921 89.0413L137.94 88.8475Z" fill="#D7E1FC"/>
</g>
<defs>
<clipPath id="clip0">
<rect width="228" height="228.15" fill="white"/>
</clipPath>
</defs>
</svg>
