<svg width="271" height="302" viewBox="0 0 271 302" fill="none" xmlns="http://www.w3.org/2000/svg">
<path d="M67.8081 74.46V84.14H70.4701V87H61.5601V84.14H64.2441V74.46H61.5601V71.6H70.4701V74.46H67.8081ZM76.2649 75.428H79.3009V78.068H76.3529V87H72.9209V74.9C72.9209 73.5507 73.3169 72.48 74.1089 71.688C74.9156 70.896 76.0449 70.5 77.4969 70.5C78.0102 70.5 78.4942 70.5587 78.9489 70.676C79.4182 70.7787 79.8069 70.9327 80.1149 71.138L79.2129 73.624C78.8169 73.3453 78.3549 73.206 77.8269 73.206C76.7856 73.206 76.2649 73.778 76.2649 74.922V75.428ZM94.247 74.988C95.347 74.988 96.3443 75.2447 97.239 75.758C98.1483 76.2567 98.8597 76.968 99.373 77.892C99.8863 78.8013 100.143 79.8647 100.143 81.082C100.143 82.2993 99.8863 83.37 99.373 84.294C98.8597 85.2033 98.1483 85.9147 97.239 86.428C96.3443 86.9267 95.347 87.176 94.247 87.176C92.7363 87.176 91.5483 86.6993 90.683 85.746V91.268H87.251V75.164H90.529V76.528C91.3797 75.5013 92.619 74.988 94.247 74.988ZM93.653 84.36C94.533 84.36 95.2517 84.0667 95.809 83.48C96.381 82.8787 96.667 82.0793 96.667 81.082C96.667 80.0847 96.381 79.2927 95.809 78.706C95.2517 78.1047 94.533 77.804 93.653 77.804C92.773 77.804 92.047 78.1047 91.475 78.706C90.9177 79.2927 90.639 80.0847 90.639 81.082C90.639 82.0793 90.9177 82.8787 91.475 83.48C92.047 84.0667 92.773 84.36 93.653 84.36ZM108.402 84.426C109.018 84.426 109.561 84.338 110.03 84.162C110.514 83.9713 110.962 83.678 111.372 83.282L113.198 85.262C112.084 86.538 110.456 87.176 108.314 87.176C106.98 87.176 105.799 86.9193 104.772 86.406C103.746 85.878 102.954 85.152 102.396 84.228C101.839 83.304 101.56 82.2553 101.56 81.082C101.56 79.9233 101.832 78.882 102.374 77.958C102.932 77.0193 103.687 76.2933 104.64 75.78C105.608 75.252 106.694 74.988 107.896 74.988C109.026 74.988 110.052 75.23 110.976 75.714C111.9 76.1833 112.634 76.8727 113.176 77.782C113.734 78.6767 114.012 79.74 114.012 80.972L105.256 82.666C105.506 83.2527 105.894 83.6927 106.422 83.986C106.965 84.2793 107.625 84.426 108.402 84.426ZM107.896 77.584C107.031 77.584 106.327 77.8627 105.784 78.42C105.242 78.9773 104.956 79.7473 104.926 80.73L110.69 79.608C110.529 78.992 110.199 78.5007 109.7 78.134C109.202 77.7673 108.6 77.584 107.896 77.584ZM121.951 87.176C120.705 87.176 119.583 86.9193 118.585 86.406C117.603 85.878 116.833 85.152 116.275 84.228C115.718 83.304 115.439 82.2553 115.439 81.082C115.439 79.9087 115.718 78.86 116.275 77.936C116.833 77.012 117.603 76.2933 118.585 75.78C119.583 75.252 120.705 74.988 121.951 74.988C123.198 74.988 124.313 75.252 125.295 75.78C126.278 76.2933 127.048 77.012 127.605 77.936C128.163 78.86 128.441 79.9087 128.441 81.082C128.441 82.2553 128.163 83.304 127.605 84.228C127.048 85.152 126.278 85.878 125.295 86.406C124.313 86.9193 123.198 87.176 121.951 87.176ZM121.951 84.36C122.831 84.36 123.55 84.0667 124.107 83.48C124.679 82.8787 124.965 82.0793 124.965 81.082C124.965 80.0847 124.679 79.2927 124.107 78.706C123.55 78.1047 122.831 77.804 121.951 77.804C121.071 77.804 120.345 78.1047 119.773 78.706C119.201 79.2927 118.915 80.0847 118.915 81.082C118.915 82.0793 119.201 82.8787 119.773 83.48C120.345 84.0667 121.071 84.36 121.951 84.36ZM137.731 74.988C138.831 74.988 139.829 75.2447 140.723 75.758C141.633 76.2567 142.344 76.968 142.857 77.892C143.371 78.8013 143.627 79.8647 143.627 81.082C143.627 82.2993 143.371 83.37 142.857 84.294C142.344 85.2033 141.633 85.9147 140.723 86.428C139.829 86.9267 138.831 87.176 137.731 87.176C136.221 87.176 135.033 86.6993 134.167 85.746V91.268H130.735V75.164H134.013V76.528C134.864 75.5013 136.103 74.988 137.731 74.988ZM137.137 84.36C138.017 84.36 138.736 84.0667 139.293 83.48C139.865 82.8787 140.151 82.0793 140.151 81.082C140.151 80.0847 139.865 79.2927 139.293 78.706C138.736 78.1047 138.017 77.804 137.137 77.804C136.257 77.804 135.531 78.1047 134.959 78.706C134.402 79.2927 134.123 80.0847 134.123 81.082C134.123 82.0793 134.402 82.8787 134.959 83.48C135.531 84.0667 136.257 84.36 137.137 84.36ZM150.171 87.176C148.836 87.176 147.795 86.824 147.047 86.12C146.299 85.4013 145.925 84.3893 145.925 83.084V70.676H149.357V82.886C149.357 83.3847 149.481 83.7733 149.731 84.052C149.995 84.316 150.361 84.448 150.831 84.448C151.007 84.448 151.183 84.426 151.359 84.382C151.549 84.338 151.696 84.2867 151.799 84.228L151.953 86.89C151.381 87.0807 150.787 87.176 150.171 87.176ZM159.385 84.426C160.001 84.426 160.544 84.338 161.013 84.162C161.497 83.9713 161.944 83.678 162.355 83.282L164.181 85.262C163.066 86.538 161.438 87.176 159.297 87.176C157.962 87.176 156.782 86.9193 155.755 86.406C154.728 85.878 153.936 85.152 153.379 84.228C152.822 83.304 152.543 82.2553 152.543 81.082C152.543 79.9233 152.814 78.882 153.357 77.958C153.914 77.0193 154.67 76.2933 155.623 75.78C156.591 75.252 157.676 74.988 158.879 74.988C160.008 74.988 161.035 75.23 161.959 75.714C162.883 76.1833 163.616 76.8727 164.159 77.782C164.716 78.6767 164.995 79.74 164.995 80.972L156.239 82.666C156.488 83.2527 156.877 83.6927 157.405 83.986C157.948 84.2793 158.608 84.426 159.385 84.426ZM158.879 77.584C158.014 77.584 157.31 77.8627 156.767 78.42C156.224 78.9773 155.938 79.7473 155.909 80.73L161.673 79.608C161.512 78.992 161.182 78.5007 160.683 78.134C160.184 77.7673 159.583 77.584 158.879 77.584ZM185.544 75.164V87H182.266V85.636C181.416 86.6627 180.184 87.176 178.57 87.176C177.456 87.176 176.444 86.9267 175.534 86.428C174.64 85.9293 173.936 85.218 173.422 84.294C172.909 83.37 172.652 82.2993 172.652 81.082C172.652 79.8647 172.909 78.794 173.422 77.87C173.936 76.946 174.64 76.2347 175.534 75.736C176.444 75.2373 177.456 74.988 178.57 74.988C180.081 74.988 181.262 75.4647 182.112 76.418V75.164H185.544ZM179.164 84.36C180.03 84.36 180.748 84.0667 181.32 83.48C181.892 82.8787 182.178 82.0793 182.178 81.082C182.178 80.0847 181.892 79.2927 181.32 78.706C180.748 78.1047 180.03 77.804 179.164 77.804C178.284 77.804 177.558 78.1047 176.986 78.706C176.414 79.2927 176.128 80.0847 176.128 81.082C176.128 82.0793 176.414 82.8787 176.986 83.48C177.558 84.0667 178.284 84.36 179.164 84.36ZM192 76.726C192.41 76.154 192.96 75.7213 193.65 75.428C194.354 75.1347 195.16 74.988 196.07 74.988V78.156C195.688 78.1267 195.432 78.112 195.3 78.112C194.317 78.112 193.547 78.3907 192.99 78.948C192.432 79.4907 192.154 80.312 192.154 81.412V87H188.722V75.164H192V76.726ZM203.965 84.426C204.581 84.426 205.124 84.338 205.593 84.162C206.077 83.9713 206.524 83.678 206.935 83.282L208.761 85.262C207.646 86.538 206.018 87.176 203.877 87.176C202.542 87.176 201.362 86.9193 200.335 86.406C199.308 85.878 198.516 85.152 197.959 84.228C197.402 83.304 197.123 82.2553 197.123 81.082C197.123 79.9233 197.394 78.882 197.937 77.958C198.494 77.0193 199.25 76.2933 200.203 75.78C201.171 75.252 202.256 74.988 203.459 74.988C204.588 74.988 205.615 75.23 206.539 75.714C207.463 76.1833 208.196 76.8727 208.739 77.782C209.296 78.6767 209.575 79.74 209.575 80.972L200.819 82.666C201.068 83.2527 201.457 83.6927 201.985 83.986C202.528 84.2793 203.188 84.426 203.965 84.426ZM203.459 77.584C202.594 77.584 201.89 77.8627 201.347 78.42C200.804 78.9773 200.518 79.7473 200.489 80.73L206.253 79.608C206.092 78.992 205.762 78.5007 205.263 78.134C204.764 77.7673 204.163 77.584 203.459 77.584ZM47.6371 97.676V114H44.3591V112.636C43.5084 113.663 42.2764 114.176 40.6631 114.176C39.5484 114.176 38.5364 113.927 37.6271 113.428C36.7324 112.929 36.0284 112.218 35.5151 111.294C35.0017 110.37 34.7451 109.299 34.7451 108.082C34.7451 106.865 35.0017 105.794 35.5151 104.87C36.0284 103.946 36.7324 103.235 37.6271 102.736C38.5364 102.237 39.5484 101.988 40.6631 101.988C42.1737 101.988 43.3544 102.465 44.2051 103.418V97.676H47.6371ZM41.2571 111.36C42.1224 111.36 42.8411 111.067 43.4131 110.48C43.9851 109.879 44.2711 109.079 44.2711 108.082C44.2711 107.085 43.9851 106.293 43.4131 105.706C42.8411 105.105 42.1224 104.804 41.2571 104.804C40.3771 104.804 39.6511 105.105 39.0791 105.706C38.5071 106.293 38.2211 107.085 38.2211 108.082C38.2211 109.079 38.5071 109.879 39.0791 110.48C39.6511 111.067 40.3771 111.36 41.2571 111.36ZM56.4455 114.176C55.1988 114.176 54.0768 113.919 53.0795 113.406C52.0968 112.878 51.3268 112.152 50.7695 111.228C50.2122 110.304 49.9335 109.255 49.9335 108.082C49.9335 106.909 50.2122 105.86 50.7695 104.936C51.3268 104.012 52.0968 103.293 53.0795 102.78C54.0768 102.252 55.1988 101.988 56.4455 101.988C57.6922 101.988 58.8068 102.252 59.7895 102.78C60.7722 103.293 61.5422 104.012 62.0995 104.936C62.6568 105.86 62.9355 106.909 62.9355 108.082C62.9355 109.255 62.6568 110.304 62.0995 111.228C61.5422 112.152 60.7722 112.878 59.7895 113.406C58.8068 113.919 57.6922 114.176 56.4455 114.176ZM56.4455 111.36C57.3255 111.36 58.0442 111.067 58.6015 110.48C59.1735 109.879 59.4595 109.079 59.4595 108.082C59.4595 107.085 59.1735 106.293 58.6015 105.706C58.0442 105.105 57.3255 104.804 56.4455 104.804C55.5655 104.804 54.8395 105.105 54.2675 105.706C53.6955 106.293 53.4095 107.085 53.4095 108.082C53.4095 109.079 53.6955 109.879 54.2675 110.48C54.8395 111.067 55.5655 111.36 56.4455 111.36ZM77.1535 102.164V114H73.8975V112.592C73.4428 113.105 72.9002 113.501 72.2695 113.78C71.6388 114.044 70.9568 114.176 70.2235 114.176C68.6688 114.176 67.4368 113.729 66.5275 112.834C65.6182 111.939 65.1635 110.612 65.1635 108.852V102.164H68.5955V108.346C68.5955 110.253 69.3948 111.206 70.9935 111.206C71.8148 111.206 72.4748 110.942 72.9735 110.414C73.4722 109.871 73.7215 109.072 73.7215 108.016V102.164H77.1535ZM87.329 101.988C88.429 101.988 89.4264 102.245 90.321 102.758C91.2304 103.257 91.9417 103.968 92.455 104.892C92.9684 105.801 93.225 106.865 93.225 108.082C93.225 109.299 92.9684 110.37 92.455 111.294C91.9417 112.203 91.2304 112.915 90.321 113.428C89.4264 113.927 88.429 114.176 87.329 114.176C85.701 114.176 84.4617 113.663 83.611 112.636V114H80.333V97.676H83.765V103.418C84.6304 102.465 85.8184 101.988 87.329 101.988ZM86.735 111.36C87.615 111.36 88.3337 111.067 88.891 110.48C89.463 109.879 89.749 109.079 89.749 108.082C89.749 107.085 89.463 106.293 88.891 105.706C88.3337 105.105 87.615 104.804 86.735 104.804C85.855 104.804 85.129 105.105 84.557 105.706C83.9997 106.293 83.721 107.085 83.721 108.082C83.721 109.079 83.9997 109.879 84.557 110.48C85.129 111.067 85.855 111.36 86.735 111.36ZM102.65 113.428C102.313 113.677 101.895 113.868 101.396 114C100.912 114.117 100.406 114.176 99.8785 114.176C98.4558 114.176 97.3631 113.817 96.6005 113.098C95.8378 112.379 95.4565 111.323 95.4565 109.93V99.546H98.8885V102.428H101.814V105.068H98.8885V109.886C98.8885 110.385 99.0131 110.773 99.2625 111.052C99.5118 111.316 99.8711 111.448 100.34 111.448C100.868 111.448 101.338 111.301 101.748 111.008L102.65 113.428ZM104.589 102.164H108.021V114H104.589V102.164ZM106.305 100.514C105.674 100.514 105.161 100.331 104.765 99.964C104.369 99.5973 104.171 99.1427 104.171 98.6C104.171 98.0573 104.369 97.6027 104.765 97.236C105.161 96.8693 105.674 96.686 106.305 96.686C106.936 96.686 107.449 96.862 107.845 97.214C108.241 97.566 108.439 98.006 108.439 98.534C108.439 99.106 108.241 99.5827 107.845 99.964C107.449 100.331 106.936 100.514 106.305 100.514ZM118.4 101.988C119.867 101.988 121.047 102.428 121.942 103.308C122.851 104.188 123.306 105.493 123.306 107.224V114H119.874V107.752C119.874 106.813 119.669 106.117 119.258 105.662C118.847 105.193 118.253 104.958 117.476 104.958C116.611 104.958 115.921 105.229 115.408 105.772C114.895 106.3 114.638 107.092 114.638 108.148V114H111.206V102.164H114.484V103.55C114.939 103.051 115.503 102.67 116.178 102.406C116.853 102.127 117.593 101.988 118.4 101.988ZM138.756 102.164V112.02C138.756 114.191 138.191 115.804 137.062 116.86C135.933 117.916 134.283 118.444 132.112 118.444C130.968 118.444 129.883 118.305 128.856 118.026C127.829 117.747 126.979 117.344 126.304 116.816L127.668 114.352C128.167 114.763 128.797 115.085 129.56 115.32C130.323 115.569 131.085 115.694 131.848 115.694C133.036 115.694 133.909 115.423 134.466 114.88C135.038 114.352 135.324 113.545 135.324 112.46V111.954C134.429 112.937 133.183 113.428 131.584 113.428C130.499 113.428 129.501 113.193 128.592 112.724C127.697 112.24 126.986 111.565 126.458 110.7C125.93 109.835 125.666 108.837 125.666 107.708C125.666 106.579 125.93 105.581 126.458 104.716C126.986 103.851 127.697 103.183 128.592 102.714C129.501 102.23 130.499 101.988 131.584 101.988C133.3 101.988 134.605 102.553 135.5 103.682V102.164H138.756ZM132.266 110.612C133.175 110.612 133.916 110.348 134.488 109.82C135.075 109.277 135.368 108.573 135.368 107.708C135.368 106.843 135.075 106.146 134.488 105.618C133.916 105.075 133.175 104.804 132.266 104.804C131.357 104.804 130.609 105.075 130.022 105.618C129.435 106.146 129.142 106.843 129.142 107.708C129.142 108.573 129.435 109.277 130.022 109.82C130.609 110.348 131.357 110.612 132.266 110.612ZM155.375 101.988C156.841 101.988 158.022 102.428 158.917 103.308C159.826 104.188 160.281 105.493 160.281 107.224V114H156.849V107.752C156.849 106.813 156.643 106.117 156.233 105.662C155.822 105.193 155.228 104.958 154.451 104.958C153.585 104.958 152.896 105.229 152.383 105.772C151.869 106.3 151.613 107.092 151.613 108.148V114H148.181V97.676H151.613V103.396C152.067 102.941 152.617 102.597 153.263 102.362C153.908 102.113 154.612 101.988 155.375 101.988ZM169.153 114.176C167.906 114.176 166.784 113.919 165.787 113.406C164.804 112.878 164.034 112.152 163.477 111.228C162.919 110.304 162.641 109.255 162.641 108.082C162.641 106.909 162.919 105.86 163.477 104.936C164.034 104.012 164.804 103.293 165.787 102.78C166.784 102.252 167.906 101.988 169.153 101.988C170.399 101.988 171.514 102.252 172.497 102.78C173.479 103.293 174.249 104.012 174.807 104.936C175.364 105.86 175.643 106.909 175.643 108.082C175.643 109.255 175.364 110.304 174.807 111.228C174.249 112.152 173.479 112.878 172.497 113.406C171.514 113.919 170.399 114.176 169.153 114.176ZM169.153 111.36C170.033 111.36 170.751 111.067 171.309 110.48C171.881 109.879 172.167 109.079 172.167 108.082C172.167 107.085 171.881 106.293 171.309 105.706C170.751 105.105 170.033 104.804 169.153 104.804C168.273 104.804 167.547 105.105 166.975 105.706C166.403 106.293 166.117 107.085 166.117 108.082C166.117 109.079 166.403 109.879 166.975 110.48C167.547 111.067 168.273 111.36 169.153 111.36ZM196.659 102.164V108.698C196.659 110.443 196.182 111.793 195.229 112.746C194.275 113.699 192.919 114.176 191.159 114.176C190.308 114.176 189.553 114.044 188.893 113.78C188.247 113.516 187.705 113.091 187.265 112.504C186.825 113.091 186.282 113.516 185.637 113.78C184.991 114.044 184.229 114.176 183.349 114.176C181.574 114.176 180.217 113.699 179.279 112.746C178.34 111.793 177.871 110.443 177.871 108.698V102.164H181.303V108.434C181.303 109.417 181.471 110.143 181.809 110.612C182.146 111.067 182.674 111.294 183.393 111.294C184.126 111.294 184.669 111.059 185.021 110.59C185.373 110.121 185.549 109.402 185.549 108.434V102.164H188.981V108.434C188.981 109.402 189.157 110.121 189.509 110.59C189.861 111.059 190.403 111.294 191.137 111.294C191.855 111.294 192.383 111.067 192.721 110.612C193.058 110.143 193.227 109.417 193.227 108.434V102.164H196.659ZM209.318 102.428H212.354V105.068H209.406V114H205.974V101.9C205.974 100.551 206.37 99.48 207.162 98.688C207.968 97.896 209.098 97.5 210.55 97.5C211.063 97.5 211.547 97.5587 212.002 97.676C212.471 97.7787 212.86 97.9327 213.168 98.138L212.266 100.624C211.87 100.345 211.408 100.206 210.88 100.206C209.838 100.206 209.318 100.778 209.318 101.922V102.428ZM225.935 102.164V114H222.657V112.636C221.806 113.663 220.574 114.176 218.961 114.176C217.846 114.176 216.834 113.927 215.925 113.428C215.03 112.929 214.326 112.218 213.813 111.294C213.3 110.37 213.043 109.299 213.043 108.082C213.043 106.865 213.3 105.794 213.813 104.87C214.326 103.946 215.03 103.235 215.925 102.736C216.834 102.237 217.846 101.988 218.961 101.988C220.472 101.988 221.652 102.465 222.503 103.418V102.164H225.935ZM219.555 111.36C220.42 111.36 221.139 111.067 221.711 110.48C222.283 109.879 222.569 109.079 222.569 108.082C222.569 107.085 222.283 106.293 221.711 105.706C221.139 105.105 220.42 104.804 219.555 104.804C218.675 104.804 217.949 105.105 217.377 105.706C216.805 106.293 216.519 107.085 216.519 108.082C216.519 109.079 216.805 109.879 217.377 110.48C217.949 111.067 218.675 111.36 219.555 111.36ZM232.39 103.726C232.801 103.154 233.351 102.721 234.04 102.428C234.744 102.135 235.551 101.988 236.46 101.988V105.156C236.079 105.127 235.822 105.112 235.69 105.112C234.708 105.112 233.938 105.391 233.38 105.948C232.823 106.491 232.544 107.312 232.544 108.412V114H229.112V102.164H232.39V103.726ZM46.9357 129.164V139.02C46.9357 141.191 46.3857 142.804 45.2857 143.86C44.1857 144.916 42.5871 145.444 40.4897 145.444C39.3751 145.444 38.3191 145.305 37.3217 145.026C36.3391 144.747 35.5104 144.344 34.8357 143.816L36.1997 141.352C36.6984 141.763 37.3071 142.085 38.0257 142.32C38.7444 142.555 39.4704 142.672 40.2037 142.672C41.3477 142.672 42.1837 142.408 42.7117 141.88C43.2397 141.352 43.5037 140.545 43.5037 139.46V139.064C43.0637 139.504 42.5431 139.841 41.9417 140.076C41.3404 140.311 40.6951 140.428 40.0057 140.428C38.4511 140.428 37.2191 139.988 36.3097 139.108C35.4004 138.213 34.9457 136.879 34.9457 135.104V129.164H38.3777V134.598C38.3777 136.519 39.1771 137.48 40.7757 137.48C41.5971 137.48 42.2571 137.216 42.7557 136.688C43.2544 136.145 43.5037 135.346 43.5037 134.29V129.164H46.9357ZM55.7473 141.176C54.5006 141.176 53.3786 140.919 52.3813 140.406C51.3986 139.878 50.6286 139.152 50.0713 138.228C49.5139 137.304 49.2353 136.255 49.2353 135.082C49.2353 133.909 49.5139 132.86 50.0713 131.936C50.6286 131.012 51.3986 130.293 52.3813 129.78C53.3786 129.252 54.5006 128.988 55.7473 128.988C56.9939 128.988 58.1086 129.252 59.0913 129.78C60.0739 130.293 60.8439 131.012 61.4013 131.936C61.9586 132.86 62.2373 133.909 62.2373 135.082C62.2373 136.255 61.9586 137.304 61.4013 138.228C60.8439 139.152 60.0739 139.878 59.0913 140.406C58.1086 140.919 56.9939 141.176 55.7473 141.176ZM55.7473 138.36C56.6273 138.36 57.3459 138.067 57.9033 137.48C58.4753 136.879 58.7613 136.079 58.7613 135.082C58.7613 134.085 58.4753 133.293 57.9033 132.706C57.3459 132.105 56.6273 131.804 55.7473 131.804C54.8673 131.804 54.1413 132.105 53.5693 132.706C52.9973 133.293 52.7113 134.085 52.7113 135.082C52.7113 136.079 52.9973 136.879 53.5693 137.48C54.1413 138.067 54.8673 138.36 55.7473 138.36ZM76.4553 129.164V141H73.1993V139.592C72.7446 140.105 72.2019 140.501 71.5713 140.78C70.9406 141.044 70.2586 141.176 69.5253 141.176C67.9706 141.176 66.7386 140.729 65.8293 139.834C64.9199 138.939 64.4653 137.612 64.4653 135.852V129.164H67.8973V135.346C67.8973 137.253 68.6966 138.206 70.2953 138.206C71.1166 138.206 71.7766 137.942 72.2753 137.414C72.7739 136.871 73.0233 136.072 73.0233 135.016V129.164H76.4553ZM91.5853 141.176C90.3239 141.176 89.1873 140.919 88.1753 140.406C87.1779 139.878 86.3933 139.152 85.8213 138.228C85.2639 137.304 84.9853 136.255 84.9853 135.082C84.9853 133.909 85.2639 132.86 85.8213 131.936C86.3933 131.012 87.1779 130.293 88.1753 129.78C89.1873 129.252 90.3239 128.988 91.5853 128.988C92.8319 128.988 93.9173 129.252 94.8413 129.78C95.7799 130.293 96.4619 131.034 96.8873 132.002L94.2253 133.432C93.6093 132.347 92.7219 131.804 91.5633 131.804C90.6686 131.804 89.9279 132.097 89.3413 132.684C88.7546 133.271 88.4613 134.07 88.4613 135.082C88.4613 136.094 88.7546 136.893 89.3413 137.48C89.9279 138.067 90.6686 138.36 91.5633 138.36C92.7366 138.36 93.6239 137.817 94.2253 136.732L96.8873 138.184C96.4619 139.123 95.7799 139.856 94.8413 140.384C93.9173 140.912 92.8319 141.176 91.5853 141.176ZM110.725 129.164V141H107.447V139.636C106.596 140.663 105.364 141.176 103.751 141.176C102.636 141.176 101.624 140.927 100.715 140.428C99.8202 139.929 99.1162 139.218 98.6029 138.294C98.0896 137.37 97.8329 136.299 97.8329 135.082C97.8329 133.865 98.0896 132.794 98.6029 131.87C99.1162 130.946 99.8202 130.235 100.715 129.736C101.624 129.237 102.636 128.988 103.751 128.988C105.262 128.988 106.442 129.465 107.293 130.418V129.164H110.725ZM104.345 138.36C105.21 138.36 105.929 138.067 106.501 137.48C107.073 136.879 107.359 136.079 107.359 135.082C107.359 134.085 107.073 133.293 106.501 132.706C105.929 132.105 105.21 131.804 104.345 131.804C103.465 131.804 102.739 132.105 102.167 132.706C101.595 133.293 101.309 134.085 101.309 135.082C101.309 136.079 101.595 136.879 102.167 137.48C102.739 138.067 103.465 138.36 104.345 138.36ZM121.096 128.988C122.563 128.988 123.744 129.428 124.638 130.308C125.548 131.188 126.002 132.493 126.002 134.224V141H122.57V134.752C122.57 133.813 122.365 133.117 121.954 132.662C121.544 132.193 120.95 131.958 120.172 131.958C119.307 131.958 118.618 132.229 118.104 132.772C117.591 133.3 117.334 134.092 117.334 135.148V141H113.902V129.164H117.18V130.55C117.635 130.051 118.2 129.67 118.874 129.406C119.549 129.127 120.29 128.988 121.096 128.988ZM147.554 129.164V139.02C147.554 141.191 146.989 142.804 145.86 143.86C144.73 144.916 143.08 145.444 140.91 145.444C139.766 145.444 138.68 145.305 137.654 145.026C136.627 144.747 135.776 144.344 135.102 143.816L136.466 141.352C136.964 141.763 137.595 142.085 138.358 142.32C139.12 142.569 139.883 142.694 140.646 142.694C141.834 142.694 142.706 142.423 143.264 141.88C143.836 141.352 144.122 140.545 144.122 139.46V138.954C143.227 139.937 141.98 140.428 140.382 140.428C139.296 140.428 138.299 140.193 137.39 139.724C136.495 139.24 135.784 138.565 135.256 137.7C134.728 136.835 134.464 135.837 134.464 134.708C134.464 133.579 134.728 132.581 135.256 131.716C135.784 130.851 136.495 130.183 137.39 129.714C138.299 129.23 139.296 128.988 140.382 128.988C142.098 128.988 143.403 129.553 144.298 130.682V129.164H147.554ZM141.064 137.612C141.973 137.612 142.714 137.348 143.286 136.82C143.872 136.277 144.166 135.573 144.166 134.708C144.166 133.843 143.872 133.146 143.286 132.618C142.714 132.075 141.973 131.804 141.064 131.804C140.154 131.804 139.406 132.075 138.82 132.618C138.233 133.146 137.94 133.843 137.94 134.708C137.94 135.573 138.233 136.277 138.82 136.82C139.406 137.348 140.154 137.612 141.064 137.612ZM156.38 141.176C155.133 141.176 154.011 140.919 153.014 140.406C152.031 139.878 151.261 139.152 150.704 138.228C150.147 137.304 149.868 136.255 149.868 135.082C149.868 133.909 150.147 132.86 150.704 131.936C151.261 131.012 152.031 130.293 153.014 129.78C154.011 129.252 155.133 128.988 156.38 128.988C157.627 128.988 158.741 129.252 159.724 129.78C160.707 130.293 161.477 131.012 162.034 131.936C162.591 132.86 162.87 133.909 162.87 135.082C162.87 136.255 162.591 137.304 162.034 138.228C161.477 139.152 160.707 139.878 159.724 140.406C158.741 140.919 157.627 141.176 156.38 141.176ZM156.38 138.36C157.26 138.36 157.979 138.067 158.536 137.48C159.108 136.879 159.394 136.079 159.394 135.082C159.394 134.085 159.108 133.293 158.536 132.706C157.979 132.105 157.26 131.804 156.38 131.804C155.5 131.804 154.774 132.105 154.202 132.706C153.63 133.293 153.344 134.085 153.344 135.082C153.344 136.079 153.63 136.879 154.202 137.48C154.774 138.067 155.5 138.36 156.38 138.36ZM166.334 136.908C166.95 136.908 167.456 137.106 167.852 137.502C168.248 137.883 168.446 138.389 168.446 139.02C168.446 139.313 168.409 139.607 168.336 139.9C168.262 140.193 168.101 140.633 167.852 141.22L166.598 144.388H164.42L165.388 140.89C165.021 140.743 164.728 140.509 164.508 140.186C164.302 139.849 164.2 139.46 164.2 139.02C164.2 138.389 164.398 137.883 164.794 137.502C165.204 137.106 165.718 136.908 166.334 136.908ZM189.212 129.164V139.02C189.212 141.191 188.647 142.804 187.518 143.86C186.389 144.916 184.739 145.444 182.568 145.444C181.424 145.444 180.339 145.305 179.312 145.026C178.285 144.747 177.435 144.344 176.76 143.816L178.124 141.352C178.623 141.763 179.253 142.085 180.016 142.32C180.779 142.569 181.541 142.694 182.304 142.694C183.492 142.694 184.365 142.423 184.922 141.88C185.494 141.352 185.78 140.545 185.78 139.46V138.954C184.885 139.937 183.639 140.428 182.04 140.428C180.955 140.428 179.957 140.193 179.048 139.724C178.153 139.24 177.442 138.565 176.914 137.7C176.386 136.835 176.122 135.837 176.122 134.708C176.122 133.579 176.386 132.581 176.914 131.716C177.442 130.851 178.153 130.183 179.048 129.714C179.957 129.23 180.955 128.988 182.04 128.988C183.756 128.988 185.061 129.553 185.956 130.682V129.164H189.212ZM182.722 137.612C183.631 137.612 184.372 137.348 184.944 136.82C185.531 136.277 185.824 135.573 185.824 134.708C185.824 133.843 185.531 133.146 184.944 132.618C184.372 132.075 183.631 131.804 182.722 131.804C181.813 131.804 181.065 132.075 180.478 132.618C179.891 133.146 179.598 133.843 179.598 134.708C179.598 135.573 179.891 136.277 180.478 136.82C181.065 137.348 181.813 137.612 182.722 137.612ZM198.038 141.176C196.792 141.176 195.67 140.919 194.672 140.406C193.69 139.878 192.92 139.152 192.362 138.228C191.805 137.304 191.526 136.255 191.526 135.082C191.526 133.909 191.805 132.86 192.362 131.936C192.92 131.012 193.69 130.293 194.672 129.78C195.67 129.252 196.792 128.988 198.038 128.988C199.285 128.988 200.4 129.252 201.382 129.78C202.365 130.293 203.135 131.012 203.692 131.936C204.25 132.86 204.528 133.909 204.528 135.082C204.528 136.255 204.25 137.304 203.692 138.228C203.135 139.152 202.365 139.878 201.382 140.406C200.4 140.919 199.285 141.176 198.038 141.176ZM198.038 138.36C198.918 138.36 199.637 138.067 200.194 137.48C200.766 136.879 201.052 136.079 201.052 135.082C201.052 134.085 200.766 133.293 200.194 132.706C199.637 132.105 198.918 131.804 198.038 131.804C197.158 131.804 196.432 132.105 195.86 132.706C195.288 133.293 195.002 134.085 195.002 135.082C195.002 136.079 195.288 136.879 195.86 137.48C196.432 138.067 197.158 138.36 198.038 138.36ZM217.035 141.176C216.052 141.176 215.091 141.059 214.153 140.824C213.214 140.575 212.466 140.267 211.909 139.9L213.053 137.436C213.581 137.773 214.219 138.052 214.967 138.272C215.715 138.477 216.448 138.58 217.167 138.58C218.619 138.58 219.345 138.221 219.345 137.502C219.345 137.165 219.147 136.923 218.751 136.776C218.355 136.629 217.746 136.505 216.925 136.402C215.957 136.255 215.157 136.087 214.527 135.896C213.896 135.705 213.346 135.368 212.877 134.884C212.422 134.4 212.195 133.711 212.195 132.816C212.195 132.068 212.407 131.408 212.833 130.836C213.273 130.249 213.903 129.795 214.725 129.472C215.561 129.149 216.543 128.988 217.673 128.988C218.509 128.988 219.337 129.083 220.159 129.274C220.995 129.45 221.684 129.699 222.227 130.022L221.083 132.464C220.041 131.877 218.905 131.584 217.673 131.584C216.939 131.584 216.389 131.687 216.023 131.892C215.656 132.097 215.473 132.361 215.473 132.684C215.473 133.051 215.671 133.307 216.067 133.454C216.463 133.601 217.093 133.74 217.959 133.872C218.927 134.033 219.719 134.209 220.335 134.4C220.951 134.576 221.486 134.906 221.941 135.39C222.395 135.874 222.623 136.549 222.623 137.414C222.623 138.147 222.403 138.8 221.963 139.372C221.523 139.944 220.877 140.391 220.027 140.714C219.191 141.022 218.193 141.176 217.035 141.176ZM230.372 141.176C229.126 141.176 228.004 140.919 227.006 140.406C226.024 139.878 225.254 139.152 224.696 138.228C224.139 137.304 223.86 136.255 223.86 135.082C223.86 133.909 224.139 132.86 224.696 131.936C225.254 131.012 226.024 130.293 227.006 129.78C228.004 129.252 229.126 128.988 230.372 128.988C231.619 128.988 232.734 129.252 233.716 129.78C234.699 130.293 235.469 131.012 236.026 131.936C236.584 132.86 236.862 133.909 236.862 135.082C236.862 136.255 236.584 137.304 236.026 138.228C235.469 139.152 234.699 139.878 233.716 140.406C232.734 140.919 231.619 141.176 230.372 141.176ZM230.372 138.36C231.252 138.36 231.971 138.067 232.528 137.48C233.1 136.879 233.386 136.079 233.386 135.082C233.386 134.085 233.1 133.293 232.528 132.706C231.971 132.105 231.252 131.804 230.372 131.804C229.492 131.804 228.766 132.105 228.194 132.706C227.622 133.293 227.336 134.085 227.336 135.082C227.336 136.079 227.622 136.879 228.194 137.48C228.766 138.067 229.492 138.36 230.372 138.36ZM39.1399 156.428H42.1759V159.068H39.2279V168H35.7959V155.9C35.7959 154.551 36.1919 153.48 36.9839 152.688C37.7906 151.896 38.9199 151.5 40.3719 151.5C40.8852 151.5 41.3692 151.559 41.8239 151.676C42.2932 151.779 42.6819 151.933 42.9899 152.138L42.0879 154.624C41.6919 154.345 41.2299 154.206 40.7019 154.206C39.6606 154.206 39.1399 154.778 39.1399 155.922V156.428ZM55.7571 156.164V168H52.4791V166.636C51.6285 167.663 50.3965 168.176 48.7831 168.176C47.6685 168.176 46.6565 167.927 45.7471 167.428C44.8525 166.929 44.1485 166.218 43.6351 165.294C43.1218 164.37 42.8651 163.299 42.8651 162.082C42.8651 160.865 43.1218 159.794 43.6351 158.87C44.1485 157.946 44.8525 157.235 45.7471 156.736C46.6565 156.237 47.6685 155.988 48.7831 155.988C50.2938 155.988 51.4745 156.465 52.3251 157.418V156.164H55.7571ZM49.3771 165.36C50.2425 165.36 50.9611 165.067 51.5331 164.48C52.1051 163.879 52.3911 163.079 52.3911 162.082C52.3911 161.085 52.1051 160.293 51.5331 159.706C50.9611 159.105 50.2425 158.804 49.3771 158.804C48.4971 158.804 47.7711 159.105 47.1991 159.706C46.6271 160.293 46.3411 161.085 46.3411 162.082C46.3411 163.079 46.6271 163.879 47.1991 164.48C47.7711 165.067 48.4971 165.36 49.3771 165.36ZM62.2126 157.726C62.6233 157.154 63.1733 156.721 63.8626 156.428C64.5666 156.135 65.3733 155.988 66.2826 155.988V159.156C65.9013 159.127 65.6446 159.112 65.5126 159.112C64.5299 159.112 63.7599 159.391 63.2026 159.948C62.6453 160.491 62.3666 161.312 62.3666 162.412V168H58.9346V156.164H62.2126V157.726ZM81.7677 167.428C81.4303 167.677 81.0123 167.868 80.5137 168C80.0297 168.117 79.5237 168.176 78.9957 168.176C77.573 168.176 76.4803 167.817 75.7177 167.098C74.955 166.379 74.5737 165.323 74.5737 163.93V153.546H78.0057V156.428H80.9317V159.068H78.0057V163.886C78.0057 164.385 78.1303 164.773 78.3797 165.052C78.629 165.316 78.9883 165.448 79.4577 165.448C79.9857 165.448 80.455 165.301 80.8657 165.008L81.7677 167.428ZM90.9001 155.988C92.3667 155.988 93.5474 156.428 94.4421 157.308C95.3514 158.188 95.8061 159.493 95.8061 161.224V168H92.3741V161.752C92.3741 160.813 92.1687 160.117 91.7581 159.662C91.3474 159.193 90.7534 158.958 89.9761 158.958C89.1107 158.958 88.4214 159.229 87.9081 159.772C87.3947 160.3 87.1381 161.092 87.1381 162.148V168H83.7061V151.676H87.1381V157.396C87.5927 156.941 88.1427 156.597 88.7881 156.362C89.4334 156.113 90.1374 155.988 90.9001 155.988ZM111.058 156.164V168H107.78V166.636C106.929 167.663 105.697 168.176 104.084 168.176C102.969 168.176 101.957 167.927 101.048 167.428C100.153 166.929 99.4492 166.218 98.9359 165.294C98.4226 164.37 98.1659 163.299 98.1659 162.082C98.1659 160.865 98.4226 159.794 98.9359 158.87C99.4492 157.946 100.153 157.235 101.048 156.736C101.957 156.237 102.969 155.988 104.084 155.988C105.595 155.988 106.775 156.465 107.626 157.418V156.164H111.058ZM104.678 165.36C105.543 165.36 106.262 165.067 106.834 164.48C107.406 163.879 107.692 163.079 107.692 162.082C107.692 161.085 107.406 160.293 106.834 159.706C106.262 159.105 105.543 158.804 104.678 158.804C103.798 158.804 103.072 159.105 102.5 159.706C101.928 160.293 101.642 161.085 101.642 162.082C101.642 163.079 101.928 163.879 102.5 164.48C103.072 165.067 103.798 165.36 104.678 165.36ZM121.363 167.428C121.026 167.677 120.608 167.868 120.109 168C119.625 168.117 119.119 168.176 118.591 168.176C117.169 168.176 116.076 167.817 115.313 167.098C114.551 166.379 114.169 165.323 114.169 163.93V153.546H117.601V156.428H120.527V159.068H117.601V163.886C117.601 164.385 117.726 164.773 117.975 165.052C118.225 165.316 118.584 165.448 119.053 165.448C119.581 165.448 120.051 165.301 120.461 165.008L121.363 167.428ZM141.456 156.164V166.02C141.456 168.191 140.906 169.804 139.806 170.86C138.706 171.916 137.108 172.444 135.01 172.444C133.896 172.444 132.84 172.305 131.842 172.026C130.86 171.747 130.031 171.344 129.356 170.816L130.72 168.352C131.219 168.763 131.828 169.085 132.546 169.32C133.265 169.555 133.991 169.672 134.724 169.672C135.868 169.672 136.704 169.408 137.232 168.88C137.76 168.352 138.024 167.545 138.024 166.46V166.064C137.584 166.504 137.064 166.841 136.462 167.076C135.861 167.311 135.216 167.428 134.526 167.428C132.972 167.428 131.74 166.988 130.83 166.108C129.921 165.213 129.466 163.879 129.466 162.104V156.164H132.898V161.598C132.898 163.519 133.698 164.48 135.296 164.48C136.118 164.48 136.778 164.216 137.276 163.688C137.775 163.145 138.024 162.346 138.024 161.29V156.164H141.456ZM150.268 168.176C149.021 168.176 147.899 167.919 146.902 167.406C145.919 166.878 145.149 166.152 144.592 165.228C144.034 164.304 143.756 163.255 143.756 162.082C143.756 160.909 144.034 159.86 144.592 158.936C145.149 158.012 145.919 157.293 146.902 156.78C147.899 156.252 149.021 155.988 150.268 155.988C151.514 155.988 152.629 156.252 153.612 156.78C154.594 157.293 155.364 158.012 155.922 158.936C156.479 159.86 156.758 160.909 156.758 162.082C156.758 163.255 156.479 164.304 155.922 165.228C155.364 166.152 154.594 166.878 153.612 167.406C152.629 167.919 151.514 168.176 150.268 168.176ZM150.268 165.36C151.148 165.36 151.866 165.067 152.424 164.48C152.996 163.879 153.282 163.079 153.282 162.082C153.282 161.085 152.996 160.293 152.424 159.706C151.866 159.105 151.148 158.804 150.268 158.804C149.388 158.804 148.662 159.105 148.09 159.706C147.518 160.293 147.232 161.085 147.232 162.082C147.232 163.079 147.518 163.879 148.09 164.48C148.662 165.067 149.388 165.36 150.268 165.36ZM170.976 156.164V168H167.72V166.592C167.265 167.105 166.722 167.501 166.092 167.78C165.461 168.044 164.779 168.176 164.046 168.176C162.491 168.176 161.259 167.729 160.35 166.834C159.44 165.939 158.986 164.612 158.986 162.852V156.164H162.418V162.346C162.418 164.253 163.217 165.206 164.816 165.206C165.637 165.206 166.297 164.942 166.796 164.414C167.294 163.871 167.544 163.072 167.544 162.016V156.164H170.976ZM186.106 168.176C184.844 168.176 183.708 167.919 182.696 167.406C181.698 166.878 180.914 166.152 180.342 165.228C179.784 164.304 179.506 163.255 179.506 162.082C179.506 160.909 179.784 159.86 180.342 158.936C180.914 158.012 181.698 157.293 182.696 156.78C183.708 156.252 184.844 155.988 186.106 155.988C187.352 155.988 188.438 156.252 189.362 156.78C190.3 157.293 190.982 158.034 191.408 159.002L188.746 160.432C188.13 159.347 187.242 158.804 186.084 158.804C185.189 158.804 184.448 159.097 183.862 159.684C183.275 160.271 182.982 161.07 182.982 162.082C182.982 163.094 183.275 163.893 183.862 164.48C184.448 165.067 185.189 165.36 186.084 165.36C187.257 165.36 188.144 164.817 188.746 163.732L191.408 165.184C190.982 166.123 190.3 166.856 189.362 167.384C188.438 167.912 187.352 168.176 186.106 168.176ZM205.245 156.164V168H201.967V166.636C201.117 167.663 199.885 168.176 198.271 168.176C197.157 168.176 196.145 167.927 195.235 167.428C194.341 166.929 193.637 166.218 193.123 165.294C192.61 164.37 192.353 163.299 192.353 162.082C192.353 160.865 192.61 159.794 193.123 158.87C193.637 157.946 194.341 157.235 195.235 156.736C196.145 156.237 197.157 155.988 198.271 155.988C199.782 155.988 200.963 156.465 201.813 157.418V156.164H205.245ZM198.865 165.36C199.731 165.36 200.449 165.067 201.021 164.48C201.593 163.879 201.879 163.079 201.879 162.082C201.879 161.085 201.593 160.293 201.021 159.706C200.449 159.105 199.731 158.804 198.865 158.804C197.985 158.804 197.259 159.105 196.687 159.706C196.115 160.293 195.829 161.085 195.829 162.082C195.829 163.079 196.115 163.879 196.687 164.48C197.259 165.067 197.985 165.36 198.865 165.36ZM215.617 155.988C217.084 155.988 218.264 156.428 219.159 157.308C220.068 158.188 220.523 159.493 220.523 161.224V168H217.091V161.752C217.091 160.813 216.886 160.117 216.475 159.662C216.064 159.193 215.47 158.958 214.693 158.958C213.828 158.958 213.138 159.229 212.625 159.772C212.112 160.3 211.855 161.092 211.855 162.148V168H208.423V156.164H211.701V157.55C212.156 157.051 212.72 156.67 213.395 156.406C214.07 156.127 214.81 155.988 215.617 155.988ZM224.868 151.5C225.484 151.5 225.99 151.698 226.386 152.094C226.782 152.475 226.98 152.981 226.98 153.612C226.98 153.905 226.943 154.199 226.87 154.492C226.797 154.785 226.643 155.225 226.408 155.812L225.132 158.98H222.954L223.9 155.504C223.533 155.343 223.247 155.101 223.042 154.778C222.837 154.455 222.734 154.067 222.734 153.612C222.734 152.981 222.932 152.475 223.328 152.094C223.739 151.698 224.252 151.5 224.868 151.5ZM236.434 167.428C236.096 167.677 235.678 167.868 235.18 168C234.696 168.117 234.19 168.176 233.662 168.176C232.239 168.176 231.146 167.817 230.384 167.098C229.621 166.379 229.24 165.323 229.24 163.93V153.546H232.672V156.428H235.598V159.068H232.672V163.886C232.672 164.385 232.796 164.773 233.046 165.052C233.295 165.316 233.654 165.448 234.124 165.448C234.652 165.448 235.121 165.301 235.532 165.008L236.434 167.428ZM83.5417 182.988C85.0083 182.988 86.189 183.428 87.0837 184.308C87.993 185.188 88.4477 186.493 88.4477 188.224V195H85.0157V188.752C85.0157 187.813 84.8103 187.117 84.3997 186.662C83.989 186.193 83.395 185.958 82.6177 185.958C81.7523 185.958 81.063 186.229 80.5497 186.772C80.0363 187.3 79.7797 188.092 79.7797 189.148V195H76.3477V178.676H79.7797V184.396C80.2343 183.941 80.7843 183.597 81.4297 183.362C82.075 183.113 82.779 182.988 83.5417 182.988ZM97.6495 192.426C98.2655 192.426 98.8082 192.338 99.2775 192.162C99.7615 191.971 100.209 191.678 100.62 191.282L102.446 193.262C101.331 194.538 99.7028 195.176 97.5615 195.176C96.2268 195.176 95.0462 194.919 94.0195 194.406C92.9928 193.878 92.2008 193.152 91.6435 192.228C91.0862 191.304 90.8075 190.255 90.8075 189.082C90.8075 187.923 91.0788 186.882 91.6215 185.958C92.1788 185.019 92.9342 184.293 93.8875 183.78C94.8555 183.252 95.9408 182.988 97.1435 182.988C98.2728 182.988 99.2995 183.23 100.224 183.714C101.148 184.183 101.881 184.873 102.424 185.782C102.981 186.677 103.26 187.74 103.26 188.972L94.5035 190.666C94.7528 191.253 95.1415 191.693 95.6695 191.986C96.2122 192.279 96.8722 192.426 97.6495 192.426ZM97.1435 185.584C96.2782 185.584 95.5742 185.863 95.0315 186.42C94.4888 186.977 94.2028 187.747 94.1735 188.73L99.9375 187.608C99.7762 186.992 99.4462 186.501 98.9475 186.134C98.4488 185.767 97.8475 185.584 97.1435 185.584ZM117.578 183.164V195H114.3V193.636C113.45 194.663 112.218 195.176 110.604 195.176C109.49 195.176 108.478 194.927 107.568 194.428C106.674 193.929 105.97 193.218 105.456 192.294C104.943 191.37 104.686 190.299 104.686 189.082C104.686 187.865 104.943 186.794 105.456 185.87C105.97 184.946 106.674 184.235 107.568 183.736C108.478 183.237 109.49 182.988 110.604 182.988C112.115 182.988 113.296 183.465 114.146 184.418V183.164H117.578ZM111.198 192.36C112.064 192.36 112.782 192.067 113.354 191.48C113.926 190.879 114.212 190.079 114.212 189.082C114.212 188.085 113.926 187.293 113.354 186.706C112.782 186.105 112.064 185.804 111.198 185.804C110.318 185.804 109.592 186.105 109.02 186.706C108.448 187.293 108.162 188.085 108.162 189.082C108.162 190.079 108.448 190.879 109.02 191.48C109.592 192.067 110.318 192.36 111.198 192.36ZM124.034 184.726C124.445 184.154 124.995 183.721 125.684 183.428C126.388 183.135 127.195 182.988 128.104 182.988V186.156C127.723 186.127 127.466 186.112 127.334 186.112C126.351 186.112 125.581 186.391 125.024 186.948C124.467 187.491 124.188 188.312 124.188 189.412V195H120.756V183.164H124.034V184.726ZM143.589 194.428C143.252 194.677 142.834 194.868 142.335 195C141.851 195.117 141.345 195.176 140.817 195.176C139.394 195.176 138.302 194.817 137.539 194.098C136.776 193.379 136.395 192.323 136.395 190.93V180.546H139.827V183.428H142.753V186.068H139.827V190.886C139.827 191.385 139.952 191.773 140.201 192.052C140.45 192.316 140.81 192.448 141.279 192.448C141.807 192.448 142.276 192.301 142.687 192.008L143.589 194.428ZM152.721 182.988C154.188 182.988 155.369 183.428 156.263 184.308C157.173 185.188 157.627 186.493 157.627 188.224V195H154.195V188.752C154.195 187.813 153.99 187.117 153.579 186.662C153.169 186.193 152.575 185.958 151.797 185.958C150.932 185.958 150.243 186.229 149.729 186.772C149.216 187.3 148.959 188.092 148.959 189.148V195H145.527V178.676H148.959V184.396C149.414 183.941 149.964 183.597 150.609 183.362C151.255 183.113 151.959 182.988 152.721 182.988ZM166.829 192.426C167.445 192.426 167.988 192.338 168.457 192.162C168.941 191.971 169.389 191.678 169.799 191.282L171.625 193.262C170.511 194.538 168.883 195.176 166.741 195.176C165.407 195.176 164.226 194.919 163.199 194.406C162.173 193.878 161.381 193.152 160.823 192.228C160.266 191.304 159.987 190.255 159.987 189.082C159.987 187.923 160.259 186.882 160.801 185.958C161.359 185.019 162.114 184.293 163.067 183.78C164.035 183.252 165.121 182.988 166.323 182.988C167.453 182.988 168.479 183.23 169.403 183.714C170.327 184.183 171.061 184.873 171.603 185.782C172.161 186.677 172.439 187.74 172.439 188.972L163.683 190.666C163.933 191.253 164.321 191.693 164.849 191.986C165.392 192.279 166.052 192.426 166.829 192.426ZM166.323 185.584C165.458 185.584 164.754 185.863 164.211 186.42C163.669 186.977 163.383 187.747 163.353 188.73L169.117 187.608C168.956 186.992 168.626 186.501 168.127 186.134C167.629 185.767 167.027 185.584 166.323 185.584ZM189.904 182.988C191.385 182.988 192.559 183.428 193.424 184.308C194.304 185.173 194.744 186.479 194.744 188.224V195H191.312V188.752C191.312 187.813 191.114 187.117 190.718 186.662C190.337 186.193 189.787 185.958 189.068 185.958C188.261 185.958 187.623 186.222 187.154 186.75C186.685 187.263 186.45 188.033 186.45 189.06V195H183.018V188.752C183.018 186.889 182.27 185.958 180.774 185.958C179.982 185.958 179.351 186.222 178.882 186.75C178.413 187.263 178.178 188.033 178.178 189.06V195H174.746V183.164H178.024V184.528C178.464 184.029 178.999 183.648 179.63 183.384C180.275 183.12 180.979 182.988 181.742 182.988C182.578 182.988 183.333 183.157 184.008 183.494C184.683 183.817 185.225 184.293 185.636 184.924C186.12 184.308 186.729 183.831 187.462 183.494C188.21 183.157 189.024 182.988 189.904 182.988ZM95.9544 210.164V222H92.6764V220.636C91.8257 221.663 90.5937 222.176 88.9804 222.176C87.8657 222.176 86.8537 221.927 85.9444 221.428C85.0497 220.929 84.3457 220.218 83.8324 219.294C83.3191 218.37 83.0624 217.299 83.0624 216.082C83.0624 214.865 83.3191 213.794 83.8324 212.87C84.3457 211.946 85.0497 211.235 85.9444 210.736C86.8537 210.237 87.8657 209.988 88.9804 209.988C90.4911 209.988 91.6717 210.465 92.5224 211.418V210.164H95.9544ZM89.5744 219.36C90.4397 219.36 91.1584 219.067 91.7304 218.48C92.3024 217.879 92.5884 217.079 92.5884 216.082C92.5884 215.085 92.3024 214.293 91.7304 213.706C91.1584 213.105 90.4397 212.804 89.5744 212.804C88.6944 212.804 87.9684 213.105 87.3964 213.706C86.8244 214.293 86.5384 215.085 86.5384 216.082C86.5384 217.079 86.8244 217.879 87.3964 218.48C87.9684 219.067 88.6944 219.36 89.5744 219.36ZM106.326 209.988C107.793 209.988 108.973 210.428 109.868 211.308C110.777 212.188 111.232 213.493 111.232 215.224V222H107.8V215.752C107.8 214.813 107.595 214.117 107.184 213.662C106.773 213.193 106.179 212.958 105.402 212.958C104.537 212.958 103.847 213.229 103.334 213.772C102.821 214.3 102.564 215.092 102.564 216.148V222H99.1319V210.164H102.41V211.55C102.865 211.051 103.429 210.67 104.104 210.406C104.779 210.127 105.519 209.988 106.326 209.988ZM126.267 210.164V220.02C126.267 222.191 125.717 223.804 124.617 224.86C123.517 225.916 121.918 226.444 119.821 226.444C118.706 226.444 117.65 226.305 116.653 226.026C115.67 225.747 114.841 225.344 114.167 224.816L115.531 222.352C116.029 222.763 116.638 223.085 117.357 223.32C118.075 223.555 118.801 223.672 119.535 223.672C120.679 223.672 121.515 223.408 122.043 222.88C122.571 222.352 122.835 221.545 122.835 220.46V220.064C122.395 220.504 121.874 220.841 121.273 221.076C120.671 221.311 120.026 221.428 119.337 221.428C117.782 221.428 116.55 220.988 115.641 220.108C114.731 219.213 114.277 217.879 114.277 216.104V210.164H117.709V215.598C117.709 217.519 118.508 218.48 120.107 218.48C120.928 218.48 121.588 218.216 122.087 217.688C122.585 217.145 122.835 216.346 122.835 215.29V210.164H126.267ZM144.604 209.988C146.086 209.988 147.259 210.428 148.124 211.308C149.004 212.173 149.444 213.479 149.444 215.224V222H146.012V215.752C146.012 214.813 145.814 214.117 145.418 213.662C145.037 213.193 144.487 212.958 143.768 212.958C142.962 212.958 142.324 213.222 141.854 213.75C141.385 214.263 141.15 215.033 141.15 216.06V222H137.718V215.752C137.718 213.889 136.97 212.958 135.474 212.958C134.682 212.958 134.052 213.222 133.582 213.75C133.113 214.263 132.878 215.033 132.878 216.06V222H129.446V210.164H132.724V211.528C133.164 211.029 133.7 210.648 134.33 210.384C134.976 210.12 135.68 209.988 136.442 209.988C137.278 209.988 138.034 210.157 138.708 210.494C139.383 210.817 139.926 211.293 140.336 211.924C140.82 211.308 141.429 210.831 142.162 210.494C142.91 210.157 143.724 209.988 144.604 209.988ZM158.281 222.176C157.035 222.176 155.913 221.919 154.915 221.406C153.933 220.878 153.163 220.152 152.605 219.228C152.048 218.304 151.769 217.255 151.769 216.082C151.769 214.909 152.048 213.86 152.605 212.936C153.163 212.012 153.933 211.293 154.915 210.78C155.913 210.252 157.035 209.988 158.281 209.988C159.528 209.988 160.643 210.252 161.625 210.78C162.608 211.293 163.378 212.012 163.935 212.936C164.493 213.86 164.771 214.909 164.771 216.082C164.771 217.255 164.493 218.304 163.935 219.228C163.378 220.152 162.608 220.878 161.625 221.406C160.643 221.919 159.528 222.176 158.281 222.176ZM158.281 219.36C159.161 219.36 159.88 219.067 160.437 218.48C161.009 217.879 161.295 217.079 161.295 216.082C161.295 215.085 161.009 214.293 160.437 213.706C159.88 213.105 159.161 212.804 158.281 212.804C157.401 212.804 156.675 213.105 156.103 213.706C155.531 214.293 155.245 215.085 155.245 216.082C155.245 217.079 155.531 217.879 156.103 218.48C156.675 219.067 157.401 219.36 158.281 219.36ZM170.343 211.726C170.754 211.154 171.304 210.721 171.993 210.428C172.697 210.135 173.504 209.988 174.413 209.988V213.156C174.032 213.127 173.775 213.112 173.643 213.112C172.661 213.112 171.891 213.391 171.333 213.948C170.776 214.491 170.497 215.312 170.497 216.412V222H167.065V210.164H170.343V211.726ZM182.309 219.426C182.925 219.426 183.467 219.338 183.937 219.162C184.421 218.971 184.868 218.678 185.279 218.282L187.105 220.262C185.99 221.538 184.362 222.176 182.221 222.176C180.886 222.176 179.705 221.919 178.679 221.406C177.652 220.878 176.86 220.152 176.303 219.228C175.745 218.304 175.467 217.255 175.467 216.082C175.467 214.923 175.738 213.882 176.281 212.958C176.838 212.019 177.593 211.293 178.547 210.78C179.515 210.252 180.6 209.988 181.803 209.988C182.932 209.988 183.959 210.23 184.883 210.714C185.807 211.183 186.54 211.873 187.083 212.782C187.64 213.677 187.919 214.74 187.919 215.972L179.163 217.666C179.412 218.253 179.801 218.693 180.329 218.986C180.871 219.279 181.531 219.426 182.309 219.426ZM181.803 212.584C180.937 212.584 180.233 212.863 179.691 213.42C179.148 213.977 178.862 214.747 178.833 215.73L184.597 214.608C184.435 213.992 184.105 213.501 183.607 213.134C183.108 212.767 182.507 212.584 181.803 212.584Z" fill="black"/>
<path d="M28.7479 34.53C30.2479 35.19 31.4179 36.18 32.2579 37.5C33.0979 38.82 33.5179 40.38 33.5179 42.18C33.5179 44.76 32.7079 46.86 31.0879 48.48C29.4679 50.04 27.3979 50.82 24.8779 50.82C22.3579 50.82 20.2579 50.01 18.5779 48.39C16.9579 46.77 16.1479 44.7 16.1479 42.18C16.1479 40.98 16.2979 39.78 16.5979 38.58C16.8979 37.38 17.5579 35.58 18.5779 33.18L23.7979 20.22H32.7079L28.7479 34.53ZM49.9879 34.53C51.4879 35.19 52.6579 36.18 53.4979 37.5C54.3379 38.82 54.7579 40.38 54.7579 42.18C54.7579 44.76 53.9479 46.86 52.3279 48.48C50.7079 50.04 48.6379 50.82 46.1179 50.82C43.5979 50.82 41.4979 50.01 39.8179 48.39C38.1979 46.77 37.3879 44.7 37.3879 42.18C37.3879 40.98 37.5379 39.78 37.8379 38.58C38.1379 37.38 38.7979 35.58 39.8179 33.18L45.0379 20.22H53.9479L49.9879 34.53Z" fill="#7C4EFF"/>
<path d="M224.968 222.5C227.488 222.5 229.558 223.31 231.178 224.93C232.798 226.49 233.608 228.56 233.608 231.14C233.608 232.34 233.458 233.54 233.158 234.74C232.858 235.94 232.228 237.74 231.268 240.14L226.048 253.1H217.138L221.008 238.88C219.508 238.22 218.338 237.23 217.498 235.91C216.658 234.59 216.238 233 216.238 231.14C216.238 228.56 217.048 226.49 218.668 224.93C220.348 223.31 222.448 222.5 224.968 222.5ZM246.208 222.5C248.728 222.5 250.798 223.31 252.418 224.93C254.038 226.49 254.848 228.56 254.848 231.14C254.848 232.34 254.698 233.54 254.398 234.74C254.098 235.94 253.468 237.74 252.508 240.14L247.288 253.1H238.378L242.248 238.88C240.748 238.22 239.578 237.23 238.738 235.91C237.898 234.59 237.478 233 237.478 231.14C237.478 228.56 238.288 226.49 239.908 224.93C241.588 223.31 243.688 222.5 246.208 222.5Z" fill="#7C4EFF"/>
<path d="M39.534 277.292C40.974 277.292 42.096 277.706 42.9 278.534C43.704 279.362 44.106 280.562 44.106 282.134V290H42.792V282.17C42.792 280.946 42.48 280.028 41.856 279.416C41.244 278.792 40.404 278.48 39.336 278.48C38.208 278.48 37.326 278.81 36.69 279.47C36.054 280.118 35.736 281.114 35.736 282.458V290H34.422V282.17C34.422 280.946 34.122 280.028 33.522 279.416C32.922 278.792 32.088 278.48 31.02 278.48C29.88 278.48 28.986 278.81 28.338 279.47C27.702 280.118 27.384 281.114 27.384 282.458V290H26.052V277.4H27.33V279.506C27.678 278.786 28.194 278.24 28.878 277.868C29.562 277.484 30.372 277.292 31.308 277.292C32.292 277.292 33.132 277.502 33.828 277.922C34.536 278.33 35.046 278.906 35.358 279.65C35.718 278.882 36.258 278.3 36.978 277.904C37.71 277.496 38.562 277.292 39.534 277.292ZM47.8425 280.532H49.1205V290H47.8425V280.532ZM48.4905 278.462C48.2265 278.462 48.0045 278.372 47.8245 278.192C47.6445 278.012 47.5545 277.796 47.5545 277.544C47.5545 277.304 47.6445 277.094 47.8245 276.914C48.0045 276.734 48.2265 276.644 48.4905 276.644C48.7545 276.644 48.9765 276.734 49.1565 276.914C49.3365 277.082 49.4265 277.286 49.4265 277.526C49.4265 277.79 49.3365 278.012 49.1565 278.192C48.9765 278.372 48.7545 278.462 48.4905 278.462ZM56.6005 290.09C55.6645 290.09 54.8245 289.886 54.0805 289.478C53.3485 289.07 52.7725 288.5 52.3525 287.768C51.9325 287.024 51.7225 286.19 51.7225 285.266C51.7225 284.342 51.9325 283.514 52.3525 282.782C52.7725 282.05 53.3485 281.48 54.0805 281.072C54.8245 280.664 55.6645 280.46 56.6005 280.46C57.4165 280.46 58.1425 280.622 58.7785 280.946C59.4265 281.258 59.9365 281.72 60.3085 282.332L59.3545 282.98C59.0425 282.512 58.6465 282.164 58.1665 281.936C57.6865 281.696 57.1645 281.576 56.6005 281.576C55.9165 281.576 55.2985 281.732 54.7465 282.044C54.2065 282.344 53.7805 282.776 53.4685 283.34C53.1685 283.904 53.0185 284.546 53.0185 285.266C53.0185 285.998 53.1685 286.646 53.4685 287.21C53.7805 287.762 54.2065 288.194 54.7465 288.506C55.2985 288.806 55.9165 288.956 56.6005 288.956C57.1645 288.956 57.6865 288.842 58.1665 288.614C58.6465 288.386 59.0425 288.038 59.3545 287.57L60.3085 288.218C59.9365 288.83 59.4265 289.298 58.7785 289.622C58.1305 289.934 57.4045 290.09 56.6005 290.09ZM67.5025 280.46C68.6905 280.46 69.6325 280.808 70.3285 281.504C71.0365 282.188 71.3905 283.19 71.3905 284.51V290H70.1125V284.636C70.1125 283.652 69.8665 282.902 69.3745 282.386C68.8825 281.87 68.1805 281.612 67.2685 281.612C66.2485 281.612 65.4385 281.918 64.8385 282.53C64.2505 283.13 63.9565 283.964 63.9565 285.032V290H62.6785V276.644H63.9565V282.188C64.3045 281.636 64.7845 281.21 65.3965 280.91C66.0085 280.61 66.7105 280.46 67.5025 280.46ZM78.9453 288.956C79.5333 288.956 80.0733 288.854 80.5653 288.65C81.0693 288.434 81.4953 288.122 81.8433 287.714L82.5633 288.542C82.1433 289.046 81.6213 289.43 80.9973 289.694C80.3733 289.958 79.6833 290.09 78.9273 290.09C77.9553 290.09 77.0913 289.886 76.3353 289.478C75.5793 289.058 74.9913 288.482 74.5713 287.75C74.1513 287.018 73.9413 286.19 73.9413 285.266C73.9413 284.342 74.1393 283.514 74.5353 282.782C74.9433 282.05 75.5013 281.48 76.2093 281.072C76.9173 280.664 77.7213 280.46 78.6213 280.46C79.4613 280.46 80.2173 280.652 80.8893 281.036C81.5733 281.42 82.1133 281.954 82.5093 282.638C82.9173 283.322 83.1333 284.102 83.1573 284.978L75.3813 286.49C75.6213 287.258 76.0533 287.864 76.6773 288.308C77.3133 288.74 78.0693 288.956 78.9453 288.956ZM78.6213 281.558C77.9613 281.558 77.3673 281.714 76.8393 282.026C76.3233 282.326 75.9153 282.752 75.6153 283.304C75.3273 283.844 75.1833 284.468 75.1833 285.176C75.1833 285.356 75.1893 285.488 75.2013 285.572L81.8793 284.276C81.7353 283.484 81.3693 282.836 80.7813 282.332C80.1933 281.816 79.4733 281.558 78.6213 281.558ZM88.4226 290.09C87.5706 290.09 86.9106 289.85 86.4426 289.37C85.9866 288.89 85.7586 288.224 85.7586 287.372V276.644H87.0366V287.264C87.0366 287.828 87.1686 288.26 87.4326 288.56C87.6966 288.848 88.0926 288.992 88.6206 288.992C88.9566 288.992 89.2446 288.938 89.4846 288.83L89.5746 289.892C89.2026 290.024 88.8186 290.09 88.4226 290.09ZM95.1875 288.956C95.7755 288.956 96.3155 288.854 96.8075 288.65C97.3115 288.434 97.7375 288.122 98.0855 287.714L98.8055 288.542C98.3855 289.046 97.8635 289.43 97.2395 289.694C96.6155 289.958 95.9255 290.09 95.1695 290.09C94.1975 290.09 93.3335 289.886 92.5775 289.478C91.8215 289.058 91.2335 288.482 90.8135 287.75C90.3935 287.018 90.1835 286.19 90.1835 285.266C90.1835 284.342 90.3815 283.514 90.7775 282.782C91.1855 282.05 91.7435 281.48 92.4515 281.072C93.1595 280.664 93.9635 280.46 94.8635 280.46C95.7035 280.46 96.4595 280.652 97.1315 281.036C97.8155 281.42 98.3555 281.954 98.7515 282.638C99.1595 283.322 99.3755 284.102 99.3995 284.978L91.6235 286.49C91.8635 287.258 92.2955 287.864 92.9195 288.308C93.5555 288.74 94.3115 288.956 95.1875 288.956ZM94.8635 281.558C94.2035 281.558 93.6095 281.714 93.0815 282.026C92.5655 282.326 92.1575 282.752 91.8575 283.304C91.5695 283.844 91.4255 284.468 91.4255 285.176C91.4255 285.356 91.4315 285.488 91.4435 285.572L98.1215 284.276C97.9775 283.484 97.6115 282.836 97.0235 282.332C96.4355 281.816 95.7155 281.558 94.8635 281.558ZM115.586 290L112.706 285.95C112.382 285.986 112.046 286.004 111.698 286.004H108.314V290H106.982V277.4H111.698C113.306 277.4 114.566 277.784 115.478 278.552C116.39 279.32 116.846 280.376 116.846 281.72C116.846 282.704 116.594 283.538 116.09 284.222C115.598 284.894 114.89 285.38 113.966 285.68L117.044 290H115.586ZM111.662 284.87C112.91 284.87 113.864 284.594 114.524 284.042C115.184 283.49 115.514 282.716 115.514 281.72C115.514 280.7 115.184 279.92 114.524 279.38C113.864 278.828 112.91 278.552 111.662 278.552H108.314V284.87H111.662ZM128.252 280.532V290H127.027V288.272C126.692 288.848 126.23 289.298 125.642 289.622C125.054 289.934 124.382 290.09 123.626 290.09C122.39 290.09 121.412 289.748 120.692 289.064C119.984 288.368 119.63 287.354 119.63 286.022V280.532H120.908V285.896C120.908 286.892 121.154 287.648 121.646 288.164C122.138 288.68 122.84 288.938 123.752 288.938C124.748 288.938 125.534 288.638 126.11 288.038C126.686 287.426 126.974 286.58 126.974 285.5V280.532H128.252ZM131.831 280.532H133.109V290H131.831V280.532ZM132.479 278.462C132.215 278.462 131.993 278.372 131.813 278.192C131.633 278.012 131.543 277.796 131.543 277.544C131.543 277.304 131.633 277.094 131.813 276.914C131.993 276.734 132.215 276.644 132.479 276.644C132.743 276.644 132.965 276.734 133.145 276.914C133.325 277.082 133.415 277.286 133.415 277.526C133.415 277.79 133.325 278.012 133.145 278.192C132.965 278.372 132.743 278.462 132.479 278.462ZM143.433 288.938V290H135.729V289.154L138.429 285.734H136.467V284.708H139.239L141.687 281.612H135.837V280.532H143.325V281.378L140.697 284.708H142.695V285.734H139.887L137.367 288.938H143.433Z" fill="black"/>
</svg>
