<svg width="744" height="207" viewBox="0 0 744 207" fill="none" xmlns="http://www.w3.org/2000/svg">
<path d="M14.886 21.264C13.6687 21.264 12.488 21.1027 11.344 20.78C10.2147 20.4427 9.30533 20.01 8.616 19.482L9.826 16.798C10.486 17.282 11.2707 17.6707 12.18 17.964C13.0893 18.2573 13.9987 18.404 14.908 18.404C15.92 18.404 16.668 18.2573 17.152 17.964C17.636 17.656 17.878 17.2527 17.878 16.754C17.878 16.3873 17.7313 16.0867 17.438 15.852C17.1593 15.6027 16.7927 15.4047 16.338 15.258C15.898 15.1113 15.2967 14.95 14.534 14.774C13.3607 14.4953 12.4 14.2167 11.652 13.938C10.904 13.6593 10.2587 13.212 9.716 12.596C9.188 11.98 8.924 11.1587 8.924 10.132C8.924 9.23733 9.166 8.43067 9.65 7.712C10.134 6.97867 10.86 6.39933 11.828 5.974C12.8107 5.54867 14.006 5.336 15.414 5.336C16.3967 5.336 17.3573 5.45333 18.296 5.688C19.2347 5.92267 20.056 6.26 20.76 6.7L19.66 9.406C18.2373 8.59933 16.8147 8.196 15.392 8.196C14.3947 8.196 13.654 8.35733 13.17 8.68C12.7007 9.00267 12.466 9.428 12.466 9.956C12.466 10.484 12.7373 10.88 13.28 11.144C13.8373 11.3933 14.6807 11.6427 15.81 11.892C16.9833 12.1707 17.944 12.4493 18.692 12.728C19.44 13.0067 20.078 13.4467 20.606 14.048C21.1487 14.6493 21.42 15.4633 21.42 16.49C21.42 17.37 21.1707 18.1767 20.672 18.91C20.188 19.6287 19.4547 20.2007 18.472 20.626C17.4893 21.0513 16.294 21.264 14.886 21.264ZM30.7413 20.428C30.404 20.6773 29.986 20.868 29.4873 21C29.0033 21.1173 28.4973 21.176 27.9693 21.176C26.5466 21.176 25.454 20.8167 24.6913 20.098C23.9286 19.3793 23.5473 18.3233 23.5473 16.93V6.546H26.9793V9.428H29.9053V12.068H26.9793V16.886C26.9793 17.3847 27.104 17.7733 27.3533 18.052C27.6026 18.316 27.962 18.448 28.4313 18.448C28.9593 18.448 29.4286 18.3013 29.8393 18.008L30.7413 20.428ZM44.3265 9.164V21H41.0485V19.636C40.1978 20.6627 38.9658 21.176 37.3525 21.176C36.2378 21.176 35.2258 20.9267 34.3165 20.428C33.4218 19.9293 32.7178 19.218 32.2045 18.294C31.6911 17.37 31.4345 16.2993 31.4345 15.082C31.4345 13.8647 31.6911 12.794 32.2045 11.87C32.7178 10.946 33.4218 10.2347 34.3165 9.736C35.2258 9.23733 36.2378 8.988 37.3525 8.988C38.8631 8.988 40.0438 9.46467 40.8945 10.418V9.164H44.3265ZM37.9465 18.36C38.8118 18.36 39.5305 18.0667 40.1025 17.48C40.6745 16.8787 40.9605 16.0793 40.9605 15.082C40.9605 14.0847 40.6745 13.2927 40.1025 12.706C39.5305 12.1047 38.8118 11.804 37.9465 11.804C37.0665 11.804 36.3405 12.1047 35.7685 12.706C35.1965 13.2927 34.9105 14.0847 34.9105 15.082C34.9105 16.0793 35.1965 16.8787 35.7685 17.48C36.3405 18.0667 37.0665 18.36 37.9465 18.36ZM54.6319 20.428C54.2946 20.6773 53.8766 20.868 53.3779 21C52.8939 21.1173 52.3879 21.176 51.8599 21.176C50.4373 21.176 49.3446 20.8167 48.5819 20.098C47.8193 19.3793 47.4379 18.3233 47.4379 16.93V6.546H50.8699V9.428H53.7959V12.068H50.8699V16.886C50.8699 17.3847 50.9946 17.7733 51.2439 18.052C51.4933 18.316 51.8526 18.448 52.3219 18.448C52.8499 18.448 53.3193 18.3013 53.7299 18.008L54.6319 20.428ZM68.4943 9.164V21H65.2383V19.592C64.7837 20.1053 64.241 20.5013 63.6103 20.78C62.9797 21.044 62.2977 21.176 61.5643 21.176C60.0097 21.176 58.7777 20.7287 57.8683 19.834C56.959 18.9393 56.5043 17.612 56.5043 15.852V9.164H59.9363V15.346C59.9363 17.2527 60.7357 18.206 62.3343 18.206C63.1557 18.206 63.8157 17.942 64.3143 17.414C64.813 16.8713 65.0623 16.072 65.0623 15.016V9.164H68.4943ZM75.6558 21.176C74.6732 21.176 73.7125 21.0587 72.7738 20.824C71.8352 20.5747 71.0872 20.2667 70.5298 19.9L71.6738 17.436C72.2018 17.7733 72.8398 18.052 73.5878 18.272C74.3358 18.4773 75.0692 18.58 75.7878 18.58C77.2398 18.58 77.9658 18.2207 77.9658 17.502C77.9658 17.1647 77.7678 16.9227 77.3718 16.776C76.9758 16.6293 76.3672 16.5047 75.5458 16.402C74.5778 16.2553 73.7785 16.0867 73.1478 15.896C72.5172 15.7053 71.9672 15.368 71.4978 14.884C71.0432 14.4 70.8158 13.7107 70.8158 12.816C70.8158 12.068 71.0285 11.408 71.4538 10.836C71.8938 10.2493 72.5245 9.79467 73.3458 9.472C74.1818 9.14933 75.1645 8.988 76.2938 8.988C77.1298 8.988 77.9585 9.08333 78.7798 9.274C79.6158 9.45 80.3052 9.69933 80.8478 10.022L79.7038 12.464C78.6625 11.8773 77.5258 11.584 76.2938 11.584C75.5605 11.584 75.0105 11.6867 74.6438 11.892C74.2772 12.0973 74.0938 12.3613 74.0938 12.684C74.0938 13.0507 74.2918 13.3073 74.6878 13.454C75.0838 13.6007 75.7145 13.74 76.5798 13.872C77.5478 14.0333 78.3398 14.2093 78.9558 14.4C79.5718 14.576 80.1072 14.906 80.5618 15.39C81.0165 15.874 81.2438 16.5487 81.2438 17.414C81.2438 18.1473 81.0238 18.8 80.5838 19.372C80.1438 19.944 79.4985 20.3913 78.6478 20.714C77.8118 21.022 76.8145 21.176 75.6558 21.176Z" fill="black"/>
<path d="M71.2 59.292C72.832 59.292 74.116 59.772 75.052 60.732C76 61.68 76.474 63.054 76.474 64.854V72H75.16V68.292H67.24V72H65.944V64.854C65.944 63.054 66.412 61.68 67.348 60.732C68.296 59.772 69.58 59.292 71.2 59.292ZM75.16 67.14V64.728C75.16 63.324 74.812 62.268 74.116 61.56C73.42 60.84 72.448 60.48 71.2 60.48C69.952 60.48 68.98 60.84 68.284 61.56C67.588 62.268 67.24 63.324 67.24 64.728V67.14H75.16ZM84.1201 72.09C83.1841 72.09 82.3441 71.886 81.6001 71.478C80.8681 71.07 80.2921 70.5 79.8721 69.768C79.4521 69.024 79.2421 68.19 79.2421 67.266C79.2421 66.342 79.4521 65.514 79.8721 64.782C80.2921 64.05 80.8681 63.48 81.6001 63.072C82.3441 62.664 83.1841 62.46 84.1201 62.46C84.9361 62.46 85.6621 62.622 86.2981 62.946C86.9461 63.258 87.4561 63.72 87.8281 64.332L86.8741 64.98C86.5621 64.512 86.1661 64.164 85.6861 63.936C85.2061 63.696 84.6841 63.576 84.1201 63.576C83.4361 63.576 82.8181 63.732 82.2661 64.044C81.7261 64.344 81.3001 64.776 80.9881 65.34C80.6881 65.904 80.5381 66.546 80.5381 67.266C80.5381 67.998 80.6881 68.646 80.9881 69.21C81.3001 69.762 81.7261 70.194 82.2661 70.506C82.8181 70.806 83.4361 70.956 84.1201 70.956C84.6841 70.956 85.2061 70.842 85.6861 70.614C86.1661 70.386 86.5621 70.038 86.8741 69.57L87.8281 70.218C87.4561 70.83 86.9461 71.298 86.2981 71.622C85.6501 71.934 84.9241 72.09 84.1201 72.09ZM94.86 71.424C94.62 71.64 94.326 71.808 93.978 71.928C93.63 72.036 93.264 72.09 92.88 72.09C91.992 72.09 91.308 71.85 90.828 71.37C90.348 70.89 90.108 70.212 90.108 69.336V60.462H91.386V62.532H94.248V63.612H91.386V69.264C91.386 69.828 91.524 70.26 91.8 70.56C92.076 70.848 92.478 70.992 93.006 70.992C93.582 70.992 94.05 70.83 94.41 70.506L94.86 71.424ZM97.1765 62.532H98.4545V72H97.1765V62.532ZM97.8245 60.462C97.5605 60.462 97.3385 60.372 97.1585 60.192C96.9785 60.012 96.8885 59.796 96.8885 59.544C96.8885 59.304 96.9785 59.094 97.1585 58.914C97.3385 58.734 97.5605 58.644 97.8245 58.644C98.0885 58.644 98.3105 58.734 98.4905 58.914C98.6705 59.082 98.7605 59.286 98.7605 59.526C98.7605 59.79 98.6705 60.012 98.4905 60.192C98.3105 60.372 98.0885 60.462 97.8245 60.462ZM109.967 62.532L105.755 72H104.441L100.247 62.532H101.579L105.125 70.596L108.707 62.532H109.967ZM115.553 70.956C116.141 70.956 116.681 70.854 117.173 70.65C117.677 70.434 118.103 70.122 118.451 69.714L119.171 70.542C118.751 71.046 118.229 71.43 117.605 71.694C116.981 71.958 116.291 72.09 115.535 72.09C114.563 72.09 113.699 71.886 112.943 71.478C112.187 71.058 111.599 70.482 111.179 69.75C110.759 69.018 110.549 68.19 110.549 67.266C110.549 66.342 110.747 65.514 111.143 64.782C111.551 64.05 112.109 63.48 112.817 63.072C113.525 62.664 114.329 62.46 115.229 62.46C116.069 62.46 116.825 62.652 117.497 63.036C118.181 63.42 118.721 63.954 119.117 64.638C119.525 65.322 119.741 66.102 119.765 66.978L111.989 68.49C112.229 69.258 112.661 69.864 113.285 70.308C113.921 70.74 114.677 70.956 115.553 70.956ZM115.229 63.558C114.569 63.558 113.975 63.714 113.447 64.026C112.931 64.326 112.523 64.752 112.223 65.304C111.935 65.844 111.791 66.468 111.791 67.176C111.791 67.356 111.797 67.488 111.809 67.572L118.487 66.276C118.343 65.484 117.977 64.836 117.389 64.332C116.801 63.816 116.081 63.558 115.229 63.558ZM131.955 62.46C132.843 62.46 133.647 62.664 134.367 63.072C135.087 63.468 135.651 64.032 136.059 64.764C136.467 65.496 136.671 66.33 136.671 67.266C136.671 68.214 136.467 69.054 136.059 69.786C135.651 70.518 135.087 71.088 134.367 71.496C133.659 71.892 132.855 72.09 131.955 72.09C131.187 72.09 130.491 71.934 129.867 71.622C129.255 71.298 128.751 70.83 128.355 70.218V75.492H127.077V62.532H128.301V64.404C128.685 63.78 129.189 63.3 129.813 62.964C130.449 62.628 131.163 62.46 131.955 62.46ZM131.865 70.956C132.525 70.956 133.125 70.806 133.665 70.506C134.205 70.194 134.625 69.756 134.925 69.192C135.237 68.628 135.393 67.986 135.393 67.266C135.393 66.546 135.237 65.91 134.925 65.358C134.625 64.794 134.205 64.356 133.665 64.044C133.125 63.732 132.525 63.576 131.865 63.576C131.193 63.576 130.587 63.732 130.047 64.044C129.519 64.356 129.099 64.794 128.787 65.358C128.487 65.91 128.337 66.546 128.337 67.266C128.337 67.986 128.487 68.628 128.787 69.192C129.099 69.756 129.519 70.194 130.047 70.506C130.587 70.806 131.193 70.956 131.865 70.956ZM147.916 62.532V72H146.692V70.128C146.308 70.764 145.798 71.25 145.162 71.586C144.538 71.922 143.83 72.09 143.038 72.09C142.15 72.09 141.346 71.886 140.626 71.478C139.906 71.07 139.342 70.5 138.934 69.768C138.526 69.036 138.322 68.202 138.322 67.266C138.322 66.33 138.526 65.496 138.934 64.764C139.342 64.032 139.906 63.468 140.626 63.072C141.346 62.664 142.15 62.46 143.038 62.46C143.806 62.46 144.496 62.622 145.108 62.946C145.732 63.258 146.242 63.72 146.638 64.332V62.532H147.916ZM143.146 70.956C143.806 70.956 144.4 70.806 144.928 70.506C145.468 70.194 145.888 69.756 146.188 69.192C146.5 68.628 146.656 67.986 146.656 67.266C146.656 66.546 146.5 65.904 146.188 65.34C145.888 64.776 145.468 64.344 144.928 64.044C144.4 63.732 143.806 63.576 143.146 63.576C142.474 63.576 141.868 63.732 141.328 64.044C140.8 64.344 140.38 64.776 140.068 65.34C139.768 65.904 139.618 66.546 139.618 67.266C139.618 67.986 139.768 68.628 140.068 69.192C140.38 69.756 140.8 70.194 141.328 70.506C141.868 70.806 142.474 70.956 143.146 70.956ZM160.007 62.532V72H158.783V70.272C158.447 70.848 157.985 71.298 157.397 71.622C156.809 71.934 156.137 72.09 155.381 72.09C154.145 72.09 153.167 71.748 152.447 71.064C151.739 70.368 151.385 69.354 151.385 68.022V62.532H152.663V67.896C152.663 68.892 152.909 69.648 153.401 70.164C153.893 70.68 154.595 70.938 155.507 70.938C156.503 70.938 157.289 70.638 157.865 70.038C158.441 69.426 158.729 68.58 158.729 67.5V62.532H160.007ZM166.125 72.09C165.357 72.09 164.619 71.982 163.911 71.766C163.215 71.538 162.669 71.256 162.273 70.92L162.849 69.912C163.245 70.224 163.743 70.482 164.343 70.686C164.943 70.878 165.567 70.974 166.215 70.974C167.079 70.974 167.715 70.842 168.123 70.578C168.543 70.302 168.753 69.918 168.753 69.426C168.753 69.078 168.639 68.808 168.411 68.616C168.183 68.412 167.895 68.262 167.547 68.166C167.199 68.058 166.737 67.956 166.161 67.86C165.393 67.716 164.775 67.572 164.307 67.428C163.839 67.272 163.437 67.014 163.101 66.654C162.777 66.294 162.615 65.796 162.615 65.16C162.615 64.368 162.945 63.72 163.605 63.216C164.265 62.712 165.183 62.46 166.359 62.46C166.971 62.46 167.583 62.544 168.195 62.712C168.807 62.868 169.311 63.078 169.707 63.342L169.149 64.368C168.369 63.828 167.439 63.558 166.359 63.558C165.543 63.558 164.925 63.702 164.505 63.99C164.097 64.278 163.893 64.656 163.893 65.124C163.893 65.484 164.007 65.772 164.235 65.988C164.475 66.204 164.769 66.366 165.117 66.474C165.465 66.57 165.945 66.672 166.557 66.78C167.313 66.924 167.919 67.068 168.375 67.212C168.831 67.356 169.221 67.602 169.545 67.95C169.869 68.298 170.031 68.778 170.031 69.39C170.031 70.218 169.683 70.878 168.987 71.37C168.303 71.85 167.349 72.09 166.125 72.09ZM176.443 70.956C177.031 70.956 177.571 70.854 178.063 70.65C178.567 70.434 178.993 70.122 179.341 69.714L180.061 70.542C179.641 71.046 179.119 71.43 178.495 71.694C177.871 71.958 177.181 72.09 176.425 72.09C175.453 72.09 174.589 71.886 173.833 71.478C173.077 71.058 172.489 70.482 172.069 69.75C171.649 69.018 171.439 68.19 171.439 67.266C171.439 66.342 171.637 65.514 172.033 64.782C172.441 64.05 172.999 63.48 173.707 63.072C174.415 62.664 175.219 62.46 176.119 62.46C176.959 62.46 177.715 62.652 178.387 63.036C179.071 63.42 179.611 63.954 180.007 64.638C180.415 65.322 180.631 66.102 180.655 66.978L172.879 68.49C173.119 69.258 173.551 69.864 174.175 70.308C174.811 70.74 175.567 70.956 176.443 70.956ZM176.119 63.558C175.459 63.558 174.865 63.714 174.337 64.026C173.821 64.326 173.413 64.752 173.113 65.304C172.825 65.844 172.681 66.468 172.681 67.176C172.681 67.356 172.687 67.488 172.699 67.572L179.377 66.276C179.233 65.484 178.867 64.836 178.279 64.332C177.691 63.816 176.971 63.558 176.119 63.558Z" fill="black"/>
<path d="M269.092 59.4C270.256 59.4 271.27 59.592 272.134 59.976C272.998 60.36 273.664 60.912 274.132 61.632C274.6 62.352 274.834 63.192 274.834 64.152C274.834 65.112 274.6 65.952 274.132 66.672C273.664 67.392 272.998 67.944 272.134 68.328C271.27 68.712 270.256 68.904 269.092 68.904H267.274V72H263.026V59.4H269.092ZM268.822 65.628C269.398 65.628 269.83 65.502 270.118 65.25C270.406 64.986 270.55 64.62 270.55 64.152C270.55 63.684 270.406 63.324 270.118 63.072C269.83 62.808 269.398 62.676 268.822 62.676H267.274V65.628H268.822ZM281.663 69.174C282.095 69.174 282.455 69.12 282.743 69.012C283.043 68.904 283.367 68.718 283.715 68.454L285.839 70.596C284.855 71.652 283.421 72.18 281.537 72.18C280.349 72.18 279.305 71.964 278.405 71.532C277.505 71.088 276.809 70.476 276.317 69.696C275.825 68.916 275.579 68.04 275.579 67.068C275.579 66.084 275.825 65.208 276.317 64.44C276.809 63.66 277.481 63.054 278.333 62.622C279.197 62.19 280.163 61.974 281.231 61.974C282.203 61.974 283.097 62.172 283.913 62.568C284.729 62.952 285.377 63.528 285.857 64.296C286.337 65.052 286.577 65.958 286.577 67.014L279.845 68.31C280.145 68.886 280.751 69.174 281.663 69.174ZM281.249 64.746C280.781 64.746 280.397 64.884 280.097 65.16C279.809 65.436 279.635 65.844 279.575 66.384L282.725 65.772C282.617 65.46 282.431 65.214 282.167 65.034C281.915 64.842 281.609 64.746 281.249 64.746ZM294.701 61.974C295.913 61.974 296.885 62.34 297.617 63.072C298.361 63.804 298.733 64.908 298.733 66.384V72H294.665V67.086C294.665 65.958 294.263 65.394 293.459 65.394C293.003 65.394 292.631 65.556 292.343 65.88C292.067 66.192 291.929 66.69 291.929 67.374V72H287.861V62.154H291.731V63.126C292.115 62.742 292.559 62.454 293.063 62.262C293.567 62.07 294.113 61.974 294.701 61.974ZM311.565 58.644V72H307.695V71.19C307.107 71.85 306.207 72.18 304.995 72.18C304.131 72.18 303.333 71.976 302.601 71.568C301.881 71.148 301.305 70.548 300.873 69.768C300.453 68.988 300.243 68.088 300.243 67.068C300.243 66.048 300.453 65.154 300.873 64.386C301.305 63.606 301.881 63.012 302.601 62.604C303.333 62.184 304.131 61.974 304.995 61.974C306.087 61.974 306.921 62.256 307.497 62.82V58.644H311.565ZM305.967 69.012C306.435 69.012 306.819 68.844 307.119 68.508C307.419 68.16 307.569 67.68 307.569 67.068C307.569 66.456 307.419 65.982 307.119 65.646C306.819 65.31 306.435 65.142 305.967 65.142C305.499 65.142 305.115 65.31 304.815 65.646C304.515 65.982 304.365 66.456 304.365 67.068C304.365 67.68 304.515 68.16 304.815 68.508C305.115 68.844 305.499 69.012 305.967 69.012ZM313.367 62.154H317.435V72H313.367V62.154ZM315.401 61.362C314.669 61.362 314.075 61.17 313.619 60.786C313.175 60.39 312.953 59.892 312.953 59.292C312.953 58.692 313.175 58.2 313.619 57.816C314.075 57.42 314.669 57.222 315.401 57.222C316.145 57.222 316.739 57.408 317.183 57.78C317.627 58.152 317.849 58.632 317.849 59.22C317.849 59.844 317.627 60.36 317.183 60.768C316.739 61.164 316.145 61.362 315.401 61.362ZM326.078 61.974C327.29 61.974 328.262 62.34 328.994 63.072C329.738 63.804 330.11 64.908 330.11 66.384V72H326.042V67.086C326.042 65.958 325.64 65.394 324.836 65.394C324.38 65.394 324.008 65.556 323.72 65.88C323.444 66.192 323.306 66.69 323.306 67.374V72H319.238V62.154H323.108V63.126C323.492 62.742 323.936 62.454 324.44 62.262C324.944 62.07 325.49 61.974 326.078 61.974ZM343.05 62.154V70.038C343.05 71.91 342.528 73.314 341.484 74.25C340.452 75.198 338.976 75.672 337.056 75.672C336.072 75.672 335.154 75.564 334.302 75.348C333.45 75.144 332.724 74.844 332.124 74.448L333.492 71.676C333.876 71.964 334.362 72.198 334.95 72.378C335.538 72.558 336.102 72.648 336.642 72.648C337.458 72.648 338.052 72.474 338.424 72.126C338.796 71.778 338.982 71.268 338.982 70.596V70.416C338.37 71.112 337.464 71.46 336.264 71.46C335.424 71.46 334.638 71.268 333.906 70.884C333.186 70.488 332.61 69.93 332.178 69.21C331.746 68.478 331.53 67.644 331.53 66.708C331.53 65.772 331.746 64.944 332.178 64.224C332.61 63.504 333.186 62.952 333.906 62.568C334.638 62.172 335.424 61.974 336.264 61.974C337.608 61.974 338.58 62.406 339.18 63.27V62.154H343.05ZM337.344 68.292C337.824 68.292 338.22 68.148 338.532 67.86C338.856 67.56 339.018 67.176 339.018 66.708C339.018 66.24 338.856 65.862 338.532 65.574C338.22 65.286 337.824 65.142 337.344 65.142C336.852 65.142 336.444 65.286 336.12 65.574C335.808 65.862 335.652 66.24 335.652 66.708C335.652 67.176 335.814 67.56 336.138 67.86C336.462 68.148 336.864 68.292 337.344 68.292Z" fill="#00E9B1"/>
<path d="M66.052 118.4H67.384V129.848H74.44V131H66.052V118.4ZM84.773 121.532V131H83.549V129.272C83.213 129.848 82.751 130.298 82.163 130.622C81.575 130.934 80.903 131.09 80.147 131.09C78.911 131.09 77.933 130.748 77.213 130.064C76.505 129.368 76.151 128.354 76.151 127.022V121.532H77.429V126.896C77.429 127.892 77.675 128.648 78.167 129.164C78.659 129.68 79.361 129.938 80.273 129.938C81.269 129.938 82.055 129.638 82.631 129.038C83.207 128.426 83.495 127.58 83.495 126.5V121.532H84.773ZM93.1763 121.46C94.3643 121.46 95.3063 121.808 96.0023 122.504C96.7103 123.188 97.0643 124.19 97.0643 125.51V131H95.7863V125.636C95.7863 124.652 95.5403 123.902 95.0483 123.386C94.5563 122.87 93.8543 122.612 92.9423 122.612C91.9223 122.612 91.1123 122.918 90.5123 123.53C89.9243 124.13 89.6303 124.964 89.6303 126.032V131H88.3523V121.532H89.5763V123.278C89.9243 122.702 90.4043 122.258 91.0163 121.946C91.6403 121.622 92.3603 121.46 93.1763 121.46ZM104.493 131.09C103.557 131.09 102.717 130.886 101.973 130.478C101.241 130.07 100.665 129.5 100.245 128.768C99.8251 128.024 99.6151 127.19 99.6151 126.266C99.6151 125.342 99.8251 124.514 100.245 123.782C100.665 123.05 101.241 122.48 101.973 122.072C102.717 121.664 103.557 121.46 104.493 121.46C105.309 121.46 106.035 121.622 106.671 121.946C107.319 122.258 107.829 122.72 108.201 123.332L107.247 123.98C106.935 123.512 106.539 123.164 106.059 122.936C105.579 122.696 105.057 122.576 104.493 122.576C103.809 122.576 103.191 122.732 102.639 123.044C102.099 123.344 101.673 123.776 101.361 124.34C101.061 124.904 100.911 125.546 100.911 126.266C100.911 126.998 101.061 127.646 101.361 128.21C101.673 128.762 102.099 129.194 102.639 129.506C103.191 129.806 103.809 129.956 104.493 129.956C105.057 129.956 105.579 129.842 106.059 129.614C106.539 129.386 106.935 129.038 107.247 128.57L108.201 129.218C107.829 129.83 107.319 130.298 106.671 130.622C106.023 130.934 105.297 131.09 104.493 131.09ZM115.395 121.46C116.583 121.46 117.525 121.808 118.221 122.504C118.929 123.188 119.283 124.19 119.283 125.51V131H118.005V125.636C118.005 124.652 117.759 123.902 117.267 123.386C116.775 122.87 116.073 122.612 115.161 122.612C114.141 122.612 113.331 122.918 112.731 123.53C112.143 124.13 111.849 124.964 111.849 126.032V131H110.571V117.644H111.849V123.188C112.197 122.636 112.677 122.21 113.289 121.91C113.901 121.61 114.603 121.46 115.395 121.46Z" fill="black"/>
<path d="M490.526 131.108C489.59 131.108 488.69 130.958 487.826 130.658C486.974 130.358 486.314 129.962 485.846 129.47L486.368 128.444C486.824 128.9 487.43 129.272 488.186 129.56C488.942 129.836 489.722 129.974 490.526 129.974C491.654 129.974 492.5 129.77 493.064 129.362C493.628 128.942 493.91 128.402 493.91 127.742C493.91 127.238 493.754 126.836 493.442 126.536C493.142 126.236 492.77 126.008 492.326 125.852C491.882 125.684 491.264 125.504 490.472 125.312C489.524 125.072 488.768 124.844 488.204 124.628C487.64 124.4 487.154 124.058 486.746 123.602C486.35 123.146 486.152 122.528 486.152 121.748C486.152 121.112 486.32 120.536 486.656 120.02C486.992 119.492 487.508 119.072 488.204 118.76C488.9 118.448 489.764 118.292 490.796 118.292C491.516 118.292 492.218 118.394 492.902 118.598C493.598 118.79 494.198 119.06 494.702 119.408L494.252 120.47C493.724 120.122 493.16 119.864 492.56 119.696C491.96 119.516 491.372 119.426 490.796 119.426C489.692 119.426 488.858 119.642 488.294 120.074C487.742 120.494 487.466 121.04 487.466 121.712C487.466 122.216 487.616 122.624 487.916 122.936C488.228 123.236 488.612 123.47 489.068 123.638C489.536 123.794 490.16 123.968 490.94 124.16C491.864 124.388 492.608 124.616 493.172 124.844C493.748 125.06 494.234 125.396 494.63 125.852C495.026 126.296 495.224 126.902 495.224 127.67C495.224 128.306 495.05 128.888 494.702 129.416C494.366 129.932 493.844 130.346 493.136 130.658C492.428 130.958 491.558 131.108 490.526 131.108ZM502.734 121.46C503.622 121.46 504.426 121.664 505.146 122.072C505.866 122.468 506.43 123.032 506.838 123.764C507.246 124.496 507.45 125.33 507.45 126.266C507.45 127.214 507.246 128.054 506.838 128.786C506.43 129.518 505.866 130.088 505.146 130.496C504.438 130.892 503.634 131.09 502.734 131.09C501.966 131.09 501.27 130.934 500.646 130.622C500.034 130.298 499.53 129.83 499.134 129.218V134.492H497.856V121.532H499.08V123.404C499.464 122.78 499.968 122.3 500.592 121.964C501.228 121.628 501.942 121.46 502.734 121.46ZM502.644 129.956C503.304 129.956 503.904 129.806 504.444 129.506C504.984 129.194 505.404 128.756 505.704 128.192C506.016 127.628 506.172 126.986 506.172 126.266C506.172 125.546 506.016 124.91 505.704 124.358C505.404 123.794 504.984 123.356 504.444 123.044C503.904 122.732 503.304 122.576 502.644 122.576C501.972 122.576 501.366 122.732 500.826 123.044C500.298 123.356 499.878 123.794 499.566 124.358C499.266 124.91 499.116 125.546 499.116 126.266C499.116 126.986 499.266 127.628 499.566 128.192C499.878 128.756 500.298 129.194 500.826 129.506C501.366 129.806 501.972 129.956 502.644 129.956ZM518.695 121.532V131H517.471V129.128C517.087 129.764 516.577 130.25 515.941 130.586C515.317 130.922 514.609 131.09 513.817 131.09C512.929 131.09 512.125 130.886 511.405 130.478C510.685 130.07 510.121 129.5 509.713 128.768C509.305 128.036 509.101 127.202 509.101 126.266C509.101 125.33 509.305 124.496 509.713 123.764C510.121 123.032 510.685 122.468 511.405 122.072C512.125 121.664 512.929 121.46 513.817 121.46C514.585 121.46 515.275 121.622 515.887 121.946C516.511 122.258 517.021 122.72 517.417 123.332V121.532H518.695ZM513.925 129.956C514.585 129.956 515.179 129.806 515.707 129.506C516.247 129.194 516.667 128.756 516.967 128.192C517.279 127.628 517.435 126.986 517.435 126.266C517.435 125.546 517.279 124.904 516.967 124.34C516.667 123.776 516.247 123.344 515.707 123.044C515.179 122.732 514.585 122.576 513.925 122.576C513.253 122.576 512.647 122.732 512.107 123.044C511.579 123.344 511.159 123.776 510.847 124.34C510.547 124.904 510.397 125.546 510.397 126.266C510.397 126.986 510.547 127.628 510.847 128.192C511.159 128.756 511.579 129.194 512.107 129.506C512.647 129.806 513.253 129.956 513.925 129.956ZM531.021 121.532V129.848C531.021 131.456 530.625 132.644 529.833 133.412C529.053 134.192 527.871 134.582 526.287 134.582C525.411 134.582 524.577 134.45 523.785 134.186C523.005 133.934 522.369 133.58 521.877 133.124L522.525 132.152C522.981 132.56 523.533 132.878 524.181 133.106C524.841 133.334 525.531 133.448 526.251 133.448C527.451 133.448 528.333 133.166 528.897 132.602C529.461 132.05 529.743 131.186 529.743 130.01V128.804C529.347 129.404 528.825 129.86 528.177 130.172C527.541 130.484 526.833 130.64 526.053 130.64C525.165 130.64 524.355 130.448 523.623 130.064C522.903 129.668 522.333 129.122 521.913 128.426C521.505 127.718 521.301 126.92 521.301 126.032C521.301 125.144 521.505 124.352 521.913 123.656C522.333 122.96 522.903 122.42 523.623 122.036C524.343 121.652 525.153 121.46 526.053 121.46C526.857 121.46 527.583 121.622 528.231 121.946C528.879 122.27 529.401 122.738 529.797 123.35V121.532H531.021ZM526.179 129.506C526.863 129.506 527.481 129.362 528.033 129.074C528.585 128.774 529.011 128.36 529.311 127.832C529.623 127.304 529.779 126.704 529.779 126.032C529.779 125.36 529.623 124.766 529.311 124.25C529.011 123.722 528.585 123.314 528.033 123.026C527.493 122.726 526.875 122.576 526.179 122.576C525.495 122.576 524.877 122.72 524.325 123.008C523.785 123.296 523.359 123.704 523.047 124.232C522.747 124.76 522.597 125.36 522.597 126.032C522.597 126.704 522.747 127.304 523.047 127.832C523.359 128.36 523.785 128.774 524.325 129.074C524.877 129.362 525.495 129.506 526.179 129.506ZM543.127 121.532V131H541.902V129.272C541.567 129.848 541.105 130.298 540.517 130.622C539.929 130.934 539.257 131.09 538.501 131.09C537.265 131.09 536.287 130.748 535.567 130.064C534.859 129.368 534.505 128.354 534.505 127.022V121.532H535.783V126.896C535.783 127.892 536.029 128.648 536.521 129.164C537.013 129.68 537.715 129.938 538.627 129.938C539.623 129.938 540.409 129.638 540.985 129.038C541.561 128.426 541.849 127.58 541.849 126.5V121.532H543.127ZM550.756 129.956C551.344 129.956 551.884 129.854 552.376 129.65C552.88 129.434 553.306 129.122 553.654 128.714L554.374 129.542C553.954 130.046 553.432 130.43 552.808 130.694C552.184 130.958 551.494 131.09 550.738 131.09C549.766 131.09 548.902 130.886 548.146 130.478C547.39 130.058 546.802 129.482 546.382 128.75C545.962 128.018 545.752 127.19 545.752 126.266C545.752 125.342 545.95 124.514 546.346 123.782C546.754 123.05 547.312 122.48 548.02 122.072C548.728 121.664 549.532 121.46 550.432 121.46C551.272 121.46 552.028 121.652 552.7 122.036C553.384 122.42 553.924 122.954 554.32 123.638C554.728 124.322 554.944 125.102 554.968 125.978L547.192 127.49C547.432 128.258 547.864 128.864 548.488 129.308C549.124 129.74 549.88 129.956 550.756 129.956ZM550.432 122.558C549.772 122.558 549.178 122.714 548.65 123.026C548.134 123.326 547.726 123.752 547.426 124.304C547.138 124.844 546.994 125.468 546.994 126.176C546.994 126.356 547 126.488 547.012 126.572L553.69 125.276C553.546 124.484 553.18 123.836 552.592 123.332C552.004 122.816 551.284 122.558 550.432 122.558ZM562.231 130.424C561.991 130.64 561.697 130.808 561.349 130.928C561.001 131.036 560.635 131.09 560.251 131.09C559.363 131.09 558.679 130.85 558.199 130.37C557.719 129.89 557.479 129.212 557.479 128.336V119.462H558.757V121.532H561.619V122.612H558.757V128.264C558.757 128.828 558.895 129.26 559.171 129.56C559.447 129.848 559.849 129.992 560.377 129.992C560.953 129.992 561.421 129.83 561.781 129.506L562.231 130.424ZM569.21 130.424C568.97 130.64 568.676 130.808 568.328 130.928C567.98 131.036 567.614 131.09 567.23 131.09C566.342 131.09 565.658 130.85 565.178 130.37C564.698 129.89 564.458 129.212 564.458 128.336V119.462H565.736V121.532H568.598V122.612H565.736V128.264C565.736 128.828 565.874 129.26 566.15 129.56C566.426 129.848 566.828 129.992 567.356 129.992C567.932 129.992 568.4 129.83 568.76 129.506L569.21 130.424ZM571.526 121.532H572.804V131H571.526V121.532ZM572.174 119.462C571.91 119.462 571.688 119.372 571.508 119.192C571.328 119.012 571.238 118.796 571.238 118.544C571.238 118.304 571.328 118.094 571.508 117.914C571.688 117.734 571.91 117.644 572.174 117.644C572.438 117.644 572.66 117.734 572.84 117.914C573.02 118.082 573.11 118.286 573.11 118.526C573.11 118.79 573.02 119.012 572.84 119.192C572.66 119.372 572.438 119.462 572.174 119.462ZM584.995 131.09C584.059 131.09 583.219 130.886 582.475 130.478C581.743 130.07 581.167 129.5 580.747 128.768C580.327 128.024 580.117 127.19 580.117 126.266C580.117 125.342 580.327 124.514 580.747 123.782C581.167 123.05 581.743 122.48 582.475 122.072C583.219 121.664 584.059 121.46 584.995 121.46C585.811 121.46 586.537 121.622 587.173 121.946C587.821 122.258 588.331 122.72 588.703 123.332L587.749 123.98C587.437 123.512 587.041 123.164 586.561 122.936C586.081 122.696 585.559 122.576 584.995 122.576C584.311 122.576 583.693 122.732 583.141 123.044C582.601 123.344 582.175 123.776 581.863 124.34C581.563 124.904 581.413 125.546 581.413 126.266C581.413 126.998 581.563 127.646 581.863 128.21C582.175 128.762 582.601 129.194 583.141 129.506C583.693 129.806 584.311 129.956 584.995 129.956C585.559 129.956 586.081 129.842 586.561 129.614C587.041 129.386 587.437 129.038 587.749 128.57L588.703 129.218C588.331 129.83 587.821 130.298 587.173 130.622C586.525 130.934 585.799 131.09 584.995 131.09ZM599.695 121.532V131H598.471V129.128C598.087 129.764 597.577 130.25 596.941 130.586C596.317 130.922 595.609 131.09 594.817 131.09C593.929 131.09 593.125 130.886 592.405 130.478C591.685 130.07 591.121 129.5 590.713 128.768C590.305 128.036 590.101 127.202 590.101 126.266C590.101 125.33 590.305 124.496 590.713 123.764C591.121 123.032 591.685 122.468 592.405 122.072C593.125 121.664 593.929 121.46 594.817 121.46C595.585 121.46 596.275 121.622 596.887 121.946C597.511 122.258 598.021 122.72 598.417 123.332V121.532H599.695ZM594.925 129.956C595.585 129.956 596.179 129.806 596.707 129.506C597.247 129.194 597.667 128.756 597.967 128.192C598.279 127.628 598.435 126.986 598.435 126.266C598.435 125.546 598.279 124.904 597.967 124.34C597.667 123.776 597.247 123.344 596.707 123.044C596.179 122.732 595.585 122.576 594.925 122.576C594.253 122.576 593.647 122.732 593.107 123.044C592.579 123.344 592.159 123.776 591.847 124.34C591.547 124.904 591.397 125.546 591.397 126.266C591.397 126.986 591.547 127.628 591.847 128.192C592.159 128.756 592.579 129.194 593.107 129.506C593.647 129.806 594.253 129.956 594.925 129.956ZM604.479 123.386C604.779 122.75 605.223 122.27 605.811 121.946C606.411 121.622 607.149 121.46 608.025 121.46V122.702L607.719 122.684C606.723 122.684 605.943 122.99 605.379 123.602C604.815 124.214 604.533 125.072 604.533 126.176V131H603.255V121.532H604.479V123.386ZM615.217 121.46C616.105 121.46 616.909 121.664 617.629 122.072C618.349 122.468 618.913 123.032 619.321 123.764C619.729 124.496 619.933 125.33 619.933 126.266C619.933 127.202 619.729 128.036 619.321 128.768C618.913 129.5 618.349 130.07 617.629 130.478C616.909 130.886 616.105 131.09 615.217 131.09C614.425 131.09 613.711 130.922 613.075 130.586C612.451 130.25 611.947 129.764 611.563 129.128V131H610.339V117.644H611.617V123.332C612.013 122.72 612.517 122.258 613.129 121.946C613.753 121.622 614.449 121.46 615.217 121.46ZM615.127 129.956C615.787 129.956 616.387 129.806 616.927 129.506C617.467 129.194 617.887 128.756 618.187 128.192C618.499 127.628 618.655 126.986 618.655 126.266C618.655 125.546 618.499 124.904 618.187 124.34C617.887 123.776 617.467 123.344 616.927 123.044C616.387 122.732 615.787 122.576 615.127 122.576C614.455 122.576 613.849 122.732 613.309 123.044C612.781 123.344 612.361 123.776 612.049 124.34C611.749 124.904 611.599 125.546 611.599 126.266C611.599 126.986 611.749 127.628 612.049 128.192C612.361 128.756 612.781 129.194 613.309 129.506C613.849 129.806 614.455 129.956 615.127 129.956ZM626.408 131.09C625.496 131.09 624.674 130.886 623.942 130.478C623.21 130.058 622.634 129.482 622.214 128.75C621.794 128.018 621.584 127.19 621.584 126.266C621.584 125.342 621.794 124.514 622.214 123.782C622.634 123.05 623.21 122.48 623.942 122.072C624.674 121.664 625.496 121.46 626.408 121.46C627.32 121.46 628.142 121.664 628.874 122.072C629.606 122.48 630.176 123.05 630.584 123.782C631.004 124.514 631.214 125.342 631.214 126.266C631.214 127.19 631.004 128.018 630.584 128.75C630.176 129.482 629.606 130.058 628.874 130.478C628.142 130.886 627.32 131.09 626.408 131.09ZM626.408 129.956C627.08 129.956 627.68 129.806 628.208 129.506C628.748 129.194 629.168 128.756 629.468 128.192C629.768 127.628 629.918 126.986 629.918 126.266C629.918 125.546 629.768 124.904 629.468 124.34C629.168 123.776 628.748 123.344 628.208 123.044C627.68 122.732 627.08 122.576 626.408 122.576C625.736 122.576 625.13 122.732 624.59 123.044C624.062 123.344 623.642 123.776 623.33 124.34C623.03 124.904 622.88 125.546 622.88 126.266C622.88 126.986 623.03 127.628 623.33 128.192C623.642 128.756 624.062 129.194 624.59 129.506C625.13 129.806 625.736 129.956 626.408 129.956ZM638.647 121.46C639.835 121.46 640.777 121.808 641.473 122.504C642.181 123.188 642.535 124.19 642.535 125.51V131H641.257V125.636C641.257 124.652 641.011 123.902 640.519 123.386C640.027 122.87 639.325 122.612 638.413 122.612C637.393 122.612 636.583 122.918 635.983 123.53C635.395 124.13 635.101 124.964 635.101 126.032V131H633.823V121.532H635.047V123.278C635.395 122.702 635.875 122.258 636.487 121.946C637.111 121.622 637.831 121.46 638.647 121.46ZM654.68 121.532V131H653.456V129.128C653.072 129.764 652.562 130.25 651.926 130.586C651.302 130.922 650.594 131.09 649.802 131.09C648.914 131.09 648.11 130.886 647.39 130.478C646.67 130.07 646.106 129.5 645.698 128.768C645.29 128.036 645.086 127.202 645.086 126.266C645.086 125.33 645.29 124.496 645.698 123.764C646.106 123.032 646.67 122.468 647.39 122.072C648.11 121.664 648.914 121.46 649.802 121.46C650.57 121.46 651.26 121.622 651.872 121.946C652.496 122.258 653.006 122.72 653.402 123.332V121.532H654.68ZM649.91 129.956C650.57 129.956 651.164 129.806 651.692 129.506C652.232 129.194 652.652 128.756 652.952 128.192C653.264 127.628 653.42 126.986 653.42 126.266C653.42 125.546 653.264 124.904 652.952 124.34C652.652 123.776 652.232 123.344 651.692 123.044C651.164 122.732 650.57 122.576 649.91 122.576C649.238 122.576 648.632 122.732 648.092 123.044C647.564 123.344 647.144 123.776 646.832 124.34C646.532 124.904 646.382 125.546 646.382 126.266C646.382 126.986 646.532 127.628 646.832 128.192C647.144 128.756 647.564 129.194 648.092 129.506C648.632 129.806 649.238 129.956 649.91 129.956ZM659.463 123.386C659.763 122.75 660.207 122.27 660.795 121.946C661.395 121.622 662.133 121.46 663.009 121.46V122.702L662.703 122.684C661.707 122.684 660.927 122.99 660.363 123.602C659.799 124.214 659.517 125.072 659.517 126.176V131H658.239V121.532H659.463V123.386ZM673.875 121.532V131H672.651V129.128C672.267 129.764 671.757 130.25 671.121 130.586C670.497 130.922 669.789 131.09 668.997 131.09C668.109 131.09 667.305 130.886 666.585 130.478C665.865 130.07 665.301 129.5 664.893 128.768C664.485 128.036 664.281 127.202 664.281 126.266C664.281 125.33 664.485 124.496 664.893 123.764C665.301 123.032 665.865 122.468 666.585 122.072C667.305 121.664 668.109 121.46 668.997 121.46C669.765 121.46 670.455 121.622 671.067 121.946C671.691 122.258 672.201 122.72 672.597 123.332V121.532H673.875ZM669.105 129.956C669.765 129.956 670.359 129.806 670.887 129.506C671.427 129.194 671.847 128.756 672.147 128.192C672.459 127.628 672.615 126.986 672.615 126.266C672.615 125.546 672.459 124.904 672.147 124.34C671.847 123.776 671.427 123.344 670.887 123.044C670.359 122.732 669.765 122.576 669.105 122.576C668.433 122.576 667.827 122.732 667.287 123.044C666.759 123.344 666.339 123.776 666.027 124.34C665.727 124.904 665.577 125.546 665.577 126.266C665.577 126.986 665.727 127.628 666.027 128.192C666.339 128.756 666.759 129.194 667.287 129.506C667.827 129.806 668.433 129.956 669.105 129.956ZM696.743 121.532V126.77C696.743 128.174 696.407 129.248 695.735 129.992C695.063 130.724 694.073 131.09 692.765 131.09C691.937 131.09 691.241 130.934 690.677 130.622C690.125 130.298 689.699 129.788 689.399 129.092C689.099 129.776 688.673 130.28 688.121 130.604C687.569 130.928 686.873 131.09 686.033 131.09C684.725 131.09 683.735 130.724 683.063 129.992C682.391 129.248 682.055 128.174 682.055 126.77V121.532H683.333V126.662C683.333 127.778 683.549 128.606 683.981 129.146C684.413 129.674 685.097 129.938 686.033 129.938C686.957 129.938 687.641 129.668 688.085 129.128C688.541 128.588 688.769 127.754 688.769 126.626V121.532H690.047V126.626C690.047 127.754 690.269 128.588 690.713 129.128C691.157 129.668 691.847 129.938 692.783 129.938C693.695 129.938 694.367 129.674 694.799 129.146C695.243 128.606 695.465 127.778 695.465 126.662V121.532H696.743ZM700.216 121.532H701.494V131H700.216V121.532ZM700.864 119.462C700.6 119.462 700.378 119.372 700.198 119.192C700.018 119.012 699.928 118.796 699.928 118.544C699.928 118.304 700.018 118.094 700.198 117.914C700.378 117.734 700.6 117.644 700.864 117.644C701.128 117.644 701.35 117.734 701.53 117.914C701.71 118.082 701.8 118.286 701.8 118.526C701.8 118.79 701.71 119.012 701.53 119.192C701.35 119.372 701.128 119.462 700.864 119.462ZM709.712 130.424C709.472 130.64 709.178 130.808 708.83 130.928C708.482 131.036 708.116 131.09 707.732 131.09C706.844 131.09 706.16 130.85 705.68 130.37C705.2 129.89 704.96 129.212 704.96 128.336V119.462H706.238V121.532H709.1V122.612H706.238V128.264C706.238 128.828 706.376 129.26 706.652 129.56C706.928 129.848 707.33 129.992 707.858 129.992C708.434 129.992 708.902 129.83 709.262 129.506L709.712 130.424ZM716.852 121.46C718.04 121.46 718.982 121.808 719.678 122.504C720.386 123.188 720.74 124.19 720.74 125.51V131H719.462V125.636C719.462 124.652 719.216 123.902 718.724 123.386C718.232 122.87 717.53 122.612 716.618 122.612C715.598 122.612 714.788 122.918 714.188 123.53C713.6 124.13 713.306 124.964 713.306 126.032V131H712.028V117.644H713.306V123.188C713.654 122.636 714.134 122.21 714.746 121.91C715.358 121.61 716.06 121.46 716.852 121.46ZM724.336 131.09C724.072 131.09 723.844 130.994 723.652 130.802C723.472 130.61 723.382 130.376 723.382 130.1C723.382 129.824 723.472 129.596 723.652 129.416C723.844 129.224 724.072 129.128 724.336 129.128C724.6 129.128 724.828 129.224 725.02 129.416C725.212 129.596 725.308 129.824 725.308 130.1C725.308 130.376 725.212 130.61 725.02 130.802C724.828 130.994 724.6 131.09 724.336 131.09ZM728.15 131.09C727.886 131.09 727.658 130.994 727.466 130.802C727.286 130.61 727.196 130.376 727.196 130.1C727.196 129.824 727.286 129.596 727.466 129.416C727.658 129.224 727.886 129.128 728.15 129.128C728.414 129.128 728.642 129.224 728.834 129.416C729.026 129.596 729.122 129.824 729.122 130.1C729.122 130.376 729.026 130.61 728.834 130.802C728.642 130.994 728.414 131.09 728.15 131.09ZM731.965 131.09C731.701 131.09 731.473 130.994 731.281 130.802C731.101 130.61 731.011 130.376 731.011 130.1C731.011 129.824 731.101 129.596 731.281 129.416C731.473 129.224 731.701 129.128 731.965 129.128C732.229 129.128 732.457 129.224 732.649 129.416C732.841 129.596 732.937 129.824 732.937 130.1C732.937 130.376 732.841 130.61 732.649 130.802C732.457 130.994 732.229 131.09 731.965 131.09Z" fill="black"/>
<path d="M263.026 118.4H269.236C270.64 118.4 271.876 118.658 272.944 119.174C274.024 119.678 274.858 120.404 275.446 121.352C276.046 122.3 276.346 123.416 276.346 124.7C276.346 125.984 276.046 127.1 275.446 128.048C274.858 128.996 274.024 129.728 272.944 130.244C271.876 130.748 270.64 131 269.236 131H263.026V118.4ZM269.056 127.688C269.968 127.688 270.694 127.43 271.234 126.914C271.786 126.386 272.062 125.648 272.062 124.7C272.062 123.752 271.786 123.02 271.234 122.504C270.694 121.976 269.968 121.712 269.056 121.712H267.274V127.688H269.056ZM283.333 128.174C283.765 128.174 284.125 128.12 284.413 128.012C284.713 127.904 285.037 127.718 285.385 127.454L287.509 129.596C286.525 130.652 285.091 131.18 283.207 131.18C282.019 131.18 280.975 130.964 280.075 130.532C279.175 130.088 278.479 129.476 277.987 128.696C277.495 127.916 277.249 127.04 277.249 126.068C277.249 125.084 277.495 124.208 277.987 123.44C278.479 122.66 279.151 122.054 280.003 121.622C280.867 121.19 281.833 120.974 282.901 120.974C283.873 120.974 284.767 121.172 285.583 121.568C286.399 121.952 287.047 122.528 287.527 123.296C288.007 124.052 288.247 124.958 288.247 126.014L281.515 127.31C281.815 127.886 282.421 128.174 283.333 128.174ZM282.919 123.746C282.451 123.746 282.067 123.884 281.767 124.16C281.479 124.436 281.305 124.844 281.245 125.384L284.395 124.772C284.287 124.46 284.101 124.214 283.837 124.034C283.585 123.842 283.279 123.746 282.919 123.746ZM293.653 131.18C292.357 131.18 291.343 130.856 290.611 130.208C289.891 129.548 289.531 128.6 289.531 127.364V117.644H293.599V127.148C293.599 127.46 293.677 127.7 293.833 127.868C293.989 128.024 294.211 128.102 294.499 128.102C294.631 128.102 294.763 128.084 294.895 128.048C295.039 128.012 295.153 127.97 295.237 127.922L295.399 130.928C294.823 131.096 294.241 131.18 293.653 131.18ZM296.474 121.154H300.542V131H296.474V121.154ZM298.508 120.362C297.776 120.362 297.182 120.17 296.726 119.786C296.282 119.39 296.06 118.892 296.06 118.292C296.06 117.692 296.282 117.2 296.726 116.816C297.182 116.42 297.776 116.222 298.508 116.222C299.252 116.222 299.846 116.408 300.29 116.78C300.734 117.152 300.956 117.632 300.956 118.22C300.956 118.844 300.734 119.36 300.29 119.768C299.846 120.164 299.252 120.362 298.508 120.362ZM313.307 121.154L309.347 131H305.135L301.175 121.154H305.351L307.331 126.428L309.455 121.154H313.307ZM319.228 128.174C319.66 128.174 320.02 128.12 320.308 128.012C320.608 127.904 320.932 127.718 321.28 127.454L323.404 129.596C322.42 130.652 320.986 131.18 319.102 131.18C317.914 131.18 316.87 130.964 315.97 130.532C315.07 130.088 314.374 129.476 313.882 128.696C313.39 127.916 313.144 127.04 313.144 126.068C313.144 125.084 313.39 124.208 313.882 123.44C314.374 122.66 315.046 122.054 315.898 121.622C316.762 121.19 317.728 120.974 318.796 120.974C319.768 120.974 320.662 121.172 321.478 121.568C322.294 121.952 322.942 122.528 323.422 123.296C323.902 124.052 324.142 124.958 324.142 126.014L317.41 127.31C317.71 127.886 318.316 128.174 319.228 128.174ZM318.814 123.746C318.346 123.746 317.962 123.884 317.662 124.16C317.374 124.436 317.2 124.844 317.14 125.384L320.29 124.772C320.182 124.46 319.996 124.214 319.732 124.034C319.48 123.842 319.174 123.746 318.814 123.746ZM329.295 122.216C330.015 121.388 331.077 120.974 332.481 120.974V124.574C332.157 124.526 331.857 124.502 331.581 124.502C330.189 124.502 329.493 125.21 329.493 126.626V131H325.425V121.154H329.295V122.216ZM339.108 128.174C339.54 128.174 339.9 128.12 340.188 128.012C340.488 127.904 340.812 127.718 341.16 127.454L343.284 129.596C342.3 130.652 340.866 131.18 338.982 131.18C337.794 131.18 336.75 130.964 335.85 130.532C334.95 130.088 334.254 129.476 333.762 128.696C333.27 127.916 333.024 127.04 333.024 126.068C333.024 125.084 333.27 124.208 333.762 123.44C334.254 122.66 334.926 122.054 335.778 121.622C336.642 121.19 337.608 120.974 338.676 120.974C339.648 120.974 340.542 121.172 341.358 121.568C342.174 121.952 342.822 122.528 343.302 123.296C343.782 124.052 344.022 124.958 344.022 126.014L337.29 127.31C337.59 127.886 338.196 128.174 339.108 128.174ZM338.694 123.746C338.226 123.746 337.842 123.884 337.542 124.16C337.254 124.436 337.08 124.844 337.02 125.384L340.17 124.772C340.062 124.46 339.876 124.214 339.612 124.034C339.36 123.842 339.054 123.746 338.694 123.746ZM356.196 117.644V131H352.326V130.19C351.738 130.85 350.838 131.18 349.626 131.18C348.762 131.18 347.964 130.976 347.232 130.568C346.512 130.148 345.936 129.548 345.504 128.768C345.084 127.988 344.874 127.088 344.874 126.068C344.874 125.048 345.084 124.154 345.504 123.386C345.936 122.606 346.512 122.012 347.232 121.604C347.964 121.184 348.762 120.974 349.626 120.974C350.718 120.974 351.552 121.256 352.128 121.82V117.644H356.196ZM350.598 128.012C351.066 128.012 351.45 127.844 351.75 127.508C352.05 127.16 352.2 126.68 352.2 126.068C352.2 125.456 352.05 124.982 351.75 124.646C351.45 124.31 351.066 124.142 350.598 124.142C350.13 124.142 349.746 124.31 349.446 124.646C349.146 124.982 348.996 125.456 348.996 126.068C348.996 126.68 349.146 127.16 349.446 127.508C349.746 127.844 350.13 128.012 350.598 128.012Z" fill="#7C4EFF"/>
<path d="M76.582 181.4V194H75.268V188.186H67.384V194H66.052V181.4H67.384V187.016H75.268V181.4H76.582ZM84.4746 192.956C85.0626 192.956 85.6026 192.854 86.0946 192.65C86.5986 192.434 87.0246 192.122 87.3726 191.714L88.0926 192.542C87.6726 193.046 87.1506 193.43 86.5266 193.694C85.9026 193.958 85.2126 194.09 84.4566 194.09C83.4846 194.09 82.6206 193.886 81.8646 193.478C81.1086 193.058 80.5206 192.482 80.1006 191.75C79.6806 191.018 79.4706 190.19 79.4706 189.266C79.4706 188.342 79.6686 187.514 80.0646 186.782C80.4726 186.05 81.0306 185.48 81.7386 185.072C82.4466 184.664 83.2506 184.46 84.1506 184.46C84.9906 184.46 85.7466 184.652 86.4186 185.036C87.1026 185.42 87.6426 185.954 88.0386 186.638C88.4466 187.322 88.6626 188.102 88.6866 188.978L80.9106 190.49C81.1506 191.258 81.5826 191.864 82.2066 192.308C82.8426 192.74 83.5986 192.956 84.4746 192.956ZM84.1506 185.558C83.4906 185.558 82.8966 185.714 82.3686 186.026C81.8526 186.326 81.4446 186.752 81.1446 187.304C80.8566 187.844 80.7126 188.468 80.7126 189.176C80.7126 189.356 80.7186 189.488 80.7306 189.572L87.4086 188.276C87.2646 187.484 86.8986 186.836 86.3106 186.332C85.7226 185.816 85.0026 185.558 84.1506 185.558ZM99.9279 184.532V194H98.7039V192.128C98.3199 192.764 97.8099 193.25 97.1739 193.586C96.5499 193.922 95.8419 194.09 95.0499 194.09C94.1619 194.09 93.3579 193.886 92.6379 193.478C91.9179 193.07 91.3539 192.5 90.9459 191.768C90.5379 191.036 90.3339 190.202 90.3339 189.266C90.3339 188.33 90.5379 187.496 90.9459 186.764C91.3539 186.032 91.9179 185.468 92.6379 185.072C93.3579 184.664 94.1619 184.46 95.0499 184.46C95.8179 184.46 96.5079 184.622 97.1199 184.946C97.7439 185.258 98.2539 185.72 98.6499 186.332V184.532H99.9279ZM95.1579 192.956C95.8179 192.956 96.4119 192.806 96.9399 192.506C97.4799 192.194 97.8999 191.756 98.1999 191.192C98.5119 190.628 98.6679 189.986 98.6679 189.266C98.6679 188.546 98.5119 187.904 98.1999 187.34C97.8999 186.776 97.4799 186.344 96.9399 186.044C96.4119 185.732 95.8179 185.576 95.1579 185.576C94.4859 185.576 93.8799 185.732 93.3399 186.044C92.8119 186.344 92.3919 186.776 92.0799 187.34C91.7799 187.904 91.6299 188.546 91.6299 189.266C91.6299 189.986 91.7799 190.628 92.0799 191.192C92.3919 191.756 92.8119 192.194 93.3399 192.506C93.8799 192.806 94.4859 192.956 95.1579 192.956ZM112.127 180.644V194H110.903V192.128C110.519 192.764 110.009 193.25 109.373 193.586C108.749 193.922 108.041 194.09 107.249 194.09C106.361 194.09 105.557 193.886 104.837 193.478C104.117 193.07 103.553 192.5 103.145 191.768C102.737 191.036 102.533 190.202 102.533 189.266C102.533 188.33 102.737 187.496 103.145 186.764C103.553 186.032 104.117 185.468 104.837 185.072C105.557 184.664 106.361 184.46 107.249 184.46C108.017 184.46 108.707 184.622 109.319 184.946C109.943 185.258 110.453 185.72 110.849 186.332V180.644H112.127ZM107.357 192.956C108.017 192.956 108.611 192.806 109.139 192.506C109.679 192.194 110.099 191.756 110.399 191.192C110.711 190.628 110.867 189.986 110.867 189.266C110.867 188.546 110.711 187.904 110.399 187.34C110.099 186.776 109.679 186.344 109.139 186.044C108.611 185.732 108.017 185.576 107.357 185.576C106.685 185.576 106.079 185.732 105.539 186.044C105.011 186.344 104.591 186.776 104.279 187.34C103.979 187.904 103.829 188.546 103.829 189.266C103.829 189.986 103.979 190.628 104.279 191.192C104.591 191.756 105.011 192.194 105.539 192.506C106.079 192.806 106.685 192.956 107.357 192.956ZM118.224 194.09C117.456 194.09 116.718 193.982 116.01 193.766C115.314 193.538 114.768 193.256 114.372 192.92L114.948 191.912C115.344 192.224 115.842 192.482 116.442 192.686C117.042 192.878 117.666 192.974 118.314 192.974C119.178 192.974 119.814 192.842 120.222 192.578C120.642 192.302 120.852 191.918 120.852 191.426C120.852 191.078 120.738 190.808 120.51 190.616C120.282 190.412 119.994 190.262 119.646 190.166C119.298 190.058 118.836 189.956 118.26 189.86C117.492 189.716 116.874 189.572 116.406 189.428C115.938 189.272 115.536 189.014 115.2 188.654C114.876 188.294 114.714 187.796 114.714 187.16C114.714 186.368 115.044 185.72 115.704 185.216C116.364 184.712 117.282 184.46 118.458 184.46C119.07 184.46 119.682 184.544 120.294 184.712C120.906 184.868 121.41 185.078 121.806 185.342L121.248 186.368C120.468 185.828 119.538 185.558 118.458 185.558C117.642 185.558 117.024 185.702 116.604 185.99C116.196 186.278 115.992 186.656 115.992 187.124C115.992 187.484 116.106 187.772 116.334 187.988C116.574 188.204 116.868 188.366 117.216 188.474C117.564 188.57 118.044 188.672 118.656 188.78C119.412 188.924 120.018 189.068 120.474 189.212C120.93 189.356 121.32 189.602 121.644 189.95C121.968 190.298 122.13 190.778 122.13 191.39C122.13 192.218 121.782 192.878 121.086 193.37C120.402 193.85 119.448 194.09 118.224 194.09ZM128.543 192.956C129.131 192.956 129.671 192.854 130.163 192.65C130.667 192.434 131.093 192.122 131.441 191.714L132.161 192.542C131.741 193.046 131.219 193.43 130.595 193.694C129.971 193.958 129.281 194.09 128.525 194.09C127.553 194.09 126.689 193.886 125.933 193.478C125.177 193.058 124.589 192.482 124.169 191.75C123.749 191.018 123.539 190.19 123.539 189.266C123.539 188.342 123.737 187.514 124.133 186.782C124.541 186.05 125.099 185.48 125.807 185.072C126.515 184.664 127.319 184.46 128.219 184.46C129.059 184.46 129.815 184.652 130.487 185.036C131.171 185.42 131.711 185.954 132.107 186.638C132.515 187.322 132.731 188.102 132.755 188.978L124.979 190.49C125.219 191.258 125.651 191.864 126.275 192.308C126.911 192.74 127.667 192.956 128.543 192.956ZM128.219 185.558C127.559 185.558 126.965 185.714 126.437 186.026C125.921 186.326 125.513 186.752 125.213 187.304C124.925 187.844 124.781 188.468 124.781 189.176C124.781 189.356 124.787 189.488 124.799 189.572L131.477 188.276C131.333 187.484 130.967 186.836 130.379 186.332C129.791 185.816 129.071 185.558 128.219 185.558ZM140.018 193.424C139.778 193.64 139.484 193.808 139.136 193.928C138.788 194.036 138.422 194.09 138.038 194.09C137.15 194.09 136.466 193.85 135.986 193.37C135.506 192.89 135.266 192.212 135.266 191.336V182.462H136.544V184.532H139.406V185.612H136.544V191.264C136.544 191.828 136.682 192.26 136.958 192.56C137.234 192.848 137.636 192.992 138.164 192.992C138.74 192.992 139.208 192.83 139.568 192.506L140.018 193.424Z" fill="black"/>
<path d="M269.632 194.288C268.276 194.288 267.058 194.006 265.978 193.442C264.898 192.878 264.052 192.098 263.44 191.102C262.828 190.094 262.522 188.96 262.522 187.7C262.522 186.44 262.828 185.312 263.44 184.316C264.052 183.308 264.898 182.522 265.978 181.958C267.058 181.394 268.276 181.112 269.632 181.112C270.988 181.112 272.206 181.394 273.286 181.958C274.366 182.522 275.212 183.308 275.824 184.316C276.436 185.312 276.742 186.44 276.742 187.7C276.742 188.96 276.436 190.094 275.824 191.102C275.212 192.098 274.366 192.878 273.286 193.442C272.206 194.006 270.988 194.288 269.632 194.288ZM269.632 190.85C270.16 190.85 270.634 190.724 271.054 190.472C271.486 190.208 271.828 189.842 272.08 189.374C272.332 188.894 272.458 188.336 272.458 187.7C272.458 187.064 272.332 186.512 272.08 186.044C271.828 185.564 271.486 185.198 271.054 184.946C270.634 184.682 270.16 184.55 269.632 184.55C269.104 184.55 268.624 184.682 268.192 184.946C267.772 185.198 267.436 185.564 267.184 186.044C266.932 186.512 266.806 187.064 266.806 187.7C266.806 188.336 266.932 188.894 267.184 189.374C267.436 189.842 267.772 190.208 268.192 190.472C268.624 190.724 269.104 190.85 269.632 190.85ZM282.028 185.216C282.748 184.388 283.81 183.974 285.214 183.974V187.574C284.89 187.526 284.59 187.502 284.314 187.502C282.922 187.502 282.226 188.21 282.226 189.626V194H278.158V184.154H282.028V185.216ZM297.169 180.644V194H293.299V193.19C292.711 193.85 291.811 194.18 290.599 194.18C289.735 194.18 288.937 193.976 288.205 193.568C287.485 193.148 286.909 192.548 286.477 191.768C286.057 190.988 285.847 190.088 285.847 189.068C285.847 188.048 286.057 187.154 286.477 186.386C286.909 185.606 287.485 185.012 288.205 184.604C288.937 184.184 289.735 183.974 290.599 183.974C291.691 183.974 292.525 184.256 293.101 184.82V180.644H297.169ZM291.571 191.012C292.039 191.012 292.423 190.844 292.723 190.508C293.023 190.16 293.173 189.68 293.173 189.068C293.173 188.456 293.023 187.982 292.723 187.646C292.423 187.31 292.039 187.142 291.571 187.142C291.103 187.142 290.719 187.31 290.419 187.646C290.119 187.982 289.969 188.456 289.969 189.068C289.969 189.68 290.119 190.16 290.419 190.508C290.719 190.844 291.103 191.012 291.571 191.012ZM304.532 191.174C304.964 191.174 305.324 191.12 305.612 191.012C305.912 190.904 306.236 190.718 306.584 190.454L308.708 192.596C307.724 193.652 306.29 194.18 304.406 194.18C303.218 194.18 302.174 193.964 301.274 193.532C300.374 193.088 299.678 192.476 299.186 191.696C298.694 190.916 298.448 190.04 298.448 189.068C298.448 188.084 298.694 187.208 299.186 186.44C299.678 185.66 300.35 185.054 301.202 184.622C302.066 184.19 303.032 183.974 304.1 183.974C305.072 183.974 305.966 184.172 306.782 184.568C307.598 184.952 308.246 185.528 308.726 186.296C309.206 187.052 309.446 187.958 309.446 189.014L302.714 190.31C303.014 190.886 303.62 191.174 304.532 191.174ZM304.118 186.746C303.65 186.746 303.266 186.884 302.966 187.16C302.678 187.436 302.504 187.844 302.444 188.384L305.594 187.772C305.486 187.46 305.3 187.214 305.036 187.034C304.784 186.842 304.478 186.746 304.118 186.746ZM314.6 185.216C315.32 184.388 316.382 183.974 317.786 183.974V187.574C317.462 187.526 317.162 187.502 316.886 187.502C315.494 187.502 314.798 188.21 314.798 189.626V194H310.73V184.154H314.6V185.216ZM324.413 191.174C324.845 191.174 325.205 191.12 325.493 191.012C325.793 190.904 326.117 190.718 326.465 190.454L328.589 192.596C327.605 193.652 326.171 194.18 324.287 194.18C323.099 194.18 322.055 193.964 321.155 193.532C320.255 193.088 319.559 192.476 319.067 191.696C318.575 190.916 318.329 190.04 318.329 189.068C318.329 188.084 318.575 187.208 319.067 186.44C319.559 185.66 320.231 185.054 321.083 184.622C321.947 184.19 322.913 183.974 323.981 183.974C324.953 183.974 325.847 184.172 326.663 184.568C327.479 184.952 328.127 185.528 328.607 186.296C329.087 187.052 329.327 187.958 329.327 189.014L322.595 190.31C322.895 190.886 323.501 191.174 324.413 191.174ZM323.999 186.746C323.531 186.746 323.147 186.884 322.847 187.16C322.559 187.436 322.385 187.844 322.325 188.384L325.475 187.772C325.367 187.46 325.181 187.214 324.917 187.034C324.665 186.842 324.359 186.746 323.999 186.746ZM341.501 180.644V194H337.631V193.19C337.043 193.85 336.143 194.18 334.931 194.18C334.067 194.18 333.269 193.976 332.537 193.568C331.817 193.148 331.241 192.548 330.809 191.768C330.389 190.988 330.179 190.088 330.179 189.068C330.179 188.048 330.389 187.154 330.809 186.386C331.241 185.606 331.817 185.012 332.537 184.604C333.269 184.184 334.067 183.974 334.931 183.974C336.023 183.974 336.857 184.256 337.433 184.82V180.644H341.501ZM335.903 191.012C336.371 191.012 336.755 190.844 337.055 190.508C337.355 190.16 337.505 189.68 337.505 189.068C337.505 188.456 337.355 187.982 337.055 187.646C336.755 187.31 336.371 187.142 335.903 187.142C335.435 187.142 335.051 187.31 334.751 187.646C334.451 187.982 334.301 188.456 334.301 189.068C334.301 189.68 334.451 190.16 334.751 190.508C335.051 190.844 335.435 191.012 335.903 191.012Z" fill="#010080"/>
<path d="M30.9855 64.867C28.9804 68.7289 23.6161 73.9811 20.5827 76.7788C20.2566 77.0737 19.7606 77.0737 19.4344 76.7788C16.3838 73.9811 11.0196 68.7289 9.01446 64.867C4.60998 56.3708 15.7155 50.7066 20 59.2028C24.2845 50.7066 35.39 56.3708 30.9855 64.867Z" fill="#7C4EFF"/>
<rect x="485" y="48" width="94" height="36" rx="18" fill="#7C4EFF"/>
<path d="M514.955 65.448C515.675 65.676 516.239 66.06 516.647 66.6C517.055 67.128 517.259 67.782 517.259 68.562C517.259 69.666 516.827 70.518 515.963 71.118C515.111 71.706 513.863 72 512.219 72H505.703V59.4H511.859C513.395 59.4 514.571 59.694 515.387 60.282C516.215 60.87 516.629 61.668 516.629 62.676C516.629 63.288 516.479 63.834 516.179 64.314C515.891 64.794 515.483 65.172 514.955 65.448ZM508.601 61.596V64.566H511.499C512.219 64.566 512.765 64.44 513.137 64.188C513.509 63.936 513.695 63.564 513.695 63.072C513.695 62.58 513.509 62.214 513.137 61.974C512.765 61.722 512.219 61.596 511.499 61.596H508.601ZM512.003 69.804C512.771 69.804 513.347 69.678 513.731 69.426C514.127 69.174 514.325 68.784 514.325 68.256C514.325 67.212 513.551 66.69 512.003 66.69H508.601V69.804H512.003ZM524.147 69.894C524.651 69.894 525.095 69.822 525.479 69.678C525.875 69.522 526.241 69.282 526.577 68.958L528.071 70.578C527.159 71.622 525.827 72.144 524.075 72.144C522.983 72.144 522.017 71.934 521.177 71.514C520.337 71.082 519.689 70.488 519.233 69.732C518.777 68.976 518.549 68.118 518.549 67.158C518.549 66.21 518.771 65.358 519.215 64.602C519.671 63.834 520.289 63.24 521.069 62.82C521.861 62.388 522.749 62.172 523.733 62.172C524.657 62.172 525.497 62.37 526.253 62.766C527.009 63.15 527.609 63.714 528.053 64.458C528.509 65.19 528.737 66.06 528.737 67.068L521.573 68.454C521.777 68.934 522.095 69.294 522.527 69.534C522.971 69.774 523.511 69.894 524.147 69.894ZM523.733 64.296C523.025 64.296 522.449 64.524 522.005 64.98C521.561 65.436 521.327 66.066 521.303 66.87L526.019 65.952C525.887 65.448 525.617 65.046 525.209 64.746C524.801 64.446 524.309 64.296 523.733 64.296ZM540.614 62.316V70.38C540.614 72.156 540.152 73.476 539.228 74.34C538.304 75.204 536.954 75.636 535.178 75.636C534.242 75.636 533.354 75.522 532.514 75.294C531.674 75.066 530.978 74.736 530.426 74.304L531.542 72.288C531.95 72.624 532.466 72.888 533.09 73.08C533.714 73.284 534.338 73.386 534.962 73.386C535.934 73.386 536.648 73.164 537.104 72.72C537.572 72.288 537.806 71.628 537.806 70.74V70.326C537.074 71.13 536.054 71.532 534.746 71.532C533.858 71.532 533.042 71.34 532.298 70.956C531.566 70.56 530.984 70.008 530.552 69.3C530.12 68.592 529.904 67.776 529.904 66.852C529.904 65.928 530.12 65.112 530.552 64.404C530.984 63.696 531.566 63.15 532.298 62.766C533.042 62.37 533.858 62.172 534.746 62.172C536.15 62.172 537.218 62.634 537.95 63.558V62.316H540.614ZM535.304 69.228C536.048 69.228 536.654 69.012 537.122 68.58C537.602 68.136 537.842 67.56 537.842 66.852C537.842 66.144 537.602 65.574 537.122 65.142C536.654 64.698 536.048 64.476 535.304 64.476C534.56 64.476 533.948 64.698 533.468 65.142C532.988 65.574 532.748 66.144 532.748 66.852C532.748 67.56 532.988 68.136 533.468 68.58C533.948 69.012 534.56 69.228 535.304 69.228ZM543.228 62.316H546.036V72H543.228V62.316ZM544.632 60.966C544.116 60.966 543.696 60.816 543.372 60.516C543.048 60.216 542.886 59.844 542.886 59.4C542.886 58.956 543.048 58.584 543.372 58.284C543.696 57.984 544.116 57.834 544.632 57.834C545.148 57.834 545.568 57.978 545.892 58.266C546.216 58.554 546.378 58.914 546.378 59.346C546.378 59.814 546.216 60.204 545.892 60.516C545.568 60.816 545.148 60.966 544.632 60.966ZM554.528 62.172C555.728 62.172 556.694 62.532 557.426 63.252C558.17 63.972 558.542 65.04 558.542 66.456V72H555.734V66.888C555.734 66.12 555.566 65.55 555.23 65.178C554.894 64.794 554.408 64.602 553.772 64.602C553.064 64.602 552.5 64.824 552.08 65.268C551.66 65.7 551.45 66.348 551.45 67.212V72H548.642V62.316H551.324V63.45C551.696 63.042 552.158 62.73 552.71 62.514C553.262 62.286 553.868 62.172 554.528 62.172Z" fill="white"/>
<rect x="485" y="169" width="94" height="36" rx="18" fill="#7C4EFF"/>
<path d="M515.788 183.928C514.708 183.304 513.55 182.902 512.314 182.722V193H509.398V182.722C508.162 182.902 506.998 183.304 505.906 183.928L504.916 181.75C505.78 181.234 506.716 180.844 507.724 180.58C508.732 180.316 509.77 180.184 510.838 180.184C511.918 180.184 512.962 180.316 513.97 180.58C514.99 180.844 515.926 181.234 516.778 181.75L515.788 183.928ZM520.395 184.594C520.731 184.126 521.181 183.772 521.745 183.532C522.321 183.292 522.981 183.172 523.725 183.172V185.764C523.413 185.74 523.203 185.728 523.095 185.728C522.291 185.728 521.661 185.956 521.205 186.412C520.749 186.856 520.521 187.528 520.521 188.428V193H517.713V183.316H520.395V184.594ZM535.135 183.316V193H532.453V191.884C531.757 192.724 530.749 193.144 529.429 193.144C528.517 193.144 527.689 192.94 526.945 192.532C526.213 192.124 525.637 191.542 525.217 190.786C524.797 190.03 524.587 189.154 524.587 188.158C524.587 187.162 524.797 186.286 525.217 185.53C525.637 184.774 526.213 184.192 526.945 183.784C527.689 183.376 528.517 183.172 529.429 183.172C530.665 183.172 531.631 183.562 532.327 184.342V183.316H535.135ZM529.915 190.84C530.623 190.84 531.211 190.6 531.679 190.12C532.147 189.628 532.381 188.974 532.381 188.158C532.381 187.342 532.147 186.694 531.679 186.214C531.211 185.722 530.623 185.476 529.915 185.476C529.195 185.476 528.601 185.722 528.133 186.214C527.665 186.694 527.431 187.342 527.431 188.158C527.431 188.974 527.665 189.628 528.133 190.12C528.601 190.6 529.195 190.84 529.915 190.84ZM542.414 193.144C541.382 193.144 540.452 192.934 539.624 192.514C538.808 192.082 538.166 191.488 537.698 190.732C537.242 189.976 537.014 189.118 537.014 188.158C537.014 187.198 537.242 186.34 537.698 185.584C538.166 184.828 538.808 184.24 539.624 183.82C540.452 183.388 541.382 183.172 542.414 183.172C543.434 183.172 544.322 183.388 545.078 183.82C545.846 184.24 546.404 184.846 546.752 185.638L544.574 186.808C544.07 185.92 543.344 185.476 542.396 185.476C541.664 185.476 541.058 185.716 540.578 186.196C540.098 186.676 539.858 187.33 539.858 188.158C539.858 188.986 540.098 189.64 540.578 190.12C541.058 190.6 541.664 190.84 542.396 190.84C543.356 190.84 544.082 190.396 544.574 189.508L546.752 190.696C546.404 191.464 545.846 192.064 545.078 192.496C544.322 192.928 543.434 193.144 542.414 193.144ZM552.457 189.202L551.107 190.534V193H548.299V179.644H551.107V187.204L555.211 183.316H558.559L554.527 187.42L558.919 193H555.517L552.457 189.202Z" fill="white"/>
<path d="M32 123.5C32 125.535 31.6508 127.551 30.9724 129.432C30.2939 131.312 29.2995 133.021 28.0459 134.46C26.7924 135.899 25.3041 137.041 23.6662 137.82C22.0283 138.599 20.2728 139 18.5 139C16.7272 139 14.9717 138.599 13.3338 137.82C11.6959 137.041 10.2076 135.899 8.95406 134.46C7.70047 133.021 6.70606 131.312 6.02763 129.432C5.34919 127.551 5 125.535 5 123.5L18.5 123.5H32Z" fill="#7C4EFF"/>
<path d="M36.074 106.934C36.2845 106.565 36.7557 106.439 37.1219 106.654C37.4881 106.869 37.6083 107.342 37.3893 107.705L20.6772 135.461C20.567 135.645 20.3299 135.705 20.1456 135.597C19.9613 135.489 19.8982 135.252 20.0042 135.067L36.074 106.934Z" fill="#7C4EFF"/>
<path d="M30.5018 106.727C30.6432 106.327 31.0844 106.119 31.4831 106.265C31.8817 106.411 32.0843 106.855 31.9337 107.252L20.4394 137.543C20.3636 137.743 20.1411 137.845 19.9405 137.771C19.7398 137.698 19.6356 137.476 19.7068 137.275L30.5018 106.727Z" fill="#7C4EFF"/>
<rect x="7.71436" y="177.833" width="24.333" height="23.3333" rx="5" fill="#7C4EFF"/>
<rect x="15.5356" y="172" width="1.73807" height="12.5" rx="0.869035" fill="#7C4EFF"/>
<rect x="22.4878" y="172" width="1.73807" height="12.5" rx="0.869035" fill="#7C4EFF"/>
<rect x="15.5356" y="194.5" width="1.73807" height="12.5" rx="0.869035" fill="#7C4EFF"/>
<rect x="22.4878" y="194.5" width="1.73807" height="12.5" rx="0.869035" fill="#7C4EFF"/>
<rect x="39" y="186.167" width="1.66667" height="13.0355" rx="0.833333" transform="rotate(90 39 186.167)" fill="#7C4EFF"/>
<rect x="39" y="192.833" width="1.66667" height="13.0355" rx="0.833333" transform="rotate(90 39 192.833)" fill="#7C4EFF"/>
<rect x="13.7974" y="186.167" width="1.66667" height="13.0355" rx="0.833333" transform="rotate(90 13.7974 186.167)" fill="#7C4EFF"/>
<rect x="13.7974" y="192.833" width="1.66667" height="13.0355" rx="0.833333" transform="rotate(90 13.7974 192.833)" fill="#7C4EFF"/>
</svg>
