<svg width="1062" height="1053" viewBox="0 0 1062 1053" fill="none" xmlns="http://www.w3.org/2000/svg">
<g filter="url(#filter0_d)">
<rect x="4" width="1054" height="478" rx="40" fill="white"/>
</g>
<g filter="url(#filter1_d)">
<rect x="4" y="567" width="1054" height="478" rx="40" fill="white"/>
</g>
<path d="M176.861 283.156C178.577 282.064 180.425 281.195 182.361 280.571C184.838 279.507 187.429 278.728 190.082 278.252C206.07 274.525 222.288 271.868 238.629 270.299L234.652 231.396C232.929 230.567 230.841 231.064 229.019 230.368C224.711 228.844 225.374 221.587 221.927 218.141C219.641 215.788 215.764 215.556 213.676 213.004C212.813 211.497 212.343 209.796 212.308 208.059C212.273 206.322 212.675 204.604 213.477 203.063C214.107 201.406 214.803 199.749 215.267 197.993C212.284 191.962 206.883 185.898 208.275 179.436C208.739 177.216 209.998 175.261 210.362 173.008C210.512 171.144 210.512 169.271 210.362 167.407C210.362 155.909 220.304 151.038 226.931 144.211C233.028 138.147 235.282 128.339 243.268 124.561C243.748 123.974 244.395 123.546 245.123 123.335C245.757 123.202 246.412 123.202 247.045 123.335C249.305 122.954 251.612 122.954 253.872 123.335C254.831 122.363 255.873 121.476 256.987 120.684C260.93 118.629 265.171 123.567 269.579 123.368C272.561 123.368 275.113 120.717 278.095 120.916C281.077 121.115 283.397 124.064 284.722 126.914C285.722 129.927 287.618 132.563 290.157 134.469C291.928 135.173 293.743 135.76 295.591 136.225C299.866 137.982 302.219 142.853 303.478 147.293C305.216 152.921 306.415 158.702 307.057 164.558C307.352 165.467 307.413 166.435 307.233 167.374C307.054 168.312 306.64 169.19 306.03 169.926C305.457 170.523 304.737 170.958 303.942 171.185C303.942 171.682 304.174 172.212 304.273 172.709C304.814 172.67 305.349 172.836 305.773 173.173C306.197 173.511 306.478 173.996 306.56 174.532C306.646 175.094 306.506 175.667 306.171 176.127C305.835 176.586 305.332 176.894 304.77 176.984V176.984L305.831 204.919C305.831 205.515 305.831 206.112 305.831 206.708L307.521 230.136C307.189 237.062 301.125 245.181 294.266 246.307C290.256 246.97 283.297 248.428 276.604 248.991L278.493 267.946C280.238 268.067 281.975 268.288 283.695 268.609C300.032 271.326 313.254 275.899 323.46 282.99H323.692L324.686 283.852C329.319 287.284 333.35 291.461 336.615 296.212C351.461 313.248 363.588 332.473 372.569 353.208C395.066 328.671 409.814 298.036 414.965 265.147C420.115 232.259 415.438 198.582 401.52 168.342C387.602 138.102 365.063 112.645 336.731 95.1674C308.399 77.6894 275.536 68.9679 242.266 70.0973C208.996 71.2268 176.8 82.1568 149.719 101.516C122.638 120.875 101.877 147.801 90.0416 178.916C78.2063 210.03 75.8237 243.947 83.1926 276.41C90.5616 308.873 107.354 338.438 131.463 361.393C133.981 348.138 136.632 335.844 139.051 327.295C144.121 309.069 161.319 291.606 176.861 283.156Z" fill="#B2C3EB"/>
<path d="M323.56 282.925H323.328L324.554 283.82L323.56 282.925Z" fill="#7C4EFF"/>
<path d="M345.563 319.078C349.044 336.34 351.534 353.788 353.019 371.335C359.945 365.834 366.437 359.807 372.437 353.308C363.456 332.573 351.329 313.348 336.483 296.312C341.047 303.194 344.138 310.944 345.563 319.078V319.078Z" fill="#7C4EFF"/>
<path d="M323.328 282.892C313.387 275.8 300.132 271.228 283.563 268.51C282.014 268.286 280.454 268.143 278.891 268.079L279.421 273.481C281.304 274.56 282.893 276.086 284.049 277.923C285.204 279.761 285.891 281.854 286.048 284.018C286.048 292.833 274.02 299.957 259.174 299.957C244.329 299.957 232.3 292.833 232.3 284.018C232.447 281.91 233.106 279.869 234.221 278.073C235.335 276.277 236.871 274.781 238.695 273.713L238.364 270.399C222.036 271.948 205.829 274.583 189.851 278.286C199.428 276.629 205.989 280.87 204.464 294.192C202.178 313.776 183.19 364.045 179.446 389.262C179.446 390.091 179.181 391.582 179.081 393.405C201.919 403.579 226.731 408.559 251.726 407.986C276.721 407.413 301.278 401.301 323.626 390.091C295.89 348.603 286.247 279.479 323.328 282.892Z" fill="#7C4EFF"/>
<path d="M176.894 283.091C178.689 282.106 180.536 281.221 182.428 280.44C180.477 281.082 178.617 281.973 176.894 283.091Z" fill="#7C4EFF"/>
<path d="M336.483 296.147C333.217 291.395 329.186 287.218 324.553 283.786C328.748 287.69 332.73 291.816 336.483 296.147Z" fill="#7C4EFF"/>
<path d="M336.483 296.147C332.731 291.816 328.749 287.69 324.554 283.787L323.328 282.892C286.247 279.578 295.89 348.603 323.891 389.826C334.202 384.666 343.961 378.47 353.019 371.335C351.527 353.844 349.038 336.451 345.563 319.243C344.182 310.995 341.089 303.127 336.483 296.147V296.147Z" fill="#7C4EFF"/>
<path d="M182.395 280.506C184.926 279.597 187.503 278.823 190.116 278.186C187.463 278.663 184.872 279.442 182.395 280.506V280.506Z" fill="#7C4EFF"/>
<path d="M174.807 374.317C174.807 340.716 157.542 310.727 176.861 283.157C161.32 291.607 144.122 309.07 139.052 327.163C136.633 335.712 133.982 348.139 131.463 361.394C145.219 374.408 161.057 385.026 178.319 392.808C177.573 386.571 176.399 380.393 174.807 374.317V374.317Z" fill="#7C4EFF"/>
<path d="M204.829 294.092C206.353 280.837 199.792 276.53 190.215 278.186C187.603 278.823 185.025 279.597 182.494 280.506C180.602 281.287 178.755 282.172 176.961 283.157C157.641 310.727 174.939 340.716 174.906 374.318C176.431 380.398 177.538 386.576 178.22 392.808L179.346 393.305C179.346 391.483 179.578 389.991 179.711 389.163C183.455 363.946 202.443 313.676 204.829 294.092Z" fill="#7C4EFF"/>
<path d="M240.617 290.348L238.96 273.779C237.136 274.847 235.601 276.344 234.486 278.14C233.372 279.936 232.712 281.976 232.565 284.085C232.565 292.899 244.594 300.024 259.439 300.024C274.285 300.024 286.314 292.899 286.314 284.085C286.156 281.92 285.469 279.827 284.314 277.99C283.158 276.152 281.569 274.627 279.686 273.547L280.746 283.952L240.617 290.348Z" fill="#FF847B"/>
<path d="M228.191 207.438C227.586 204.793 228.019 202.016 229.4 199.679C230.78 197.343 233.004 195.625 235.614 194.879L234.653 186.959C231.902 187.523 229.086 187.953 226.203 188.285L225.871 185.932C225.54 186.363 225.242 186.761 224.944 187.224C223.447 190.881 222.617 194.775 222.491 198.723C221.895 202.666 220.072 206.941 216.494 207.869C217.006 206.218 217.159 204.477 216.942 202.762C216.725 201.047 216.142 199.399 215.234 197.928C214.77 199.651 214.075 201.242 213.445 202.998C212.643 204.539 212.241 206.257 212.276 207.994C212.31 209.731 212.781 211.431 213.644 212.939C215.731 215.491 219.609 215.723 221.895 218.075C225.209 221.389 224.579 228.613 229.086 230.303C230.908 230.999 232.996 230.502 234.719 231.33L233.162 215.855C231.804 214.864 230.664 213.606 229.809 212.159C228.954 210.712 228.404 209.105 228.191 207.438V207.438Z" fill="#FBE4DA"/>
<path d="M247.145 123.435C246.511 123.302 245.857 123.302 245.223 123.435C244.495 123.647 243.848 124.074 243.367 124.661C243.788 124.401 244.232 124.179 244.693 123.999C245.494 123.745 246.314 123.557 247.145 123.435V123.435Z" fill="#FBE4DA"/>
<path d="M278.692 140.766L280.249 140.136L296.387 150.84C296.387 150.84 295.592 151.801 294.068 153.358C299.023 158.29 302.471 164.532 304.009 171.352C304.804 171.124 305.524 170.69 306.097 170.092C306.706 169.357 307.121 168.479 307.3 167.54C307.48 166.602 307.419 165.633 307.124 164.724C306.482 158.869 305.283 153.088 303.545 147.46C302.153 142.953 299.933 138.148 295.658 136.392C293.81 135.927 291.995 135.34 290.224 134.636C287.685 132.73 285.788 130.094 284.789 127.08C283.397 124.231 281.21 121.248 278.162 121.083C275.113 120.917 272.628 123.402 269.646 123.535C265.238 123.733 260.997 118.796 257.053 120.851C255.94 121.642 254.898 122.529 253.938 123.502C259.332 124.572 264.437 126.774 268.917 129.963C272.765 132.983 276.07 136.636 278.692 140.766V140.766Z" fill="#FBE4DA"/>
<path d="M237.138 208.3L235.614 195.045C233.004 195.791 230.78 197.509 229.399 199.845C228.018 202.181 227.586 204.958 228.191 207.604C228.399 209.285 228.951 210.906 229.811 212.365C230.672 213.825 231.824 215.092 233.195 216.087V215.557C232.996 214.085 233.271 212.589 233.98 211.284C234.689 209.979 235.795 208.934 237.138 208.3Z" fill="#FF847B"/>
<path d="M300.397 169.861C299.933 168.966 299.867 167.906 299.436 167.011C298.851 166.136 298.048 165.429 297.107 164.958C296.166 164.488 295.118 164.27 294.068 164.327C291.987 164.518 289.89 164.281 287.904 163.631C286.891 163.161 286.014 162.443 285.352 161.543C273.576 171.6 259.975 179.295 245.29 184.209L250.128 195.41C251.459 199.258 253.43 202.855 255.96 206.047L265.901 205.053C267.626 204.933 269.333 205.466 270.684 206.546C272.034 207.627 272.929 209.175 273.191 210.885C284.239 210.741 295.239 209.397 305.997 206.875C305.997 206.279 305.997 205.682 305.997 205.086L304.937 177.151L297.116 178.344C296.549 178.427 295.973 178.282 295.513 177.941C295.053 177.599 294.748 177.088 294.664 176.521C294.581 175.955 294.726 175.378 295.067 174.918C295.409 174.458 295.92 174.153 296.487 174.069L304.241 172.876C304.241 172.379 304.042 171.849 303.909 171.352C303.242 171.553 302.525 171.514 301.883 171.242C301.242 170.969 300.716 170.481 300.397 169.861V169.861ZM268.983 192.725C267.657 192.924 266.332 191.4 266 189.412C265.669 187.424 266.531 185.468 267.856 185.27C269.182 185.071 270.54 186.595 270.838 188.583C271.137 190.572 270.341 192.394 268.983 192.725ZM273.821 181.823L265.901 182.983C265.366 183.011 264.84 182.838 264.426 182.499C264.011 182.16 263.738 181.678 263.66 181.148C263.581 180.619 263.702 180.079 264 179.634C264.298 179.189 264.752 178.871 265.271 178.742L273.191 177.549C273.467 177.511 273.749 177.529 274.018 177.6C274.288 177.672 274.54 177.796 274.762 177.965C274.984 178.134 275.17 178.346 275.31 178.587C275.449 178.828 275.54 179.095 275.577 179.371C275.664 179.928 275.528 180.497 275.2 180.956C274.871 181.414 274.376 181.726 273.821 181.823ZM290.389 203.363L286.446 205.152C285.92 205.384 285.342 205.475 284.77 205.417C284.198 205.358 283.651 205.151 283.182 204.817C282.714 204.482 282.341 204.032 282.1 203.51C281.859 202.987 281.758 202.411 281.807 201.838V201.407C282.247 201.916 282.84 202.268 283.497 202.411C284.154 202.555 284.84 202.481 285.452 202.203L289.395 200.446C290.146 200.084 290.776 199.513 291.211 198.802C291.646 198.091 291.867 197.27 291.847 196.437L292.245 197.1C292.579 197.616 292.799 198.198 292.891 198.806C292.983 199.414 292.944 200.035 292.778 200.627C292.612 201.219 292.322 201.769 291.927 202.241C291.533 202.712 291.042 203.095 290.489 203.363H290.389ZM297.315 180.166C298.641 179.935 299.966 181.492 300.297 183.48C300.629 185.468 299.767 187.424 298.409 187.622C297.05 187.821 295.758 186.297 295.426 184.309C295.095 182.32 296.056 180.332 297.414 180.133L297.315 180.166Z" fill="#FF847B"/>
<path d="M285.353 161.543C286.014 162.443 286.891 163.161 287.904 163.631C289.89 164.281 291.987 164.518 294.068 164.327C295.118 164.27 296.166 164.487 297.107 164.958C298.048 165.429 298.851 166.136 299.436 167.011C299.867 167.906 299.933 168.966 300.397 169.861C300.721 170.525 301.28 171.045 301.965 171.321C302.651 171.596 303.415 171.607 304.108 171.352C302.57 164.532 299.122 158.291 294.167 153.358C291.377 156.242 288.435 158.974 285.353 161.543V161.543Z" fill="#FF847B"/>
<path d="M259.439 268.079C260.897 268.079 262.355 268.079 263.747 268.278C269.844 267.98 275.08 267.914 279.023 268.079L277.134 249.125C272.447 249.856 267.653 249.458 263.151 247.965C257.887 245.341 252.912 242.176 248.305 238.521C247.709 237.991 247.178 237.394 246.615 236.798C246.422 237.035 246.212 237.256 245.985 237.461C245.184 238.19 244.171 238.647 243.094 238.766C242.017 238.885 240.929 238.66 239.988 238.123C237.668 236.566 237.403 232.854 234.984 231.496H234.752L238.629 270.3L249.067 269.305C252.462 268.478 255.945 268.066 259.439 268.079V268.079Z" fill="#FF847B"/>
<path d="M263.747 268.278C269.36 268.705 274.785 270.49 279.553 273.481L279.023 268.08C275.08 267.914 269.844 267.98 263.747 268.278Z" fill="#FF847B"/>
<path d="M249.067 269.305L238.629 270.3L238.96 273.613C242.033 271.564 245.46 270.103 249.067 269.305Z" fill="#FF847B"/>
<path d="M259.439 268.079C255.945 268.066 252.462 268.478 249.067 269.305C254.27 268.842 259.241 268.51 263.747 268.278C262.355 268.146 260.897 268.079 259.439 268.079Z" fill="#FF847B"/>
<path d="M249.067 269.305C245.454 270.134 242.026 271.628 238.96 273.713L240.617 290.281L280.614 283.654L279.554 273.249C274.785 270.258 269.36 268.473 263.747 268.046C259.24 268.61 254.27 268.842 249.067 269.305Z" fill="#FF847B"/>
<path d="M239.987 238.123C240.929 238.66 242.017 238.885 243.094 238.766C244.171 238.647 245.183 238.19 245.985 237.461C246.212 237.256 246.422 237.035 246.615 236.798C241.912 231.334 238.967 224.578 238.165 217.413C236.395 217.434 234.66 216.914 233.194 215.922L234.652 231.397H234.884C237.403 232.855 237.668 236.566 239.987 238.123Z" fill="#FF847B"/>
<path d="M237.138 208.3C235.818 208.92 234.726 209.937 234.013 211.208C233.3 212.479 233.002 213.942 233.161 215.391V215.921C234.627 216.913 236.362 217.434 238.132 217.412C238.132 216.385 237.9 215.358 237.8 214.364L237.138 208.3Z" fill="#FF847B"/>
<path d="M273.29 210.885C273.029 209.175 272.134 207.627 270.783 206.546C269.433 205.466 267.726 204.933 266 205.052L256.059 206.047C258.611 208.731 262.024 209.791 268.684 210.586C270.076 210.752 271.667 210.851 273.29 210.885Z" fill="#FF847B"/>
<path d="M273.191 177.548L265.271 178.741C264.752 178.87 264.298 179.188 264 179.633C263.702 180.078 263.581 180.618 263.66 181.148C263.738 181.678 264.011 182.159 264.426 182.499C264.84 182.838 265.366 183.011 265.901 182.983L273.821 181.823C274.376 181.726 274.871 181.414 275.2 180.956C275.528 180.497 275.664 179.928 275.577 179.371C275.54 179.095 275.449 178.828 275.31 178.587C275.17 178.345 274.984 178.134 274.762 177.965C274.54 177.796 274.288 177.672 274.018 177.6C273.748 177.529 273.467 177.511 273.191 177.548Z" fill="#FBE4DA"/>
<path d="M304.87 177.151C305.432 177.061 305.935 176.753 306.27 176.294C306.606 175.834 306.746 175.261 306.66 174.699C306.578 174.163 306.297 173.678 305.873 173.34C305.449 173.002 304.914 172.837 304.373 172.876C304.373 173.473 304.638 174.036 304.705 174.633L304.87 177.151Z" fill="#FBE4DA"/>
<path d="M296.42 174.069C296.139 174.11 295.87 174.207 295.626 174.352C295.383 174.498 295.17 174.69 295.001 174.918C294.832 175.145 294.709 175.404 294.64 175.679C294.571 175.955 294.556 176.241 294.598 176.521C294.639 176.802 294.735 177.072 294.881 177.315C295.026 177.559 295.218 177.771 295.446 177.94C295.674 178.11 295.933 178.232 296.208 178.302C296.483 178.371 296.769 178.385 297.05 178.344L304.87 177.151V174.632C304.87 174.036 304.638 173.473 304.539 172.876L296.42 174.069Z" fill="#FBE4DA"/>
<path d="M298.508 187.688C299.867 187.49 300.695 185.634 300.397 183.546C300.099 181.459 298.74 179.901 297.414 180.233C296.089 180.564 295.227 182.287 295.526 184.375C295.824 186.462 297.182 187.887 298.508 187.688Z" fill="#5B0D0D"/>
<path d="M267.79 185.137C266.464 185.336 265.636 187.191 265.934 189.279C266.233 191.367 267.591 192.924 268.917 192.593C270.242 192.261 271.104 190.538 270.772 188.418C270.441 186.297 269.215 184.938 267.79 185.137Z" fill="#5B0D0D"/>
<path d="M291.98 196.47C291.999 197.303 291.778 198.124 291.343 198.835C290.909 199.546 290.278 200.117 289.528 200.48L285.584 202.335C284.972 202.614 284.287 202.687 283.63 202.544C282.973 202.4 282.38 202.048 281.939 201.54V201.971C281.89 202.544 281.991 203.12 282.233 203.642C282.474 204.164 282.847 204.615 283.315 204.949C283.783 205.284 284.33 205.49 284.902 205.549C285.475 205.608 286.052 205.517 286.578 205.284L290.522 203.495C291.082 203.239 291.581 202.867 291.986 202.404C292.391 201.94 292.693 201.396 292.872 200.806C293.05 200.217 293.102 199.597 293.022 198.986C292.943 198.376 292.734 197.789 292.411 197.265L291.98 196.47Z" fill="#FA4F43"/>
<path d="M281.674 152.099V151.602C281.409 151.039 281.111 150.509 280.813 149.979C280.424 150.708 279.892 151.35 279.248 151.869C278.605 152.387 277.863 152.77 277.068 152.994C275.444 153.557 273.754 153.193 272.031 153.59C268.519 154.386 266.365 158.097 263.349 160.218C258.843 163.366 252.679 162.604 248.139 165.686C245.342 168.086 242.958 170.93 241.081 174.102L243.533 179.835L281.674 152.099Z" fill="#FBE4DA"/>
<path d="M238.795 176.554L238.364 176.985C234.586 180.531 229.085 181.956 225.904 185.932L226.236 188.285C229.119 187.954 231.935 187.523 234.686 186.959V186.761L238.795 176.554Z" fill="#FBE4DA"/>
<path d="M285.319 147.791L280.945 149.117C280.881 149.415 280.781 149.704 280.647 149.978C280.945 150.509 281.243 151.039 281.508 151.602V152.099L287.142 148.023C289.546 149.544 291.77 151.334 293.769 153.358C295.294 151.801 296.089 150.84 296.089 150.84L279.951 140.137L278.394 140.766C279.635 142.503 280.534 144.459 281.045 146.532C282.497 146.852 283.925 147.272 285.319 147.791V147.791Z" fill="#FBE4DA"/>
<path d="M281.674 152.099L243.367 179.802L245.289 184.209C259.975 179.295 273.576 171.6 285.352 161.543C284.609 160.535 284.028 159.417 283.629 158.23C282.867 156.274 282.469 154.12 281.674 152.099Z" fill="#FBE4DA"/>
<path d="M287.307 148.023L281.674 152.099C282.469 154.12 282.867 156.274 283.629 158.329C284.028 159.516 284.609 160.634 285.352 161.643C288.401 159.071 291.31 156.339 294.067 153.458C292.032 151.39 289.764 149.567 287.307 148.023V148.023Z" fill="#FBE4DA"/>
<path d="M281.044 149.117L285.419 147.791C283.992 147.268 282.531 146.847 281.044 146.532C281.214 147.385 281.214 148.263 281.044 149.117Z" fill="#FBE4DA"/>
<path d="M282.304 243.79C280.406 243.906 278.502 243.906 276.604 243.79L277.134 249.191C283.762 248.628 290.787 247.17 294.797 246.507C301.424 245.38 307.588 237.262 308.052 230.336L306.361 206.908C307.952 226.227 294.763 243.094 282.304 243.79Z" fill="#FBE4DA"/>
<path d="M236.508 194.846L235.348 186.827H234.686L235.613 194.747H235.779C236.024 194.763 236.268 194.796 236.508 194.846V194.846Z" fill="#FBE4DA"/>
<path d="M238.231 206.875L236.707 196.238C236.019 199.854 236.556 203.597 238.231 206.875V206.875Z" fill="#FBE4DA"/>
<path d="M238.364 207.869V206.875C236.688 203.597 236.152 199.854 236.84 196.238L236.641 194.846C236.398 194.83 236.155 194.83 235.912 194.846H235.746L237.271 208.101C237.626 207.986 237.993 207.908 238.364 207.869V207.869Z" fill="#FBE4DA"/>
<path d="M273.29 210.884C273.303 211.061 273.303 211.238 273.29 211.415L276.604 243.723C278.502 243.839 280.406 243.839 282.304 243.723C294.763 243.028 307.952 226.161 306.096 206.809C295.341 209.352 284.341 210.719 273.29 210.884V210.884ZM292.808 216.783C294.332 222.151 286.181 222.416 286.181 222.416C280.58 222.416 278.824 219.765 278.228 217.479L292.808 216.783Z" fill="#FBE4DA"/>
<path d="M239.325 187.424C238.264 189.79 237.475 192.269 236.972 194.813C239.483 195.085 241.82 196.229 243.576 198.045C245.331 199.861 246.395 202.235 246.582 204.754C246.631 205.483 246.631 206.213 246.582 206.941L255.827 206.014C253.298 202.822 251.326 199.225 249.995 195.377L245.157 184.176C243.268 184.773 241.379 185.303 239.424 185.8C239.526 186.341 239.492 186.899 239.325 187.424Z" fill="#FBE4DA"/>
<path d="M239.325 187.423C239.532 186.92 239.611 186.374 239.557 185.833C238.165 186.197 236.773 186.529 235.348 186.827L236.508 194.846H236.972C237.472 192.291 238.262 189.8 239.325 187.423V187.423Z" fill="#FBE4DA"/>
<path d="M239.159 207.703L246.714 206.974C246.764 206.246 246.764 205.515 246.714 204.787C246.527 202.268 245.464 199.894 243.708 198.078C241.952 196.262 239.616 195.118 237.104 194.846C237.104 195.343 236.906 195.807 236.839 196.271L238.364 206.908C238.529 207.206 238.794 207.505 238.993 207.803L239.159 207.703Z" fill="#FBE4DA"/>
<path d="M238.231 206.875V207.869H238.728C238.662 207.471 238.397 207.173 238.231 206.875Z" fill="#FBE4DA"/>
<path d="M236.508 194.846L236.707 196.238C236.707 195.774 236.873 195.31 236.972 194.813L236.508 194.846Z" fill="#FBE4DA"/>
<path d="M249.068 232.656C248.522 234.18 247.69 235.586 246.615 236.798C247.179 237.395 247.709 237.991 248.305 238.521C252.912 242.176 257.888 245.342 263.151 247.965C267.654 249.459 272.448 249.856 277.135 249.125L276.605 243.724C266.434 243.273 256.721 239.369 249.068 232.656V232.656Z" fill="#FBE4DA"/>
<path d="M239.855 217.147C239.573 217.244 239.286 217.322 238.993 217.379H238.165C238.967 224.544 241.912 231.301 246.615 236.765C247.689 235.553 248.522 234.147 249.067 232.623C244.544 228.48 241.341 223.098 239.855 217.147V217.147Z" fill="#FBE4DA"/>
<path d="M239.855 217.148C239.623 216.153 239.424 215.192 239.258 214.165L238.364 207.869C237.939 207.963 237.527 208.108 237.137 208.3L237.966 214.364C237.966 215.358 238.165 216.385 238.297 217.413H239.126C239.374 217.339 239.617 217.25 239.855 217.148Z" fill="#FBE4DA"/>
<path d="M244.792 213.469C246.993 215.126 248.766 217.284 249.962 219.765C251.256 223.756 251.044 228.082 249.365 231.927L249.067 232.656C256.721 239.369 266.434 243.273 276.604 243.724L273.29 211.415C273.303 211.238 273.303 211.061 273.29 210.885C271.667 210.885 269.977 210.885 268.585 210.586C261.958 209.791 258.644 208.731 255.96 206.047L246.714 206.974C246.705 209.278 246.039 211.532 244.792 213.469V213.469Z" fill="#FBE4DA"/>
<path d="M249.962 219.765C248.766 217.284 246.994 215.126 244.793 213.469C243.661 215.266 241.901 216.577 239.855 217.147C241.335 223.11 244.539 228.504 249.068 232.656L249.366 231.927C251.044 228.082 251.256 223.756 249.962 219.765Z" fill="#FBE4DA"/>
<path d="M238.861 207.77C239.208 208.296 239.596 208.795 240.021 209.261C241.479 210.752 243.334 212.077 244.792 213.469C246.063 211.494 246.731 209.191 246.714 206.842L239.159 207.571L238.861 207.77Z" fill="#FBE4DA"/>
<path d="M244.793 213.47C243.202 212.078 241.479 210.752 240.021 209.261C239.596 208.795 239.208 208.297 238.861 207.77H238.364L239.259 214.066C239.259 215.093 239.623 216.054 239.855 217.048C241.885 216.503 243.643 215.229 244.793 213.47V213.47Z" fill="#FBE4DA"/>
<path d="M240.915 174.069L240.286 174.864C240.525 177.049 240.097 179.256 239.06 181.193C238.745 181.771 238.662 182.446 238.828 183.082L243.368 179.769L240.915 174.069Z" fill="#FBE4DA"/>
<path d="M235.183 185.767L238.828 183.149C238.662 182.513 238.745 181.837 239.06 181.26C240.097 179.322 240.524 177.116 240.286 174.931C239.824 175.524 239.326 176.089 238.795 176.621L234.652 186.761V186.959H235.315L235.183 185.767Z" fill="#FBE4DA"/>
<path d="M238.828 183.082C238.994 184.01 239.457 184.872 239.557 185.833C241.512 185.336 243.401 184.806 245.29 184.209L243.368 179.802L238.828 183.082Z" fill="#FBE4DA"/>
<path d="M238.827 183.082L235.182 185.7L235.348 186.827C236.773 186.529 238.165 186.197 239.556 185.833C239.457 184.872 238.993 184.01 238.827 183.082Z" fill="#FBE4DA"/>
<path d="M286.115 222.416C286.115 222.416 294.333 222.151 292.742 216.783L278.095 217.479C278.758 219.765 280.514 222.383 286.115 222.416Z" fill="#FF847B"/>
<path d="M215.433 193.123C214.662 191.178 213.788 189.276 212.815 187.423C210.992 182.619 213.146 177.283 215.665 172.843C218.808 167.298 222.481 162.071 226.633 157.235C228.124 155.446 229.152 154.087 231.604 154.121C232.161 154.083 232.719 154.163 233.244 154.354C233.768 154.545 234.247 154.844 234.649 155.231C235.051 155.617 235.369 156.084 235.58 156.6C235.792 157.117 235.894 157.672 235.879 158.23L249.597 152.629L246.019 150.343C252.822 147.298 260.143 145.578 267.591 145.273L272.86 143.119C270.2 141.914 267.295 141.346 264.377 141.462C259.969 141.661 255.429 143.251 251.122 141.727C247.645 140.118 244.892 137.27 243.401 133.741C242.388 131.986 241.841 130.001 241.81 127.975C241.889 126.739 242.392 125.569 243.235 124.661C235.249 128.439 232.996 138.248 226.898 144.312C220.271 150.939 210.33 155.91 210.33 167.508C210.479 169.372 210.479 171.244 210.33 173.108C209.965 175.361 208.706 177.317 208.242 179.537C206.85 185.999 212.252 192.063 215.234 198.094C215.708 196.478 215.776 194.771 215.433 193.123Z" fill="#FBE4DA"/>
<path d="M252.746 124.164C253.19 124.017 253.605 123.793 253.972 123.502C251.712 123.121 249.405 123.121 247.146 123.502C249.034 123.767 250.956 124.794 252.746 124.164Z" fill="#FBE4DA"/>
<path d="M216.527 207.869C220.106 206.941 221.928 202.667 222.525 198.723C222.65 194.775 223.48 190.881 224.977 187.225C225.275 186.761 225.573 186.363 225.905 185.932L222.955 163.498L235.879 158.229C235.894 157.672 235.792 157.117 235.581 156.6C235.369 156.084 235.052 155.617 234.649 155.23C234.247 154.844 233.768 154.545 233.244 154.354C232.72 154.163 232.161 154.083 231.604 154.12C229.152 154.12 228.29 155.446 226.634 157.235C222.482 162.071 218.809 167.298 215.665 172.843C213.147 177.283 210.993 182.618 212.815 187.423C213.788 189.276 214.662 191.178 215.433 193.123C215.776 194.747 215.719 196.43 215.268 198.027C216.161 199.485 216.736 201.117 216.953 202.813C217.17 204.51 217.025 206.233 216.527 207.869Z" fill="#FBE4DA"/>
<path d="M243.533 133.774C245.016 137.298 247.756 140.144 251.221 141.76C255.396 143.285 259.936 141.76 264.476 141.495C267.394 141.379 270.299 141.947 272.959 143.152L278.791 140.766C276.18 136.639 272.885 132.986 269.049 129.963C264.569 126.774 259.464 124.572 254.071 123.502C253.704 123.793 253.289 124.017 252.845 124.164C251.055 124.794 249.133 123.767 247.245 123.435C246.412 123.567 245.592 123.767 244.792 124.032C244.332 124.212 243.888 124.434 243.467 124.695C242.624 125.602 242.121 126.772 242.042 128.008C242.042 130.026 242.555 132.01 243.533 133.774V133.774Z" fill="#FBE4DA"/>
<path d="M246.018 150.376L249.597 152.662L267.59 145.306C260.143 145.611 252.822 147.331 246.018 150.376V150.376Z" fill="#FBE4DA"/>
<path d="M234.188 161.875C233.938 163.006 233.977 164.181 234.301 165.293C234.626 166.405 235.225 167.418 236.044 168.237C237.658 169.773 238.992 171.579 239.987 173.572L240.319 172.744L240.915 174.069C242.772 170.901 245.134 168.058 247.907 165.652C252.447 162.571 258.611 163.333 263.117 160.185C266.133 158.097 268.287 154.386 271.799 153.557C273.456 153.16 275.113 153.557 276.836 152.961C277.631 152.736 278.373 152.354 279.016 151.835C279.66 151.317 280.192 150.674 280.581 149.945C280.581 149.746 280.349 149.481 280.216 149.282L255.86 156.672L249.597 152.629L235.878 158.196C235.892 158.461 235.892 158.727 235.878 158.992C235.381 160.052 234.652 160.847 234.188 161.875Z" fill="#FBE4DA"/>
<path d="M277.101 145.803C275.821 144.722 274.393 143.829 272.86 143.152L267.591 145.306C270.769 145.179 273.953 145.346 277.101 145.803V145.803Z" fill="#FBE4DA"/>
<path d="M238.364 176.985L238.794 176.554L239.987 173.572C238.992 171.578 237.658 169.773 236.044 168.237C235.225 167.418 234.626 166.405 234.301 165.293C233.977 164.181 233.938 163.005 234.188 161.874C234.586 160.847 235.381 160.052 235.746 159.025C235.759 158.76 235.759 158.494 235.746 158.229L222.822 163.498L225.771 185.932C229.085 181.956 234.652 180.531 238.364 176.985Z" fill="#FBE4DA"/>
<path d="M280.282 149.316C280.282 149.514 280.514 149.779 280.647 149.978C280.781 149.704 280.881 149.415 280.945 149.117L280.282 149.316Z" fill="#FBE4DA"/>
<path d="M281.044 146.532C280.615 144.478 279.806 142.523 278.659 140.766L272.826 143.152C274.36 143.829 275.788 144.722 277.068 145.803C278.405 145.979 279.732 146.222 281.044 146.532V146.532Z" fill="#FBE4DA"/>
<path d="M280.282 149.316C279.362 147.984 278.244 146.799 276.969 145.803C273.82 145.346 270.637 145.179 267.458 145.306L249.597 152.629L255.926 156.672L280.282 149.316Z" fill="#FBE4DA"/>
<path d="M281.045 146.532C279.733 146.222 278.405 145.978 277.068 145.803C278.344 146.8 279.462 147.984 280.382 149.316L281.045 149.117C281.214 148.263 281.214 147.385 281.045 146.532Z" fill="#FBE4DA"/>
<path d="M240.319 172.744L239.988 173.572V173.804C240.089 174.15 240.155 174.505 240.186 174.864L240.816 174.069L240.319 172.744Z" fill="#FBE4DA"/>
<path d="M239.987 173.572L238.794 176.554C239.326 176.023 239.824 175.458 240.286 174.864C240.254 174.505 240.188 174.15 240.087 173.804L239.987 173.572Z" fill="#FBE4DA"/>
<rect x="550.771" y="368.037" width="37.6964" height="36.1478" rx="5" fill="#7C4EFF"/>
<rect x="562.888" y="359" width="2.6926" height="19.3649" rx="1.3463" fill="#7C4EFF"/>
<rect x="573.658" y="359" width="2.6926" height="19.3649" rx="1.3463" fill="#7C4EFF"/>
<rect x="562.888" y="393.857" width="2.6926" height="19.3649" rx="1.3463" fill="#7C4EFF"/>
<rect x="573.658" y="393.857" width="2.6926" height="19.3649" rx="1.3463" fill="#7C4EFF"/>
<rect x="599.238" y="380.947" width="2.58198" height="20.1945" rx="1.29099" transform="rotate(90 599.238 380.947)" fill="#7C4EFF"/>
<rect x="599.238" y="391.275" width="2.58198" height="20.1945" rx="1.29099" transform="rotate(90 599.238 391.275)" fill="#7C4EFF"/>
<rect x="560.195" y="380.947" width="2.58198" height="20.1945" rx="1.29099" transform="rotate(90 560.195 380.947)" fill="#7C4EFF"/>
<rect x="560.195" y="391.275" width="2.58198" height="20.1945" rx="1.29099" transform="rotate(90 560.195 391.275)" fill="#7C4EFF"/>
<path d="M593.117 284.243C593.117 287.644 592.533 291.012 591.4 294.154C590.266 297.297 588.604 300.152 586.51 302.557C584.415 304.962 581.928 306.87 579.191 308.171C576.454 309.473 573.521 310.143 570.558 310.143C567.596 310.143 564.663 309.473 561.926 308.171C559.189 306.87 556.702 304.962 554.607 302.557C552.512 300.152 550.851 297.297 549.717 294.154C548.583 291.012 548 287.644 548 284.243L570.558 284.243H593.117Z" fill="#7C4EFF"/>
<path d="M599.924 256.56C600.276 255.944 601.063 255.734 601.675 256.093V256.093C602.287 256.452 602.488 257.242 602.122 257.85L574.196 304.23C574.012 304.536 573.616 304.637 573.308 304.456V304.456C573 304.275 572.895 303.88 573.072 303.57L599.924 256.56Z" fill="#7C4EFF"/>
<path d="M590.613 256.215C590.849 255.546 591.587 255.199 592.253 255.443V255.443C592.919 255.687 593.257 256.429 593.006 257.092L573.799 307.709C573.672 308.043 573.3 308.213 572.965 308.09V308.09C572.63 307.967 572.456 307.597 572.575 307.26L590.613 256.215Z" fill="#7C4EFF"/>
<path d="M573 90C579.078 90 584 85.0775 584 79C584 72.9225 579.078 68 573 68C566.922 68 562 72.9225 562 79C562 85.0775 566.922 90 573 90ZM573 95.5C565.657 95.5 551 99.185 551 106.5V112H595V106.5C595 99.185 580.343 95.5 573 95.5Z" fill="#7C4EFF"/>
<path d="M596.971 181.182C592.961 189.082 582.232 199.825 576.165 205.548C575.513 206.151 574.521 206.151 573.869 205.548C567.768 199.825 557.039 189.082 553.029 181.182C544.22 163.804 566.431 152.218 575 169.597C583.569 152.218 605.78 163.804 596.971 181.182Z" fill="#7C4EFF"/>
<rect x="502.771" y="628.037" width="37.6964" height="36.1478" rx="5" fill="#7C4EFF"/>
<rect x="514.888" y="619" width="2.6926" height="19.3649" rx="1.3463" fill="#7C4EFF"/>
<rect x="525.658" y="619" width="2.6926" height="19.3649" rx="1.3463" fill="#7C4EFF"/>
<rect x="514.888" y="653.857" width="2.6926" height="19.3649" rx="1.3463" fill="#7C4EFF"/>
<rect x="525.658" y="653.857" width="2.6926" height="19.3649" rx="1.3463" fill="#7C4EFF"/>
<rect x="551.238" y="640.947" width="2.58198" height="20.1945" rx="1.29099" transform="rotate(90 551.238 640.947)" fill="#7C4EFF"/>
<rect x="551.238" y="651.275" width="2.58198" height="20.1945" rx="1.29099" transform="rotate(90 551.238 651.275)" fill="#7C4EFF"/>
<rect x="512.195" y="640.947" width="2.58198" height="20.1945" rx="1.29099" transform="rotate(90 512.195 640.947)" fill="#7C4EFF"/>
<rect x="512.195" y="651.275" width="2.58198" height="20.1945" rx="1.29099" transform="rotate(90 512.195 651.275)" fill="#7C4EFF"/>
<path d="M397.117 641.243C397.117 644.644 396.533 648.012 395.4 651.154C394.266 654.297 392.604 657.152 390.51 659.557C388.415 661.962 385.928 663.87 383.191 665.171C380.454 666.473 377.521 667.143 374.558 667.143C371.596 667.143 368.663 666.473 365.926 665.171C363.189 663.87 360.702 661.962 358.607 659.557C356.512 657.152 354.851 654.297 353.717 651.154C352.583 648.012 352 644.644 352 641.243L374.558 641.243H397.117Z" fill="#7C4EFF"/>
<path d="M403.924 613.56C404.276 612.944 405.063 612.734 405.675 613.093V613.093C406.287 613.452 406.488 614.242 406.122 614.85L378.196 661.23C378.012 661.536 377.616 661.637 377.308 661.456V661.456C377 661.275 376.895 660.88 377.072 660.57L403.924 613.56Z" fill="#7C4EFF"/>
<path d="M394.613 613.215C394.849 612.546 395.587 612.199 396.253 612.443V612.443C396.919 612.687 397.257 613.429 397.006 614.092L377.799 664.709C377.672 665.043 377.3 665.213 376.965 665.09V665.09C376.63 664.967 376.456 664.597 376.575 664.26L394.613 613.215Z" fill="#7C4EFF"/>
<path d="M112 645C118.078 645 123 640.078 123 634C123 627.922 118.078 623 112 623C105.922 623 101 627.922 101 634C101 640.078 105.922 645 112 645ZM112 650.5C104.657 650.5 90 654.185 90 661.5V667H134V661.5C134 654.185 119.343 650.5 112 650.5Z" fill="#7C4EFF"/>
<path d="M264.971 643.182C260.961 651.082 250.232 661.825 244.165 667.548C243.513 668.151 242.521 668.151 241.869 667.548C235.768 661.825 225.039 651.082 221.029 643.182C212.22 625.804 234.431 614.218 243 631.597C251.569 614.218 273.78 625.804 264.971 643.182Z" fill="#7C4EFF"/>
<path d="M849.946 904.195C853.039 908.678 856.131 913.069 859.872 918.728C860.121 919.159 860.465 919.527 860.878 919.804C861.292 920.081 861.763 920.259 862.256 920.325C862.749 920.39 863.251 920.342 863.722 920.183C864.193 920.024 864.622 919.759 864.975 919.408C877.715 905.865 888.537 893.496 901.185 877.725H858.821C855.976 886.353 853.039 895.165 849.946 904.195Z" fill="#B2C3EB"/>
<path d="M802.481 634C763.64 634.007 725.938 647.122 695.477 671.221C665.016 695.32 643.579 728.994 634.635 766.791C625.692 804.589 629.766 844.299 646.198 879.493C662.629 914.688 690.457 943.307 725.177 960.72C724.28 936.724 717.385 925.902 713.736 903.947C713.736 903.947 705.975 871.881 720.879 849.618C719.425 849.618 717.972 849.618 716.519 849.618C712.699 849.174 709.078 847.675 706.063 845.288C703.048 842.901 700.758 839.721 699.45 836.105C698.089 832.178 697.78 827.57 694.688 824.818C690.297 820.922 681.948 822.375 679.629 816.964C678.052 813.284 680.773 809.203 680.248 805.276C679.598 800.235 674.311 797.453 670.693 793.866C668.208 791.355 666.416 788.245 665.489 784.837C664.563 781.428 664.534 777.838 665.405 774.416C667.044 768.448 671.373 761.614 667.322 756.729C665.9 754.997 663.674 754.1 662.251 752.369C659.159 748.72 660.921 743.092 664.014 739.66C667.106 736.227 671.342 734.001 674.125 730.383C677.403 726.085 678.361 720.457 680.309 715.417C682.258 710.377 685.968 705.244 691.379 704.904C695.523 704.625 699.666 707.285 703.748 706.481C714.416 704.378 718.467 692.566 731.361 691.916C734.773 691.525 738.229 691.819 741.526 692.78C744.824 693.741 747.896 695.35 750.564 697.513C750.775 697.715 750.972 697.932 751.151 698.163C768.56 693.679 785.722 694.854 799.296 701.811C801.925 701.286 803.78 701.409 809.779 700.822C813.747 700.495 817.74 701.003 821.5 702.313C825.26 703.623 828.704 705.707 831.61 708.429C833.172 710.075 834.638 711.809 836.001 713.624C837.145 715.479 838.165 717.427 839.093 719.344C841.01 720.55 847.998 725.528 848.617 731.218C849.699 740.495 847.318 745.071 846.638 746.153C846.903 749.196 846.705 752.261 846.05 755.244L840.515 779.982C838.93 787.001 835.006 793.272 829.388 797.767C823.769 802.262 816.789 804.714 809.593 804.719L802.141 828.807C805.655 830.948 808.976 833.39 812.067 836.105C815.821 839.394 819.109 843.181 821.838 847.36L822.055 847.669V847.824L841.597 878.004L845.865 869.531L848.307 864.646C848.462 862.229 848.867 859.836 849.513 857.503C849.513 857.503 849.513 857.317 849.513 857.224V845.227C849.475 844.889 849.508 844.547 849.611 844.223C849.714 843.9 849.884 843.601 850.111 843.348C850.337 843.094 850.614 842.892 850.924 842.753C851.234 842.614 851.57 842.542 851.91 842.542C852.25 842.542 852.586 842.614 852.896 842.753C853.206 842.892 853.483 843.094 853.709 843.348C853.935 843.601 854.106 843.9 854.208 844.223C854.311 844.547 854.345 844.889 854.306 845.227V847.793L863.274 812.419C863.58 811.181 864.261 810.067 865.224 809.232C866.187 808.396 867.385 807.878 868.654 807.749H959.966C962.254 807.749 963.615 809.821 963.058 812.388L947.443 873.118C947.137 874.356 946.456 875.469 945.492 876.305C944.529 877.141 943.331 877.659 942.062 877.787H919.613C905.544 904.225 893.237 928.963 866.366 956.576C865.318 957.964 863.941 959.069 862.358 959.79C860.776 960.511 859.039 960.827 857.304 960.707C855.569 960.587 853.891 960.036 852.423 959.104C850.954 958.172 849.742 956.889 848.895 955.37L836.774 939.538C834.712 944.692 832.393 949.845 829.816 954.999C829.816 961.833 829.816 969.068 830.033 976.644C872.625 969.498 910.988 946.636 937.542 912.575C964.095 878.514 976.906 835.732 973.445 792.683C969.983 749.634 950.5 709.449 918.846 680.068C887.192 650.688 845.669 634.249 802.481 634V634Z" fill="#7C4EFF"/>
<path d="M732.537 838.084L738.907 833.817C748.18 827.507 758.744 823.345 769.829 821.634L781.115 786.26C780.088 784.028 779.33 781.682 778.858 779.271C778.733 778.637 778.64 777.997 778.579 777.354C777.26 776.292 776.198 774.944 775.475 773.412C774.752 771.88 774.386 770.204 774.405 768.51C776.075 767.614 777.745 766.624 779.198 765.666C780.01 765.021 780.775 764.318 781.486 763.563C783.278 761.859 784.922 760.008 786.403 758.028C788.983 754.496 791.782 751.13 794.782 747.947C802.919 740.449 813.444 736.068 824.498 735.579C828.207 735.379 831.926 735.555 835.599 736.104C837.578 736.414 840.578 737.001 841.784 734.775C842.125 733.781 842.2 732.715 842 731.683C844.72 736.035 846.353 740.977 846.762 746.092C847.442 745.01 849.854 740.464 848.741 731.157C848.123 725.622 841.134 720.489 839.217 719.283C838.166 717.366 837.145 715.418 836.125 713.562C834.762 711.748 833.296 710.014 831.734 708.368C828.828 705.646 825.384 703.562 821.624 702.252C817.864 700.942 813.871 700.434 809.903 700.761C803.904 701.348 802.049 701.225 799.421 701.75C785.846 694.793 768.684 693.618 751.276 698.102C751.096 697.871 750.9 697.654 750.688 697.452C748.024 695.269 744.95 693.641 741.646 692.664C738.343 691.686 734.878 691.38 731.455 691.763C718.56 692.412 714.51 704.131 703.841 706.327C699.76 707.131 695.616 704.471 691.473 704.75C686.061 705.09 682.196 710.192 680.403 715.263C678.609 720.334 677.496 725.931 674.218 730.229C671.435 733.878 667.199 736.135 664.107 739.506C661.015 742.876 659.314 748.566 662.344 752.215C663.767 753.946 665.993 754.843 667.416 756.575C671.466 761.46 667.137 768.294 665.498 774.262C664.627 777.685 664.656 781.275 665.583 784.683C666.509 788.091 668.302 791.201 670.786 793.712C674.404 797.299 679.692 800.082 680.341 805.122C680.867 809.049 678.145 813.131 679.723 816.81C682.042 822.222 690.391 820.768 694.781 824.664C697.874 827.416 698.183 832.024 699.543 835.951C700.833 839.576 703.107 842.77 706.111 845.173C709.116 847.576 712.731 849.094 716.55 849.556C718.004 849.556 719.457 849.556 720.91 849.556C723.996 845.007 727.946 841.109 732.537 838.084V838.084Z" fill="#000543"/>
<path d="M829.816 955.061C826.168 962.73 822.148 970.522 817.602 978.345C821.777 977.974 825.92 977.479 829.971 976.83C829.724 969.13 829.662 961.771 829.816 955.061Z" fill="#00E9B1"/>
<path d="M841.814 734.743C840.701 736.97 837.701 736.382 835.629 736.073C832.038 735.54 828.402 735.364 824.776 735.547C813.722 736.036 803.197 740.417 795.06 747.916C792.06 751.098 789.261 754.465 786.68 757.996C785.113 759.998 783.375 761.861 781.485 763.562C780.69 764.274 779.842 764.925 778.95 765.51C777.497 766.469 775.858 767.458 774.157 768.355C774.146 770.054 774.521 771.733 775.255 773.266C775.989 774.798 777.062 776.143 778.393 777.199C778.454 777.842 778.546 778.482 778.672 779.116C779.144 781.527 779.901 783.873 780.929 786.104L769.704 821.479L766.025 833.105C764.521 834.331 763.299 835.866 762.44 837.605C761.581 839.344 761.106 841.247 761.046 843.186C761.046 843.402 761.046 843.619 761.046 843.835C761.541 852.679 772.209 859.729 784.949 859.729C797.688 859.729 808.882 852.339 808.882 843.186C808.741 840.707 807.975 838.305 806.656 836.202C805.337 834.099 803.507 832.363 801.337 831.157L802.141 828.684L809.748 804.812C816.943 804.806 823.923 802.355 829.542 797.86C835.161 793.365 839.085 787.093 840.67 780.075L846.205 755.337C846.859 752.354 847.058 749.289 846.792 746.246C846.383 741.131 844.75 736.188 842.03 731.837C842.198 732.808 842.124 733.807 841.814 734.743V734.743ZM806.872 749.617C806.998 749.091 807.323 748.636 807.779 748.347C808.236 748.058 808.787 747.959 809.315 748.07L815.499 749.4L816.953 749.709C817.217 749.766 817.467 749.874 817.689 750.028C817.911 750.182 818.101 750.377 818.247 750.604C818.394 750.831 818.494 751.084 818.542 751.35C818.591 751.616 818.587 751.888 818.53 752.152C818.473 752.416 818.365 752.666 818.211 752.888C818.058 753.11 817.862 753.3 817.635 753.447C817.408 753.593 817.155 753.693 816.889 753.742C816.623 753.79 816.351 753.786 816.087 753.729L813.52 753.142L808.573 752.059C808.299 752.015 808.037 751.916 807.802 751.768C807.567 751.62 807.364 751.426 807.205 751.198C807.046 750.97 806.935 750.713 806.878 750.441C806.821 750.17 806.819 749.889 806.872 749.617V749.617ZM810.707 761.645C809.47 761.367 808.82 759.604 809.222 757.687C809.624 755.77 810.985 754.595 812.314 754.595H812.84L816.149 755.306L813.861 756.76C813.967 757.311 813.967 757.878 813.861 758.429C813.774 759.045 813.541 759.63 813.18 760.136C812.82 760.642 812.342 761.054 811.789 761.336C811.468 761.547 811.09 761.655 810.707 761.645V761.645ZM815.963 789.196L814.912 788.609C814.56 788.453 814.228 788.255 813.922 788.021C813.094 787.486 812.461 786.696 812.121 785.77C811.781 784.844 811.751 783.833 812.036 782.888L816.025 784.249H816.272L824.034 786.877C823.508 792.289 815.963 789.196 815.963 789.196V789.196ZM826.229 778.899L822.642 779.332C822.248 779.34 821.856 779.262 821.494 779.105C821.133 778.948 820.809 778.715 820.545 778.422C820.281 778.129 820.083 777.782 819.965 777.406C819.846 777.029 819.811 776.632 819.859 776.24C819.864 775.836 819.948 775.437 820.107 775.065V774.694C820.091 774.765 820.091 774.839 820.107 774.911C820.266 775.415 820.59 775.852 821.028 776.149C821.465 776.447 821.991 776.588 822.519 776.549L826.136 776.209C826.862 776.072 827.535 775.737 828.081 775.24C828.627 774.743 829.024 774.105 829.229 773.395V774.107C829.4 775.134 829.189 776.188 828.637 777.071C828.084 777.954 827.228 778.604 826.229 778.899V778.899ZM840.732 764.583C840.299 766.5 838.969 767.829 837.639 767.675C836.31 767.52 835.753 765.634 836.155 763.717C836.557 761.8 837.918 760.625 839.247 760.625L843.082 761.46L840.824 762.913C840.885 763.471 840.854 764.035 840.732 764.583V764.583ZM845.463 758.089C845.401 758.57 845.159 759.01 844.786 759.319C844.413 759.629 843.937 759.786 843.453 759.759L837.639 758.46C837.183 758.293 836.81 757.952 836.602 757.513C836.394 757.073 836.367 756.57 836.526 756.11C836.573 755.631 836.808 755.19 837.178 754.883C837.549 754.576 838.026 754.428 838.505 754.471L844.349 755.739C844.796 755.919 845.159 756.261 845.365 756.697C845.572 757.132 845.606 757.629 845.463 758.089V758.089Z" fill="#FF847B"/>
<path d="M816.025 784.311L812.036 782.95C811.751 783.895 811.781 784.906 812.121 785.832C812.461 786.758 813.094 787.548 813.922 788.083C814.228 788.317 814.56 788.514 814.912 788.671L815.963 789.196C815.963 789.196 823.508 792.289 824.034 787.001L816.272 784.373L816.025 784.311Z" fill="white"/>
<path d="M815.963 753.729C816.227 753.786 816.5 753.791 816.765 753.742C817.031 753.694 817.285 753.593 817.511 753.447C817.738 753.3 817.934 753.111 818.088 752.889C818.241 752.666 818.349 752.416 818.406 752.152C818.463 751.888 818.467 751.616 818.419 751.35C818.37 751.085 818.27 750.831 818.124 750.604C817.977 750.377 817.787 750.182 817.565 750.028C817.343 749.875 817.093 749.766 816.829 749.709L815.376 749.4L809.191 748.071C808.929 748.014 808.659 748.009 808.395 748.057C808.131 748.104 807.88 748.204 807.654 748.349C807.429 748.494 807.234 748.682 807.081 748.902C806.929 749.122 806.821 749.37 806.764 749.632C806.707 749.894 806.702 750.165 806.75 750.428C806.798 750.692 806.897 750.944 807.042 751.169C807.187 751.395 807.375 751.589 807.595 751.742C807.815 751.895 808.064 752.003 808.326 752.06L813.273 753.142L815.963 753.729Z" fill="#000543"/>
<path d="M836.527 756.11C836.367 756.57 836.394 757.073 836.603 757.513C836.811 757.952 837.183 758.293 837.64 758.46L843.453 759.759C843.921 759.738 844.37 759.563 844.729 759.262C845.088 758.961 845.337 758.55 845.439 758.092C845.541 757.635 845.49 757.156 845.293 756.731C845.096 756.306 844.765 755.957 844.35 755.739L838.506 754.595C838.045 754.55 837.585 754.681 837.217 754.962C836.85 755.243 836.603 755.654 836.527 756.11V756.11Z" fill="#000543"/>
<path d="M829.569 773.148C829.365 773.857 828.967 774.496 828.421 774.992C827.875 775.489 827.202 775.825 826.477 775.962L822.797 776.24C822.269 776.278 821.744 776.137 821.306 775.84C820.869 775.543 820.544 775.106 820.385 774.601C820.369 774.53 820.369 774.456 820.385 774.385V774.756C820.227 775.128 820.143 775.527 820.138 775.931C820.089 776.322 820.125 776.72 820.243 777.096C820.361 777.473 820.559 777.819 820.823 778.113C821.087 778.406 821.411 778.639 821.773 778.796C822.135 778.953 822.526 779.031 822.921 779.023L826.508 778.652C827.061 778.552 827.588 778.343 828.06 778.038C828.532 777.733 828.939 777.338 829.258 776.876C829.577 776.413 829.801 775.892 829.918 775.343C830.036 774.793 830.043 774.226 829.94 773.674L829.569 773.148Z" fill="#FA694F"/>
<path d="M813.706 758.677C813.812 758.125 813.812 757.558 813.706 757.007L815.994 755.553L812.685 754.842H812.159C810.923 754.564 809.593 755.894 809.067 757.934C808.542 759.975 809.315 761.614 810.551 761.893C810.856 761.97 811.175 761.97 811.479 761.893C812.103 761.603 812.638 761.152 813.029 760.587C813.42 760.022 813.654 759.362 813.706 758.677Z" fill="#000543"/>
<path d="M839.216 760.779C837.979 760.501 836.65 761.831 836.124 763.872C835.598 765.913 836.371 767.582 837.608 767.83C838.845 768.077 840.206 766.778 840.701 764.737C840.792 764.185 840.792 763.62 840.701 763.068L842.958 761.614L839.216 760.779Z" fill="#000543"/>
<path d="M854.77 848.566C854.879 848.269 855.06 848.003 855.296 847.793L868.561 835.424C868.996 835.014 869.576 834.794 870.173 834.811C870.77 834.829 871.336 835.083 871.746 835.517C872.156 835.952 872.377 836.532 872.36 837.129C872.342 837.726 872.088 838.292 871.654 838.702L862.594 847.175C863.135 847.364 863.662 847.591 864.171 847.855L874.035 838.578C874.476 838.21 875.041 838.025 875.615 838.059C876.189 838.093 876.728 838.345 877.122 838.763C877.516 839.181 877.737 839.734 877.737 840.309C877.738 840.883 877.52 841.437 877.127 841.856L868.067 850.452C868.685 850.916 869.242 851.442 869.798 851.937L876.787 845.412C877.221 845.002 877.801 844.781 878.398 844.799C878.996 844.816 879.562 845.07 879.972 845.505C880.382 845.94 880.602 846.519 880.585 847.117C880.567 847.714 880.314 848.28 879.879 848.69L872.983 855.122L873.354 855.802L877.065 852.339C877.28 852.136 877.533 851.977 877.81 851.872C878.086 851.766 878.381 851.717 878.677 851.725C878.972 851.734 879.264 851.801 879.533 851.922C879.803 852.043 880.047 852.216 880.25 852.431C880.453 852.647 880.612 852.9 880.717 853.176C880.822 853.453 880.872 853.747 880.863 854.043C880.855 854.339 880.788 854.63 880.667 854.9C880.545 855.17 880.372 855.413 880.157 855.616L872.643 862.636C870.912 866.748 867.108 869.5 863.676 872.778C862.574 873.882 861.325 874.828 859.965 875.592C859.952 875.715 859.952 875.84 859.965 875.963C859.718 876.612 859.501 877.292 859.254 877.942H901.617H942.248C943.517 877.813 944.715 877.296 945.678 876.46C946.641 875.624 947.323 874.511 947.628 873.273L963.244 812.542C963.924 809.976 962.564 807.873 960.152 807.904H868.84C867.571 808.033 866.373 808.55 865.41 809.386C864.447 810.222 863.765 811.335 863.459 812.573L854.183 847.762V849.03L854.77 848.566Z" fill="#010080"/>
<path d="M836.773 939.445L848.895 955.277C849.742 956.796 850.954 958.08 852.423 959.012C853.891 959.944 855.568 960.494 857.303 960.614C859.038 960.734 860.776 960.419 862.358 959.698C863.941 958.976 865.318 957.872 866.366 956.483C893.237 928.87 905.543 904.133 919.613 877.695H901.307C888.66 893.465 877.838 905.834 865.098 919.377C864.746 919.753 864.309 920.039 863.825 920.213C863.34 920.386 862.821 920.442 862.311 920.376C861.8 920.309 861.313 920.122 860.889 919.83C860.465 919.539 860.116 919.15 859.872 918.697C856.192 913.038 852.884 908.647 849.946 904.164C853.038 895.135 856.13 886.322 858.944 877.757C859.192 877.107 859.408 876.427 859.656 875.778C859.642 875.654 859.642 875.53 859.656 875.406C861.016 874.643 862.264 873.696 863.366 872.593C866.798 869.315 870.602 866.408 872.333 862.45L879.847 855.431C880.063 855.228 880.236 854.985 880.357 854.715C880.478 854.445 880.545 854.153 880.553 853.858C880.562 853.562 880.512 853.267 880.407 852.991C880.302 852.714 880.143 852.461 879.94 852.246C879.737 852.031 879.494 851.858 879.224 851.737C878.954 851.615 878.663 851.549 878.367 851.54C878.071 851.531 877.777 851.581 877.5 851.686C877.224 851.792 876.97 851.95 876.755 852.153L873.045 855.617L872.674 854.936L879.569 848.505C880.004 848.094 880.258 847.529 880.275 846.931C880.293 846.334 880.072 845.754 879.662 845.32C879.252 844.885 878.686 844.631 878.089 844.614C877.491 844.596 876.912 844.817 876.477 845.227L869.489 851.751C868.932 851.257 868.375 850.731 867.757 850.267L876.786 841.856C877.179 841.437 877.398 840.884 877.397 840.309C877.396 839.734 877.176 839.181 876.781 838.763C876.387 838.345 875.848 838.093 875.274 838.059C874.701 838.025 874.135 838.211 873.694 838.579L863.83 847.855C863.321 847.591 862.794 847.364 862.253 847.175L871.313 838.702C871.748 838.292 872.002 837.726 872.019 837.129C872.036 836.532 871.816 835.952 871.406 835.517C870.996 835.083 870.43 834.829 869.833 834.811C869.235 834.794 868.656 835.015 868.221 835.425L854.955 847.793C854.719 848.004 854.538 848.269 854.43 848.566L853.842 849.03V845.196C853.881 844.858 853.847 844.516 853.744 844.193C853.641 843.869 853.471 843.571 853.245 843.317C853.019 843.064 852.742 842.861 852.432 842.722C852.121 842.583 851.786 842.511 851.446 842.511C851.106 842.511 850.77 842.583 850.46 842.722C850.15 842.861 849.873 843.064 849.647 843.317C849.42 843.571 849.25 843.869 849.147 844.193C849.044 844.516 849.011 844.858 849.049 845.196V857.194C849.049 857.194 849.049 857.379 849.049 857.472C848.44 859.778 848.067 862.14 847.936 864.522L845.493 869.408L841.226 877.88C838.938 882.364 836.681 886.848 834.392 891.3L833.094 893.805C828.827 902.092 824.497 910.286 820.076 918.233C819.272 919.717 818.437 921.171 817.602 922.624C813.52 929.86 809.408 936.848 805.233 943.465L802.419 947.887C802.172 948.282 801.823 948.605 801.41 948.821C800.997 949.037 800.534 949.139 800.068 949.117C799.602 949.095 799.15 948.949 798.759 948.695C798.368 948.441 798.052 948.087 797.843 947.671C796.204 944.579 793.885 939.847 791.937 936.044C791.672 936.267 791.393 936.474 791.102 936.663L760.18 954.659C764.973 962.915 769.24 970.274 773.105 976.552C782.627 978.167 792.267 978.984 801.925 978.994C807.027 978.994 812.067 978.747 817.045 978.314C821.591 970.46 825.611 962.853 829.259 955.03C832.104 949.794 834.609 944.599 836.773 939.445Z" fill="#FF847B"/>
<path d="M791.504 936.693C791.795 936.505 792.074 936.298 792.339 936.075C794.287 939.878 796.606 944.455 798.245 947.701C798.454 948.118 798.771 948.472 799.162 948.726C799.553 948.98 800.004 949.126 800.47 949.148C800.936 949.17 801.399 949.068 801.813 948.851C802.226 948.635 802.574 948.313 802.822 947.918L805.636 943.496C809.872 936.879 813.985 929.89 818.004 922.655C818.839 921.201 819.674 919.748 820.478 918.264C824.9 910.317 829.229 902.123 833.496 893.836L834.795 891.331C837.083 886.878 839.34 882.395 841.629 877.911L822.086 847.731V847.577L821.87 847.268C819.142 843.077 815.855 839.28 812.098 835.981C808.992 833.307 805.661 830.907 802.141 828.807L801.337 831.281C803.507 832.487 805.337 834.222 806.656 836.325C807.975 838.428 808.741 840.831 808.882 843.31C808.882 852.586 798.183 859.853 784.949 859.853C771.714 859.853 761.541 852.803 761.046 843.959C761.046 843.742 761.046 843.526 761.046 843.31C761.088 841.35 761.555 839.422 762.415 837.661C763.274 835.899 764.506 834.345 766.025 833.105L769.735 821.479C758.65 823.19 748.087 827.352 738.814 833.662L732.537 838.084C727.914 841.168 723.951 845.142 720.879 849.772C705.975 872.036 713.736 904.102 713.736 904.102C717.385 926.056 724.28 936.879 725.177 960.874C740.449 968.569 756.795 973.917 773.662 976.737C769.797 970.553 765.53 963.1 760.737 954.844L791.504 936.693Z" fill="#00E9B1"/>
<circle cx="90" cy="692" r="7" fill="#00E9B1"/>
<circle cx="111" cy="692" r="7" fill="#00E9B1"/>
<circle cx="132" cy="692" r="7" fill="#00E9B1"/>
<circle cx="111" cy="692" r="7" fill="#00E9B1"/>
<circle cx="132" cy="692" r="7" fill="#00E9B1"/>
<circle cx="501" cy="692" r="7" fill="#00E9B1"/>
<circle cx="522" cy="692" r="7" fill="#00E9B1"/>
<circle cx="543" cy="692" r="7" fill="#00E9B1"/>
<circle cx="365" cy="692" r="7" fill="#00E9B1"/>
<circle cx="386" cy="692" r="7" fill="#00E9B1"/>
<circle cx="231" cy="692" r="7" fill="#00E9B1"/>
<circle cx="252" cy="692" r="7" fill="#00E9B1"/>
<path d="M445.5 798.658C445.5 790.01 438.435 782.858 429.925 784.397C418.168 786.524 406.914 791.047 396.888 797.746C382.498 807.361 371.283 821.027 364.661 837.015C358.038 853.004 356.305 870.597 359.681 887.57C363.057 904.544 371.391 920.135 383.628 932.372C395.865 944.609 411.456 952.943 428.43 956.319C445.403 959.695 462.996 957.962 478.985 951.339C494.973 944.717 508.639 933.502 518.254 919.112C524.953 909.086 529.476 897.832 531.603 886.075C533.142 877.565 525.99 870.5 517.342 870.5V870.5C508.695 870.5 501.895 877.642 499.516 885.956C497.923 891.526 495.469 896.845 492.215 901.714C486.042 910.954 477.267 918.155 467.001 922.407C456.734 926.66 445.438 927.773 434.539 925.605C423.64 923.437 413.629 918.086 405.772 910.228C397.914 902.371 392.563 892.36 390.395 881.461C388.227 870.562 389.34 859.266 393.593 848.999C397.845 838.733 405.046 829.958 414.286 823.785C419.155 820.531 424.474 818.077 430.044 816.484C438.358 814.105 445.5 807.305 445.5 798.658V798.658Z" fill="#010080"/>
<path d="M426.484 872.12C427.697 872.727 428.619 873.52 429.249 874.5C429.902 875.48 430.229 876.612 430.229 877.895C430.229 879.412 429.797 880.742 428.934 881.885C428.071 883.005 426.857 883.88 425.294 884.51C423.731 885.117 421.922 885.42 419.869 885.42C417.816 885.42 416.007 885.117 414.444 884.51C412.904 883.88 411.702 883.005 410.839 881.885C409.999 880.742 409.579 879.412 409.579 877.895C409.579 876.612 409.894 875.48 410.524 874.5C411.177 873.52 412.099 872.727 413.289 872.12C412.379 871.56 411.679 870.86 411.189 870.02C410.699 869.157 410.454 868.177 410.454 867.08C410.454 865.657 410.851 864.42 411.644 863.37C412.437 862.32 413.546 861.515 414.969 860.955C416.392 860.372 418.026 860.08 419.869 860.08C421.736 860.08 423.381 860.372 424.804 860.955C426.251 861.515 427.371 862.32 428.164 863.37C428.957 864.42 429.354 865.657 429.354 867.08C429.354 868.177 429.109 869.157 428.619 870.02C428.129 870.86 427.417 871.56 426.484 872.12ZM419.869 864.245C418.726 864.245 417.804 864.525 417.104 865.085C416.427 865.622 416.089 866.368 416.089 867.325C416.089 868.258 416.427 868.993 417.104 869.53C417.781 870.067 418.702 870.335 419.869 870.335C421.036 870.335 421.969 870.067 422.669 869.53C423.369 868.993 423.719 868.258 423.719 867.325C423.719 866.368 423.369 865.622 422.669 865.085C421.969 864.525 421.036 864.245 419.869 864.245ZM419.869 881.255C421.292 881.255 422.412 880.94 423.229 880.31C424.069 879.657 424.489 878.793 424.489 877.72C424.489 876.647 424.069 875.795 423.229 875.165C422.412 874.535 421.292 874.22 419.869 874.22C418.469 874.22 417.361 874.535 416.544 875.165C415.727 875.795 415.319 876.647 415.319 877.72C415.319 878.817 415.727 879.68 416.544 880.31C417.361 880.94 418.469 881.255 419.869 881.255ZM436.386 885.28C435.43 885.28 434.625 884.953 433.971 884.3C433.318 883.647 432.991 882.83 432.991 881.85C432.991 880.847 433.318 880.042 433.971 879.435C434.625 878.805 435.43 878.49 436.386 878.49C437.343 878.49 438.148 878.805 438.801 879.435C439.455 880.042 439.781 880.847 439.781 881.85C439.781 882.83 439.455 883.647 438.801 884.3C438.148 884.953 437.343 885.28 436.386 885.28ZM453.677 869.635C455.24 869.635 456.664 869.95 457.947 870.58C459.23 871.21 460.245 872.108 460.992 873.275C461.739 874.418 462.112 875.748 462.112 877.265C462.112 878.898 461.704 880.333 460.887 881.57C460.07 882.807 458.95 883.763 457.527 884.44C456.127 885.093 454.564 885.42 452.837 885.42C449.407 885.42 446.724 884.37 444.787 882.27C442.85 880.17 441.882 877.172 441.882 873.275C441.882 870.498 442.407 868.118 443.457 866.135C444.507 864.152 445.965 862.647 447.832 861.62C449.722 860.593 451.904 860.08 454.377 860.08C455.684 860.08 456.932 860.232 458.122 860.535C459.335 860.815 460.362 861.223 461.202 861.76L459.102 865.925C457.889 865.108 456.36 864.7 454.517 864.7C452.44 864.7 450.795 865.307 449.582 866.52C448.369 867.733 447.715 869.495 447.622 871.805C449.069 870.358 451.087 869.635 453.677 869.635ZM452.522 881.185C453.735 881.185 454.715 880.858 455.462 880.205C456.232 879.552 456.617 878.665 456.617 877.545C456.617 876.425 456.232 875.538 455.462 874.885C454.715 874.208 453.712 873.87 452.452 873.87C451.215 873.87 450.2 874.22 449.407 874.92C448.614 875.597 448.217 876.472 448.217 877.545C448.217 878.618 448.602 879.493 449.372 880.17C450.142 880.847 451.192 881.185 452.522 881.185ZM468.742 868.16H471.522L464.922 887H462.142L468.742 868.16ZM477.42 871V885H474.18V873.6H471.38V871H477.42ZM485.852 885.24C484.692 885.24 483.658 884.953 482.752 884.38C481.845 883.807 481.132 882.98 480.612 881.9C480.105 880.807 479.852 879.507 479.852 878C479.852 876.493 480.105 875.2 480.612 874.12C481.132 873.027 481.845 872.193 482.752 871.62C483.658 871.047 484.692 870.76 485.852 870.76C487.012 870.76 488.045 871.047 488.952 871.62C489.858 872.193 490.565 873.027 491.072 874.12C491.592 875.2 491.852 876.493 491.852 878C491.852 879.507 491.592 880.807 491.072 881.9C490.565 882.98 489.858 883.807 488.952 884.38C488.045 884.953 487.012 885.24 485.852 885.24ZM485.852 882.5C486.705 882.5 487.372 882.133 487.852 881.4C488.345 880.667 488.592 879.533 488.592 878C488.592 876.467 488.345 875.333 487.852 874.6C487.372 873.867 486.705 873.5 485.852 873.5C485.012 873.5 484.345 873.867 483.852 874.6C483.372 875.333 483.132 876.467 483.132 878C483.132 879.533 483.372 880.667 483.852 881.4C484.345 882.133 485.012 882.5 485.852 882.5Z" fill="#7C4EFF"/>
<rect x="651.5" y="79.5" width="301" height="32" rx="16" fill="white" stroke="#C4C4C4"/>
<rect x="651" y="79" width="196" height="33" rx="16.5" fill="#00E9B1"/>
<rect x="651.5" y="165.5" width="301" height="32" rx="16" fill="white" stroke="#C4C4C4"/>
<rect x="651" y="165" width="269" height="33" rx="16.5" fill="#010080"/>
<rect x="651.5" y="267.5" width="301" height="32" rx="16" fill="white" stroke="#C4C4C4"/>
<rect x="651" y="267" width="302" height="33" rx="16.5" fill="#00E9B1"/>
<rect x="651.5" y="370.5" width="301" height="32" rx="16" fill="white" stroke="#C4C4C4"/>
<rect x="651" y="370" width="147" height="33" rx="16.5" fill="#010080"/>
<rect x="87" y="937.026" width="122.131" height="11" rx="5.5" transform="rotate(-43.152 87 937.026)" fill="#7C4EFF"/>
<rect x="211" y="897.497" width="132.24" height="11" rx="5.5" transform="rotate(-51.503 211 897.497)" fill="#7C4EFF"/>
<rect x="217.386" y="904.408" width="63.4485" height="11" rx="5.5" transform="rotate(-138.318 217.386 904.408)" fill="#7C4EFF"/>
<circle cx="176.5" cy="862.5" r="15.5" fill="#010080"/>
<circle cx="215.5" cy="900.5" r="15.5" fill="#010080"/>
<circle cx="290.5" cy="805.5" r="15.5" fill="#010080"/>
<circle cx="92.5" cy="937.5" r="15.5" fill="#010080"/>
<defs>
<filter id="filter0_d" x="0" y="0" width="1062" height="486" filterUnits="userSpaceOnUse" color-interpolation-filters="sRGB">
<feFlood flood-opacity="0" result="BackgroundImageFix"/>
<feColorMatrix in="SourceAlpha" type="matrix" values="0 0 0 0 0 0 0 0 0 0 0 0 0 0 0 0 0 0 127 0"/>
<feOffset dy="4"/>
<feGaussianBlur stdDeviation="2"/>
<feColorMatrix type="matrix" values="0 0 0 0 0 0 0 0 0 0 0 0 0 0 0 0 0 0 0.25 0"/>
<feBlend mode="normal" in2="BackgroundImageFix" result="effect1_dropShadow"/>
<feBlend mode="normal" in="SourceGraphic" in2="effect1_dropShadow" result="shape"/>
</filter>
<filter id="filter1_d" x="0" y="567" width="1062" height="486" filterUnits="userSpaceOnUse" color-interpolation-filters="sRGB">
<feFlood flood-opacity="0" result="BackgroundImageFix"/>
<feColorMatrix in="SourceAlpha" type="matrix" values="0 0 0 0 0 0 0 0 0 0 0 0 0 0 0 0 0 0 127 0"/>
<feOffset dy="4"/>
<feGaussianBlur stdDeviation="2"/>
<feColorMatrix type="matrix" values="0 0 0 0 0 0 0 0 0 0 0 0 0 0 0 0 0 0 0.25 0"/>
<feBlend mode="normal" in2="BackgroundImageFix" result="effect1_dropShadow"/>
<feBlend mode="normal" in="SourceGraphic" in2="effect1_dropShadow" result="shape"/>
</filter>
</defs>
</svg>
