<svg xmlns="http://www.w3.org/2000/svg" viewBox="0 0 102.02 102.02"><defs><style>.cls-1{fill:#b2c3eb;}.cls-2{fill:#7c4eff;}.cls-3{fill:#ff847b;}.cls-4{fill:#fbe4da;}.cls-5{fill:#5b0d0d;}.cls-6{fill:#fa4f43;}</style></defs><g id="Layer_2" data-name="Layer 2"><g id="_ÎÓÈ_1" data-name="—ÎÓÈ_1"><path class="cls-1" d="M29.56,64.39v0a7.21,7.21,0,0,1,1.66-.78,10.69,10.69,0,0,1,2.33-.7A111.47,111.47,0,0,1,48.2,60.51L47,48.77c-.52-.25-1.15-.1-1.7-.31C44,48,44.2,45.81,43.16,44.77c-.69-.71-1.86-.78-2.49-1.55a3.13,3.13,0,0,1-.06-3c.19-.5.4-1,.54-1.53-.9-1.82-2.53-3.65-2.11-5.6.14-.67.52-1.26.63-1.94a10.59,10.59,0,0,0,0-1.69c0-3.47,3-4.94,5-7,1.84-1.83,2.52-4.79,4.93-5.93a1.13,1.13,0,0,1,.56-.37,1.41,1.41,0,0,1,.58,0,6.2,6.2,0,0,1,2.06,0,7.1,7.1,0,0,1,.94-.8c1.19-.62,2.47.87,3.8.81.9,0,1.67-.8,2.57-.74s1.6.95,2,1.81a4.7,4.7,0,0,0,1.64,2.28,13.07,13.07,0,0,0,1.64.53c1.29.53,2,2,2.38,3.34a28,28,0,0,1,1.08,5.21,1.71,1.71,0,0,1-.31,1.62,1.41,1.41,0,0,1-.63.38c0,.15.07.31.1.46a.65.65,0,0,1,.69.55.65.65,0,0,1-.54.74h0l.32,8.43c0,.18,0,.36,0,.54h0l.51,7.07c-.1,2.09-1.93,4.54-4,4.88-1.21.2-3.31.64-5.33.81l.57,5.72A13.72,13.72,0,0,1,61.8,60c4.93.82,8.92,2.2,12,4.34h.07l.3.26a15.73,15.73,0,0,1,3.6,3.73,66.27,66.27,0,0,1,10.85,17.2A51,51,0,1,0,15.86,88c.76-4,1.56-7.71,2.29-10.29C19.68,72.21,24.87,66.94,29.56,64.39Z"/><path class="cls-2" d="M73.83,64.32h-.07l.37.27Z"/><path class="cls-2" d="M80.47,75.23A139.12,139.12,0,0,1,82.72,91a52,52,0,0,0,5.86-5.44,66.27,66.27,0,0,0-10.85-17.2A18.07,18.07,0,0,1,80.47,75.23Z"/><path class="cls-2" d="M73.76,64.31c-3-2.14-7-3.52-12-4.34a13.72,13.72,0,0,0-1.41-.13l.16,1.63a4,4,0,0,1,2,3.18c0,2.66-3.63,4.81-8.11,4.81s-8.11-2.15-8.11-4.81a3.92,3.92,0,0,1,1.93-3.11l-.1-1a111.47,111.47,0,0,0-14.64,2.38c2.89-.5,4.87.78,4.41,4.8-.69,5.91-6.42,21.08-7.55,28.69,0,.25-.08.7-.11,1.25a51,51,0,0,0,43.62-1C65.48,84.14,62.57,63.28,73.76,64.31Z"/><path class="cls-2" d="M29.57,64.37v0a16.76,16.76,0,0,1,1.67-.8A7.21,7.21,0,0,0,29.57,64.37Z"/><path class="cls-2" d="M77.73,68.31a15.73,15.73,0,0,0-3.6-3.73A48.33,48.33,0,0,1,77.73,68.31Z"/><path class="cls-2" d="M77.73,68.31a48.33,48.33,0,0,0-3.6-3.73l-.37-.27c-11.19-1-8.28,19.83.17,32.27A51.32,51.32,0,0,0,82.72,91a139.12,139.12,0,0,0-2.25-15.72A18.07,18.07,0,0,0,77.73,68.31Z"/><path class="cls-2" d="M31.23,63.59a23,23,0,0,1,2.33-.7A10.69,10.69,0,0,0,31.23,63.59Z"/><path class="cls-2" d="M28.94,91.9c0-10.14-5.21-19.19.62-27.51-4.69,2.55-9.88,7.82-11.41,13.28C17.42,80.25,16.62,84,15.86,88A51.18,51.18,0,0,0,30,97.48,41.47,41.47,0,0,0,28.94,91.9Z"/><path class="cls-2" d="M38,67.69c.46-4-1.52-5.3-4.41-4.8a23,23,0,0,0-2.33.7,16.76,16.76,0,0,0-1.67.8c-5.83,8.32-.61,17.37-.62,27.51a41.47,41.47,0,0,1,1,5.58l.34.15c0-.55.07-1,.11-1.25C31.55,88.77,37.28,73.6,38,67.69Z"/><path class="cls-3" d="M48.8,66.56l-.5-5a3.92,3.92,0,0,0-1.93,3.11c0,2.66,3.63,4.81,8.11,4.81s8.11-2.15,8.11-4.81a4,4,0,0,0-2-3.18l.32,3.14Z"/><path class="cls-4" d="M45.05,41.54a3.2,3.2,0,0,1,2.24-3.79L47,35.36c-.83.17-1.68.3-2.55.4l-.1-.71c-.1.13-.19.25-.28.39a10,10,0,0,0-.74,3.47c-.18,1.19-.73,2.48-1.81,2.76a3.65,3.65,0,0,0-.38-3c-.14.52-.35,1-.54,1.53a3.13,3.13,0,0,0,.06,3c.63.77,1.8.84,2.49,1.55,1,1,.81,3.18,2.17,3.69.55.21,1.18.06,1.7.31l-.47-4.67A3.73,3.73,0,0,1,45.05,41.54Z"/><path class="cls-4" d="M50.77,16.19a1.41,1.41,0,0,0-.58,0,1.13,1.13,0,0,0-.56.37,2.49,2.49,0,0,1,.4-.2A4.7,4.7,0,0,1,50.77,16.19Z"/><path class="cls-4" d="M60.29,21.42l.47-.19,4.87,3.23s-.24.29-.7.76a11.11,11.11,0,0,1,3,5.43,1.41,1.41,0,0,0,.63-.38,1.71,1.71,0,0,0,.31-1.62,28,28,0,0,0-1.08-5.21c-.42-1.36-1.09-2.81-2.38-3.34a13.07,13.07,0,0,1-1.64-.53,4.7,4.7,0,0,1-1.64-2.28c-.42-.86-1.08-1.76-2-1.81s-1.67.7-2.57.74c-1.33.06-2.61-1.43-3.8-.81a7.1,7.1,0,0,0-.94.8,11.73,11.73,0,0,1,4.52,1.95A13,13,0,0,1,60.29,21.42Z"/><path class="cls-3" d="M47.75,41.8l-.46-4a3.2,3.2,0,0,0-2.24,3.79,3.73,3.73,0,0,0,1.51,2.56v-.16A2.11,2.11,0,0,1,47.75,41.8Z"/><path class="cls-3" d="M66.84,30.2c-.14-.27-.16-.59-.29-.86a1.83,1.83,0,0,0-1.62-.81,4.62,4.62,0,0,1-1.86-.21,2,2,0,0,1-.77-.63,36.41,36.41,0,0,1-12.09,6.84l1.46,3.38a10.91,10.91,0,0,0,1.76,3.21l3-.3a2.08,2.08,0,0,1,2.2,1.76,46,46,0,0,0,9.9-1.21c0-.18,0-.36,0-.54l-.32-8.43-2.36.36a.65.65,0,0,1-.19-1.29L68,31.11h0c0-.15-.06-.31-.1-.46A.9.9,0,0,1,66.84,30.2Zm-9.48,6.9c-.4.06-.8-.4-.9-1s.16-1.19.56-1.25.81.4.9,1S57.77,37,57.36,37.1Zm1.46-3.29-2.39.35a.65.65,0,0,1-.19-1.28l2.39-.36a.64.64,0,0,1,.72.55A.65.65,0,0,1,58.82,33.81Zm5,6.5-1.19.54a1,1,0,0,1-1.4-1v-.13a.94.94,0,0,0,1.1.24l1.19-.53a1.31,1.31,0,0,0,.74-1.21l.12.2A1.31,1.31,0,0,1,63.85,40.31Zm2.09-7c.4-.07.8.4.9,1s-.16,1.19-.57,1.25-.8-.4-.9-1S65.53,33.36,65.94,33.3Z"/><path class="cls-3" d="M62.3,27.69a2,2,0,0,0,.77.63,4.62,4.62,0,0,0,1.86.21,1.83,1.83,0,0,1,1.62.81c.13.27.15.59.29.86a.9.9,0,0,0,1.12.45,11.11,11.11,0,0,0-3-5.43A33.86,33.86,0,0,1,62.3,27.69Z"/><path class="cls-3" d="M54.48,59.84c.44,0,.88,0,1.3.06,1.84-.09,3.42-.11,4.61-.06l-.57-5.72a9,9,0,0,1-4.22-.35,25.54,25.54,0,0,1-4.48-2.85c-.18-.16-.34-.34-.51-.52a1.8,1.8,0,0,1-.19.2,1.55,1.55,0,0,1-1.81.2c-.7-.47-.78-1.59-1.51-2l-.07,0L48.2,60.51l3.15-.3A13,13,0,0,1,54.48,59.84Z"/><path class="cls-3" d="M55.78,59.9a10.47,10.47,0,0,1,4.77,1.57l-.16-1.63C59.2,59.79,57.62,59.81,55.78,59.9Z"/><path class="cls-3" d="M51.35,60.21l-3.15.3.1,1A9,9,0,0,1,51.35,60.21Z"/><path class="cls-3" d="M54.48,59.84a13,13,0,0,0-3.13.37c1.57-.14,3.07-.24,4.43-.31C55.36,59.86,54.92,59.84,54.48,59.84Z"/><path class="cls-3" d="M51.35,60.21a9,9,0,0,0-3.05,1.33l.5,5,12.07-2-.32-3.14a10.47,10.47,0,0,0-4.77-1.57C54.42,60,52.92,60.07,51.35,60.21Z"/><path class="cls-3" d="M48.61,50.8a1.55,1.55,0,0,0,1.81-.2,1.8,1.8,0,0,0,.19-.2,10.81,10.81,0,0,1-2.55-5.85,2.62,2.62,0,0,1-1.5-.45L47,48.77l.07,0C47.83,49.21,47.91,50.33,48.61,50.8Z"/><path class="cls-3" d="M47.75,41.8a2.11,2.11,0,0,0-1.2,2.14v.16a2.62,2.62,0,0,0,1.5.45c0-.31-.07-.62-.1-.92Z"/><path class="cls-3" d="M58.66,42.58a2.08,2.08,0,0,0-2.2-1.76l-3,.3c.77.81,1.8,1.13,3.81,1.37C57.69,42.54,58.17,42.57,58.66,42.58Z"/><path class="cls-4" d="M58.63,32.52l-2.39.36a.65.65,0,0,0,.19,1.28l2.39-.35a.65.65,0,0,0,.53-.74A.64.64,0,0,0,58.63,32.52Z"/><path class="cls-4" d="M68.19,32.4h0a.65.65,0,0,0,.54-.74.65.65,0,0,0-.69-.55c0,.18.08.35.1.53Z"/><path class="cls-4" d="M65.64,31.47a.65.65,0,0,0,.19,1.29l2.36-.36,0-.76c0-.18-.07-.35-.1-.53h0Z"/><path class="cls-5" d="M66.27,35.58c.41-.06.66-.62.57-1.25s-.5-1.1-.9-1-.66.62-.57,1.25S65.87,35.64,66.27,35.58Z"/><path class="cls-5" d="M57,34.81c-.4.06-.65.62-.56,1.25s.5,1.1.9,1,.66-.62.56-1.26S57.43,34.75,57,34.81Z"/><path class="cls-6" d="M64.3,38.23a1.31,1.31,0,0,1-.74,1.21L62.37,40a.94.94,0,0,1-1.1-.24v.13a1,1,0,0,0,1.4,1l1.19-.54a1.31,1.31,0,0,0,.57-1.88Z"/><path class="cls-4" d="M61.19,24.84l0-.15c-.08-.17-.17-.33-.26-.49a1.85,1.85,0,0,1-1.13.91c-.49.17-1,.06-1.52.18-1.06.24-1.71,1.36-2.62,2-1.36.95-3.22.72-4.59,1.65a10.17,10.17,0,0,0-2.13,2.54l.74,1.73Z"/><path class="cls-4" d="M48.25,32.22l-.13.13c-1.14,1.07-2.8,1.5-3.76,2.7l.1.71c.87-.1,1.72-.23,2.55-.4V35.3Z"/><path class="cls-4" d="M62.29,23.54l-1.32.4a1.14,1.14,0,0,1-.09.26c.09.16.18.32.26.49l0,.15,1.7-1.23a11.3,11.3,0,0,1,2,1.61c.46-.47.7-.76.7-.76l-4.87-3.23-.47.19A5.08,5.08,0,0,1,61,23.16,9.62,9.62,0,0,1,62.29,23.54Z"/><path class="cls-4" d="M61.19,24.84,49.63,33.2l.58,1.33A36.41,36.41,0,0,0,62.3,27.69a3.63,3.63,0,0,1-.52-1C61.55,26.1,61.43,25.45,61.19,24.84Z"/><path class="cls-4" d="M62.89,23.61l-1.7,1.23c.24.61.36,1.26.59,1.88a3.63,3.63,0,0,0,.52,1,33.86,33.86,0,0,0,2.63-2.47A11.3,11.3,0,0,0,62.89,23.61Z"/><path class="cls-4" d="M61,23.94l1.32-.4A9.62,9.62,0,0,0,61,23.16,2,2,0,0,1,61,23.94Z"/><path class="cls-4" d="M61.38,52.51a14.13,14.13,0,0,1-1.72,0l.16,1.63c2-.17,4.12-.61,5.33-.81,2-.34,3.86-2.79,4-4.88l-.51-7.07h0C69.12,47.21,65.14,52.3,61.38,52.51Z"/><path class="cls-4" d="M47.56,37.74l-.35-2.42-.2,0,.28,2.39h.05A1.62,1.62,0,0,1,47.56,37.74Z"/><path class="cls-4" d="M48.08,41.37l-.46-3.21A5,5,0,0,0,48.08,41.37Z"/><path class="cls-4" d="M48.12,41.67l0-.3a5,5,0,0,1-.46-3.21l-.06-.42a1.62,1.62,0,0,0-.22,0h-.05l.46,4A1.63,1.63,0,0,1,48.12,41.67Z"/><path class="cls-4" d="M58.66,42.58a1.1,1.1,0,0,1,0,.16l1,9.75a14.13,14.13,0,0,0,1.72,0c3.76-.21,7.74-5.3,7.18-11.14A46,46,0,0,1,58.66,42.58Zm5.89,1.78c.46,1.62-2,1.7-2,1.7-1.69,0-2.22-.8-2.4-1.49Z"/><path class="cls-4" d="M48.41,35.5a10.36,10.36,0,0,0-.71,2.23,3.26,3.26,0,0,1,2.9,3,4.87,4.87,0,0,1,0,.66l2.79-.28a10.91,10.91,0,0,1-1.76-3.21l-1.46-3.38c-.57.18-1.14.34-1.73.49A1,1,0,0,1,48.41,35.5Z"/><path class="cls-4" d="M48.41,35.5a1,1,0,0,0,.07-.48c-.42.11-.84.21-1.27.3l.35,2.42h.14A10.36,10.36,0,0,1,48.41,35.5Z"/><path class="cls-4" d="M48.36,41.62l2.28-.22a4.87,4.87,0,0,0,0-.66,3.26,3.26,0,0,0-2.9-3c0,.15-.06.29-.08.43l.46,3.21c.05.09.13.18.19.27Z"/><path class="cls-4" d="M48.08,41.37l0,.3.15,0C48.21,41.55,48.13,41.46,48.08,41.37Z"/><path class="cls-4" d="M47.56,37.74l.06.42c0-.14.05-.28.08-.43Z"/><path class="cls-4" d="M51.35,49.15a3.83,3.83,0,0,1-.74,1.25c.17.18.33.36.51.52a25.54,25.54,0,0,0,4.48,2.85,9,9,0,0,0,4.22.35l-.16-1.63A13.51,13.51,0,0,1,51.35,49.15Z"/><path class="cls-4" d="M48.57,44.47a2,2,0,0,1-.26.07h-.25a10.81,10.81,0,0,0,2.55,5.85,3.83,3.83,0,0,0,.74-1.25A9.43,9.43,0,0,1,48.57,44.47Z"/><path class="cls-4" d="M48.57,44.47c-.07-.3-.13-.59-.18-.9l-.27-1.9a1.63,1.63,0,0,0-.37.13L48,43.63c0,.3.06.61.1.92h.25A2,2,0,0,0,48.57,44.47Z"/><path class="cls-4" d="M50.06,43.36a5.21,5.21,0,0,1,1.56,1.9,5.18,5.18,0,0,1-.18,3.67l-.09.22a13.51,13.51,0,0,0,8.31,3.34l-1-9.75a1.1,1.1,0,0,0,0-.16c-.49,0-1,0-1.42-.09-2-.24-3-.56-3.81-1.37l-2.79.28A3.65,3.65,0,0,1,50.06,43.36Z"/><path class="cls-4" d="M51.62,45.26a5.21,5.21,0,0,0-1.56-1.9,2.58,2.58,0,0,1-1.49,1.11,9.43,9.43,0,0,0,2.78,4.68l.09-.22A5.18,5.18,0,0,0,51.62,45.26Z"/><path class="cls-4" d="M48.27,41.64a3.64,3.64,0,0,0,.35.45c.44.45,1,.85,1.44,1.27a3.65,3.65,0,0,0,.58-2l-2.28.22Z"/><path class="cls-4" d="M50.06,43.36c-.48-.42-1-.82-1.44-1.27a3.64,3.64,0,0,1-.35-.45l-.15,0,.27,1.9c0,.31.11.6.18.9A2.58,2.58,0,0,0,50.06,43.36Z"/><path class="cls-4" d="M48.89,31.47l-.19.24a3.29,3.29,0,0,1-.37,1.91.78.78,0,0,0-.07.57l1.37-1Z"/><path class="cls-4" d="M47.16,35l1.1-.79a.78.78,0,0,1,.07-.57,3.29,3.29,0,0,0,.37-1.91,5.47,5.47,0,0,1-.45.51L47,35.3v.06l.2,0Z"/><path class="cls-4" d="M48.26,34.19c.05.28.19.54.22.83.59-.15,1.16-.31,1.73-.49l-.58-1.33Z"/><path class="cls-4" d="M48.26,34.19l-1.1.79.05.34c.43-.09.85-.19,1.27-.3C48.45,34.73,48.31,34.47,48.26,34.19Z"/><path class="cls-3" d="M62.53,46.06s2.48-.08,2-1.7l-4.42.21C60.31,45.26,60.84,46.05,62.53,46.06Z"/><path class="cls-4" d="M41.2,37.22a17.82,17.82,0,0,0-.79-1.72c-.55-1.45.1-3.06.86-4.4a29.77,29.77,0,0,1,3.31-4.71c.45-.54.76-.95,1.5-.94a1.21,1.21,0,0,1,1.29,1.24L51.51,25l-1.08-.69a17.71,17.71,0,0,1,6.51-1.53l1.59-.65a5.66,5.66,0,0,0-2.56-.5c-1.33.06-2.7.54-4,.08a4.65,4.65,0,0,1-2.33-2.41,3.59,3.59,0,0,1-.48-1.74,1.62,1.62,0,0,1,.43-1c-2.41,1.14-3.09,4.1-4.93,5.93-2,2-5,3.5-5,7a10.59,10.59,0,0,1,0,1.69c-.11.68-.49,1.27-.63,1.94-.42,1.95,1.21,3.78,2.11,5.6A3.09,3.09,0,0,0,41.2,37.22Z"/><path class="cls-4" d="M52.46,16.41a1.2,1.2,0,0,0,.37-.2,6.2,6.2,0,0,0-2.06,0C51.34,16.29,51.92,16.6,52.46,16.41Z"/><path class="cls-4" d="M41.53,41.67c1.08-.28,1.63-1.57,1.81-2.76a10,10,0,0,1,.74-3.47c.09-.14.18-.26.28-.39l-.89-6.77,3.9-1.59a1.21,1.21,0,0,0-1.29-1.24c-.74,0-1,.4-1.5.94a29.77,29.77,0,0,0-3.31,4.71c-.76,1.34-1.41,2.95-.86,4.4a17.82,17.82,0,0,1,.79,1.72,3.09,3.09,0,0,1-.05,1.48A3.65,3.65,0,0,1,41.53,41.67Z"/><path class="cls-4" d="M49.68,19.31A4.65,4.65,0,0,0,52,21.72c1.26.46,2.63,0,4-.08a5.66,5.66,0,0,1,2.56.5l1.76-.72a13,13,0,0,0-2.94-3.26,11.73,11.73,0,0,0-4.52-1.95,1.2,1.2,0,0,1-.37.2c-.54.19-1.12-.12-1.69-.22a4.7,4.7,0,0,0-.74.18,2.49,2.49,0,0,0-.4.2,1.62,1.62,0,0,0-.43,1A3.59,3.59,0,0,0,49.68,19.31Z"/><path class="cls-4" d="M50.43,24.32l1.08.69,5.43-2.22A17.71,17.71,0,0,0,50.43,24.32Z"/><path class="cls-4" d="M46.86,27.79a2.08,2.08,0,0,0,.56,1.92,5.8,5.8,0,0,1,1.19,1.61l.1-.25.18.4A10.17,10.17,0,0,1,51,28.93c1.37-.93,3.23-.7,4.59-1.65.91-.63,1.56-1.75,2.62-2,.5-.12,1,0,1.52-.18a1.85,1.85,0,0,0,1.13-.91c0-.06-.07-.14-.11-.2l-7.35,2.23L51.51,25l-4.14,1.68a2.4,2.4,0,0,1,0,.24C47.22,27.24,47,27.48,46.86,27.79Z"/><path class="cls-4" d="M59.81,22.94a5.3,5.3,0,0,0-1.28-.8l-1.59.65A15.64,15.64,0,0,1,59.81,22.94Z"/><path class="cls-4" d="M48.12,32.35l.13-.13.36-.9a5.8,5.8,0,0,0-1.19-1.61,2.08,2.08,0,0,1-.56-1.92c.12-.31.36-.55.47-.86a2.4,2.4,0,0,0,0-.24l-3.9,1.59.89,6.77C45.32,33.85,47,33.42,48.12,32.35Z"/><path class="cls-4" d="M60.77,24c0,.06.07.14.11.2a1.14,1.14,0,0,0,.09-.26Z"/><path class="cls-4" d="M61,23.16a5.08,5.08,0,0,0-.72-1.74l-1.76.72a5.3,5.3,0,0,1,1.28.8A12,12,0,0,1,61,23.16Z"/><path class="cls-4" d="M60.77,24a4.83,4.83,0,0,0-1-1.06,15.64,15.64,0,0,0-2.87-.15L51.51,25l1.91,1.22Z"/><path class="cls-4" d="M61,23.16a12,12,0,0,0-1.2-.22,4.83,4.83,0,0,1,1,1.06l.2-.06A2,2,0,0,0,61,23.16Z"/><path class="cls-4" d="M48.71,31.07l-.1.25,0,.07a1.65,1.65,0,0,1,.06.32l.19-.24Z"/><path class="cls-4" d="M48.61,31.32l-.36.9a5.47,5.47,0,0,0,.45-.51,1.65,1.65,0,0,0-.06-.32Z"/></g></g></svg>