<svg xmlns="http://www.w3.org/2000/svg" viewBox="0 0 102.02 102.02"><defs><style>.cls-1{fill:#b2c3eb;}.cls-2{fill:#7c4eff;}.cls-3{fill:#ff847b;}.cls-4{fill:#fbe4da;}.cls-5{fill:#5b0d0d;}.cls-6{fill:#fa4f43;}</style></defs><g id="Layer_2" data-name="Layer 2"><g id="_ÎÓÈ_1" data-name="—ÎÓÈ_1"><path class="cls-1" d="M51,0A51,51,0,0,0,15.86,88c.76-4,1.56-7.71,2.29-10.29,1.53-5.46,6.72-10.73,11.41-13.28v0a7.21,7.21,0,0,1,1.66-.78,10.69,10.69,0,0,1,2.33-.7A111.47,111.47,0,0,1,48.2,60.51L47,48.77c-.52-.25-1.15-.1-1.7-.31C44,48,44.2,45.81,43.16,44.77c-.69-.71-1.86-.78-2.49-1.55a3.13,3.13,0,0,1-.06-3c.19-.5.4-1,.54-1.53-.9-1.82-2.53-3.65-2.11-5.6.14-.67.52-1.26.63-1.94a10.59,10.59,0,0,0,0-1.69c0-3.47,3-4.94,5-7,1.84-1.83,2.52-4.79,4.93-5.93a1.13,1.13,0,0,1,.56-.37,1.41,1.41,0,0,1,.58,0,6.2,6.2,0,0,1,2.06,0,7.1,7.1,0,0,1,.94-.8c1.19-.62,2.47.87,3.8.81.9,0,1.67-.8,2.57-.74s1.6.95,2,1.81a4.7,4.7,0,0,0,1.64,2.28,13.07,13.07,0,0,0,1.64.53c1.29.53,2,2,2.38,3.34a28,28,0,0,1,1.08,5.21,1.71,1.71,0,0,1-.31,1.62,1.41,1.41,0,0,1-.63.38c0,.15.07.31.1.46a.65.65,0,0,1,.69.55.65.65,0,0,1-.54.74h0l.32,8.43c0,.18,0,.36,0,.54h0l.51,7.07c-.1,2.09-1.93,4.54-4,4.88-1.21.2-3.31.64-5.33.81l.57,5.72A13.72,13.72,0,0,1,61.8,60c4.93.82,8.92,2.2,12,4.34h.07l.3.26a15.73,15.73,0,0,1,3.6,3.73,66.27,66.27,0,0,1,10.85,17.2A51,51,0,0,0,51,0Z"/><path class="cls-2" d="M74.13,64.58l-.3-.26h-.07c-3-2.14-7-3.52-12-4.34a13.72,13.72,0,0,0-1.41-.13l.16,1.63a4,4,0,0,1,2,3.18c0,2.66-3.63,4.81-8.11,4.81s-8.11-2.15-8.11-4.81a3.92,3.92,0,0,1,1.93-3.11l-.1-1a111.47,111.47,0,0,0-14.64,2.38,10.69,10.69,0,0,0-2.33.7,7.21,7.21,0,0,0-1.66.78v0c-4.69,2.55-9.88,7.82-11.41,13.28C17.42,80.25,16.62,84,15.86,88A51.18,51.18,0,0,0,30,97.48l.34.15A50.91,50.91,0,0,0,82.72,91a52,52,0,0,0,5.86-5.44,66.27,66.27,0,0,0-10.85-17.2A15.73,15.73,0,0,0,74.13,64.58Z"/><path class="cls-3" d="M46.37,64.65c0,2.66,3.63,4.81,8.11,4.81s8.11-2.15,8.11-4.81a4,4,0,0,0-2-3.18l-.16-1.63-.57-5.72a9,9,0,0,1-4.22-.35,25.54,25.54,0,0,1-4.48-2.85c-.18-.16-.34-.34-.51-.52a10.81,10.81,0,0,1-2.55-5.85c0-.31-.07-.62-.1-.92l-.21-1.83-.46-4a3.2,3.2,0,0,0-2.24,3.79,3.73,3.73,0,0,0,1.51,2.56L47,48.77,48.2,60.51l.1,1A3.92,3.92,0,0,0,46.37,64.65Z"/><path class="cls-4" d="M45.05,41.54a3.2,3.2,0,0,1,2.24-3.79l.46,4L48,43.63c0,.3.06.61.1.92a10.81,10.81,0,0,0,2.55,5.85c.17.18.33.36.51.52a25.54,25.54,0,0,0,4.48,2.85,9,9,0,0,0,4.22.35c2-.17,4.12-.61,5.33-.81,2-.34,3.86-2.79,4-4.88l-.51-7.07h0a46,46,0,0,1-9.9,1.21c-.49,0-1,0-1.42-.09-2-.24-3-.56-3.81-1.37a10.91,10.91,0,0,1-1.76-3.21l-1.46-3.38A36.41,36.41,0,0,0,62.3,27.69a33.86,33.86,0,0,0,2.63-2.47,11.11,11.11,0,0,1,3,5.43,1.41,1.41,0,0,0,.63-.38,1.71,1.71,0,0,0,.31-1.62,28,28,0,0,0-1.08-5.21c-.42-1.36-1.09-2.81-2.38-3.34a13.07,13.07,0,0,1-1.64-.53,4.7,4.7,0,0,1-1.64-2.28c-.42-.86-1.08-1.76-2-1.81s-1.67.7-2.57.74c-1.33.06-2.61-1.43-3.8-.81a7.1,7.1,0,0,0-.94.8,6.2,6.2,0,0,0-2.06,0,1.41,1.41,0,0,0-.58,0,1.13,1.13,0,0,0-.56.37c-2.41,1.14-3.09,4.1-4.93,5.93-2,2-5,3.5-5,7a10.59,10.59,0,0,1,0,1.69c-.11.68-.49,1.27-.63,1.94-.42,1.95,1.21,3.78,2.11,5.6-.14.52-.35,1-.54,1.53a3.13,3.13,0,0,0,.06,3c.63.77,1.8.84,2.49,1.55,1,1,.81,3.18,2.17,3.69.55.21,1.18.06,1.7.31l-.47-4.67A3.73,3.73,0,0,1,45.05,41.54Zm19.5,2.82c.46,1.62-2,1.7-2,1.7-1.69,0-2.22-.8-2.4-1.49Z"/><path class="cls-3" d="M62.3,27.69a36.41,36.41,0,0,1-12.09,6.84l1.46,3.38a10.91,10.91,0,0,0,1.76,3.21c.77.81,1.8,1.13,3.81,1.37.45,0,.93.08,1.42.09a46,46,0,0,0,9.9-1.21c0-.18,0-.36,0-.54l-.32-8.43-2.36.36a.65.65,0,0,1-.19-1.29L68,31.11h0c0-.15-.06-.31-.1-.46a11.11,11.11,0,0,0-3-5.43A33.86,33.86,0,0,1,62.3,27.69ZM57.36,37.1c-.4.06-.8-.4-.9-1s.16-1.19.56-1.25.81.4.9,1S57.77,37,57.36,37.1Zm1.46-3.29-2.39.35a.65.65,0,0,1-.19-1.28l2.39-.36a.64.64,0,0,1,.72.55A.65.65,0,0,1,58.82,33.81Zm7.12-.51c.4-.07.8.4.9,1s-.16,1.19-.57,1.25-.8-.4-.9-1S65.53,33.36,65.94,33.3Zm-2.09,7-1.19.54a1,1,0,0,1-1.4-1v-.13a.94.94,0,0,0,1.1.24l1.19-.53a1.31,1.31,0,0,0,.74-1.21l.12.2A1.31,1.31,0,0,1,63.85,40.31Z"/><path class="cls-4" d="M58.63,32.52l-2.39.36a.65.65,0,0,0,.19,1.28l2.39-.35a.65.65,0,0,0,.53-.74A.64.64,0,0,0,58.63,32.52Z"/><path class="cls-4" d="M65.64,31.47a.65.65,0,0,0,.19,1.29l2.36-.36h0a.65.65,0,0,0,.54-.74.65.65,0,0,0-.69-.55h0Z"/><path class="cls-5" d="M66.27,35.58c.41-.06.66-.62.57-1.25s-.5-1.1-.9-1-.66.62-.57,1.25S65.87,35.64,66.27,35.58Z"/><path class="cls-5" d="M57,34.81c-.4.06-.65.62-.56,1.25s.5,1.1.9,1,.66-.62.56-1.26S57.43,34.75,57,34.81Z"/><path class="cls-6" d="M64.3,38.23a1.31,1.31,0,0,1-.74,1.21L62.37,40a.94.94,0,0,1-1.1-.24v.13a1,1,0,0,0,1.4,1l1.19-.54a1.31,1.31,0,0,0,.57-1.88Z"/><path class="cls-3" d="M62.53,46.06s2.48-.08,2-1.7l-4.42.21C60.31,45.26,60.84,46.05,62.53,46.06Z"/></g></g></svg>