<svg xmlns="http://www.w3.org/2000/svg" viewBox="0 0 323.1 236.49"><defs><style>.cls-1{fill:#7c4eff;}.cls-2{fill:#1765a5;}.cls-3{fill:#00e9b1;}.cls-4{fill:#010080;}</style></defs><g id="Layer_2" data-name="Layer 2"><g id="_ÎÓÈ_1" data-name="—ÎÓÈ_1"><path class="cls-1" d="M29.57,235.22H323.1a58.91,58.91,0,0,1-21-11.71c-13.55,10.88-45.92,9-55.83-3.3-8.34,7.4-31,4.63-34.09-4.17-18.37,4-41.09-3.07-46.57-14.55,2.12,9.89-21.84,15.17-35.51,9.74s-18.64-16-23-25.59S96.59,165.51,82.05,161c-16.92-5.22-38.46.58-49.69,9.93-1,.83-1.91,1.69-2.79,2.55Z"/><path class="cls-2" d="M115,188.77c-.29,9.43-1.63,20.06,3.74,27.18,6.28,8.32,18.2,7.1,26.31,13.08a19,19,0,0,1,5.4,6.19h11.48c-.95-9.19-4.73-18.67-9.07-22.6-4-3.6-9.18-5.34-12.75-9.44-6.39-7.34-5.43-19.25-8-29.14-4.16-15.71-17.42-25.95-30.81-32.25C111.3,154.25,115.53,171.78,115,188.77Z"/><path class="cls-3" d="M159.72,219.05c3,3.58,5.78,9.38,8.21,16.17h14.88c.44-5.14.81-9.57,1-12.61,1.37-18.25,2.27-38.23-8.47-53-6-8.28-15.17-14-20.33-22.87-4-6.84-5.22-14.95-5.47-22.87a82.83,82.83,0,0,1,1.89-21c1.11-4.84,3.1-11.56,4.56-17.4-9.94,11.6-17.95,26.56-22.93,41-6.08,17.6-7.34,37.43-.33,54.68C138.63,195.57,149.69,207.13,159.72,219.05Z"/><path class="cls-4" d="M168.66,233.57h17.07c2.19-16.54,9.93-32.29,17.94-47.14,6.83-12.67,14.19-26.15,13.08-40.51-1.46-18.88-16.88-33.23-31.23-45.54,7.56,13,5.13,29.58-.42,43.55s-13.94,26.78-18.21,41.19a77.62,77.62,0,0,0,0,42.9C167.39,229.88,168,231.73,168.66,233.57Z"/><path class="cls-3" d="M184.58,235.22a20.85,20.85,0,0,1,3.38-2.37c9.9-5.57,23.63-3.43,31.6-11.55,6.82-6.94,6.13-18,6.56-27.73.78-17.55,7.12-35.31,19.81-47.4-16.05,5.5-32.27,15.08-38.38,31-3.85,10-3.72,22.35-11.73,29.44-4.48,4-10.66,5.38-15.57,8.79s-9.51,11.42-11.74,19.86Z"/><path class="cls-1" d="M75.88,181.48c9.62,15.61,1.82,35.48,2.63,53.74h84.13c.09-.31.17-.62.25-.93,5.5-20.86,7.51-44.28-3.74-62.8-5.64-9.3-14.43-17-17.34-27.45-5.75-20.65,13.69-43.55,4.25-62.87-3-6.12-8.48-10.69-12.25-16.37-9.24-13.92-7-31.9-6.56-48.47.14-4.93-.19-10.5-4-13.76-8.15-7-20.86,1.84-25.67,8.54-8.34,11.64-14,29-11.94,43.19,1.37,9.58,6.22,18.94,4.6,28.49C88.12,95.4,75.82,103.4,67,112.81c-12.22,13-18.51,33.46-8.89,48.37C62.94,168.74,71.16,173.83,75.88,181.48Z"/><path class="cls-3" d="M93,89.53c4.93,5.67,10.22,11.57,16.16,18,.57,7.63,1.33,15.23,2.15,22.79-6.29-6.58-11.25-11.82-15.88-16.77l-.87,1.13c4.91,5.25,10.17,10.8,17,18,.39,3.55.8,7.09,1.2,10.62q.7,6.06,1.38,12.16-6.39-6.69-12.84-13.38l-3.2-3.33-.85,1.14,3.2,3.33q7,7.27,13.94,14.54c.81,7.56,1.55,15.16,2.09,22.78-4.67-5.09-9.76-10.55-15.53-16.64l-.86,1.14c6.19,6.54,11.61,12.35,16.55,17.76.49,7.6.77,15.23.72,22.87-4.42-5.27-9.14-10.72-14.4-16.6l-.89,1.11c5.61,6.27,10.6,12,15.26,17.63a214.08,214.08,0,0,1-1.55,23c-3.84-5.34-8.07-10.9-12.62-16.58l-.94,1.05c4.82,6,9.28,11.9,13.29,17.52-.11.81-.21,1.62-.33,2.43h1.32c.07-.49.13-1,.2-1.45l.21-.22c5.91-6,11.83-12.35,17.6-18.84l-.89-1.11c-5.45,6.13-11,12.12-16.61,17.82a212.86,212.86,0,0,0,1.6-22.93l.11-.13c5.17-6,10.27-12.16,15.59-18.83l-.94-1.05c-5,6.3-9.84,12.14-14.71,17.81.07-7.72-.2-15.42-.69-23.1,4.42-5.67,9.1-11.83,14.32-18.84l-1-1c-4.9,6.57-9.32,12.4-13.5,17.77-.54-7.77-1.28-15.5-2.11-23.19q5.17-7,10.29-14l3.45-4.72-1-1L125,142.92q-4.76,6.48-9.53,13-.7-6.45-1.44-12.84-.6-5.16-1.18-10.36c5.51-7.49,9.8-13.25,13.9-18.65l-1-1c-3.92,5.16-8,10.65-13.16,17.65-.85-7.69-1.63-15.42-2.21-23.18,5.16-6.68,10-12.76,14.81-18.57l-.93-1.07c-4.56,5.52-9.16,11.29-14,17.56-.54-7.68-.87-15.39-.86-23.11,5.52-6.5,10.9-12.56,16.43-18.5L125,62.68c-5.25,5.63-10.35,11.36-15.56,17.47a193.63,193.63,0,0,1,4.58-41.86l-1.25-.4a196.22,196.22,0,0,0-4.63,42.39c-5-5.94-9.46-11.5-13.63-17l-1,1c4.44,5.81,9.21,11.73,14.58,18.09,0,7.64.32,15.27.85,22.87-5.51-6-10.46-11.53-15.1-16.86Z"/><path class="cls-4" d="M21,185.53c9,14.71,1.52,33.35,2.18,50.52l79.08.44.24-.87c5.27-19.57,7.29-41.57-3.19-59C94,167.81,85.79,160.5,83.11,150.69c-5.3-19.45,13.1-40.86,4.33-59.07C84.67,85.86,79.53,81.53,76,76.16c-8.61-13.12-6.43-30-5.9-45.58.15-4.63-.12-9.87-3.66-13C58.82,11,46.83,19.24,42.28,25.51,34.37,36.41,29,52.73,30.83,66c1.23,9,5.74,17.84,4.17,26.81-2.09,11.83-13.69,19.29-22.07,28.09C1.38,133.06-4.64,152.29,4.31,166.35,8.86,173.48,16.56,178.31,21,185.53Z"/></g></g></svg>