<svg width="27" height="27" viewBox="0 0 27 27" fill="none" xmlns="http://www.w3.org/2000/svg">
<path d="M1.81641 18.3479H11.0503C11.7796 18.3479 12.3709 18.9392 12.3709 19.6685C12.3709 20.3978 11.7797 20.9892 11.0503 20.9892H3.2145" fill="#00E9B1"/>
<path d="M1.01514 12.6251H6.64806C7.37738 12.6251 7.96869 13.2164 7.96869 13.9457C7.96869 14.6751 7.37743 15.2664 6.64806 15.2664H1.05295" fill="#00E9B1"/>
<path d="M2.97057 6.90222H11.0503C11.7796 6.90222 12.3709 7.49348 12.3709 8.22285C12.3709 8.95217 11.7796 9.54348 11.0503 9.54348H1.68164" fill="#00E9B1"/>
<path d="M23.8076 20.9892H20.3826C19.6533 20.9892 19.062 20.3979 19.062 19.6685C19.062 18.9392 19.6533 18.3479 20.3826 18.3479H25.2144" fill="#00E9B1"/>
<path d="M25.3492 9.5436H20.3826C19.6533 9.5436 19.062 8.95234 19.062 8.22297C19.062 7.49365 19.6533 6.90234 20.3826 6.90234H24.0602" fill="#00E9B1"/>
<path d="M25.978 15.2664H15.9808C15.2515 15.2664 14.6602 14.6751 14.6602 13.9457C14.6602 13.2164 15.2514 12.6251 15.9808 12.6251H26.0159" fill="#00E9B1"/>
<path d="M11.0346 21.4991H3.19884C2.77174 21.4991 2.42544 21.1528 2.42544 20.7257C2.42544 20.2985 2.7718 19.9523 3.19884 19.9523H11.0346C11.3363 19.9523 11.5818 19.7068 11.5818 19.4051C11.5818 19.1034 11.3363 18.8578 11.0346 18.8578H1.80075C1.37365 18.8578 1.02734 18.5116 1.02734 18.0844C1.02734 17.6573 1.3737 17.311 1.80075 17.311H11.0346C12.1894 17.311 13.1287 18.2504 13.1287 19.4051C13.1287 20.5597 12.1894 21.4991 11.0346 21.4991Z" fill="#5013FF"/>
<path d="M6.63241 15.7763H1.03729C0.610192 15.7763 0.263885 15.4301 0.263885 15.0029C0.263885 14.5758 0.610244 14.2295 1.03729 14.2295H6.63241C6.9341 14.2295 7.17958 13.984 7.17958 13.6824C7.17958 13.3807 6.9341 13.1352 6.63241 13.1352H0.999477C0.572381 13.1352 0.226074 12.7889 0.226074 12.3618C0.226074 11.9346 0.572434 11.5884 0.999477 11.5884H6.63241C7.78713 11.5884 8.72643 12.5278 8.72643 13.6824C8.72643 14.837 7.78713 15.7763 6.63241 15.7763Z" fill="#5013FF"/>
<path d="M11.0346 10.0535H1.66598C1.23888 10.0535 0.892578 9.70728 0.892578 9.28013C0.892578 8.85299 1.23894 8.50673 1.66598 8.50673H11.0346C11.3363 8.50673 11.5818 8.26125 11.5818 7.95945C11.5818 7.65766 11.3363 7.41228 11.0346 7.41228H2.95491C2.52782 7.41228 2.18151 7.06603 2.18151 6.63888C2.18151 6.21173 2.52787 5.86548 2.95491 5.86548H11.0346C12.1893 5.86548 13.1286 6.80489 13.1286 7.95951C13.1286 9.11413 12.1893 10.0535 11.0346 10.0535Z" fill="#5013FF"/>
<path d="M23.7923 21.4991H20.3675C19.2127 21.4991 18.2734 20.5597 18.2734 19.4051C18.2734 18.2504 19.2128 17.311 20.3675 17.311H25.1993C25.6263 17.311 25.9727 17.6573 25.9727 18.0844C25.9727 18.5116 25.6263 18.8578 25.1993 18.8578H20.3675C20.0658 18.8578 19.8203 19.1033 19.8203 19.405C19.8203 19.7067 20.0658 19.9523 20.3675 19.9523H23.7923C24.2194 19.9523 24.5657 20.2985 24.5657 20.7257C24.5657 21.1529 24.2194 21.4991 23.7923 21.4991Z" fill="#5013FF"/>
<path d="M25.334 10.0536H20.3675C19.2127 10.0536 18.2734 9.11418 18.2734 7.95951C18.2734 6.80489 19.2128 5.86548 20.3675 5.86548H24.045C24.4721 5.86548 24.8184 6.21173 24.8184 6.63888C24.8184 7.06603 24.472 7.41228 24.045 7.41228H20.3675C20.0658 7.41228 19.8203 7.65776 19.8203 7.95946C19.8203 8.26115 20.0658 8.50673 20.3675 8.50673H25.334C25.7611 8.50673 26.1074 8.85299 26.1074 9.28013C26.1074 9.70728 25.7611 10.0536 25.334 10.0536Z" fill="#5013FF"/>
<path d="M25.9624 15.7763H15.9651C14.8104 15.7763 13.8711 14.8369 13.8711 13.6823C13.8711 12.5277 14.8105 11.5883 15.9651 11.5883H26.0002C26.4273 11.5883 26.7736 11.9345 26.7736 12.3617C26.7736 12.7888 26.4273 13.1351 26.0002 13.1351H15.9651C15.6634 13.1351 15.418 13.3805 15.418 13.6822C15.418 13.9839 15.6634 14.2294 15.9651 14.2294H25.9624C26.3895 14.2294 26.7358 14.5757 26.7358 15.0028C26.7358 15.4301 26.3895 15.7763 25.9624 15.7763Z" fill="#5013FF"/>
<path d="M13.5 27C9.06515 27 4.91057 24.8188 2.3866 21.1654C1.78379 20.2937 1.28471 19.3508 0.90334 18.3631C0.497127 17.3125 0.224596 16.2122 0.0932871 15.0931C0.031377 14.5678 0 14.0317 0 13.5C0 13.0948 0.017877 12.6887 0.053209 12.2929C0.152455 11.1749 0.390445 10.0748 0.760588 9.02338C1.10484 8.0432 1.56484 7.10042 2.12778 6.22165C4.62649 2.32564 8.87773 0 13.5 0C18.1223 0 22.3734 2.32569 24.872 6.22123C25.4351 7.10037 25.8951 8.04315 26.2396 9.0238C26.6095 10.0748 26.8475 11.1749 26.9468 12.2932C26.9821 12.6886 27.0001 13.0947 27.0001 13.5C27.0001 14.0317 26.9687 14.5679 26.9068 15.0934C26.7755 16.2122 26.5029 17.3125 26.0966 18.3633C25.7153 19.3507 25.2162 20.2936 24.6133 21.1656C24.3703 21.5169 23.8885 21.6048 23.5373 21.3619C23.1859 21.1189 23.098 20.6372 23.341 20.2858C23.8745 19.5141 24.3162 18.6797 24.6538 17.8058C25.0132 16.8761 25.2544 15.9028 25.3706 14.9128C25.4255 14.4467 25.4533 13.9716 25.4533 13.5C25.4533 13.1405 25.4374 12.7805 25.4062 12.4304C25.3182 11.4402 25.1077 10.4668 24.7805 9.53685C24.4755 8.66853 24.0682 7.83401 23.5698 7.05596C21.3573 3.60645 17.5928 1.5468 13.5 1.5468C9.40718 1.5468 5.64268 3.60645 3.43005 7.05633C2.93198 7.83401 2.52471 8.66853 2.21991 9.53638C1.89253 10.4667 1.68202 11.4401 1.59405 12.43C1.56273 12.7805 1.54686 13.1404 1.54686 13.4999C1.54686 13.9714 1.57465 14.4467 1.62954 14.9124C1.74572 15.9027 1.98677 16.876 2.34621 17.8055C2.68381 18.6797 3.12551 19.514 3.65913 20.2858C5.89454 23.5215 9.57329 25.4531 13.5 25.4531C15.0045 25.4531 16.4708 25.1774 17.8583 24.6338C18.2562 24.4778 18.7048 24.6741 18.8606 25.0718C19.0164 25.4694 18.8203 25.9182 18.4227 26.074C16.8546 26.6884 15.1984 27 13.5 27Z" fill="#010080"/>
</svg>
