<svg xmlns="http://www.w3.org/2000/svg" viewBox="0 0 105.77 105.77"><defs><style>.cls-1{fill:#b2c3eb;}.cls-2{fill:#fbe4da;}.cls-3{fill:#010080;}.cls-4{fill:#b06649;}.cls-5{fill:#fff;}.cls-6{fill:#000543;}.cls-7{fill:#3d0c02;}</style></defs><g id="Layer_2" data-name="Layer 2"><g id="_ÎÓÈ_1" data-name="—ÎÓÈ_1"><path class="cls-1" d="M52.89,0A52.89,52.89,0,0,0,42.67,104.78c-.82-4.36-2.23-7.61-3.09-12.77,0,0-2.51-10.37,2.32-17.56-.47,0-.94,0-1.41,0A6.64,6.64,0,0,1,35,70.05c-.44-1.26-.55-2.75-1.55-3.64-1.42-1.26-4.11-.79-4.86-2.54-.52-1.19.37-2.51.2-3.79-.22-1.62-1.93-2.52-3.09-3.68A6.59,6.59,0,0,1,24,50.11c.53-1.93,1.93-4.15.62-5.72-.46-.56-1.18-.85-1.64-1.41-1-1.18-.43-3,.57-4.11s2.36-1.84,3.27-3c1.06-1.38,1.37-3.2,2-4.84s1.84-3.29,3.58-3.4c1.35-.09,2.69.78,4,.52,3.45-.68,4.76-4.5,8.93-4.71a8.36,8.36,0,0,1,6.22,1.84c.07.06.12.14.19.2C57.33,24,62.88,24.4,67.26,26.65c.86-.18,1.46-.14,3.4-.32a9.18,9.18,0,0,1,7,2.46,17.51,17.51,0,0,1,1.42,1.68c.38.6.71,1.23,1.05,1.84.62.4,2.88,2.06,3.08,3.85.34,3-.42,4.48-.64,4.83a10.12,10.12,0,0,1-.19,2.94l-1.8,8a10.25,10.25,0,0,1-10,8l-2.46,7.71A23.14,23.14,0,0,1,71.39,70a18.11,18.11,0,0,1,5.34,8.3c.43,1.41.8,2.83,1.13,4a.13.13,0,0,1,0,.06,12.53,12.53,0,0,1,.3,1.38,5.29,5.29,0,0,1,.08,1c.33,4.29-.21,9.06-.66,14.83A52.89,52.89,0,0,0,52.89,0Z"/><path class="cls-2" d="M45.67,70.66l2-1.37a24.58,24.58,0,0,1,10-4l3.65-11.43a10,10,0,0,1-.73-2.26c0-.21-.07-.41-.09-.62a3.68,3.68,0,0,1-1.36-2.87c.54-.29,1.09-.6,1.55-.91a7.4,7.4,0,0,0,.83-.63,15.89,15.89,0,0,0,1.59-1.79,34.09,34.09,0,0,1,2.7-3.26,15.17,15.17,0,0,1,9.61-4,17,17,0,0,1,3.59.17c.65.1,1.62.28,2-.44a1.9,1.9,0,0,0,.07-1A10.31,10.31,0,0,1,82.62,41c.22-.35,1-1.82.64-4.83-.2-1.79-2.46-3.45-3.08-3.85-.34-.61-.67-1.24-1.05-1.84a17.51,17.51,0,0,0-1.42-1.68,9.18,9.18,0,0,0-7-2.46c-1.94.18-2.54.14-3.4.32C62.88,24.4,57.33,24,51.7,25.46c-.07-.06-.12-.14-.19-.2a8.36,8.36,0,0,0-6.22-1.84c-4.17.21-5.48,4-8.93,4.71-1.32.26-2.66-.61-4-.52-1.74.11-3,1.76-3.58,3.4s-.93,3.46-2,4.84c-.91,1.18-2.27,1.92-3.27,3S22,41.8,22.94,43c.46.56,1.18.85,1.64,1.41,1.31,1.57-.09,3.79-.62,5.72a6.59,6.59,0,0,0,1.71,6.29c1.16,1.16,2.87,2.06,3.09,3.68.17,1.28-.72,2.6-.2,3.79.75,1.75,3.44,1.28,4.86,2.54,1,.89,1.11,2.38,1.55,3.64a6.64,6.64,0,0,0,5.52,4.37c.47,0,.94,0,1.41,0A13.58,13.58,0,0,1,45.67,70.66Z"/><path class="cls-3" d="M78.25,84.82a5.29,5.29,0,0,0-.08-1,12.53,12.53,0,0,0-.3-1.38.13.13,0,0,0,0-.06c-.33-1.22-.7-2.64-1.13-4A18.11,18.11,0,0,0,71.39,70a23.14,23.14,0,0,0-3.21-2.37l-.26.81a4.75,4.75,0,0,1,2.44,3.89c0,2.95-3.47,5.35-7.74,5.35s-7.57-2.28-7.73-5.14c0-.07,0-.14,0-.21a4.39,4.39,0,0,1,1.62-3.26l1.2-3.77a24.58,24.58,0,0,0-10,4l-2,1.37a13.58,13.58,0,0,0-3.77,3.79C37.07,81.64,39.58,92,39.58,92c.86,5.16,2.27,8.41,3.09,12.77a53.79,53.79,0,0,0,5.85.8l.88.07h0c1.15.07,2.3.12,3.47.12a53.84,53.84,0,0,0,5.41-.27c.31,0,.62-.08.93-.12l1-.12a52.46,52.46,0,0,0,17.38-5.61C78,93.88,78.58,89.11,78.25,84.82Z"/><path class="cls-4" d="M81,37.29c-.36.72-1.33.54-2,.44a17,17,0,0,0-3.59-.17,15.17,15.17,0,0,0-9.61,4,34.09,34.09,0,0,0-2.7,3.26,15.89,15.89,0,0,1-1.59,1.79,7.4,7.4,0,0,1-.83.63c-.46.31-1,.62-1.55.91A3.68,3.68,0,0,0,60.52,51c0,.21,0,.41.09.62a10,10,0,0,0,.73,2.26L57.69,65.34l-1.2,3.77a4.39,4.39,0,0,0-1.62,3.26c0,.07,0,.14,0,.21.16,2.86,3.55,5.14,7.73,5.14s7.74-2.4,7.74-5.35a4.75,4.75,0,0,0-2.44-3.89l.26-.81L70.64,60a10.25,10.25,0,0,0,10-8l1.8-8A10.12,10.12,0,0,0,82.62,41a10.31,10.31,0,0,0-1.54-4.66A1.9,1.9,0,0,1,81,37.29Zm-11.3,4.82a.66.66,0,0,1,.79-.5l2,.43.47.1a.66.66,0,1,1-.28,1.29l-.83-.18-1.6-.35A.67.67,0,0,1,69.71,42.11Zm3,1.92-.74.47a1.65,1.65,0,0,1,0,.54,1.25,1.25,0,0,1-.67.93.52.52,0,0,1-.3,0c-.4-.09-.62-.66-.48-1.28s.57-1,1-1l.17,0Zm0,10.87-.35-.16c-.12-.06-.22-.13-.32-.19a1.48,1.48,0,0,1-.61-1.66l1.3.43.08,0,2.51.85C75.09,55.9,72.65,54.9,72.65,54.9ZM76,51.58l-1.16.12a.9.9,0,0,1-.91-1.05,1,1,0,0,1,.09-.37l.05-.12a.21.21,0,0,0,0,.07.78.78,0,0,0,.79.53L76,50.64a1.27,1.27,0,0,0,1-.9l0,.23A1.39,1.39,0,0,1,76,51.58ZM80.65,47c-.13.62-.57,1-1,1s-.61-.66-.48-1.28.57-1.05,1-1l1.24.27-.74.47A1.65,1.65,0,0,1,80.65,47Zm1.53-2.1a.59.59,0,0,1-.64.53L79.65,45a.69.69,0,0,1,.29-1.3l1.88.42A.6.6,0,0,1,82.18,44.85Z"/><path class="cls-5" d="M72.67,53.32l-1.3-.43A1.48,1.48,0,0,0,72,54.55c.1.06.2.13.32.19l.35.16s2.44,1,2.61-.7l-2.51-.85Z"/><path class="cls-6" d="M70.22,42.9l1.6.35.83.18a.66.66,0,1,0,.28-1.29l-.47-.1-2-.43a.66.66,0,1,0-.28,1.29Z"/><path class="cls-6" d="M81.82,44.09l-1.88-.42a.69.69,0,0,0-.29,1.3l1.89.41a.59.59,0,0,0,.64-.53A.6.6,0,0,0,81.82,44.09Z"/><path class="cls-7" d="M77.05,49.74a1.27,1.27,0,0,1-1,.9l-1.17.12a.78.78,0,0,1-.79-.53.21.21,0,0,1,0-.07l-.05.12a1,1,0,0,0-.09.37.9.9,0,0,0,.91,1.05L76,51.58A1.39,1.39,0,0,0,77.08,50Z"/><path class="cls-6" d="M70.47,44.72c-.14.62.08,1.19.48,1.28a.52.52,0,0,0,.3,0,1.25,1.25,0,0,0,.67-.93,1.65,1.65,0,0,0,0-.54l.74-.47-1.07-.24-.17,0C71,43.67,70.6,44.1,70.47,44.72Z"/><path class="cls-6" d="M80.17,45.67c-.4-.09-.84.34-1,1s.08,1.19.48,1.28.84-.34,1-1a1.65,1.65,0,0,0,0-.54l.74-.47Z"/></g></g></svg>