<svg width="1103" height="678" viewBox="0 0 1103 678" fill="none" xmlns="http://www.w3.org/2000/svg">
<ellipse cx="551.5" cy="650" rx="551.5" ry="28" fill="#010080"/>
<g clip-path="url(#clip0)">
<path d="M884.05 213.09H274.22C255.05 213.09 239.51 228.63 239.51 247.8V610.41C239.51 629.58 255.05 645.12 274.22 645.12H884.05C903.22 645.12 918.76 629.58 918.76 610.41V247.8C918.76 228.63 903.22 213.09 884.05 213.09Z" fill="#7C4EFF"/>
<path d="M59.3997 633.58C57.4497 633.5 55.5497 633.41 53.7297 633.3C37.7297 632.3 41.2797 638.91 48.2997 639.3C51.8197 639.467 55.3464 639.623 58.8797 639.77C58.4477 639.429 58.0401 639.058 57.6597 638.66C56.6097 636.89 57.3497 634.88 59.3997 633.58Z" fill="#FF9985"/>
<path d="M38.3296 642.45L50.8296 638.33C51.4396 638.13 51.8296 637.47 51.6796 637.02L48.6196 629.92C48.4396 629.5 47.8096 629.49 47.3096 629.92L36.8496 638.1C34.0996 640.21 35.1996 643.49 38.3296 642.45Z" fill="#7C4EFF"/>
<path d="M113.71 625.79C90.76 604.68 85 607.57 73.26 599.73L71.99 599.93L71.89 600.59C69.05 600.99 61.64 601.37 60.12 600.12L58.83 599.12L57.88 600.55L53.25 607.55C48.73 614.41 48.73 614.41 46.47 617.05L46.37 617.15C45.59 618.07 44.55 617.26 44.82 618.47C44.9814 619.051 45.2814 619.583 45.6943 620.022C46.1071 620.461 46.6204 620.793 47.19 620.99C49.79 621.99 53.27 624.48 57.26 626.25C56.5625 626.289 55.9031 626.581 55.4045 627.07C54.906 627.56 54.6023 628.213 54.55 628.91C54.43 630.69 54.17 634.39 53.95 637.56C53.908 638.161 53.9857 638.764 54.1787 639.335C54.3717 639.906 54.6761 640.433 55.0743 640.885C55.4725 641.337 55.9564 641.705 56.4981 641.969C57.0399 642.232 57.6285 642.386 58.23 642.42C72.48 643.25 80.3 645.06 88.23 644.49C98.15 643.76 100.23 643.31 105.01 643.38C108.86 643.38 112.5 642.96 114.85 640.01C115.549 639.118 116.069 638.1 116.38 637.01C116.803 635.543 116.933 634.007 116.761 632.49C116.59 630.973 116.12 629.505 115.38 628.17C114.956 627.292 114.392 626.488 113.71 625.79V625.79Z" fill="#B2C3EB"/>
<path d="M32.3498 491.83C31.7198 493.47 31.4098 495.29 30.3498 496.67C29.4398 497.86 28.0698 498.59 27.0798 499.67C26.0898 500.75 25.5198 502.6 26.4998 503.78C26.9698 504.34 27.6798 504.63 28.1498 505.19C29.4498 506.76 28.0598 508.98 27.5198 510.91C27.2399 512.017 27.2503 513.178 27.5498 514.279C27.8494 515.381 28.428 516.387 29.2298 517.2C30.3998 518.36 32.1098 519.26 32.3298 520.89C32.4898 522.16 31.6098 523.48 32.1198 524.67C32.8698 526.42 35.5698 525.95 36.9898 527.21C37.9898 528.1 38.0998 529.59 38.5298 530.85C38.9505 532.023 39.6917 533.054 40.6693 533.827C41.6469 534.599 42.8215 535.082 44.0598 535.22C45.3598 535.34 46.7198 535.05 47.9398 535.58C49.4998 536.26 50.4098 538.16 52.0498 538.58C55.4598 539.48 56.2598 535.39 58.5898 533.24C61.5098 530.52 67.1598 530.93 68.4698 527.11C68.7798 526.21 68.7998 525.11 69.4698 524.51C70.1398 523.91 71.3098 523.97 72.0798 523.42C73.5298 522.42 72.9198 519.89 73.5598 518.29C73.6598 518.16 74.1798 517.37 74.2898 517.29C80.2898 508.56 81.2298 498.11 75.7398 491.4C71.1898 485.84 63.2998 484.19 55.2298 486.25C55.1598 486.19 55.1198 486.11 55.0498 486.05C54.1876 485.345 53.1933 484.819 52.1252 484.503C51.0572 484.187 49.9368 484.087 48.8298 484.21C44.6498 484.42 43.3398 488.21 39.8998 488.92C38.5798 489.18 37.2298 488.32 35.8998 488.4C34.1898 488.55 32.9998 490.19 32.3498 491.83Z" fill="#000543"/>
<path d="M109.9 536.58C104.371 543.993 98.4318 551.091 92.1098 557.84C92.0019 557.971 91.8627 558.072 91.7051 558.134C91.5476 558.196 91.3768 558.217 91.2089 558.195C91.041 558.173 90.8814 558.109 90.7452 558.008C90.6089 557.907 90.5004 557.774 90.4298 557.62C87.8998 553.74 85.9298 551.71 84.4298 547.36C80.3698 550.2 77.7798 551.48 73.5298 552.04L86.8698 569.44C87.1446 569.931 87.5374 570.345 88.0127 570.645C88.4881 570.946 89.0308 571.123 89.5918 571.161C90.1529 571.198 90.7145 571.096 91.2257 570.861C91.737 570.627 92.1818 570.269 92.5198 569.82C103.1 558.94 106.7 549.46 112.86 538.64C110.47 538.34 111.66 538.08 109.9 536.58Z" fill="#FF847B"/>
<path d="M78.12 534.5L86.23 547C86.6926 547.672 86.9836 548.447 87.0778 549.258C87.1719 550.068 87.0662 550.89 86.77 551.65C85.77 554.1 83.29 557.47 77.09 559.2C77.09 559.23 69.37 545.68 78.12 534.5Z" fill="#00E9B1"/>
<path d="M63.9997 554.46C62.9997 550.53 62.2197 546.53 61.5797 542.95C59.7997 532.95 46.9297 533.41 43.4097 540.5L51.6797 559.4C55.9997 560.08 60.1897 557.64 63.9997 554.46Z" fill="#267067"/>
<path d="M81.0498 581C79.6898 564.63 82.4898 554.2 81.8298 545.69C81.8264 545.355 81.7963 545.02 81.7398 544.69C81.6691 544.225 81.5723 543.764 81.4498 543.31C81.4451 543.29 81.4451 543.27 81.4498 543.25C81.1098 542.04 80.7498 540.61 80.3098 539.2C79.3378 535.99 77.4883 533.115 74.9698 530.9C65.9698 522.99 57.2898 526.34 51.3098 530.15L49.2498 531.53C39.5698 538.02 43.1698 552.88 43.1698 552.88C44.3698 560.11 46.6698 563.59 46.8898 571.66C47.2998 586.89 37.0798 591.11 36.4798 607.81L36.1098 608.3C35.3082 609.403 34.9326 610.758 35.052 612.117C35.1715 613.475 35.778 614.744 36.7598 615.69C42.5698 621.12 48.6398 623.94 55.7598 621.69C66.3298 618.43 73.5598 620.79 81.1098 617.19C82.0183 616.745 82.7875 616.059 83.334 615.208C83.8805 614.356 84.1833 613.371 84.2098 612.36C84.7198 595.79 82.7198 601.19 81.0498 581Z" fill="#00E9B1"/>
<path d="M109.27 535.62C109.34 537.28 110.65 540.3 115.7 538.69C115.7 538.69 114.51 533.75 110.38 534.19C110.213 534.211 110.052 534.265 109.906 534.348C109.76 534.431 109.632 534.542 109.529 534.675C109.426 534.808 109.35 534.96 109.305 535.122C109.261 535.284 109.249 535.453 109.27 535.62Z" fill="#FF9985"/>
<path d="M88.7499 632.69C88.6699 634.64 88.5799 636.55 88.4699 638.37C87.4699 654.47 94.0599 650.87 94.3999 643.82C94.5665 640.287 94.7199 636.75 94.8599 633.21C94.5195 633.64 94.1521 634.047 93.7599 634.43C91.9999 635.49 89.9999 634.74 88.7499 632.69Z" fill="#FF9985"/>
<path d="M101.67 647.35L89.2298 643C88.6198 642.79 87.8798 643.05 87.7698 643.52L85.9098 651.04C85.7998 651.47 86.2798 651.87 86.9098 651.86L100.17 651.72C103.67 651.7 104.77 648.43 101.67 647.35Z" fill="#7C4EFF"/>
<path d="M86.4796 582.89C58.1196 589.17 50.4796 600.94 39.0996 606.71C37.5431 607.478 36.2207 608.648 35.2696 610.1L35.0796 610.4C34.4534 611.371 34.0773 612.482 33.9849 613.633C33.8924 614.785 34.0864 615.942 34.5496 617C35.6796 619.55 36.8696 622.67 38.7196 626.59C39.6785 628.652 41.2972 630.336 43.3201 631.376C45.343 632.415 47.6545 632.751 49.8896 632.33C50.9101 632.18 51.9037 631.884 52.8396 631.45C56.2396 629.1 58.7296 628.76 62.7696 623.72C71.2096 613.2 75.0596 611 81.8896 606.91C81.9968 606.84 82.1207 606.799 82.2489 606.791C82.377 606.784 82.5048 606.81 82.6194 606.868C82.734 606.926 82.8313 607.013 82.9016 607.12C82.9718 607.228 83.0125 607.352 83.0196 607.48C82.7596 617.6 82.5396 628.37 83.2696 637.85C83.3461 638.506 83.6559 639.112 84.1424 639.558C84.629 640.004 85.2597 640.261 85.9196 640.28L94.5396 640.83C95.6999 640.948 96.8599 640.604 97.7679 639.872C98.6759 639.14 99.2586 638.079 99.3896 636.92C100.21 623.92 102.02 616.74 101.45 609.52C100.72 600.46 102.55 598.59 102.62 594.2C102.571 592.439 102.106 590.715 101.263 589.168C100.42 587.621 99.223 586.295 97.7696 585.3C96.1628 584.127 94.3269 583.307 92.3815 582.891C90.4361 582.476 88.4251 582.476 86.4796 582.89V582.89Z" fill="#D7E1FC"/>
<path d="M66.9996 514.32C65.1296 512.75 61.3096 511.1 59.8796 509.78C58.882 508.919 57.9982 507.935 57.2496 506.85C56.7097 505.966 56.3939 504.964 56.3296 503.93C56.3296 503.93 57.2396 502.48 56.5196 503.55C58.0609 501.402 58.7423 498.755 58.4296 496.13C58.9268 494.461 59.8626 492.955 61.1396 491.77C64.8496 488.17 66.7696 488.77 69.1396 487.95C71.5096 487.13 71.3196 487.43 74.2496 487.15C75.5232 487.052 76.8032 487.221 78.0083 487.644C79.2134 488.068 80.3172 488.737 81.2496 489.61C81.7577 490.14 82.2319 490.701 82.6696 491.29C83.0496 491.89 83.3696 492.52 83.6696 493.13C84.2896 493.53 86.5496 495.19 86.7596 496.98C87.1596 500.48 86.0496 501.9 86.0496 501.9C84.3196 501.54 82.8196 499.1 81.2996 499.34C80.8137 499.425 80.3445 499.587 79.9096 499.82C77.7396 501.03 75.9096 502.01 75.1196 504.55C74.4396 506.64 75.0696 509.26 73.4396 510.8C71.9896 512.18 69.4396 511.95 67.8296 513.22C67.4914 513.536 67.2105 513.908 66.9996 514.32V514.32Z" fill="#000543"/>
<path d="M83.8998 496.09C84.8842 497.279 85.5849 498.677 85.9487 500.178C86.3126 501.678 86.33 503.242 85.9998 504.75L84.2098 512.75C83.9156 514.063 83.3657 515.306 82.5913 516.406C81.817 517.507 80.8335 518.444 79.6969 519.165C77.4015 520.62 74.6219 521.104 71.9698 520.51C69.3176 519.916 67.0101 518.293 65.5548 515.997C64.0995 513.702 63.6157 510.922 64.2098 508.27L65.9998 500.53L83.8998 496.09Z" fill="#FF847B"/>
<path d="M70.6599 531.94L76.7899 512.71C76.997 512.231 77.0084 511.689 76.8215 511.201C76.6346 510.714 76.2644 510.318 75.7899 510.1L68.9999 507.92C68.4857 507.813 67.95 507.912 67.5084 508.197C67.0669 508.481 66.7549 508.928 66.6399 509.44L59.8399 530.75C59.7409 531.141 59.7409 531.55 59.8399 531.94H70.6599Z" fill="#FF847B"/>
<path d="M74.9999 513.71C74.9099 514.43 74.8199 515.14 76.2799 515.71C76.2799 515.71 78.7099 516.71 78.8799 515L74.9999 513.71Z" fill="white"/>
<path d="M76.5095 503L74.0795 502.47C73.9085 502.431 73.7291 502.463 73.581 502.556C73.4328 502.65 73.328 502.799 73.2895 502.97C73.2511 503.141 73.2822 503.32 73.3759 503.469C73.4697 503.617 73.6185 503.722 73.7895 503.76L76.2195 504.3C76.3835 504.318 76.5485 504.275 76.6827 504.179C76.8169 504.083 76.911 503.941 76.9469 503.78C76.9828 503.619 76.9581 503.45 76.8774 503.306C76.7967 503.162 76.6657 503.053 76.5095 503V503Z" fill="#000543"/>
<path d="M85.3997 504.91L83.5097 504.5C83.3579 504.504 83.2119 504.56 83.0951 504.657C82.9783 504.754 82.8973 504.887 82.8651 505.035C82.8329 505.184 82.8513 505.339 82.9174 505.476C82.9834 505.612 83.0934 505.723 83.2297 505.79L85.1197 506.21C85.3897 506.27 85.6797 506.02 85.7597 505.67C85.8113 505.521 85.8025 505.359 85.7351 505.216C85.6678 505.074 85.5473 504.964 85.3997 504.91V504.91Z" fill="#000543"/>
<path d="M80.6599 510.79V510.56C80.5975 510.79 80.4699 510.998 80.2925 511.157C80.1152 511.317 79.8955 511.422 79.6599 511.46L78.4999 511.58C78.3132 511.593 78.1279 511.54 77.9763 511.43C77.8246 511.321 77.7162 511.161 77.6699 510.98V511.1C77.6017 511.246 77.5697 511.406 77.5766 511.567C77.5835 511.728 77.6292 511.884 77.7097 512.024C77.7902 512.163 77.9032 512.281 78.039 512.368C78.1748 512.454 78.3295 512.506 78.4899 512.52L79.6599 512.4C79.9968 512.304 80.2859 512.086 80.4707 511.788C80.6556 511.491 80.723 511.135 80.6599 510.79V510.79Z" fill="#FA694F"/>
<path d="M75.4995 505.86C75.3595 506.48 74.9295 506.91 74.4995 506.86C74.0695 506.81 73.8795 506.2 74.0095 505.58C74.1395 504.96 74.5795 504.53 75.0095 504.58C75.4395 504.63 75.6295 505.24 75.4995 505.86Z" fill="#000543"/>
<path d="M75.0195 504.58L76.2495 504.85L75.3195 505.45L75.0195 504.58Z" fill="#000543"/>
<path d="M84.2295 507.77C84.0895 508.39 83.6595 508.82 83.2295 508.77C82.7995 508.72 82.6095 508.11 82.7495 507.49C82.8895 506.87 83.3195 506.44 83.7495 506.49C84.1795 506.54 84.3595 507.15 84.2295 507.77Z" fill="#000543"/>
<path d="M83.75 506.49L84.98 506.76L84.05 507.36L83.75 506.49Z" fill="#000543"/>
<path d="M65.6599 505.39C64.0699 505.39 62.7499 506.92 62.7299 508.86C62.651 509.705 62.9061 510.548 63.4406 511.208C63.9751 511.868 64.7465 512.292 65.5899 512.39C67.1799 512.39 68.4999 510.85 68.5199 508.92C68.5987 508.075 68.3436 507.232 67.8091 506.572C67.2746 505.913 66.5032 505.488 65.6599 505.39V505.39Z" fill="#FF847B"/>
<path d="M58.3398 501.75C60.3398 499.87 62.8398 498.48 64.5498 496.31C66.2598 494.14 67.1598 491.36 69.5498 490.31C71.0931 489.765 72.7766 489.765 74.3198 490.31C76.1897 490.88 78.012 491.595 79.7698 492.45L83.6398 494.22C83.7968 494.275 83.9377 494.367 84.0498 494.49C84.1502 494.645 84.2056 494.825 84.2098 495.01C84.3098 495.71 84.8998 497.5 84.5798 498.14C84.2598 498.78 83.2498 498.67 82.5798 498.57C80.2325 498.159 77.8222 498.292 75.534 498.958C73.2459 499.623 71.1406 500.804 69.3798 502.41C67.7998 503.96 66.6998 505.95 65.0798 507.46C63.8174 508.431 62.4363 509.238 60.9698 509.86C60.7198 506.93 60.6098 503.64 58.3398 501.75Z" fill="#000543"/>
<path d="M73.9397 533.19C73.9397 536.19 70.4697 538.54 66.1897 538.54C61.9097 538.54 58.4497 536.15 58.4497 533.19C58.4497 530.23 61.9197 527.84 66.1897 527.84C70.4597 527.84 73.9397 530.23 73.9397 533.19Z" fill="#FF847B"/>
<path d="M87.4298 544.39H116.96C117.37 544.348 117.758 544.181 118.069 543.911C118.381 543.64 118.601 543.28 118.7 542.88L123.76 523.24C123.97 522.41 123.54 521.73 122.76 521.73L93.2298 521.78C92.8212 521.824 92.436 521.992 92.1265 522.262C91.8169 522.532 91.5981 522.891 91.4998 523.29L86.4398 542.93C86.2598 543.71 86.6898 544.39 87.4298 544.39Z" fill="#010080"/>
<path d="M87.2497 539C86.8097 539.88 86.3697 540.76 85.9197 541.64C81.7697 549.88 77.4797 558.4 72.9197 565.64L71.9997 567.06C71.9196 567.188 71.807 567.292 71.6733 567.362C71.5397 567.432 71.3899 567.465 71.2392 567.458C71.0886 567.451 70.9425 567.404 70.8161 567.321C70.6896 567.239 70.5873 567.125 70.5197 566.99C69.5197 565.08 67.8597 561.72 67.5197 561.08L57.4097 567.48C65.7297 581.77 69.2597 588.63 73.8597 581.68C82.7897 568.18 86.3897 555.23 90.4197 543.74C90.7897 542.74 91.1397 541.6 91.4897 540.62C90.7108 540.645 89.9347 540.515 89.2068 540.236C88.4788 539.958 87.8135 539.538 87.2497 539V539Z" fill="#FF847B"/>
<path d="M43 546.57L53.41 567.36C53.6247 567.788 53.925 568.168 54.2924 568.475C54.6597 568.783 55.0863 569.012 55.5456 569.148C56.005 569.283 56.4873 569.324 56.9628 569.266C57.4383 569.208 57.8968 569.053 58.31 568.81L68.43 562.89C69.203 562.439 69.775 561.71 70.0295 560.851C70.284 559.993 70.2019 559.07 69.8 558.27C66.73 552.19 60.74 539.85 60.74 539.85L43 546.57Z" fill="#00E9B1"/>
<path d="M56.24 569.88C55.8642 569.881 55.4902 569.827 55.13 569.72C54.6189 569.57 54.1449 569.314 53.7385 568.97C53.332 568.625 53.0021 568.199 52.77 567.72L42.63 547.5C42.5981 547.455 42.5763 547.405 42.5659 547.351C42.5556 547.297 42.557 547.242 42.57 547.189C42.583 547.135 42.6074 547.086 42.6414 547.043C42.6754 547 42.7183 546.965 42.7671 546.94C42.8159 546.915 42.8695 546.901 42.9242 546.899C42.9789 546.897 43.0334 546.907 43.084 546.928C43.1346 546.949 43.1801 546.98 43.2174 547.02C43.2547 547.06 43.2828 547.108 43.3 547.16L53.44 567.4C53.6307 567.783 53.898 568.122 54.2253 568.397C54.5526 568.672 54.933 568.877 55.3427 568.999C55.7525 569.121 56.183 569.157 56.6074 569.106C57.0318 569.054 57.4411 568.916 57.81 568.7L67.93 562.78C68.6196 562.375 69.1294 561.723 69.356 560.956C69.5825 560.189 69.5089 559.365 69.15 558.65C67.36 555.1 63.45 547.89 60.49 542.47C60.4428 542.381 60.4321 542.277 60.4601 542.18C60.4881 542.083 60.5526 542 60.64 541.95C60.7277 541.903 60.8302 541.893 60.9256 541.921C61.0209 541.949 61.1015 542.013 61.15 542.1C64.15 547.53 68.02 554.75 69.82 558.31C70.2664 559.195 70.3587 560.218 70.0782 561.169C69.7977 562.12 69.1654 562.928 68.31 563.43L58.19 569.35C57.598 569.695 56.9253 569.878 56.24 569.88V569.88Z" fill="#7C4EFF"/>
<path d="M87.7895 533.07C87.892 533.069 87.9937 533.087 88.0888 533.125C88.1839 533.163 88.2707 533.22 88.344 533.291C88.4174 533.363 88.4759 533.448 88.5163 533.542C88.5568 533.636 88.5782 533.737 88.5795 533.84V537.71C88.5795 537.917 88.4974 538.115 88.3511 538.261C88.2048 538.408 88.0064 538.49 87.7995 538.49C87.5927 538.49 87.3943 538.408 87.248 538.261C87.1017 538.115 87.0195 537.917 87.0195 537.71V533.83C87.0247 533.628 87.1078 533.436 87.2514 533.295C87.3949 533.153 87.5878 533.072 87.7895 533.07V533.07Z" fill="#FF847B"/>
<path d="M94.5096 539.39C94.7897 538.83 94.9108 538.204 94.8596 537.58C94.7748 537.195 94.5721 536.845 94.2796 536.58C93.6193 535.861 92.8499 535.25 91.9996 534.77C91.5694 534.482 91.0658 534.324 90.5484 534.313C90.0309 534.302 89.5212 534.44 89.0796 534.71C88.0972 535.385 87.4131 536.413 87.1696 537.58C86.6896 539.65 86.5396 540.39 87.1696 542.03C87.9396 544.03 89.4796 544.79 91.6596 542.71C92.7096 541.63 93.9996 540.74 94.5096 539.39Z" fill="#FF847B"/>
<path d="M89.9195 535.74L94.2095 531.74C94.3501 531.607 94.4322 531.424 94.4379 531.231C94.4435 531.038 94.3722 530.851 94.2395 530.71C94.1069 530.57 93.9239 530.487 93.7308 530.482C93.5376 530.476 93.3501 530.547 93.2095 530.68L88.9195 534.68C88.779 534.813 88.6969 534.996 88.6912 535.189C88.6856 535.382 88.7569 535.57 88.8895 535.71C89.0222 535.851 89.2052 535.933 89.3983 535.938C89.5915 535.944 89.779 535.873 89.9195 535.74V535.74Z" fill="#FF847B"/>
<path d="M91.6798 536.77L95.9698 532.77C96.0949 532.634 96.1643 532.455 96.1643 532.27C96.1643 532.085 96.0949 531.907 95.9698 531.77C95.8356 531.641 95.6564 531.568 95.4698 531.568C95.2833 531.568 95.104 531.641 94.9698 531.77L90.6798 535.77C90.5547 535.907 90.4854 536.085 90.4854 536.27C90.4854 536.455 90.5547 536.634 90.6798 536.77C90.814 536.9 90.9933 536.972 91.1798 536.972C91.3664 536.972 91.5456 536.9 91.6798 536.77Z" fill="#FF847B"/>
<path d="M92.5697 538.92L96.8497 534.92C96.9193 534.854 96.9753 534.776 97.0145 534.688C97.0536 534.601 97.0752 534.507 97.078 534.411C97.0808 534.316 97.0647 534.22 97.0307 534.131C96.9967 534.041 96.9454 533.96 96.8797 533.89C96.814 533.82 96.7353 533.764 96.648 533.725C96.5607 533.686 96.4666 533.664 96.3709 533.662C96.2753 533.659 96.18 533.675 96.0906 533.709C96.0012 533.743 95.9193 533.794 95.8497 533.86L91.5597 537.86C91.4346 537.996 91.3652 538.175 91.3652 538.36C91.3652 538.545 91.4346 538.724 91.5597 538.86C91.6863 539.001 91.8633 539.086 92.0524 539.097C92.2414 539.109 92.4273 539.045 92.5697 538.92V538.92Z" fill="#FF847B"/>
<path d="M92.6398 541.16L96.9298 537.16C97.0549 537.023 97.1243 536.845 97.1243 536.66C97.1243 536.475 97.0549 536.296 96.9298 536.16C96.7956 536.03 96.6163 535.958 96.4298 535.958C96.2433 535.958 96.064 536.03 95.9298 536.16L91.6398 540.16C91.5147 540.296 91.4453 540.475 91.4453 540.66C91.4453 540.845 91.5147 541.023 91.6398 541.16C91.774 541.289 91.9533 541.362 92.1398 541.362C92.3263 541.362 92.5056 541.289 92.6398 541.16V541.16Z" fill="#FF847B"/>
<path d="M600.17 441.1C566.42 458.37 530.1 473.79 505.44 502.65C493.8 516.27 485.26 532.38 473.16 545.59C422.27 601.1 324.49 589.78 273.41 645.12H892.07C890.77 613.82 864.07 585.54 833.16 581.25C813.08 578.46 793.01 584.82 772.87 587.15C752.73 589.48 729.51 586.31 717.49 569.94C708.21 557.28 708.18 540.11 710.49 524.57C712.8 509.03 717.21 493.47 715.31 477.87C714.68 472.71 713.31 467.44 709.94 463.47C703.14 455.37 694.32 453.29 689.81 442.74C683.81 428.63 701.45 406.21 712.35 395.43C723.25 384.65 718.35 384.08 718.2 368.72C707.2 366.79 689.84 362.48 681.28 369.34C673.44 375.61 667.98 391.67 660.28 399.66C643.39 417.32 621.79 430 600.17 441.1Z" fill="white"/>
<path d="M909.85 78.7499L860.87 49.7799L865.27 42.4299L914.24 71.3999L909.85 78.7499Z" fill="#D7E1FC"/>
<path d="M799.99 291.66L728.43 249.32L733.52 240.81L805.09 283.14L799.99 291.66Z" fill="#00E9B1"/>
<path d="M773.63 319.3L716.05 285.24L721.15 276.73L778.72 310.78L773.63 319.3Z" fill="#00E9B1"/>
<path d="M765.09 302.65L764.86 302.87L783.72 314C790.28 307.5 796.94 300.68 803.62 293.48L785.01 282.48C778.61 289.42 771.97 296.143 765.09 302.65Z" fill="#010080"/>
<path d="M890.7 67.4199C877.679 144.64 843.298 216.672 791.45 275.36L810.12 286.36C858.57 232.55 905.81 161.36 915 81.7499L890.7 67.4199Z" fill="#010080"/>
<path d="M718.27 391L738.71 356.83C740.206 354.315 741.193 351.53 741.612 348.633C742.032 345.737 741.876 342.786 741.155 339.949C740.433 337.113 739.16 334.447 737.407 332.103C735.654 329.759 733.456 327.784 730.94 326.29C725.837 323.284 719.757 322.407 714.013 323.85C708.27 325.293 703.325 328.939 700.25 334L679.81 368.18L718.27 391Z" fill="#3E388E"/>
<path d="M744.87 349.77C749.65 345.68 754.66 341.28 759.81 336.63L750.23 330.95C749.729 330.672 749.207 330.431 748.67 330.23L757.23 315.92L772.44 324.92C773.99 323.45 775.53 322.01 777.1 320.5L758 309.22C746.742 319.112 734.886 328.303 722.5 336.74L744.87 349.77Z" fill="#010080"/>
<path d="M779.11 328.86L772.44 324.91C768.15 328.97 763.93 332.91 759.81 336.63C762.526 338.255 764.486 340.892 765.258 343.962C766.031 347.032 765.553 350.283 763.93 353C763.93 353 750.61 378 744.75 389C744.035 390.339 743.865 391.903 744.277 393.365C744.689 394.826 745.65 396.071 746.96 396.84L747.78 397.33C748.455 397.73 749.261 397.85 750.024 397.663C750.787 397.476 751.446 396.998 751.86 396.33L783 344.21C783.757 342.948 784.257 341.549 784.472 340.092C784.686 338.636 784.61 337.152 784.249 335.725C783.887 334.299 783.247 332.958 782.365 331.779C781.483 330.601 780.377 329.609 779.11 328.86V328.86Z" fill="#00E9B1"/>
<path d="M748.67 330.23C749.207 330.431 749.728 330.672 750.23 330.95L759.76 336.59C763.93 332.91 768.15 328.97 772.44 324.91L757.23 315.91L748.67 330.23Z" fill="#010080"/>
<path d="M703.2 284.19C700.633 282.672 697.57 282.231 694.679 282.963C691.788 283.696 689.304 285.542 687.77 288.1L656.62 340.18C656.226 340.854 656.109 341.655 656.296 342.413C656.483 343.171 656.958 343.826 657.62 344.24L658.45 344.73C659.765 345.499 661.324 345.739 662.81 345.401C664.295 345.063 665.597 344.172 666.45 342.91C673.39 332.54 689.13 308.91 689.13 308.91C690.773 306.19 693.422 304.226 696.502 303.443C699.583 302.661 702.848 303.123 705.59 304.73L707.88 306.09C709.16 300.37 710.493 294.763 711.88 289.27L703.2 284.19Z" fill="#00E9B1"/>
<path d="M715.91 273.91L764.91 302.91L765.14 302.69C772.02 296.19 778.66 289.477 785.06 282.55L724.21 246.55C721.29 255.337 718.523 264.457 715.91 273.91Z" fill="#010080"/>
<path d="M855.48 46.5901C815.25 77.5901 762.65 134.98 727.24 237.38L791.45 275.38C843.302 216.687 877.683 144.647 890.7 67.4201L855.48 46.5901Z" fill="#010080"/>
<path d="M711.88 289.32L725.08 297.13L711.88 289.32C710.5 294.82 709.166 300.427 707.88 306.14C706.45 312.56 705.07 319.14 703.77 325.8L722.53 336.74C734.905 328.302 746.751 319.111 758 309.22L713.469 282.87C712.999 285 712.42 287.17 711.88 289.32Z" fill="#010080"/>
<path d="M741.72 306.63C740.478 305.899 738.998 305.687 737.601 306.041C736.204 306.395 735.004 307.286 734.26 308.52L701.4 363.45C701.034 364.062 700.793 364.741 700.69 365.446C700.588 366.152 700.625 366.871 700.801 367.562C700.976 368.253 701.286 368.903 701.714 369.474C702.141 370.045 702.676 370.526 703.29 370.89C704.535 371.618 706.016 371.827 707.414 371.471C708.812 371.116 710.014 370.225 710.76 368.99L743.61 314.06C743.975 313.448 744.216 312.771 744.319 312.066C744.421 311.361 744.384 310.643 744.208 309.952C744.032 309.262 743.722 308.613 743.295 308.043C742.868 307.473 742.333 306.993 741.72 306.63V306.63Z" fill="#00E9B1"/>
<path d="M887.49 59.09L918.09 76.72C926.79 38.78 924.88 0 924.88 0C924.88 0 887.57 16 858.58 41.52L887.49 59.09Z" fill="#00E9B1"/>
<path d="M865.5 124.81C865.753 128.124 865.018 131.439 863.387 134.336C861.757 137.232 859.304 139.58 856.34 141.083C853.375 142.586 850.031 143.176 846.731 142.78C843.431 142.383 840.323 141.016 837.799 138.853C835.275 136.69 833.449 133.827 832.552 130.626C831.655 127.426 831.727 124.031 832.759 120.872C833.791 117.712 835.736 114.929 838.349 112.875C840.963 110.82 844.126 109.587 847.44 109.33C851.886 108.996 856.283 110.438 859.668 113.339C863.053 116.241 865.15 120.365 865.5 124.81V124.81Z" fill="white"/>
<path d="M931.44 456C930.51 458 925.94 465.92 925.01 467.76L929.76 476.85C930.182 476.861 930.604 476.827 931.02 476.75C932.155 476.526 933.226 476.05 934.153 475.358C935.081 474.666 935.842 473.775 936.38 472.75C938.38 468.88 940.38 465.42 942.38 462.09L931.44 456Z" fill="#FF847B"/>
<path d="M931.84 472.15C933.92 472.98 936.34 470.5 936.36 470.44L925.36 467.3C925.36 467.3 922.69 467.98 920.36 468.54L918.8 480.07C924.53 479.07 930.1 477.61 933.95 474.99C934.88 474.38 930.77 471.73 931.84 472.15Z" fill="#FF847B"/>
<path d="M1014 635.45C1016.89 642.03 1014.8 647.7 1009.76 642.99C1008.11 641.44 1005.59 637.34 1003.48 633.93L1002.76 632.79L1011.17 629.31C1012.13 631.39 1013.09 633.45 1014 635.45Z" fill="#FF9985"/>
<path d="M953.55 635.32C954.4 642.46 950.76 647.27 947.31 641.32C946.17 639.32 944.95 634.7 943.93 630.82C943.81 630.37 943.69 629.95 943.57 629.52L952.63 628.65C953 630.89 953.29 633.15 953.55 635.32Z" fill="#FF9985"/>
<path d="M978.33 521.09L974.23 522.24L972.86 521.86L972.3 520.07L971.3 521.43C952.7 516.35 955.69 517.93 950.92 513.04C945.61 519.838 940.772 526.991 936.44 534.45C914.89 572.33 926 576 940.29 632.59C940.536 633.491 941.09 634.277 941.856 634.812C942.621 635.347 943.549 635.598 944.48 635.52L954.16 634.82C954.686 634.796 955.202 634.664 955.675 634.433C956.149 634.202 956.57 633.876 956.913 633.476C957.256 633.076 957.513 632.61 957.669 632.107C957.825 631.604 957.876 631.074 957.82 630.55C954.69 607.55 949.42 591.46 946.82 578.05C944.75 567.27 952.21 556.38 970.34 532.56L970.52 533.02C975.6 525.27 971.98 530.78 977.09 523.02C977.08 523 978.33 521.09 978.33 521.09Z" fill="#000543"/>
<path d="M982.32 575.19C982.468 568.724 983.384 562.299 985.05 556.05C987.7 545.26 991.74 534.44 994.35 525.81C994.43 525.482 994.476 525.147 994.49 524.81C994.49 524.37 994.58 523.55 994.67 523.15L995.67 519L991.46 519.66C987.9 520.22 984.29 520.88 980.85 521.5C969.4 523.58 971.04 523.63 965.55 521.65C947.36 578.2 959.27 588.54 977.97 609.53C986.97 619.7 992.36 625.88 1000.11 635.69C1000.87 636.655 1001.95 637.31 1003.16 637.532C1004.37 637.755 1005.62 637.53 1006.67 636.9L1014.23 632.36C1014.81 632.011 1015.31 631.55 1015.71 631.004C1016.11 630.459 1016.39 629.84 1016.55 629.183C1016.71 628.526 1016.73 627.845 1016.62 627.178C1016.52 626.512 1016.28 625.873 1015.92 625.3C998.85 597.72 982.32 583.64 982.32 575.19Z" fill="#000543"/>
<path d="M936 646.59H955.86L953.74 638.59C953.704 638.486 953.642 638.393 953.56 638.32L946.46 639.05L937.1 642.62C934.5 643.41 934.39 645.44 936 646.59Z" fill="#7C4EFF"/>
<path d="M1017.26 646.59L1015.26 639.09C1015.22 638.987 1015.16 638.894 1015.08 638.82L1007.98 639.55L998.62 643.11C996.35 643.82 995.95 645.42 996.93 646.59H1017.26Z" fill="#7C4EFF"/>
<path d="M938.54 462.37C940.434 458.29 942.061 454.091 943.41 449.8C943.629 449.244 943.733 448.649 943.714 448.052C943.694 447.455 943.553 446.868 943.298 446.328C943.043 445.787 942.68 445.305 942.231 444.911C941.782 444.516 941.257 444.218 940.689 444.034C940.12 443.851 939.52 443.786 938.925 443.843C938.33 443.901 937.754 444.079 937.231 444.369C936.708 444.658 936.25 445.051 935.885 445.524C935.52 445.998 935.256 446.541 935.11 447.12C934.04 450.49 931.86 454.26 930.41 457.49C931.375 458.801 932.59 459.907 933.986 460.745C935.381 461.583 936.929 462.135 938.54 462.37Z" fill="#3E388E"/>
<path d="M930.41 457.49C929.79 458.88 929.12 460.27 928.41 461.64L937.9 469.92C938.82 468.23 940.73 465.66 941.54 463.92C938.51 461.53 932.23 460.19 930.41 457.49Z" fill="#3E388E"/>
<path d="M969.87 440.44C978.35 445.35 980.13 450.04 981.54 455.88C995.07 512 1002.83 508.31 994.22 523.13C991.35 528.13 957.64 520.66 944.75 523.8C938.58 525.31 946.43 517.16 947.28 516.19C950.28 512.75 946.28 507.81 946.28 501.7C946.13 487.33 941.02 474.56 934.85 456.93C929.23 441 952.7 430.48 969.87 440.44Z" fill="#3E388E"/>
<path d="M970 450.16C968.851 450.323 967.768 450.793 966.863 451.52C965.959 452.246 965.267 453.203 964.86 454.29C963.86 456.95 962.86 459.75 961.86 462.71C961.15 464.71 960.43 466.81 959.7 468.84L971.17 473.78C971.32 473.46 971.46 473.13 971.61 472.78C972.61 470.54 973.61 468.35 974.61 466.1V450.6C973.141 450.037 971.548 449.885 970 450.16Z" fill="#3E388E"/>
<path d="M927.31 496.72C926.221 494.609 924.588 492.828 922.58 491.56C921.52 490.89 920.14 490.36 919.02 490.89C917.9 491.42 917.54 492.89 917.48 494.11C917.411 495.469 917.498 496.831 917.74 498.17C917.807 498.702 917.988 499.214 918.27 499.67C918.669 500.278 919.29 500.705 920 500.86C922.1 501.24 925.16 500.03 926.68 499.75C929.64 499.2 928.63 499.31 927.31 496.72Z" fill="#FF847B"/>
<path d="M920.24 492.53L912.54 494.02C912.319 494.006 912.108 493.92 911.942 493.773C911.776 493.627 911.662 493.43 911.62 493.213C911.578 492.996 911.609 492.77 911.708 492.573C911.808 492.375 911.97 492.216 912.17 492.12L919.87 490.63C920.091 490.644 920.301 490.73 920.467 490.876C920.634 491.022 920.747 491.219 920.789 491.437C920.832 491.654 920.801 491.879 920.701 492.077C920.602 492.275 920.439 492.434 920.24 492.53V492.53Z" fill="#FF847B"/>
<path d="M920 495.26L912.3 496.74C912.08 496.724 911.871 496.636 911.706 496.49C911.541 496.343 911.429 496.146 911.388 495.929C911.347 495.712 911.379 495.487 911.479 495.29C911.578 495.093 911.741 494.935 911.94 494.84L919.64 493.36C919.889 493.32 920.145 493.377 920.354 493.518C920.564 493.659 920.712 493.874 920.77 494.12C920.812 494.372 920.755 494.631 920.612 494.843C920.469 495.055 920.25 495.205 920 495.26Z" fill="#FF847B"/>
<path d="M921.58 497.92L913.88 499.4C913.659 499.384 913.45 499.296 913.285 499.15C913.121 499.003 913.009 498.806 912.968 498.589C912.927 498.372 912.958 498.147 913.058 497.95C913.158 497.753 913.32 497.595 913.52 497.5L921.22 496.01C921.47 495.971 921.727 496.029 921.937 496.172C922.147 496.315 922.294 496.532 922.35 496.78C922.391 497.032 922.335 497.291 922.192 497.503C922.048 497.715 921.829 497.865 921.58 497.92Z" fill="#FF847B"/>
<path d="M923.93 499.76L916.23 501.25C916.009 501.234 915.8 501.146 915.636 501C915.471 500.853 915.359 500.656 915.318 500.439C915.277 500.222 915.309 499.997 915.408 499.8C915.508 499.603 915.67 499.445 915.87 499.35L923.57 497.86C923.708 497.794 923.859 497.761 924.012 497.763C924.165 497.764 924.316 497.801 924.452 497.87C924.589 497.94 924.708 498.039 924.8 498.162C924.892 498.284 924.954 498.426 924.983 498.576C925.011 498.727 925.005 498.882 924.964 499.029C924.923 499.177 924.849 499.313 924.747 499.427C924.646 499.542 924.519 499.631 924.377 499.689C924.235 499.746 924.082 499.771 923.93 499.76V499.76Z" fill="#FF847B"/>
<path d="M927.8 495C927.715 495.124 927.606 495.229 927.48 495.311C927.354 495.393 927.213 495.448 927.065 495.475C926.917 495.502 926.766 495.5 926.619 495.468C926.472 495.436 926.333 495.376 926.21 495.29L918 489.65C917.748 489.478 917.575 489.212 917.518 488.912C917.462 488.612 917.527 488.302 917.7 488.05C917.872 487.798 918.137 487.625 918.438 487.569C918.738 487.512 919.048 487.578 919.3 487.75L927.48 493.38C927.609 493.464 927.72 493.573 927.806 493.7C927.893 493.828 927.953 493.971 927.982 494.122C928.012 494.273 928.012 494.429 927.98 494.58C927.949 494.73 927.887 494.873 927.8 495V495Z" fill="#FF847B"/>
<path d="M959.4 469.57C958.67 471.62 954.93 480 954.2 481.93L959.85 490.48C960.269 490.45 960.685 490.376 961.09 490.26C962.198 489.919 963.216 489.335 964.069 488.549C964.922 487.763 965.589 486.797 966.02 485.72C967.62 481.67 969.27 478.03 970.87 474.51L959.4 469.57Z" fill="#FF847B"/>
<path d="M946.56 484.34C939.44 487.41 932.083 489.895 924.56 491.77C920.83 492.6 922.27 493.77 922.62 495.43C923.12 497.87 926.29 499.93 930.54 498.99L934.02 498.25C942.82 496.39 956.84 494.1 963.83 488.25C964.66 487.55 960.3 485.33 961.41 485.64C963.57 486.25 965.72 483.53 965.73 483.47L954.48 481.47C954.48 481.47 946.51 484.3 946.56 484.34Z" fill="#FF847B"/>
<path d="M961 418.7C960.388 417.906 960.038 416.942 960 415.94C960.136 415.354 960.306 414.776 960.51 414.21C960.82 412.77 959.97 411.35 959.06 410.21C959.06 410.21 957.36 401.35 948.16 400.21C947.93 400.21 947.72 400.21 947.49 400.16C947.333 400.035 947.153 399.943 946.96 399.89C946.41 399.76 945.96 400.06 945.46 400.14H945.11C945.026 400.149 944.943 400.149 944.86 400.14C944.31 399.96 943.86 399.39 943.32 399.14C942.02 398.53 941.23 400.03 939.95 399.97C939.09 399.97 938.13 399.18 937.29 399.23C936.45 399.28 936.05 400.23 935.9 401.06C935.75 401.89 935.67 402.9 935.01 403.36C934.554 403.565 934.087 403.742 933.61 403.89C932.53 404.43 932.32 405.89 932.31 407.24C932.312 408.995 932.476 410.746 932.8 412.47C932.827 413.062 933.082 413.62 933.51 414.03C933.345 414.03 933.187 414.095 933.071 414.212C932.955 414.328 932.89 414.486 932.89 414.65C932.89 414.815 932.955 414.972 933.071 415.088C933.187 415.205 933.345 415.27 933.51 415.27H935.84C936.004 415.27 936.162 415.205 936.278 415.088C936.394 414.972 936.46 414.815 936.46 414.65C936.46 414.486 936.394 414.328 936.278 414.212C936.162 414.095 936.004 414.03 935.84 414.03H933.69C933.756 412.414 934.198 410.836 934.98 409.42C936.13 408.88 938.41 408.23 942.16 408.93C947.91 410.02 945.99 416.72 952.33 417.8L955.41 417.72C955.882 418.037 956.267 418.468 956.529 418.973C956.791 419.478 956.922 420.041 956.91 420.61C956.988 421.402 956.748 422.192 956.244 422.807C955.739 423.422 955.011 423.812 954.22 423.89H954.17C954.102 424.57 953.961 425.241 953.75 425.89L954.98 429.64C955.4 429.07 955.4 428.17 955.98 427.73C956.56 427.29 957.1 427.45 957.61 427.17C958.84 426.5 958.32 424.51 959.16 423.39C959.73 422.63 960.83 422.39 961.32 421.58C961.523 421.114 961.601 420.603 961.545 420.097C961.489 419.592 961.301 419.11 961 418.7V418.7Z" fill="#000543"/>
<path d="M954.16 423.83H954.21C955.002 423.752 955.73 423.362 956.234 422.747C956.739 422.132 956.978 421.342 956.9 420.55C956.913 419.981 956.782 419.418 956.52 418.913C956.257 418.408 955.872 417.977 955.4 417.66L952.32 417.74C945.98 416.66 947.9 409.96 942.15 408.87C938.4 408.17 936.15 408.82 934.97 409.36C934.188 410.776 933.746 412.354 933.68 413.97H935.83C935.994 413.97 936.152 414.035 936.268 414.152C936.385 414.268 936.45 414.426 936.45 414.59C936.45 414.754 936.385 414.912 936.268 415.028C936.152 415.145 935.994 415.21 935.83 415.21H933.65V423.06C933.65 428.89 937.38 433.23 943.02 433.21C943.25 433.21 943.48 433.21 943.71 433.21L947.63 445.21C947.789 445.712 948.139 446.132 948.606 446.377C949.072 446.622 949.616 446.674 950.12 446.52L957.58 444.06C958.081 443.887 958.493 443.523 958.725 443.047C958.958 442.57 958.992 442.021 958.82 441.52L955 429.58L953.77 425.83C953.971 425.179 954.102 424.509 954.16 423.83V423.83ZM945 415.22H942.68C942.515 415.22 942.358 415.155 942.241 415.038C942.125 414.922 942.06 414.764 942.06 414.6C942.06 414.436 942.125 414.278 942.241 414.162C942.358 414.045 942.515 413.98 942.68 413.98H945C945.164 413.98 945.322 414.045 945.438 414.162C945.555 414.278 945.62 414.436 945.62 414.6C945.62 414.764 945.555 414.922 945.438 415.038C945.322 415.155 945.164 415.22 945 415.22ZM945.24 417.01C945.24 417.62 944.92 418.11 944.53 418.11C944.14 418.11 943.81 417.62 943.81 417.01C943.81 416.4 944.13 415.91 944.53 415.91C944.93 415.91 945.23 416.4 945.23 417L945.24 417.01ZM935.81 417.94C935.41 417.94 935.09 417.45 935.09 416.84C935.09 416.23 935.41 415.74 935.81 415.74C936.21 415.74 936.52 416.24 936.52 416.84C936.52 417.44 936.19 417.94 935.8 417.94H935.81ZM937.98 420.36L938.07 420.15C938.105 420.384 938.207 420.602 938.363 420.779C938.519 420.957 938.723 421.085 938.95 421.15L940.15 421.48C940.335 421.529 940.532 421.518 940.711 421.45C940.89 421.382 941.044 421.26 941.15 421.1V421.22C941.175 421.38 941.16 421.544 941.107 421.698C941.055 421.851 940.965 421.989 940.847 422.101C940.729 422.212 940.586 422.293 940.429 422.336C940.273 422.38 940.108 422.384 939.95 422.35L938.74 422.01C938.58 421.955 938.432 421.867 938.307 421.753C938.182 421.639 938.082 421.5 938.013 421.345C937.943 421.191 937.906 421.023 937.904 420.854C937.902 420.684 937.935 420.516 938 420.36H937.98ZM940.17 426.36C939.71 426.452 939.232 426.368 938.831 426.126C938.429 425.883 938.133 425.5 938 425.05L942.25 424.63C942.17 425.3 941.78 426.12 940.16 426.36H940.17Z" fill="#FF847B"/>
<path d="M942.24 424.63L937.99 425.05C938.123 425.5 938.419 425.883 938.821 426.126C939.222 426.368 939.7 426.452 940.16 426.36C941.78 426.12 942.17 425.3 942.24 424.63Z" fill="white"/>
<path d="M945.61 414.6C945.604 414.441 945.538 414.29 945.425 414.178C945.311 414.066 945.159 414.002 945 414H942.68C942.515 414 942.357 414.065 942.241 414.182C942.125 414.298 942.06 414.456 942.06 414.62C942.06 414.784 942.125 414.942 942.241 415.058C942.357 415.175 942.515 415.24 942.68 415.24H945C945.082 415.239 945.163 415.221 945.238 415.188C945.314 415.155 945.382 415.107 945.439 415.048C945.495 414.988 945.54 414.918 945.569 414.841C945.598 414.764 945.612 414.682 945.61 414.6V414.6Z" fill="#000543"/>
<path d="M935.8 415.74C935.4 415.74 935.08 416.24 935.08 416.84C935.08 417.44 935.4 417.94 935.8 417.94C936.2 417.94 936.51 417.45 936.51 416.84C936.51 416.23 936.19 415.74 935.8 415.74Z" fill="#000543"/>
<path d="M944.52 415.91C944.12 415.91 943.8 416.4 943.8 417.01C943.8 417.62 944.12 418.11 944.52 418.11C944.92 418.11 945.23 417.62 945.23 417.01C945.23 416.4 944.91 415.91 944.52 415.91Z" fill="#000543"/>
<path d="M938.78 422.05L939.99 422.39C940.149 422.424 940.313 422.42 940.469 422.376C940.626 422.333 940.769 422.252 940.887 422.141C941.005 422.029 941.095 421.891 941.147 421.738C941.2 421.584 941.215 421.42 941.19 421.26V421.14C941.084 421.3 940.93 421.422 940.751 421.49C940.572 421.558 940.376 421.569 940.19 421.52L938.99 421.19C938.763 421.125 938.559 420.997 938.403 420.819C938.247 420.642 938.145 420.424 938.11 420.19L938.02 420.4C937.955 420.558 937.924 420.727 937.927 420.897C937.931 421.068 937.969 421.236 938.04 421.391C938.112 421.545 938.214 421.684 938.342 421.797C938.469 421.911 938.618 421.997 938.78 422.05V422.05Z" fill="#FA4F43"/>
<path d="M960.42 444.32C960.42 446.98 956.61 449.14 951.9 449.14C947.19 449.14 943.39 446.98 943.39 444.32C943.39 441.66 947.2 439.5 951.9 439.5C956.6 439.5 960.42 441.66 960.42 444.32Z" fill="#FF847B"/>
<path d="M216.75 393.85C215.58 392.01 212.62 392.28 210.36 391.92C209.59 391.82 208.828 391.666 208.08 391.46C207.69 391.28 206.73 390.82 206.53 390.71C204.22 389.45 203.98 389.71 202.09 389.86C201.58 389.91 201.24 389.6 200.62 389.71C194.45 390.82 184.29 395.19 190.38 412.39C190.24 412.95 190.15 414.15 189.74 414.48C188.925 414.358 188.122 414.167 187.34 413.91C184.372 413.082 181.246 413 178.24 413.67C176.745 414.011 175.333 414.648 174.088 415.543C172.843 416.438 171.79 417.572 170.99 418.88C169.91 420.78 169.43 423.09 167.85 424.57C165.62 426.64 162.17 426.3 159.16 426.76C155.57 427.333 152.313 429.197 150 432C145.85 437.09 145.52 444.71 148.12 450.85C150.72 456.99 155.87 461.8 161.58 465.19C164.27 466.78 167.92 467.12 171.02 467.1C175.11 467.1 178.02 465.7 181.37 463.36C184.95 460.84 188.63 458.13 190.62 454.2C193.07 449.36 192.53 443.51 191.47 438.13C190.926 435.979 190.648 433.769 190.64 431.55C190.637 430.45 190.874 429.363 191.333 428.363C191.793 427.363 192.464 426.475 193.3 425.76C194.95 424.54 197.3 424.18 199.47 423.6C199.761 423.65 200.058 423.65 200.35 423.6C202.482 423.197 204.49 422.296 206.21 420.973C207.93 419.649 209.314 417.938 210.25 415.98C210.849 414.765 211.559 413.606 212.37 412.52C213.24 411.3 215.06 408.67 215.3 406.27C215.45 404.69 217.15 402.41 217.58 400.87C218.198 398.509 217.901 396.002 216.75 393.85V393.85Z" fill="#000543"/>
<path d="M195.43 623.24C194.937 625.24 194.44 627.167 193.94 629.02C189.53 645.33 197.44 643.63 199.28 636.46C200.2 632.873 201.103 629.27 201.99 625.65C201.528 625.994 201.04 626.301 200.53 626.57C198.44 627.14 196.41 625.76 195.43 623.24Z" fill="#FF9985"/>
<path d="M205.44 639.27L193.87 635.21C193.3 635.01 192.61 635.21 192.49 635.67L190.68 642.49C190.58 642.88 191.03 643.25 191.62 643.25H204C207.27 643.25 208.33 640.29 205.44 639.27Z" fill="#D7E1FC"/>
<path d="M188.36 517.65L188.75 520.54C191.81 543.22 193.16 563.64 192.75 581.23C192.17 607.23 189.84 619.85 188.6 627.86C188.522 628.268 188.533 628.688 188.632 629.092C188.731 629.495 188.916 629.872 189.174 630.198C189.432 630.524 189.758 630.79 190.128 630.978C190.498 631.166 190.905 631.273 191.32 631.29L202.83 631.16C203.41 631.136 203.963 630.906 204.39 630.513C204.816 630.119 205.089 629.586 205.16 629.01C207.35 614.8 209.28 600.61 211.16 581.56C213.16 561.26 213.22 543 213.26 528.33C213.26 525.44 213.26 522.72 213.26 520.2V517.65H188.36Z" fill="#000543"/>
<path d="M160.82 623.1C160.153 625.1 159.463 627.027 158.75 628.88C152.68 645.19 160.75 643.49 163.33 636.32C164.62 632.73 165.88 629.12 167.14 625.51C166.644 625.85 166.126 626.158 165.59 626.43C163.44 627 161.55 625.62 160.82 623.1Z" fill="#FF9985"/>
<path d="M169.66 639.13L158.09 635.07C157.52 634.87 156.83 635.07 156.71 635.53L154.9 642.35C154.79 642.74 155.24 643.11 155.84 643.11H168.23C171.49 643.11 172.55 640.14 169.66 639.13Z" fill="#D7E1FC"/>
<path d="M174.6 567.56C173.76 570.81 171.93 573.69 170.76 576.83C169.21 581.02 168.87 585.56 167.76 589.9C165 600.9 157.4 610.74 157.45 622.08L176.92 577.28C179.56 571.19 182.26 564.59 180.84 558.11C179.78 553.29 176.52 549.11 175.84 544.22C175.36 540.59 176.35 536.78 175.21 533.3C175.085 532.792 174.801 532.336 174.4 532C173.955 531.773 173.439 531.726 172.96 531.869C172.482 532.013 172.077 532.335 171.83 532.77C169.06 537.12 171.42 545.15 172.58 549.64C174.14 555.44 176.17 561.55 174.6 567.56Z" fill="#000543"/>
<path d="M190.36 520.86L189.83 518.95L170.54 517.33L170.3 517.45C169.88 517.45 168.97 517.45 168.46 517.45C167.768 517.416 167.074 517.453 166.39 517.56L164.11 518.09L166.05 524.16C178.75 563.89 178.75 563.89 169.5 587.22C162.12 605.82 159.25 611.91 155.38 625.86C155.249 626.355 155.221 626.871 155.299 627.377C155.377 627.883 155.559 628.367 155.834 628.799C156.108 629.231 156.469 629.601 156.893 629.887C157.317 630.173 157.796 630.368 158.3 630.46L167.44 631.46C168.443 631.578 169.457 631.362 170.325 630.845C171.193 630.327 171.866 629.539 172.24 628.6C185.89 596.6 193.87 586.97 194.99 572.18C196.39 554.934 194.824 537.577 190.36 520.86V520.86Z" fill="#000543"/>
<path d="M167.59 632.26H167.3C167.217 632.251 167.136 632.226 167.063 632.186C166.99 632.146 166.925 632.092 166.873 632.027C166.821 631.962 166.783 631.887 166.76 631.807C166.737 631.727 166.73 631.643 166.74 631.56C166.746 631.476 166.769 631.394 166.808 631.32C166.847 631.245 166.901 631.179 166.967 631.127C167.033 631.074 167.109 631.036 167.19 631.014C167.271 630.992 167.356 630.987 167.44 631C168.306 631.094 169.179 630.902 169.926 630.455C170.673 630.007 171.254 629.328 171.58 628.52C176.41 617.2 180.58 608.62 183.9 601.73C189.9 589.26 193.56 581.73 194.28 572.3C195.247 561.52 195.103 550.67 193.85 539.92C193.835 539.783 193.864 539.644 193.932 539.524C194 539.404 194.104 539.308 194.23 539.25L198.23 537.51C198.306 537.475 198.388 537.457 198.471 537.455C198.554 537.453 198.637 537.468 198.715 537.498C198.792 537.529 198.863 537.575 198.922 537.634C198.981 537.693 199.028 537.763 199.06 537.84C199.094 537.917 199.113 537.999 199.115 538.083C199.117 538.168 199.103 538.251 199.072 538.33C199.041 538.408 198.995 538.479 198.936 538.539C198.877 538.6 198.807 538.647 198.73 538.68L195.14 540.24C196.34 550.92 196.464 561.695 195.51 572.4C194.77 582.08 191.1 589.68 185 602.28C181.67 609.17 177.53 617.73 172.71 629.02C172.298 630.025 171.584 630.876 170.667 631.457C169.749 632.037 168.674 632.318 167.59 632.26V632.26Z" fill="#7C4EFF"/>
<path d="M214.22 560.62C213.5 566.08 212.6 571.62 212.01 577.06C211.67 580.25 211.15 583.33 210.93 586.53C210.23 596.46 208.14 606.24 206.06 615.98C207.76 597.08 212.54 578.78 210.35 559.98C209.84 554.225 209.649 548.446 209.78 542.67C209.78 536.67 212.21 522.12 213.87 516.4C216.45 527.37 215.72 549.37 214.22 560.62Z" fill="#000543"/>
<path d="M219.89 469C219.75 469.097 219.59 469.16 219.421 469.183C219.253 469.205 219.081 469.188 218.921 469.131C218.76 469.074 218.616 468.98 218.499 468.857C218.383 468.733 218.297 468.583 218.25 468.42C216.54 463.98 215.01 461.52 214.45 456.83C209.77 458.83 206.9 459.52 202.51 459.16L212.14 479.5C212.308 480.052 212.611 480.553 213.022 480.958C213.432 481.363 213.937 481.659 214.491 481.82C215.045 481.981 215.631 482.001 216.194 481.879C216.758 481.757 217.282 481.496 217.72 481.12C227.26 474.78 232.83 468.37 238.5 461.64L239.5 453.91C233.228 459.275 226.682 464.311 219.89 469V469Z" fill="#FF847B"/>
<path d="M208.4 437.8L216.31 456.91C216.636 457.682 216.765 458.524 216.684 459.358C216.604 460.193 216.317 460.994 215.85 461.69C214.33 463.93 211.11 466.77 204.52 467.17C204.52 467.17 197.21 447.1 208.4 437.8Z" fill="#D7E1FC"/>
<path d="M193.49 457.55C192.49 453.55 191.66 449.42 191.01 445.75C189.18 435.52 176.01 435.96 172.36 443.24L180.85 462.63C185.28 463.32 189.59 460.82 193.49 457.55Z" fill="#267067"/>
<path d="M211 484.74C209.61 467.95 212.48 457.25 211.8 448.51C211.795 448.175 211.765 447.841 211.71 447.51C211.636 447.035 211.536 446.564 211.41 446.1C211.405 446.08 211.405 446.06 211.41 446.04C211.06 444.79 210.69 443.33 210.24 441.88C209.243 438.585 207.345 435.634 204.76 433.36C195.52 425.25 186.62 428.69 180.49 432.59L178.36 434C168.42 440.66 172.12 455.9 172.12 455.9C173.35 463.32 175.71 466.9 175.94 475.17C176.35 490.79 165.88 495.12 165.25 512.25L164.87 512.76C164.051 513.893 163.668 515.283 163.791 516.675C163.914 518.067 164.535 519.369 165.54 520.34C171.54 525.91 177.73 528.8 185.06 526.54C195.91 523.19 203.32 525.61 211.06 521.91C211.993 521.455 212.784 520.753 213.346 519.881C213.909 519.008 214.221 517.998 214.25 516.96C214.76 500 212.7 505.49 211 484.74Z" fill="#7C4EFF"/>
<path d="M195.52 429.25C192.931 429.004 190.345 429.755 188.29 431.35C186.84 432.41 186.87 434.43 188.36 435.77C190.667 437.843 192.943 439.947 195.19 442.08C196.5 443.32 198.66 443.17 199.35 441.79C200.632 439.44 201.757 437.008 202.72 434.51C203.89 431.65 198.57 429.59 195.52 429.25Z" fill="#FF847B"/>
<path d="M198.7 388.79C206.89 389.12 214.1 395.88 214.81 403.9C215.52 411.92 209.45 418.15 201.26 417.83C193.07 417.51 185.86 410.74 185.15 402.72C184.44 394.7 190.51 388.47 198.7 388.79Z" fill="#000543"/>
<path d="M208.05 404.15L196.71 403.36C196.588 403.351 196.468 403.318 196.359 403.263C196.249 403.208 196.152 403.132 196.072 403.039C195.992 402.946 195.931 402.838 195.893 402.722C195.855 402.605 195.84 402.482 195.85 402.36L196.27 396.3C196.286 396.056 196.351 395.817 196.461 395.598C196.571 395.378 196.724 395.184 196.91 395.024C197.096 394.865 197.313 394.744 197.546 394.67C197.78 394.595 198.026 394.568 198.27 394.59L208.7 395.32C209.279 395.36 209.845 395.514 210.364 395.772C210.884 396.031 211.348 396.39 211.729 396.827C212.11 397.265 212.401 397.774 212.586 398.324C212.771 398.875 212.845 399.456 212.805 400.035C212.765 400.614 212.611 401.18 212.353 401.7C212.094 402.219 211.735 402.683 211.298 403.064C210.86 403.445 210.351 403.737 209.801 403.921C209.25 404.106 208.669 404.18 208.09 404.14L208.05 404.15Z" fill="#FFA27F"/>
<path d="M190.67 415.08C191.051 416.611 191.731 418.052 192.67 419.32C192.67 419.32 192.67 419.37 192.67 419.32C194.285 417.867 195.274 415.846 195.43 413.68C195.031 413.235 194.735 412.708 194.562 412.136C194.389 411.564 194.344 410.961 194.43 410.37C194.57 408.44 195.57 406.95 196.67 407.04C196.75 407.04 196.82 407.11 196.9 407.14L190 400C188.87 403.32 188.79 408.13 190.67 415.08Z" fill="#000543"/>
<path d="M211.2 396.25C212.357 397.3 213.261 398.599 213.845 400.048C214.429 401.498 214.677 403.061 214.57 404.62L213.95 412.94C213.744 415.681 212.458 418.228 210.375 420.021C208.291 421.814 205.581 422.706 202.84 422.5C200.099 422.294 197.552 421.008 195.759 418.925C193.966 416.841 193.074 414.131 193.28 411.39L193.88 403.34L211.2 396.25Z" fill="#FF847B"/>
<path d="M192.2 435.79L198.2 436.24C198.658 436.207 199.085 435.998 199.393 435.657C199.7 435.316 199.864 434.869 199.85 434.41L201.34 414.35C201.424 413.899 201.33 413.433 201.079 413.049C200.827 412.665 200.437 412.393 199.99 412.29L193.99 411.84C193.17 411.78 192.43 412.6 192.35 413.67L190.85 433.73C190.766 434.181 190.859 434.647 191.111 435.031C191.363 435.415 191.753 435.687 192.2 435.79V435.79Z" fill="#FF847B"/>
<path d="M204.89 403L202.37 402.83C202.282 402.823 202.194 402.834 202.111 402.862C202.028 402.889 201.951 402.933 201.884 402.991C201.818 403.049 201.764 403.119 201.726 403.198C201.687 403.277 201.665 403.362 201.66 403.45C201.653 403.538 201.664 403.627 201.691 403.711C201.719 403.794 201.762 403.872 201.82 403.939C201.878 404.006 201.948 404.061 202.027 404.1C202.106 404.14 202.192 404.164 202.28 404.17L204.79 404.34C204.878 404.347 204.966 404.336 205.05 404.309C205.134 404.281 205.212 404.237 205.279 404.18C205.346 404.122 205.4 404.052 205.44 403.973C205.48 403.894 205.503 403.808 205.51 403.72C205.518 403.544 205.459 403.37 205.343 403.236C205.228 403.102 205.066 403.018 204.89 403V403Z" fill="#000543"/>
<path d="M214.08 403.66L212.08 403.52C211.79 403.52 211.54 403.79 211.51 404.16C211.485 404.314 211.52 404.472 211.607 404.602C211.694 404.732 211.827 404.824 211.98 404.86L213.98 405C214.26 405 214.51 404.73 214.54 404.37C214.567 404.215 214.535 404.056 214.449 403.924C214.364 403.793 214.232 403.698 214.08 403.66V403.66Z" fill="#000543"/>
<path d="M210.09 411.46L210.03 411.23C209.995 411.472 209.894 411.7 209.736 411.887C209.579 412.074 209.372 412.214 209.14 412.29L207.99 412.57C207.805 412.608 207.612 412.581 207.444 412.494C207.277 412.407 207.144 412.264 207.07 412.09V412.22C206.88 412.98 207.44 413.69 208.07 413.52L209.22 413.23C209.569 413.109 209.856 412.856 210.019 412.524C210.182 412.193 210.208 411.81 210.09 411.46Z" fill="#FA4F43"/>
<path d="M204.21 407.27C204.16 407.91 203.79 408.41 203.37 408.38C202.95 408.35 202.66 407.81 202.7 407.17C202.74 406.53 203.12 406.03 203.54 406.06C203.96 406.09 204.25 406.63 204.21 407.27Z" fill="#000543"/>
<path d="M203.54 406.06L204.81 406.15L203.97 406.89L203.54 406.06Z" fill="#000543"/>
<path d="M213.23 407.91C213.23 408.55 212.81 409.04 212.4 409.01C211.99 408.98 211.69 408.44 211.73 407.8C211.77 407.16 212.15 406.67 212.56 406.7C212.97 406.73 213.28 407.27 213.23 407.91Z" fill="#000543"/>
<path d="M212.56 406.7L213.84 406.79L213 407.52L212.56 406.7Z" fill="#000543"/>
<path d="M193.8 407.06C192.18 406.94 190.8 408.42 190.61 410.37C190.42 412.32 191.61 414 193.27 414.12C194.93 414.24 196.27 412.76 196.45 410.81C196.63 408.86 195.41 407.18 193.8 407.06Z" fill="#FF847B"/>
<path d="M191.85 399.32C193.18 396.99 193.73 393.98 195.99 392.56C197.454 391.78 199.142 391.529 200.77 391.85C202.723 392.146 204.649 392.597 206.53 393.2L210.67 394.4C210.836 394.428 210.991 394.501 211.12 394.61C211.243 394.748 211.327 394.918 211.36 395.1C211.56 395.79 212.36 397.49 212.18 398.18C212 398.87 210.92 398.91 210.26 398.91C207.848 398.847 205.453 399.336 203.259 400.34C201.065 401.343 199.129 402.835 197.6 404.7C196.25 406.48 195.44 408.64 194.04 410.39C193.131 411.521 191.997 412.451 190.71 413.12L190.54 413.19L187.54 404.39C189.161 402.867 190.607 401.166 191.85 399.32Z" fill="#000543"/>
<path d="M204.69 415.07L208.45 416.32C208.127 416.512 207.766 416.633 207.393 416.673C207.019 416.713 206.641 416.673 206.284 416.554C205.928 416.436 205.601 416.242 205.326 415.986C205.05 415.73 204.834 415.417 204.69 415.07Z" fill="white"/>
<path d="M212.48 434.32L211.48 437.16C208.2 446.05 204.82 455.23 200.97 463.1L200.21 464.66C200.145 464.801 200.043 464.923 199.915 465.011C199.787 465.1 199.637 465.153 199.482 465.164C199.327 465.175 199.171 465.145 199.032 465.075C198.893 465.006 198.774 464.901 198.69 464.77C197.49 462.93 195.37 459.7 194.91 459.1L185.35 466.81C195.48 480.4 199.89 486.97 203.76 479.35C211.3 464.55 213.46 450.93 216.23 438.74C216.48 437.63 216.71 436.48 216.95 435.43C216.168 435.552 215.37 435.517 214.603 435.326C213.835 435.135 213.113 434.793 212.48 434.32V434.32Z" fill="#FF847B"/>
<path d="M212.16 433C211.76 434.27 211.03 436.84 211.33 438.14C211.63 439.44 211.49 439.25 212.72 439.76C213.429 440.052 214.212 440.118 214.96 439.948C215.709 439.778 216.386 439.38 216.9 438.81C218.37 437.48 220.9 432.55 220.9 430.57C220.9 428.33 221.19 426.69 218.49 427.11C213.4 427.85 212.8 430.88 212.16 433Z" fill="#FF847B"/>
<path d="M173.22 454.74L181.31 467.13C181.577 467.542 181.927 467.895 182.336 468.166C182.745 468.438 183.206 468.623 183.69 468.709C184.174 468.795 184.67 468.781 185.148 468.668C185.626 468.554 186.076 468.344 186.47 468.05L196.1 460.83C196.83 460.286 197.328 459.486 197.494 458.591C197.661 457.696 197.484 456.771 197 456C193.17 450.17 185.63 438.29 185.63 438.29L176.3 443C175.282 443.524 174.386 444.257 173.67 445.15C172.954 446.043 172.434 447.076 172.143 448.184C171.853 449.291 171.798 450.447 171.984 451.576C172.169 452.706 172.59 453.784 173.22 454.74V454.74Z" fill="#D7E1FC"/>
<path d="M197.7 460.36C197.914 460.024 198.033 459.637 198.046 459.239C198.058 458.842 197.963 458.448 197.77 458.1L187.77 440.29C187.719 440.202 187.637 440.138 187.54 440.11C187.443 440.082 187.339 440.093 187.25 440.14C187.166 440.194 187.105 440.277 187.079 440.373C187.053 440.469 187.064 440.571 187.11 440.66L197.11 458.47C197.285 458.782 197.336 459.147 197.255 459.495C197.174 459.843 196.965 460.148 196.67 460.35L193.58 462.46C193.498 462.518 193.442 462.606 193.423 462.705C193.405 462.804 193.425 462.906 193.48 462.99C193.508 463.031 193.544 463.067 193.586 463.094C193.628 463.122 193.675 463.141 193.724 463.15C193.773 463.159 193.824 463.159 193.873 463.149C193.922 463.138 193.968 463.118 194.01 463.09L197.1 461C197.346 460.835 197.551 460.616 197.7 460.36V460.36Z" fill="#ABB9D8"/>
<path d="M763.48 632.4L756.12 630.4C756.01 630.77 755.91 631.13 755.81 631.49C755.53 632.524 755.326 633.576 755.2 634.64L762.12 636.53C762.58 635.18 763 633.79 763.48 632.4Z" fill="#FF8698"/>
<path d="M755.2 634.68C754.83 637.89 755.5 640.11 757.12 640.6C758.74 641.09 761.04 639.87 761.86 637.39C761.95 637.11 762.04 636.84 762.12 636.57L755.2 634.68Z" fill="#FF8698"/>
<path d="M782.8 518.68C782.8 518.46 782.8 518.24 782.8 517.88L782.71 515.29L754.56 514.21H751.3L751.46 517.21C751.46 517.43 751.52 517.77 751.54 517.98C755.11 542.38 758.32 590.1 750.42 626.53C750.334 627.085 750.364 627.653 750.508 628.196C750.652 628.739 750.906 629.247 751.256 629.687C751.605 630.128 752.041 630.491 752.538 630.755C753.034 631.019 753.579 631.177 754.14 631.22L763.49 632.49C764.544 632.678 765.63 632.463 766.533 631.887C767.435 631.311 768.087 630.416 768.36 629.38C777.46 585.33 782.06 543.4 782.8 518.68Z" fill="#2C65B7"/>
<path d="M781.21 632.4L773.85 630.4C773.74 630.77 773.64 631.13 773.54 631.49C773.26 632.524 773.056 633.576 772.93 634.64L779.86 636.53L781.21 632.4Z" fill="#FF8698"/>
<path d="M772.93 634.68C772.57 637.89 773.23 640.11 774.85 640.6C776.47 641.09 778.77 639.87 779.59 637.39L779.86 636.57L772.93 634.68Z" fill="#FF8698"/>
<path d="M800.53 518.68C800.543 518.413 800.543 518.146 800.53 517.88L800.43 515.29L772.28 514.21H769.02L769.19 517.21L769.26 517.98C772.83 542.38 776.04 590.1 768.14 626.53C768.056 627.085 768.087 627.652 768.231 628.195C768.376 628.737 768.63 629.244 768.979 629.684C769.328 630.124 769.764 630.488 770.26 630.752C770.755 631.016 771.3 631.175 771.86 631.22L781.21 632.49C782.264 632.678 783.35 632.463 784.253 631.887C785.155 631.311 785.808 630.416 786.08 629.38C795.2 585.33 799.79 543.4 800.53 518.68Z" fill="#3795E2"/>
<path d="M789.48 640.4L774.48 635.27C773.74 635.02 772.83 635.27 772.68 635.82L770.23 644.13C770.09 644.62 770.67 645.07 771.44 645.13L787.6 645.3C791.81 645.3 793.24 641.68 789.48 640.4Z" fill="#3E388E"/>
<path d="M771.82 640.26L756.82 635.13C756.08 634.88 755.18 635.13 755.02 635.67L752.539 644C752.399 644.49 752.98 644.94 753.75 644.95L769.909 645.12C774.149 645.15 775.58 641.54 771.82 640.26Z" fill="#3E388E"/>
<path d="M768.74 542.24C769.34 547.85 770.95 553.38 770.74 559.02C770.59 564.14 768.97 569.11 768.58 574.21C768.21 578.98 768.92 583.76 769.41 588.52C770.756 601.499 770.537 614.593 768.76 627.52C776.34 596 782.76 563.43 778.32 531.31C778.097 528.765 777.444 526.277 776.39 523.95C774.39 520.07 767.23 516.18 767.09 522.52C767 528.69 768.07 536.07 768.74 542.24Z" fill="#3795E2"/>
<path d="M751.8 557.8C752.32 562.06 753.13 566.3 753.15 570.59C753.15 575.19 752.32 579.74 752.02 584.32C751.68 589.32 752.02 594.39 752.12 599.43C752.299 608.898 751.63 618.362 750.12 627.71C754.58 612.99 759.06 598.16 760.57 582.85C762.15 566.77 760.41 550.57 758.67 534.51L757.56 524.29C757.535 522.986 757.148 521.715 756.44 520.62C756.048 520.132 755.494 519.802 754.878 519.69C754.263 519.578 753.628 519.692 753.09 520.01C752.94 519.49 752.46 518.77 752.38 518.3C751.34 531.35 750.22 544.72 751.8 557.8Z" fill="#2C65B7"/>
<path d="M792.54 432.53L795.39 435.04C794.05 441.17 789.16 458.26 784.97 467.16C783.14 471.05 780.81 473.16 778.12 472.8C777.279 472.102 776.62 471.209 776.2 470.2C776.11 469.98 773.2 468.77 773.14 468.52C773.14 468.52 788.69 439.16 792.54 432.53Z" fill="#FF847B"/>
<path d="M792 431.67C792.157 430.789 792.498 429.951 793 429.21C793.061 429.144 793.14 429.098 793.228 429.078C793.316 429.057 793.407 429.064 793.491 429.096C793.575 429.128 793.648 429.185 793.699 429.259C793.75 429.333 793.779 429.42 793.78 429.51C793.78 430.01 793.64 431.26 794.1 431.51C794.33 431.64 794.54 431.39 794.64 431.17C795.09 430.17 795.52 429.17 795.92 428.1C796.18 427.43 796.36 427.28 797.15 427.24C797.711 427.108 798.302 427.193 798.803 427.479C799.304 427.764 799.678 428.23 799.85 428.78C800.541 430.187 800.818 431.762 800.65 433.32C800.13 435.5 796.34 437.8 794.11 437.75C792.96 437.75 791.23 436.87 791.56 435.46C792.09 432.93 791.67 433.32 792 431.67Z" fill="#FF847B"/>
<path d="M769.07 423.71C769.202 423.689 769.332 423.659 769.46 423.62C771.537 423.264 773.464 422.307 775.004 420.868C776.543 419.428 777.626 417.569 778.12 415.52L778.29 415.28C777.585 414.533 777.128 413.586 776.98 412.57C776.68 410.57 777.6 409.01 779.05 409.05C779.621 409.088 780.164 409.317 780.59 409.7C780.939 409.999 781.237 410.354 781.47 410.75C781.76 410.7 781.82 409.75 781.83 409.55C781.83 408.97 781.73 408.37 781.73 407.79C781.836 406.805 782.135 405.85 782.61 404.98L783.83 414.1C783.972 415.564 783.752 417.041 783.191 418.401C782.629 419.761 781.743 420.962 780.61 421.9C779.59 422.766 778.407 423.419 777.13 423.82C776.535 425.027 776.05 426.286 775.68 427.58C775.238 429.22 774.458 430.749 773.39 432.07C772.96 432.58 771.71 432.68 771 432.69C768.25 432.69 764.78 433.02 762.76 430.92C762.32 430.46 763.59 428.06 764.14 426.92C764.69 425.78 765.4 424.92 765.99 423.72C766.159 423.341 766.3 422.95 766.41 422.55C766.881 422.916 767.375 423.25 767.89 423.55C768.26 423.714 768.669 423.769 769.07 423.71Z" fill="#FF847B"/>
<path d="M751.13 440.26C751.13 440.26 762.07 418.48 792.13 436.72C793.56 437.678 794.852 438.829 795.97 440.14C797.62 442.14 796.42 444.61 797.03 447.4C797.76 450.73 797.98 461.81 797.74 465.16C797 475.54 799 483.7 800 493.07C800.51 498.01 804 508.98 804.9 514.16C804.9 515.86 804.28 520.16 803.33 521.16C802.62 521.95 795.33 527.22 785.49 528.16C776.1 529.03 774.29 522.48 756.88 523.23C755.763 523.234 754.68 522.853 753.811 522.152C752.942 521.451 752.342 520.472 752.11 519.38C747.65 498.24 750.48 485.55 749.62 454.38C749.28 452.79 748.44 445 751.13 440.26Z" fill="#D7E1FC"/>
<path d="M753.94 407.73C753.33 405.14 756.44 403.55 756.62 400.98C756.7 399.78 756.14 398.37 756.76 397.41C757.76 395.93 760.599 396.9 761.359 395.29C761.639 394.68 761.499 393.89 761.729 393.29C761.868 392.917 762.14 392.608 762.492 392.423C762.845 392.239 763.254 392.191 763.64 392.29C764.19 392.44 764.73 392.85 765.27 392.77C765.97 392.66 766.27 391.77 766.19 391.04C766.036 390.304 766.005 389.547 766.099 388.8C766.303 388.293 766.693 387.882 767.189 387.651C767.685 387.421 768.25 387.388 768.77 387.56C771.54 388.23 772.77 390.42 776.28 391.82C778.21 392.6 781.35 394.15 782.39 395.82C783.535 397.915 783.934 400.338 783.52 402.69C783.2 404.16 781.719 406.26 781.729 407.8C781.729 408.39 782.049 410.67 781.469 410.8C779.559 407.71 776.469 409.14 776.979 412.62C777.127 413.637 777.585 414.583 778.289 415.33L778.12 415.57C777.61 417.678 776.48 419.586 774.876 421.046C773.271 422.505 771.266 423.451 769.12 423.76C768.719 423.819 768.31 423.764 767.94 423.6C766.1 422.79 767.359 422.38 763.419 421.9C762.361 421.866 761.356 421.421 760.62 420.66C759.87 419.72 759.999 418.55 760.049 417.38C757.359 415.69 758.45 415.1 757.81 413.07C757.17 411.04 754.43 409.84 753.94 407.73Z" fill="#FBE4DA"/>
<path d="M794.47 436.74H821.64C822.32 436.74 823.04 435.95 823.24 434.99L827.92 412.23C828.12 411.23 827.72 410.49 827.04 410.49H799.87C799.18 410.49 798.46 411.27 798.26 412.23L793.58 435C793.38 436 793.78 436.74 794.47 436.74Z" fill="#625899"/>
<path d="M824.08 466.21C821.73 457.97 818.43 447.3 817.18 439.21L820.79 439.65C823.56 445.76 830.44 463.5 832.79 473.73C833.79 478.2 833.41 481.42 831.24 482.73C830.163 482.638 829.128 482.266 828.24 481.65C824.8 479.33 819.35 475.44 810.32 468.9C809.19 468.08 808.06 467.26 806.94 466.43L812.78 454.8C816.55 458.62 820.47 462.54 824.08 466.21Z" fill="#FF847B"/>
<path d="M793.12 437.94C805.34 448.94 813.36 451.34 816.75 457.05C818.75 460.38 814.89 468.45 811.39 471.05C810.937 471.341 810.405 471.484 809.868 471.459C809.33 471.434 808.813 471.242 808.39 470.91C807.19 470.06 805.45 468.82 804.39 468.1C803.95 467.79 803.5 467.47 803.06 467.18C796.68 462.91 790.39 458.42 783.9 454.35C783.65 454.19 783.4 454.02 783.17 453.85C774.64 447.48 782.32 433.97 792.31 437.63L793.12 437.94Z" fill="#D7E1FC"/>
<path d="M816.51 437.28C816.298 436.351 816.264 435.391 816.41 434.45C816.43 434.362 816.48 434.283 816.55 434.226C816.621 434.17 816.709 434.139 816.8 434.139C816.891 434.139 816.978 434.17 817.049 434.226C817.12 434.283 817.17 434.362 817.19 434.45C817.38 434.93 817.73 436.23 818.19 436.31C818.43 436.31 818.52 436.01 818.52 435.76C818.52 434.57 818.52 433.39 818.45 432.2C818.45 431.43 818.51 431.2 819.17 430.83C820.17 430.26 820.88 430.07 822.07 431.26C823.219 432.415 824.049 433.848 824.48 435.42C824.86 437.78 822.48 441.61 820.57 442.47C819.57 442.92 817.78 442.78 817.52 441.25C817.09 438.47 816.88 439 816.51 437.28Z" fill="#FF847B"/>
<path d="M319.34 288.61H319.33C309.985 288.61 302.41 296.185 302.41 305.53V346.09C302.41 355.435 309.985 363.01 319.33 363.01H319.34C328.684 363.01 336.26 355.435 336.26 346.09V305.53C336.26 296.185 328.684 288.61 319.34 288.61Z" fill="#00E9B1"/>
<path d="M369.21 288.61H369.2C359.855 288.61 352.28 296.185 352.28 305.53V346.09C352.28 355.435 359.855 363.01 369.2 363.01H369.21C378.554 363.01 386.13 355.435 386.13 346.09V305.53C386.13 296.185 378.554 288.61 369.21 288.61Z" fill="#00E9B1"/>
<path d="M419.08 288.61H419.07C409.725 288.61 402.15 296.185 402.15 305.53V346.09C402.15 355.435 409.725 363.01 419.07 363.01H419.08C428.425 363.01 436 355.435 436 346.09V305.53C436 296.185 428.425 288.61 419.08 288.61Z" fill="#00E9B1"/>
<path d="M518.82 288.61H518.81C509.465 288.61 501.89 296.185 501.89 305.53V346.09C501.89 355.435 509.465 363.01 518.81 363.01H518.82C528.164 363.01 535.74 355.435 535.74 346.09V305.53C535.74 296.185 528.164 288.61 518.82 288.61Z" fill="#B2C3EB"/>
<path d="M568.69 288.61H568.68C559.335 288.61 551.76 296.185 551.76 305.53V346.09C551.76 355.435 559.335 363.01 568.68 363.01H568.69C578.034 363.01 585.61 355.435 585.61 346.09V305.53C585.61 296.185 578.034 288.61 568.69 288.61Z" fill="#B2C3EB"/>
<path d="M468.95 288.61H468.94C459.595 288.61 452.02 296.185 452.02 305.53V346.09C452.02 355.435 459.595 363.01 468.94 363.01H468.95C478.294 363.01 485.87 355.435 485.87 346.09V305.53C485.87 296.185 478.294 288.61 468.95 288.61Z" fill="#B2C3EB"/>
</g>
<defs>
<clipPath id="clip0">
<rect width="991.26" height="651.88" fill="white" transform="translate(26)"/>
</clipPath>
</defs>
</svg>
