<svg xmlns="http://www.w3.org/2000/svg" viewBox="0 0 105.77 105.77"><defs><style>.cls-1{fill:#b2c3eb;}.cls-2{fill:#fbe4da;}.cls-3{fill:#010080;}.cls-4{fill:#b06649;}.cls-5{fill:#fff;}.cls-6{fill:#000543;}.cls-7{fill:#3d0c02;}</style></defs><g id="Layer_2" data-name="Layer 2"><g id="_ÎÓÈ_1" data-name="—ÎÓÈ_1"><path class="cls-1" d="M41.9,74.45c-.47,0-.94,0-1.41,0A6.64,6.64,0,0,1,35,70.05c-.44-1.26-.55-2.75-1.55-3.64-1.42-1.26-4.11-.79-4.86-2.54-.52-1.19.37-2.51.2-3.79-.22-1.62-1.93-2.52-3.09-3.68A6.59,6.59,0,0,1,24,50.11c.53-1.93,1.93-4.15.62-5.72-.46-.56-1.18-.85-1.64-1.41-1-1.18-.43-3,.57-4.11s2.36-1.84,3.27-3c1.06-1.38,1.37-3.2,2-4.84s1.84-3.29,3.58-3.4c1.35-.09,2.69.78,4,.52,3.45-.68,4.76-4.5,8.93-4.71a8.36,8.36,0,0,1,6.22,1.84c.07.06.12.14.19.2C57.33,24,62.88,24.4,67.26,26.65c.86-.18,1.46-.14,3.4-.32a9.18,9.18,0,0,1,7,2.46,17.51,17.51,0,0,1,1.42,1.68c.38.6.71,1.23,1.05,1.84.62.4,2.88,2.06,3.08,3.85.34,3-.42,4.48-.64,4.83a10.12,10.12,0,0,1-.19,2.94l-1.8,8a10.25,10.25,0,0,1-10,8l-2.46,7.71A23.14,23.14,0,0,1,71.39,70a18.11,18.11,0,0,1,5.34,8.3c.43,1.41.8,2.83,1.13,4a.13.13,0,0,1,0,.06,12.53,12.53,0,0,1,.3,1.38,5.29,5.29,0,0,1,.08,1c.33,4.29-.21,9.06-.66,14.83a52.88,52.88,0,1,0-34.92,5.13c-.82-4.36-2.23-7.61-3.09-12.77C39.58,92,37.07,81.64,41.9,74.45Z"/><path class="cls-2" d="M45.67,70.66l2-1.37a24.58,24.58,0,0,1,10-4l3.65-11.43a10,10,0,0,1-.73-2.26A29.39,29.39,0,0,1,56.31,49,15.86,15.86,0,0,1,53.68,46a6.26,6.26,0,0,1-.91-2.92s.9-1.45.18-.38a10.59,10.59,0,0,0,1.92-7.42A9.56,9.56,0,0,1,57.58,31c3.71-3.6,5.63-3,8-3.82a14.84,14.84,0,0,1,1.71-.48C62.88,24.4,57.33,24,51.7,25.46c-.07-.06-.12-.14-.19-.2a8.36,8.36,0,0,0-6.22-1.84c-4.17.21-5.48,4-8.93,4.71-1.32.26-2.66-.61-4-.52-1.74.11-3,1.76-3.58,3.4s-.93,3.46-2,4.84c-.91,1.18-2.27,1.92-3.27,3S22,41.8,22.94,43c.46.56,1.18.85,1.64,1.41,1.31,1.57-.09,3.79-.62,5.72a6.59,6.59,0,0,0,1.71,6.29c1.16,1.16,2.87,2.06,3.09,3.68.17,1.28-.72,2.6-.2,3.79.75,1.75,3.44,1.28,4.86,2.54,1,.89,1.11,2.38,1.55,3.64a6.64,6.64,0,0,0,5.52,4.37c.47,0,.94,0,1.41,0A13.58,13.58,0,0,1,45.67,70.66Z"/><path class="cls-3" d="M39.05,86.68a.38.38,0,0,1,.17-.51.37.37,0,0,1,.5.17l9.68,19.31h0l-10-19.9,2.6-1-2.23-5.09a9.37,9.37,0,0,1,5.23-4.51,3.85,3.85,0,0,0-.68-.39,5.58,5.58,0,0,0-2.47-.33C37.07,81.64,39.58,92,39.58,92c.86,5.16,2.27,8.41,3.09,12.77a53.79,53.79,0,0,0,5.85.8Z"/><path class="cls-3" d="M78.25,84.82a5.29,5.29,0,0,0-.08-1,12.53,12.53,0,0,0-.3-1.38.13.13,0,0,0,0-.06c-.33-1.22-.7-2.64-1.13-4A18.11,18.11,0,0,0,71.39,70a23.14,23.14,0,0,0-3.21-2.37l-.26.81a4.75,4.75,0,0,1,2.44,3.89c0,2.95-3.47,5.35-7.74,5.35s-7.57-2.28-7.73-5.14a17.15,17.15,0,0,0-2,2.72A8.33,8.33,0,0,1,57,79.12L57.2,79s6,12.34,9,18.42a4.11,4.11,0,0,1,.27.74,3.91,3.91,0,0,1-1.78,4.42l-4.53,2.65a52.46,52.46,0,0,0,17.38-5.61C78,93.88,78.58,89.11,78.25,84.82Z"/><path class="cls-3" d="M52.84,75.3a17.15,17.15,0,0,1,2-2.72c0-.07,0-.14,0-.21a4.39,4.39,0,0,1,1.62-3.26l1.2-3.77a24.58,24.58,0,0,0-10,4l-2,1.37a13.58,13.58,0,0,0-3.77,3.79,5.58,5.58,0,0,1,2.47.33,3.85,3.85,0,0,1,.68.39A10.58,10.58,0,0,1,52.84,75.3Z"/><path class="cls-3" d="M52.84,75.3c-1.1,1.65-2.22,3-4.36,2.49-1.39-.37-2.25-1.77-3.43-2.62a9.37,9.37,0,0,0-5.23,4.51l2.23,5.09L57,79.12A8.33,8.33,0,0,0,52.84,75.3Z"/><path class="cls-3" d="M52.84,75.3a10.58,10.58,0,0,0-7.79-.13c1.18.85,2,2.25,3.43,2.62C50.62,78.35,51.74,77,52.84,75.3Z"/><path class="cls-2" d="M71.35,29.65a43.13,43.13,0,0,1,4.85,2l3.88,1.77a1,1,0,0,1,.4.27,1.1,1.1,0,0,1,.17.51c.06.47.34,1.4.43,2.17A10.31,10.31,0,0,1,82.62,41c.22-.35,1-1.82.64-4.83-.2-1.79-2.46-3.45-3.08-3.85-.34-.61-.67-1.24-1.05-1.84a17.51,17.51,0,0,0-1.42-1.68,9.18,9.18,0,0,0-7-2.46c-1.94.18-2.54.14-3.4.32A15.47,15.47,0,0,1,71.35,29.65Z"/><path class="cls-2" d="M57.58,31a9.56,9.56,0,0,0-2.71,4.36A10.59,10.59,0,0,1,53,42.73c.72-1.07-.18.4-.18.38A6.26,6.26,0,0,0,53.68,46,15.86,15.86,0,0,0,56.31,49a29.39,29.39,0,0,0,4.3,2.69c0-.21-.07-.41-.09-.62a3.68,3.68,0,0,1-1.36-2.87c-.65.35-1.28.66-1.73.86-.29-2.91-.4-6.21-2.67-8.09,2-1.88,4.51-3.27,6.21-5.44s2.61-5,5-6a7.1,7.1,0,0,1,4.77,0c.2.05.39.12.59.18a15.47,15.47,0,0,0-4.09-3,14.84,14.84,0,0,0-1.71.48C63.21,27.91,61.29,27.35,57.58,31Z"/><path class="cls-4" d="M77.81,38.52a4.44,4.44,0,0,0-1.39.48l-.69.38a23.64,23.64,0,0,1-1.66,10.85.78.78,0,0,0,.79.53L76,50.64a1.27,1.27,0,0,0,1-.9l0,.23A1.39,1.39,0,0,1,76,51.58l-1.16.12a.9.9,0,0,1-.91-1.05c-.3.74-.63,1.48-1,2.21l-.15.49,2.51.85c-.17,1.7-2.61.7-2.61.7l-.35-.16L70.64,60a10.25,10.25,0,0,0,10-8l1.8-8A10.12,10.12,0,0,0,82.62,41l-.06.09C80.82,40.72,79.33,38.28,77.81,38.52ZM80.65,47c-.13.62-.57,1-1,1s-.61-.66-.48-1.28.57-1.05,1-1l1.24.27-.74.47A1.65,1.65,0,0,1,80.65,47Zm1.53-2.1a.59.59,0,0,1-.64.53L79.65,45a.69.69,0,0,1,.29-1.3l1.88.42A.6.6,0,0,1,82.18,44.85Z"/><path class="cls-4" d="M72.46,42l.47.1a.66.66,0,1,1-.28,1.29l-.83-.18c-.07.16-.14.31-.2.48s0,0,0,.06l1.07.24-.74.47a1.65,1.65,0,0,1,0,.54,1.25,1.25,0,0,1-.67.93,9.87,9.87,0,0,1-.53,2.84l1.45.47a2,2,0,0,1,1,2.61l-.31,1c.37-.73.7-1.47,1-2.21a1,1,0,0,1,.09-.37l.05-.12a.21.21,0,0,0,0,.07,23.64,23.64,0,0,0,1.66-10.85A9.24,9.24,0,0,0,72.46,42Z"/><path class="cls-4" d="M60.61,51.65a10,10,0,0,0,.73,2.26l.49-1.54Z"/><path class="cls-4" d="M81,37.29c-.36.72-1.33.54-2,.44a17,17,0,0,0-3.59-.17,15.68,15.68,0,0,1,.29,1.82l.69-.38a4.44,4.44,0,0,1,1.39-.48c1.52-.24,3,2.2,4.75,2.56l.06-.09a10.31,10.31,0,0,0-1.54-4.66A1.9,1.9,0,0,1,81,37.29Z"/><path class="cls-4" d="M63.13,44.83A3.31,3.31,0,0,1,64.81,47a1.59,1.59,0,0,1,.57.06l5.34,1.71A9.87,9.87,0,0,0,71.25,46a.52.52,0,0,1-.3,0c-.4-.09-.62-.66-.48-1.28s.57-1,1-1l.17,0s0,0,0-.06.13-.32.2-.48l-1.6-.35a.66.66,0,1,1,.28-1.29l2,.43a9.24,9.24,0,0,1,3.27-2.66,15.68,15.68,0,0,0-.29-1.82,15.17,15.17,0,0,0-9.61,4A34.09,34.09,0,0,0,63.13,44.83Z"/><path class="cls-4" d="M62.09,51.56H62A2.51,2.51,0,0,1,60.52,51c0,.21,0,.41.09.62l1.22.72Z"/><path class="cls-4" d="M69.62,59.9a3.55,3.55,0,0,1-1.07,2.73c-.78.55-1.91.45-2.62,1.09s-.71,1.56-1,2.41a18.44,18.44,0,0,1,3.22,1.54L70.64,60A8.72,8.72,0,0,1,69.62,59.9Z"/><path class="cls-4" d="M65,66.13c.26-.85.32-1.83,1-2.41s1.84-.54,2.62-1.09a3.55,3.55,0,0,0,1.07-2.73,10,10,0,0,1-1.2-.19,10.23,10.23,0,0,1-7.08-5.8L57.69,65.34A15.83,15.83,0,0,1,65,66.13Z"/><path class="cls-4" d="M64.9,66.32a4.29,4.29,0,0,1-.42.86,9.07,9.07,0,0,1,3.44,1.3l.26-.81A18.44,18.44,0,0,0,65,66.13Z"/><path class="cls-4" d="M64.48,67.18a4.29,4.29,0,0,0,.42-.86l.06-.19a15.83,15.83,0,0,0-7.27-.79l-1.2,3.77A9.25,9.25,0,0,1,62.62,67,11.28,11.28,0,0,1,64.48,67.18Z"/><path class="cls-4" d="M72,54.55q-.57,1-1.23,2c-.11.08-.63.87-.73,1a9,9,0,0,0-.4,2.4,8.72,8.72,0,0,0,1,.06l1.66-5.22C72.18,54.68,72.08,54.61,72,54.55Z"/><path class="cls-4" d="M72.75,53.35l.15-.49c-.07.16-.15.31-.23.46Z"/><path class="cls-4" d="M68.42,59.71a10,10,0,0,0,1.2.19,9,9,0,0,1,.4-2.4c.1-.13.62-.92.73-1q.66-1,1.23-2a1.48,1.48,0,0,1-.61-1.66l1.3.43c.08-.15.16-.3.23-.46l.31-1a2,2,0,0,0-1-2.61l-1.45-.47A3.31,3.31,0,0,1,70,50c-1.46,1.38-4,1.15-5.61,2.42a3.82,3.82,0,0,0-.91,1.1,15.18,15.18,0,0,0-1.6-1.13l-.49,1.54A10.23,10.23,0,0,0,68.42,59.71Z"/><path class="cls-4" d="M64.81,47a4.11,4.11,0,0,1,.13,1.06,3.26,3.26,0,0,1-2.85,3.46l-.26.81a15.18,15.18,0,0,1,1.6,1.13,3.82,3.82,0,0,1,.91-1.1c1.57-1.27,4.15-1,5.61-2.42a3.31,3.31,0,0,0,.77-1.17L65.38,47.1A1.59,1.59,0,0,0,64.81,47Z"/><path class="cls-5" d="M72.65,54.9s2.44,1,2.61-.7l-2.51-.85-.45,1.39Z"/><path class="cls-5" d="M72,54.55c.1.06.2.13.32.19l.45-1.39-.08,0C72.45,53.74,72.22,54.14,72,54.55Z"/><path class="cls-5" d="M71.37,52.89A1.48,1.48,0,0,0,72,54.55c.24-.41.47-.81.69-1.23Z"/><path class="cls-6" d="M73.44,42.93a.67.67,0,0,0-.51-.79l-.47-.1a5.76,5.76,0,0,0-.64,1.21l.83.18A.67.67,0,0,0,73.44,42.93Z"/><path class="cls-6" d="M70.5,41.61a.66.66,0,1,0-.28,1.29l1.6.35A5.76,5.76,0,0,1,72.46,42Z"/><path class="cls-6" d="M81.82,44.09l-1.88-.42a.69.69,0,0,0-.29,1.3l1.89.41a.59.59,0,0,0,.64-.53A.6.6,0,0,0,81.82,44.09Z"/><path class="cls-7" d="M74.81,51.7,76,51.58A1.39,1.39,0,0,0,77.08,50l0-.23a1.27,1.27,0,0,1-1,.9l-1.17.12a.78.78,0,0,1-.79-.53c0,.14-.11.28-.17.42A.9.9,0,0,0,74.81,51.7Z"/><path class="cls-7" d="M74,50.28a1,1,0,0,0-.09.37c.06-.14.12-.28.17-.42a.21.21,0,0,1,0-.07Z"/><path class="cls-6" d="M71.92,45a1.65,1.65,0,0,0,0-.54l-.19.12-.21-.57A11.12,11.12,0,0,0,71.25,46,1.25,1.25,0,0,0,71.92,45Z"/><path class="cls-6" d="M71.44,43.76c-.4-.09-.84.34-1,1s.08,1.19.48,1.28a.52.52,0,0,0,.3,0,11.12,11.12,0,0,1,.29-1.92Z"/><path class="cls-6" d="M71.94,44.5l.74-.47-1.07-.24s0,0,0,.05A.86.86,0,0,1,71.94,44.5Z"/><path class="cls-6" d="M71.61,43.79l-.17,0a.44.44,0,0,1,.15.08S71.6,43.81,71.61,43.79Z"/><path class="cls-6" d="M71.59,43.84c0,.07,0,.14,0,.21l.21.57.19-.12A.86.86,0,0,0,71.59,43.84Z"/><path class="cls-6" d="M71.59,43.84a.44.44,0,0,0-.15-.08l.1.29C71.56,44,71.57,43.91,71.59,43.84Z"/><path class="cls-6" d="M80.17,45.67c-.4-.09-.84.34-1,1s.08,1.19.48,1.28.84-.34,1-1a1.65,1.65,0,0,0,0-.54l-.19.13Z"/><path class="cls-6" d="M80.17,45.67a.77.77,0,0,1,.5.74l.74-.47Z"/><path class="cls-6" d="M80.17,45.67l.31.87.19-.13A.77.77,0,0,0,80.17,45.67Z"/><path class="cls-4" d="M60.66,47.49l.05-.24c-.46.31-1,.62-1.55.91A3.68,3.68,0,0,0,60.52,51,9.85,9.85,0,0,1,60.66,47.49Z"/><path class="cls-4" d="M62.09,51.56,63,48.62A2.15,2.15,0,0,1,64.81,47a3.31,3.31,0,0,0-1.68-2.21,15.89,15.89,0,0,1-1.59,1.79,7.4,7.4,0,0,1-.83.63l-.05.24A9.85,9.85,0,0,0,60.52,51a2.51,2.51,0,0,0,1.49.54Z"/><path class="cls-4" d="M64.94,48.1A4.11,4.11,0,0,0,64.81,47,2.15,2.15,0,0,0,63,48.62l-.94,2.94A3.26,3.26,0,0,0,64.94,48.1Z"/><path class="cls-2" d="M75.2,36.53l5.12-1.27a9.89,9.89,0,0,1,.76,1.07c-.09-.77-.37-1.7-.43-2.17a1.1,1.1,0,0,0-.17-.51,1,1,0,0,0-.4-.27L76.2,31.61a43.13,43.13,0,0,0-4.85-2c.3.31.58.62.85,1A15.71,15.71,0,0,1,75.2,36.53Z"/><path class="cls-2" d="M61.28,44.72l1.11-5L75.2,36.53a15.71,15.71,0,0,0-3-5.93c-.27-.33-.55-.64-.85-1-.2-.06-.39-.13-.59-.18a7.1,7.1,0,0,0-4.77,0c-2.41,1.07-3.38,3.93-5,6s-4.23,3.56-6.21,5.44C57,42.81,57.14,46.11,57.43,49c.45-.2,1.08-.51,1.73-.86a.56.56,0,0,1,0-.13A3.42,3.42,0,0,1,61.28,44.72Z"/><path class="cls-2" d="M75.2,36.53c.09.34.17.68.24,1a17,17,0,0,1,3.59.17c.65.1,1.62.28,2-.44a1.9,1.9,0,0,0,.07-1,9.89,9.89,0,0,0-.76-1.07Z"/><path class="cls-2" d="M62.39,39.71l-1.11,5a2.47,2.47,0,0,1,.81-.15,2.32,2.32,0,0,1,1,.26,34.09,34.09,0,0,1,2.7-3.26,15.17,15.17,0,0,1,9.61-4c-.07-.35-.15-.69-.24-1Z"/><path class="cls-2" d="M61.28,44.72A3.42,3.42,0,0,0,59.16,48a.56.56,0,0,0,0,.13c.54-.29,1.09-.6,1.55-.91Z"/><path class="cls-2" d="M61.28,44.72l-.57,2.53a7.4,7.4,0,0,0,.83-.63,15.89,15.89,0,0,0,1.59-1.79,2.32,2.32,0,0,0-1-.26A2.47,2.47,0,0,0,61.28,44.72Z"/><path class="cls-4" d="M57.1,71.11A7.89,7.89,0,0,0,55,72.45a.8.8,0,0,0-.13.13c.16,2.86,3.55,5.14,7.73,5.14s7.74-2.4,7.74-5.35a4.75,4.75,0,0,0-2.44-3.89l-.84,2.63Z"/><path class="cls-4" d="M57.1,71.11h-.93a2.51,2.51,0,0,1,.06-1.18l.26-.82a4.39,4.39,0,0,0-1.62,3.26c0,.07,0,.14,0,.21a.8.8,0,0,1,.13-.13A7.89,7.89,0,0,1,57.1,71.11Z"/><path class="cls-4" d="M57.1,71.11h10l.84-2.63a9.07,9.07,0,0,0-3.44-1.3C63.07,69.44,59.76,69.87,57.1,71.11Z"/><path class="cls-4" d="M56.17,71.11h.93c2.66-1.24,6-1.67,7.38-3.93A11.28,11.28,0,0,0,62.62,67a9.25,9.25,0,0,0-6.13,2.1l-.26.82A2.51,2.51,0,0,0,56.17,71.11Z"/><path class="cls-3" d="M66.24,97.49a3.79,3.79,0,0,1,.28.7,4.11,4.11,0,0,0-.27-.74c-3.07-6.08-9-18.42-9-18.42l-.23.09A10.19,10.19,0,0,1,58,82C60.88,87.34,64.53,94.09,66.24,97.49Z"/><path class="cls-3" d="M58.3,105.5,64.36,102a3.14,3.14,0,0,0,1.21-4.13c-1.5-3-4.48-8.52-7.15-13.43.56,3,1.22,6.12,2,9.24-3.8,3.18-8,5.62-12.31,4.94L42.05,84.77l-2.6,1,10,19.9c1.15.07,2.3.12,3.47.12A53.84,53.84,0,0,0,58.3,105.5Z"/><path class="cls-3" d="M60.41,93.64c-.77-3.12-1.43-6.28-2-9.24-.52-1-1-1.88-1.5-2.76a.37.37,0,1,1,.65-.36L58,82a10.19,10.19,0,0,0-1-2.88L42.05,84.77,48.1,98.58C52.41,99.26,56.61,96.82,60.41,93.64Z"/><path class="cls-3" d="M66.52,98.19a3.53,3.53,0,0,1-1.63,3.88l-5.66,3.31,1-.12,4.53-2.65A3.91,3.91,0,0,0,66.52,98.19Z"/><path class="cls-3" d="M39.72,86.34a.37.37,0,0,0-.5-.17.38.38,0,0,0-.17.51l9.47,18.9.88.07Z"/><path class="cls-3" d="M58,82l0,.13c.13.74.27,1.5.42,2.27,2.67,4.91,5.65,10.46,7.15,13.43A3.14,3.14,0,0,1,64.36,102L58.3,105.5c.31,0,.62-.08.93-.12l5.66-3.31a3.53,3.53,0,0,0,1.63-3.88,3.79,3.79,0,0,0-.28-.7C64.53,94.09,60.88,87.34,58,82Z"/><path class="cls-3" d="M58,82l-.4-.72a.37.37,0,1,0-.65.36c.47.88,1,1.81,1.5,2.76-.15-.77-.29-1.53-.42-2.27Z"/></g></g></svg>