<svg width="317" height="119" viewBox="0 0 317 119" fill="none" xmlns="http://www.w3.org/2000/svg">
<path d="M168.26 51.58V91.9C168.26 100.78 166.01 107.38 161.51 111.7C157.01 116.02 150.47 118.18 141.89 118.18C137.33 118.18 133.01 117.61 128.93 116.47C124.91 115.33 121.52 113.68 118.76 111.52L124.34 101.44C126.38 103.12 128.87 104.44 131.81 105.4C134.75 106.36 137.72 106.84 140.72 106.84C145.4 106.84 148.82 105.76 150.98 103.6C153.14 101.44 154.22 98.14 154.22 93.7V92.08C152.42 93.88 150.29 95.26 147.83 96.22C145.37 97.18 142.73 97.66 139.91 97.66C133.55 97.66 128.51 95.86 124.79 92.26C121.07 88.6 119.21 83.14 119.21 75.88V51.58H133.25V73.81C133.25 81.67 136.52 85.6 143.06 85.6C146.42 85.6 149.12 84.52 151.16 82.36C153.2 80.14 154.22 76.87 154.22 72.55V51.58H168.26ZM198.637 100.72C193.177 100.72 188.917 99.28 185.857 96.4C182.797 93.46 181.267 89.32 181.267 83.98V33.22H195.307V83.17C195.307 85.21 195.817 86.8 196.837 87.94C197.917 89.02 199.417 89.56 201.337 89.56C202.057 89.56 202.777 89.47 203.497 89.29C204.277 89.11 204.877 88.9 205.297 88.66L205.927 99.55C203.587 100.33 201.157 100.72 198.637 100.72ZM230.19 100.72C224.73 100.72 220.47 99.28 217.41 96.4C214.35 93.46 212.82 89.32 212.82 83.98V33.22H226.86V83.17C226.86 85.21 227.37 86.8 228.39 87.94C229.47 89.02 230.97 89.56 232.89 89.56C233.61 89.56 234.33 89.47 235.05 89.29C235.83 89.11 236.43 88.9 236.85 88.66L237.48 99.55C235.14 100.33 232.71 100.72 230.19 100.72ZM293.153 51.58V100H279.833V94.24C277.973 96.34 275.753 97.96 273.173 99.1C270.593 100.18 267.803 100.72 264.803 100.72C258.443 100.72 253.403 98.89 249.683 95.23C245.963 91.57 244.103 86.14 244.103 78.94V51.58H258.143V76.87C258.143 84.67 261.413 88.57 267.953 88.57C271.313 88.57 274.013 87.49 276.053 85.33C278.093 83.11 279.113 79.84 279.113 75.52V51.58H293.153Z" fill="#5013FF" fill-opacity="0.75"/>
<path d="M73.1334 93.1352L90.7802 97.1872L90.1 96.2803L90.0729 96.2442L90.0528 96.2039L89.0528 94.2039L89.0282 94.1548L89.0149 94.1015L88.5149 92.1015L88.5 92.0418L88.5 91.9803L88.5 90.4803L88.5 88.4803L88.5 88.4187L88.5149 88.359L89.0149 86.359L89.0359 86.275L89.084 86.2029L90.084 84.7029L90.0917 84.6914L90.1 84.6803L90.8321 83.7041L73.1121 86.972L73.0809 86.9777L73.0492 86.9795L55.0395 87.9795L55.0116 87.981L54.9838 87.9795L37.1467 86.9795L37.1219 86.9781L37.0974 86.9743L19.4382 84.2114L19.8536 84.6267L19.937 84.7102L19.9743 84.8221L20.4631 86.2884L21.4472 88.2566L21.5 88.3622L21.5 88.4803L21.5 90.4803L21.5 92.4803L21.5 92.5983L21.4472 92.7039L20.4631 94.6721L19.9743 96.1384L19.937 96.2503L19.8536 96.3338L19.5237 96.6637L37.0761 93.1324L37.1082 93.1259L37.1409 93.1237L54.978 91.9164L55.0116 91.9141L55.0452 91.9164L73.0549 93.1237L73.0946 93.1263L73.1334 93.1352Z" fill="#7C4EFF" stroke="#7C4EFF"/>
<circle cx="99" cy="90.9803" r="7.5" stroke="#7C4EFF" stroke-width="5"/>
<circle cx="11" cy="90.9803" r="7.5" stroke="#7C4EFF" stroke-width="5"/>
<circle cx="11" cy="90.9803" r="10.5" stroke="#7C4EFF"/>
<circle cx="99" cy="90.9803" r="10.5" stroke="#7C4EFF"/>
<path d="M69.4014 36.1109L63.7176 18.9201L63.2947 19.9719L63.2779 20.0137L63.2538 20.0519L62.062 21.9439L62.0328 21.9903L61.9941 22.0293L60.5431 23.4937L60.4998 23.5375L60.4472 23.5694L59.1645 24.347L57.4543 25.3839L57.4016 25.4158L57.3428 25.434L55.3734 26.0433L55.2906 26.0689L55.2041 26.0652L53.403 25.9877L53.3891 25.9871L53.3753 25.9858L52.161 25.8658L64.1421 39.3243L64.1632 39.348L64.1812 39.3742L74.3731 54.2561L74.3889 54.2792L74.402 54.3038L82.7943 70.075L82.8059 70.097L82.8154 70.1199L89.6079 86.6529L89.7477 86.0825L89.7758 85.9678L89.8522 85.8778L90.8527 84.6997L92.0256 82.8378L92.0885 82.7379L92.1894 82.6767L93.8996 81.6399L95.6099 80.603L95.7108 80.5418L95.8284 80.5322L98.0217 80.3533L99.5289 80.0111L99.644 79.985L99.7587 80.0131L100.212 80.1242L88.0923 66.9456L88.0701 66.9214L88.0513 66.8946L77.7715 52.2677L77.7522 52.2401L77.7367 52.2102L69.4322 36.1839L69.4139 36.1486L69.4014 36.1109Z" fill="#7C4EFF" stroke="#7C4EFF"/>
<circle cx="54.1485" cy="15.1091" r="7.5" transform="rotate(-121.227 54.1485 15.1091)" stroke="#7C4EFF" stroke-width="5"/>
<circle cx="54.1485" cy="15.1091" r="10.5" transform="rotate(-121.227 54.1485 15.1091)" stroke="#7C4EFF"/>
<path d="M44.0921 38.8418L55.9897 25.5879L54.8718 25.7379L54.8274 25.7438L54.7827 25.7418L52.5563 25.6412L52.5021 25.6388L52.4498 25.6248L50.46 25.0932L50.4015 25.0775L50.3484 25.0484L49.0336 24.3264L47.2805 23.3637L47.2274 23.3345L47.1828 23.2936L45.6664 21.8998L45.6034 21.8419L45.5632 21.7663L44.7218 20.1821L44.7154 20.17L44.7096 20.1574L44.1998 19.0548L38.6788 35.8937L38.6687 35.9244L38.6548 35.9535L31.0054 51.9611L30.9931 51.9867L30.9781 52.0108L21.6573 66.9069L21.6354 66.9419L21.608 66.9728L9.90796 80.2081L11.5665 80.6571L13 80.6571L13.0417 80.6571L13.0829 80.664L15.4121 81.0555L15.4956 81.0696L15.5699 81.1104L17.3229 82.073L19.076 83.0357L19.1779 83.0917L19.2447 83.1869L20.5042 84.9829L21.5583 86.1103L21.6383 86.1959L21.672 86.3081L21.8054 86.7527L27.0163 69.9316L27.0261 69.8997L27.0401 69.8695L34.4262 53.9109L34.4406 53.8798L34.4591 53.851L44.0433 38.9059L44.0651 38.8719L44.0921 38.8418Z" fill="#7C4EFF" stroke="#7C4EFF"/>
</svg>
