<svg width="1536" height="1088" viewBox="0 0 1536 1088" fill="none" xmlns="http://www.w3.org/2000/svg">
<g filter="url(#filter0_d)">
<rect x="4" width="1528" height="1080" rx="20" fill="white"/>
</g>
<path d="M110.817 77.8858L110.723 77.7607L110.696 77.7246L110.676 77.6843L110.066 76.4661L110.042 76.417L110.029 76.3638L109.724 75.1456L109.709 75.0859L109.709 75.0243L109.709 74.1107L109.709 72.8925L109.709 72.831L109.724 72.7712L110.029 71.5531L110.05 71.469L110.098 71.397L110.707 70.4833L110.714 70.4718L110.723 70.4607L110.869 70.2663L100.567 72.166L100.536 72.1718L100.504 72.1736L89.5349 72.7827L89.5071 72.7842L89.4792 72.7826L78.6148 72.1736L78.59 72.1722L78.5655 72.1683L68.3403 70.5685L68.3516 70.6026L68.6449 71.4825L69.2381 72.6689L69.2909 72.7745L69.2909 72.8925L69.2909 74.1107L69.2909 75.3289L69.2909 75.4469L69.2381 75.5525L68.6449 76.7389L68.3637 77.5826L78.5442 75.5345L78.5763 75.528L78.609 75.5258L89.4734 74.7904L89.507 74.7882L89.5406 74.7904L100.51 75.5258L100.55 75.5284L100.589 75.5373L110.817 77.8858Z" fill="#7C4EFF" stroke="#7C4EFF"/>
<circle cx="116.3" cy="74.4153" r="4.59091" stroke="#7C4EFF" stroke-width="3"/>
<circle cx="62.7" cy="74.4153" r="4.59091" stroke="#7C4EFF" stroke-width="3"/>
<circle cx="62.7" cy="74.4152" r="6.2" stroke="#7C4EFF"/>
<circle cx="116.3" cy="74.4152" r="6.2" stroke="#7C4EFF"/>
<path d="M94.7919 31.0925L94.7335 31.2376L94.7167 31.2794L94.6927 31.3176L93.9668 32.47L93.9375 32.5164L93.8989 32.5554L93.0151 33.4474L92.9718 33.4911L92.9191 33.523L92.1379 33.9967L91.0962 34.6282L91.0435 34.6601L90.9847 34.6783L89.7852 35.0494L89.7024 35.075L89.6159 35.0713L88.5189 35.0241L88.505 35.0235L88.4912 35.0222L88.2494 34.9983L95.2143 42.8221L95.2354 42.8458L95.2534 42.872L101.461 51.9365L101.477 51.9595L101.49 51.9841L106.602 61.5902L106.613 61.6121L106.623 61.6351L110.556 71.2082L110.579 71.1809L111.18 70.4739L111.887 69.3516L111.949 69.2517L112.05 69.1905L113.092 68.559L114.134 67.9274L114.235 67.8662L114.352 67.8566L115.674 67.7488L116.542 67.5519L109.512 59.9082L109.49 59.8841L109.471 59.8573L103.21 50.9481L103.191 50.9206L103.175 50.8907L98.117 41.1292L98.0987 41.0939L98.0862 41.0561L94.7919 31.0925Z" fill="#7C4EFF" stroke="#7C4EFF"/>
<circle cx="88.9814" cy="28.2028" r="4.59091" transform="rotate(-121.227 88.9814 28.2028)" stroke="#7C4EFF" stroke-width="3"/>
<circle cx="88.9814" cy="28.2028" r="6.2" transform="rotate(-121.227 88.9814 28.2028)" stroke="#7C4EFF"/>
<path d="M89.6029 34.8496L89.4479 34.8704L89.4035 34.8764L89.3588 34.8743L88.0027 34.8131L87.9486 34.8106L87.8962 34.7967L86.6843 34.4728L86.6257 34.4572L86.5727 34.4281L85.7718 33.9883L84.704 33.4019L84.6509 33.3728L84.6064 33.3318L83.6827 32.4829L83.6197 32.4249L83.5795 32.3493L83.067 31.3844L83.0606 31.3723L83.0548 31.3597L82.9527 31.1389L79.7446 40.9234L79.7346 40.9541L79.7206 40.9832L75.0614 50.7333L75.0492 50.7589L75.0342 50.783L69.3569 59.8561L69.335 59.8911L69.3077 59.922L62.3898 67.7476L63.071 67.9321L63.9182 67.9321L63.9599 67.9321L64.0011 67.939L65.4197 68.1774L65.5033 68.1915L65.5775 68.2323L66.6453 68.8186L67.7131 69.405L67.815 69.4609L67.8818 69.5562L68.6411 70.6389L69.2479 71.2879L72.2687 61.5368L72.2785 61.505L72.2925 61.4748L76.7913 51.7546L76.8057 51.7235L76.8242 51.6947L82.6618 42.5917L82.6836 42.5577L82.7106 42.5276L89.6029 34.8496Z" fill="#7C4EFF" stroke="#7C4EFF"/>
<path d="M103.612 1041.98H338C331.827 1040.05 326.118 1036.86 321.231 1032.62C310.411 1041.32 284.563 1039.81 276.65 1029.98C269.99 1035.9 251.896 1033.68 249.429 1026.65C234.76 1029.85 216.618 1024.2 212.242 1015.02C213.935 1022.93 194.802 1027.15 183.886 1022.81C172.971 1018.47 169.002 1010.02 165.521 1002.36C162.039 994.692 157.128 986.269 145.518 982.664C132.007 978.493 114.807 983.128 105.84 990.6C105.041 991.264 104.315 991.951 103.612 992.638V1041.98Z" fill="#7C4EFF"/>
<path d="M171.829 1004.86C171.597 1012.39 170.527 1020.89 174.815 1026.58C179.83 1033.23 189.348 1032.25 195.824 1037.03C197.605 1038.35 199.077 1040.04 200.136 1041.98H209.303C208.545 1034.64 205.526 1027.06 202.061 1023.92C198.867 1021.04 194.73 1019.65 191.88 1016.37C186.777 1010.51 187.544 1000.99 185.492 993.086C182.17 980.53 171.581 972.347 160.889 967.312C168.874 977.27 172.252 991.279 171.829 1004.86Z" fill="#1765A5"/>
<path d="M207.538 1029.06C209.934 1031.92 212.154 1036.55 214.094 1041.98H225.976C226.327 1037.87 226.623 1034.33 226.775 1031.9C227.869 1017.32 228.587 1001.35 220.011 989.545C215.22 982.928 207.898 978.357 203.777 971.268C200.583 965.801 199.609 959.32 199.41 952.99C199.196 947.355 199.703 941.715 200.919 936.207C201.805 932.339 203.394 926.969 204.56 922.302C196.623 931.572 190.227 943.528 186.25 955.068C181.395 969.134 180.389 984.982 185.987 998.768C190.698 1010.29 199.529 1019.53 207.538 1029.06Z" fill="#00E9B1"/>
<path d="M214.677 1040.66H228.308C230.056 1027.44 236.237 1014.86 242.633 1002.99C248.087 992.862 253.964 982.089 253.078 970.613C251.912 955.524 239.599 944.055 228.14 934.217C234.177 944.607 232.236 957.857 227.805 969.022C223.373 980.187 216.673 990.424 213.264 1001.94C210.046 1013.14 210.046 1025.02 213.264 1036.23C213.663 1037.71 214.15 1039.19 214.677 1040.66Z" fill="#010080"/>
<path d="M227.39 1041.98C228.224 1041.26 229.128 1040.63 230.088 1040.09C237.994 1035.63 248.957 1037.34 255.322 1030.86C260.767 1025.31 260.216 1016.47 260.56 1008.69C261.183 994.668 266.245 980.474 276.378 970.812C263.562 975.208 250.61 982.864 245.731 995.587C242.657 1003.58 242.761 1013.45 236.365 1019.12C232.787 1022.31 227.853 1023.41 223.932 1026.14C220.011 1028.87 216.338 1035.27 214.557 1042.01L227.39 1041.98Z" fill="#00E9B1"/>
<path d="M140.591 999.032C148.273 1011.51 142.044 1027.39 142.691 1041.98H209.87C209.942 1041.73 210.006 1041.48 210.07 1041.24C214.462 1024.57 216.067 1005.85 207.083 991.048C202.58 983.615 195.561 977.462 193.237 969.11C188.646 952.607 204.169 934.305 196.631 918.865C194.235 913.974 189.859 910.322 186.849 905.782C179.471 894.658 181.259 880.288 181.611 867.046C181.722 863.106 181.459 858.654 178.417 856.049C171.909 850.455 161.76 857.519 157.919 862.874C151.259 872.176 146.74 886.05 148.384 897.391C149.478 905.047 153.351 912.528 152.058 920.16C150.365 930.238 140.543 936.631 133.5 944.151C123.742 954.541 118.72 970.892 126.401 982.808C130.258 988.85 136.822 992.918 140.591 999.032Z" fill="#7C4EFF"/>
<path d="M154.262 925.546C158.198 930.078 162.422 934.793 167.166 939.932C167.621 946.029 168.228 952.103 168.882 958.145C163.86 952.886 159.899 948.699 156.202 944.743L155.507 945.646C159.428 949.842 163.628 954.277 169.082 960.031C169.393 962.868 169.721 965.697 170.04 968.519C170.413 971.747 170.78 974.987 171.142 978.237C167.741 974.672 164.323 971.108 160.889 967.544L158.334 964.882L157.655 965.793L160.211 968.455C163.937 972.328 167.647 976.201 171.342 980.075C171.989 986.117 172.58 992.191 173.011 998.28C169.282 994.212 165.217 989.849 160.61 984.982L159.923 985.893C164.866 991.12 169.194 995.763 173.138 1000.09C173.53 1006.16 173.753 1012.26 173.713 1018.36C170.184 1014.15 166.415 1009.8 162.215 1005.1L161.504 1005.98C165.984 1011 169.968 1015.57 173.689 1020.07C173.607 1026.22 173.194 1032.36 172.452 1038.46C169.385 1034.19 166.008 1029.74 162.375 1025.21L161.624 1026.04C165.473 1030.84 169.034 1035.55 172.236 1040.05C172.148 1040.69 172.068 1041.34 171.973 1041.99H173.027C173.083 1041.6 173.13 1041.19 173.186 1040.83L173.354 1040.65C178.073 1035.86 182.8 1030.78 187.408 1025.6L186.697 1024.71C182.345 1029.61 177.914 1034.4 173.434 1038.95C174.189 1032.87 174.616 1026.75 174.712 1020.63L174.799 1020.52C178.928 1015.73 183 1010.8 187.248 1005.47L186.498 1004.63C182.505 1009.67 178.64 1014.34 174.751 1018.87C174.807 1012.7 174.592 1006.54 174.201 1000.41C177.73 995.875 181.467 990.952 185.635 985.35L184.837 984.55C180.924 989.801 177.395 994.46 174.057 998.752C173.626 992.542 173.035 986.364 172.372 980.219C175.124 976.489 177.863 972.76 180.589 969.03L183.343 965.258L182.545 964.459L179.814 968.215C177.28 971.667 174.743 975.131 172.204 978.604C171.832 975.168 171.448 971.747 171.054 968.343C170.735 965.594 170.421 962.834 170.112 960.063C174.512 954.077 177.938 949.474 181.211 945.158L180.413 944.359C177.283 948.483 174.025 952.87 169.904 958.465C169.226 952.319 168.603 946.141 168.14 939.94C172.26 934.601 176.125 929.742 179.966 925.099L179.223 924.244C175.582 928.655 171.909 933.266 168.044 938.277C167.613 932.14 167.349 925.978 167.357 919.808C171.765 914.613 176.061 909.77 180.477 905.023L179.814 904.088C175.622 908.587 171.549 913.167 167.389 918.05C167.389 906.799 168.616 895.581 171.046 884.596L170.048 884.276C167.59 895.401 166.35 906.76 166.351 918.154C162.359 913.407 158.797 908.963 155.467 904.568L154.669 905.367C158.214 910.01 162.023 914.741 166.311 919.824C166.311 925.93 166.567 932.028 166.99 938.102C162.59 933.306 158.637 928.887 154.932 924.627L154.262 925.546Z" fill="#00E9B1"/>
<path d="M96.7685 1002.27C103.955 1014.02 97.9823 1028.92 98.5093 1042.64L161.656 1042.99L161.847 1042.3C166.056 1026.66 167.669 1009.08 159.3 995.148C155.06 988.107 148.504 982.265 146.364 974.425C142.132 958.88 156.825 941.77 149.822 927.217C147.61 922.613 143.506 919.153 140.687 914.861C133.812 904.376 135.552 890.886 135.976 878.434C136.095 874.734 135.88 870.546 133.053 868.045C126.968 862.786 117.394 869.371 113.761 874.382C107.445 883.093 103.157 896.136 104.618 906.741C105.6 913.934 109.201 920.999 107.948 928.168C106.279 937.622 97.0161 943.584 90.3245 950.617C81.1017 960.335 76.2946 975.703 83.4413 986.94C87.0746 992.638 93.2231 996.498 96.7685 1002.27Z" fill="#010080"/>
<rect x="338.5" y="300.5" width="358" height="412" rx="79.5" fill="#7C4EFF" stroke="#E5E5E5"/>
<rect x="811.5" y="300.5" width="358" height="412" rx="79.5" fill="#010080" stroke="#E5E5E5"/>
<path d="M452.874 654.36C450.734 654.36 448.794 653.9 447.054 652.98C445.334 652.04 443.974 650.75 442.974 649.11C441.994 647.45 441.504 645.58 441.504 643.5C441.504 641.42 441.994 639.56 442.974 637.92C443.974 636.26 445.334 634.97 447.054 634.05C448.794 633.11 450.744 632.64 452.904 632.64C454.724 632.64 456.364 632.96 457.824 633.6C459.304 634.24 460.544 635.16 461.544 636.36L458.424 639.24C457.004 637.6 455.244 636.78 453.144 636.78C451.844 636.78 450.684 637.07 449.664 637.65C448.644 638.21 447.844 639 447.264 640.02C446.704 641.04 446.424 642.2 446.424 643.5C446.424 644.8 446.704 645.96 447.264 646.98C447.844 648 448.644 648.8 449.664 649.38C450.684 649.94 451.844 650.22 453.144 650.22C455.244 650.22 457.004 649.39 458.424 647.73L461.544 650.61C460.544 651.83 459.304 652.76 457.824 653.4C456.344 654.04 454.694 654.36 452.874 654.36ZM471.619 654.24C469.919 654.24 468.389 653.89 467.029 653.19C465.689 652.47 464.639 651.48 463.879 650.22C463.119 648.96 462.739 647.53 462.739 645.93C462.739 644.33 463.119 642.9 463.879 641.64C464.639 640.38 465.689 639.4 467.029 638.7C468.389 637.98 469.919 637.62 471.619 637.62C473.319 637.62 474.839 637.98 476.179 638.7C477.519 639.4 478.569 640.38 479.329 641.64C480.089 642.9 480.469 644.33 480.469 645.93C480.469 647.53 480.089 648.96 479.329 650.22C478.569 651.48 477.519 652.47 476.179 653.19C474.839 653.89 473.319 654.24 471.619 654.24ZM471.619 650.4C472.819 650.4 473.799 650 474.559 649.2C475.339 648.38 475.729 647.29 475.729 645.93C475.729 644.57 475.339 643.49 474.559 642.69C473.799 641.87 472.819 641.46 471.619 641.46C470.419 641.46 469.429 641.87 468.649 642.69C467.869 643.49 467.479 644.57 467.479 645.93C467.479 647.29 467.869 648.38 468.649 649.2C469.429 650 470.419 650.4 471.619 650.4ZM504.268 637.62C506.288 637.62 507.888 638.22 509.068 639.42C510.268 640.6 510.868 642.38 510.868 644.76V654H506.188V645.48C506.188 644.2 505.918 643.25 505.378 642.63C504.858 641.99 504.108 641.67 503.128 641.67C502.028 641.67 501.158 642.03 500.518 642.75C499.878 643.45 499.558 644.5 499.558 645.9V654H494.878V645.48C494.878 642.94 493.858 641.67 491.818 641.67C490.738 641.67 489.878 642.03 489.238 642.75C488.598 643.45 488.278 644.5 488.278 645.9V654H483.598V637.86H488.068V639.72C488.668 639.04 489.398 638.52 490.257 638.16C491.138 637.8 492.098 637.62 493.138 637.62C494.278 637.62 495.308 637.85 496.228 638.31C497.148 638.75 497.888 639.4 498.448 640.26C499.108 639.42 499.938 638.77 500.938 638.31C501.958 637.85 503.068 637.62 504.268 637.62ZM524.602 637.62C526.102 637.62 527.462 637.97 528.682 638.67C529.922 639.35 530.892 640.32 531.592 641.58C532.292 642.82 532.642 644.27 532.642 645.93C532.642 647.59 532.292 649.05 531.592 650.31C530.892 651.55 529.922 652.52 528.682 653.22C527.462 653.9 526.102 654.24 524.602 654.24C522.542 654.24 520.922 653.59 519.742 652.29V659.82H515.062V637.86H519.532V639.72C520.692 638.32 522.382 637.62 524.602 637.62ZM523.792 650.4C524.992 650.4 525.972 650 526.732 649.2C527.512 648.38 527.902 647.29 527.902 645.93C527.902 644.57 527.512 643.49 526.732 642.69C525.972 641.87 524.992 641.46 523.792 641.46C522.592 641.46 521.602 641.87 520.822 642.69C520.062 643.49 519.682 644.57 519.682 645.93C519.682 647.29 520.062 648.38 520.822 649.2C521.602 650 522.592 650.4 523.792 650.4ZM552.155 637.86V654H547.685V652.14C546.525 653.54 544.845 654.24 542.645 654.24C541.125 654.24 539.745 653.9 538.505 653.22C537.285 652.54 536.325 651.57 535.625 650.31C534.925 649.05 534.575 647.59 534.575 645.93C534.575 644.27 534.925 642.81 535.625 641.55C536.325 640.29 537.285 639.32 538.505 638.64C539.745 637.96 541.125 637.62 542.645 637.62C544.705 637.62 546.315 638.27 547.475 639.57V637.86H552.155ZM543.455 650.4C544.635 650.4 545.615 650 546.395 649.2C547.175 648.38 547.565 647.29 547.565 645.93C547.565 644.57 547.175 643.49 546.395 642.69C545.615 641.87 544.635 641.46 543.455 641.46C542.255 641.46 541.265 641.87 540.485 642.69C539.705 643.49 539.315 644.57 539.315 645.93C539.315 647.29 539.705 648.38 540.485 649.2C541.265 650 542.255 650.4 543.455 650.4ZM566.298 637.62C568.298 637.62 569.908 638.22 571.128 639.42C572.368 640.62 572.988 642.4 572.988 644.76V654H568.308V645.48C568.308 644.2 568.028 643.25 567.468 642.63C566.908 641.99 566.098 641.67 565.038 641.67C563.858 641.67 562.918 642.04 562.218 642.78C561.518 643.5 561.168 644.58 561.168 646.02V654H556.488V637.86H560.958V639.75C561.578 639.07 562.348 638.55 563.268 638.19C564.188 637.81 565.198 637.62 566.298 637.62ZM593.49 637.86V651.3C593.49 654.26 592.74 656.46 591.24 657.9C589.74 659.34 587.56 660.06 584.7 660.06C583.18 660.06 581.74 659.87 580.38 659.49C579.04 659.11 577.91 658.56 576.99 657.84L578.85 654.48C579.53 655.04 580.36 655.48 581.34 655.8C582.32 656.12 583.31 656.28 584.31 656.28C585.87 656.28 587.01 655.92 587.73 655.2C588.45 654.48 588.81 653.38 588.81 651.9V651.36C588.21 651.96 587.5 652.42 586.68 652.74C585.86 653.06 584.98 653.22 584.04 653.22C581.92 653.22 580.24 652.62 579 651.42C577.76 650.2 577.14 648.38 577.14 645.96V637.86H581.82V645.27C581.82 647.89 582.91 649.2 585.09 649.2C586.21 649.2 587.11 648.84 587.79 648.12C588.47 647.38 588.81 646.29 588.81 644.85V637.86H593.49Z" fill="white"/>
<path d="M930.391 652.2C929.391 652.88 928.131 653.41 926.611 653.79C925.111 654.17 923.511 654.36 921.811 654.36C919.691 654.36 917.891 654.1 916.411 653.58C914.931 653.04 913.811 652.3 913.051 651.36C912.291 650.4 911.911 649.31 911.911 648.09C911.911 646.97 912.221 645.98 912.841 645.12C913.461 644.26 914.311 643.62 915.391 643.2C914.571 642.76 913.931 642.16 913.471 641.4C913.031 640.64 912.811 639.79 912.811 638.85C912.811 637.71 913.161 636.67 913.861 635.73C914.561 634.79 915.621 634.04 917.041 633.48C918.461 632.92 920.201 632.64 922.261 632.64C923.621 632.64 924.951 632.78 926.251 633.06C927.551 633.32 928.681 633.68 929.641 634.14L928.291 637.86C926.451 637 924.501 636.57 922.441 636.57C920.881 636.57 919.701 636.81 918.901 637.29C918.121 637.75 917.731 638.38 917.731 639.18C917.731 639.92 917.991 640.49 918.511 640.89C919.051 641.27 919.861 641.46 920.941 641.46H926.671V645.3H920.641C919.421 645.3 918.481 645.51 917.821 645.93C917.161 646.35 916.831 646.96 916.831 647.76C916.831 648.6 917.251 649.26 918.091 649.74C918.951 650.2 920.261 650.43 922.021 650.43C923.261 650.43 924.501 650.27 925.741 649.95C926.981 649.61 928.031 649.14 928.891 648.54L930.391 652.2ZM953.581 637.62C955.601 637.62 957.201 638.22 958.381 639.42C959.581 640.6 960.181 642.38 960.181 644.76V654H955.501V645.48C955.501 644.2 955.231 643.25 954.691 642.63C954.171 641.99 953.421 641.67 952.441 641.67C951.341 641.67 950.471 642.03 949.831 642.75C949.191 643.45 948.871 644.5 948.871 645.9V654H944.191V645.48C944.191 642.94 943.171 641.67 941.131 641.67C940.051 641.67 939.191 642.03 938.551 642.75C937.911 643.45 937.591 644.5 937.591 645.9V654H932.911V637.86H937.381V639.72C937.981 639.04 938.711 638.52 939.571 638.16C940.451 637.8 941.411 637.62 942.451 637.62C943.591 637.62 944.621 637.85 945.541 638.31C946.461 638.75 947.201 639.4 947.761 640.26C948.421 639.42 949.251 638.77 950.251 638.31C951.271 637.85 952.381 637.62 953.581 637.62ZM973.916 637.62C975.416 637.62 976.776 637.97 977.996 638.67C979.236 639.35 980.206 640.32 980.906 641.58C981.606 642.82 981.956 644.27 981.956 645.93C981.956 647.59 981.606 649.05 980.906 650.31C980.206 651.55 979.236 652.52 977.996 653.22C976.776 653.9 975.416 654.24 973.916 654.24C971.856 654.24 970.236 653.59 969.056 652.29V659.82H964.376V637.86H968.846V639.72C970.006 638.32 971.696 637.62 973.916 637.62ZM973.106 650.4C974.306 650.4 975.286 650 976.046 649.2C976.826 648.38 977.216 647.29 977.216 645.93C977.216 644.57 976.826 643.49 976.046 642.69C975.286 641.87 974.306 641.46 973.106 641.46C971.906 641.46 970.916 641.87 970.136 642.69C969.376 643.49 968.996 644.57 968.996 645.93C968.996 647.29 969.376 648.38 970.136 649.2C970.916 650 971.906 650.4 973.106 650.4ZM990.879 654.24C989.059 654.24 987.639 653.76 986.619 652.8C985.599 651.82 985.089 650.44 985.089 648.66V631.74H989.769V648.39C989.769 649.07 989.939 649.6 990.279 649.98C990.639 650.34 991.139 650.52 991.779 650.52C992.019 650.52 992.259 650.49 992.499 650.43C992.759 650.37 992.959 650.3 993.099 650.22L993.309 653.85C992.529 654.11 991.719 654.24 990.879 654.24ZM1002.99 654.24C1001.29 654.24 999.763 653.89 998.403 653.19C997.063 652.47 996.013 651.48 995.253 650.22C994.493 648.96 994.113 647.53 994.113 645.93C994.113 644.33 994.493 642.9 995.253 641.64C996.013 640.38 997.063 639.4 998.403 638.7C999.763 637.98 1001.29 637.62 1002.99 637.62C1004.69 637.62 1006.21 637.98 1007.55 638.7C1008.89 639.4 1009.94 640.38 1010.7 641.64C1011.46 642.9 1011.84 644.33 1011.84 645.93C1011.84 647.53 1011.46 648.96 1010.7 650.22C1009.94 651.48 1008.89 652.47 1007.55 653.19C1006.21 653.89 1004.69 654.24 1002.99 654.24ZM1002.99 650.4C1004.19 650.4 1005.17 650 1005.93 649.2C1006.71 648.38 1007.1 647.29 1007.1 645.93C1007.1 644.57 1006.71 643.49 1005.93 642.69C1005.17 641.87 1004.19 641.46 1002.99 641.46C1001.79 641.46 1000.8 641.87 1000.02 642.69C999.243 643.49 998.853 644.57 998.853 645.93C998.853 647.29 999.243 648.38 1000.02 649.2C1000.8 650 1001.79 650.4 1002.99 650.4ZM1031.23 637.86V651.3C1031.23 654.26 1030.48 656.46 1028.98 657.9C1027.48 659.34 1025.3 660.06 1022.44 660.06C1020.92 660.06 1019.48 659.87 1018.12 659.49C1016.78 659.11 1015.65 658.56 1014.73 657.84L1016.59 654.48C1017.27 655.04 1018.1 655.48 1019.08 655.8C1020.06 656.12 1021.05 656.28 1022.05 656.28C1023.61 656.28 1024.75 655.92 1025.47 655.2C1026.19 654.48 1026.55 653.38 1026.55 651.9V651.36C1025.95 651.96 1025.24 652.42 1024.42 652.74C1023.6 653.06 1022.72 653.22 1021.78 653.22C1019.66 653.22 1017.98 652.62 1016.74 651.42C1015.5 650.2 1014.88 648.38 1014.88 645.96V637.86H1019.56V645.27C1019.56 647.89 1020.65 649.2 1022.83 649.2C1023.95 649.2 1024.85 648.84 1025.53 648.12C1026.21 647.38 1026.55 646.29 1026.55 644.85V637.86H1031.23ZM1043.7 650.49C1044.54 650.49 1045.28 650.37 1045.92 650.13C1046.58 649.87 1047.19 649.47 1047.75 648.93L1050.24 651.63C1048.72 653.37 1046.5 654.24 1043.58 654.24C1041.76 654.24 1040.15 653.89 1038.75 653.19C1037.35 652.47 1036.27 651.48 1035.51 650.22C1034.75 648.96 1034.37 647.53 1034.37 645.93C1034.37 644.35 1034.74 642.93 1035.48 641.67C1036.24 640.39 1037.27 639.4 1038.57 638.7C1039.89 637.98 1041.37 637.62 1043.01 637.62C1044.55 637.62 1045.95 637.95 1047.21 638.61C1048.47 639.25 1049.47 640.19 1050.21 641.43C1050.97 642.65 1051.35 644.1 1051.35 645.78L1039.41 648.09C1039.75 648.89 1040.28 649.49 1041 649.89C1041.74 650.29 1042.64 650.49 1043.7 650.49ZM1043.01 641.16C1041.83 641.16 1040.87 641.54 1040.13 642.3C1039.39 643.06 1039 644.11 1038.96 645.45L1046.82 643.92C1046.6 643.08 1046.15 642.41 1045.47 641.91C1044.79 641.41 1043.97 641.16 1043.01 641.16ZM1062.62 650.49C1063.46 650.49 1064.2 650.37 1064.84 650.13C1065.5 649.87 1066.11 649.47 1066.67 648.93L1069.16 651.63C1067.64 653.37 1065.42 654.24 1062.5 654.24C1060.68 654.24 1059.07 653.89 1057.67 653.19C1056.27 652.47 1055.19 651.48 1054.43 650.22C1053.67 648.96 1053.29 647.53 1053.29 645.93C1053.29 644.35 1053.66 642.93 1054.4 641.67C1055.16 640.39 1056.19 639.4 1057.49 638.7C1058.81 637.98 1060.29 637.62 1061.93 637.62C1063.47 637.62 1064.87 637.95 1066.13 638.61C1067.39 639.25 1068.39 640.19 1069.13 641.43C1069.89 642.65 1070.27 644.1 1070.27 645.78L1058.33 648.09C1058.67 648.89 1059.2 649.49 1059.92 649.89C1060.66 650.29 1061.56 650.49 1062.62 650.49ZM1061.93 641.16C1060.75 641.16 1059.79 641.54 1059.05 642.3C1058.31 643.06 1057.92 644.11 1057.88 645.45L1065.74 643.92C1065.52 643.08 1065.07 642.41 1064.39 641.91C1063.71 641.41 1062.89 641.16 1061.93 641.16Z" fill="white"/>
<path d="M164.84 46.72V73.6C164.84 79.52 163.34 83.92 160.34 86.8C157.34 89.68 152.98 91.12 147.26 91.12C144.22 91.12 141.34 90.74 138.62 89.98C135.94 89.22 133.68 88.12 131.84 86.68L135.56 79.96C136.92 81.08 138.58 81.96 140.54 82.6C142.5 83.24 144.48 83.56 146.48 83.56C149.6 83.56 151.88 82.84 153.32 81.4C154.76 79.96 155.48 77.76 155.48 74.8V73.72C154.28 74.92 152.86 75.84 151.22 76.48C149.58 77.12 147.82 77.44 145.94 77.44C141.7 77.44 138.34 76.24 135.86 73.84C133.38 71.4 132.14 67.76 132.14 62.92V46.72H141.5V61.54C141.5 66.78 143.68 69.4 148.04 69.4C150.28 69.4 152.08 68.68 153.44 67.24C154.8 65.76 155.48 63.58 155.48 60.7V46.72H164.84ZM185.091 79.48C181.451 79.48 178.611 78.52 176.571 76.6C174.531 74.64 173.511 71.88 173.511 68.32V34.48H182.871V67.78C182.871 69.14 183.211 70.2 183.891 70.96C184.611 71.68 185.611 72.04 186.891 72.04C187.371 72.04 187.851 71.98 188.331 71.86C188.851 71.74 189.251 71.6 189.531 71.44L189.951 78.7C188.391 79.22 186.771 79.48 185.091 79.48ZM206.127 79.48C202.487 79.48 199.647 78.52 197.607 76.6C195.567 74.64 194.547 71.88 194.547 68.32V34.48H203.907V67.78C203.907 69.14 204.247 70.2 204.927 70.96C205.647 71.68 206.647 72.04 207.927 72.04C208.407 72.04 208.887 71.98 209.367 71.86C209.887 71.74 210.287 71.6 210.567 71.44L210.987 78.7C209.427 79.22 207.807 79.48 206.127 79.48ZM248.102 46.72V79H239.222V75.16C237.982 76.56 236.502 77.64 234.782 78.4C233.062 79.12 231.202 79.48 229.202 79.48C224.962 79.48 221.602 78.26 219.122 75.82C216.642 73.38 215.402 69.76 215.402 64.96V46.72H224.762V63.58C224.762 68.78 226.942 71.38 231.302 71.38C233.542 71.38 235.342 70.66 236.702 69.22C238.062 67.74 238.742 65.56 238.742 62.68V46.72H248.102Z" fill="#5013FF" fill-opacity="0.75"/>
<path d="M947.5 504.778C948.561 504.102 949.703 503.565 950.9 503.18C952.432 502.522 954.033 502.041 955.674 501.746C965.557 499.442 975.584 497.799 985.686 496.829L983.228 472.778C982.162 472.266 980.872 472.573 979.745 472.143C977.082 471.201 977.491 466.714 975.361 464.584C973.947 463.129 971.55 462.986 970.26 461.408C969.726 460.476 969.435 459.425 969.414 458.351C969.392 457.277 969.641 456.215 970.137 455.263C970.526 454.238 970.956 453.214 971.243 452.128C969.399 448.4 966.06 444.651 966.921 440.656C967.207 439.283 967.986 438.075 968.211 436.682C968.303 435.529 968.303 434.372 968.211 433.219C968.211 426.111 974.357 423.099 978.454 418.879C982.224 415.13 983.617 409.066 988.554 406.731C988.851 406.368 989.251 406.104 989.701 405.973C990.093 405.891 990.498 405.891 990.889 405.973C992.286 405.738 993.713 405.738 995.11 405.973C995.703 405.372 996.347 404.823 997.035 404.334C999.473 403.064 1002.1 406.116 1004.82 405.993C1006.66 405.993 1008.24 404.354 1010.08 404.477C1011.93 404.6 1013.36 406.424 1014.18 408.185C1014.8 410.048 1015.97 411.678 1017.54 412.856C1018.64 413.292 1019.76 413.654 1020.9 413.942C1023.54 415.028 1025 418.039 1025.78 420.784C1026.85 424.264 1027.59 427.838 1027.99 431.458C1028.17 432.02 1028.21 432.618 1028.1 433.199C1027.99 433.779 1027.73 434.322 1027.35 434.776C1027 435.146 1026.56 435.414 1026.06 435.555C1026.06 435.862 1026.21 436.19 1026.27 436.497C1026.6 436.473 1026.93 436.575 1027.2 436.784C1027.46 436.993 1027.63 437.293 1027.68 437.624C1027.74 437.972 1027.65 438.326 1027.44 438.61C1027.23 438.894 1026.92 439.085 1026.58 439.14L1027.23 456.41C1027.23 456.779 1027.23 457.147 1027.23 457.516L1028.28 472C1028.07 476.281 1024.32 481.301 1020.08 481.997C1017.6 482.407 1013.3 483.308 1009.16 483.656L1010.33 495.375C1011.41 495.449 1012.48 495.586 1013.55 495.784C1023.65 497.464 1031.82 500.291 1038.13 504.675H1038.27L1038.89 505.208C1041.75 507.33 1044.24 509.912 1046.26 512.849C1055.44 523.381 1062.94 535.266 1068.49 548.085C1082.4 532.916 1091.52 513.977 1094.7 493.644C1097.89 473.312 1094.99 452.492 1086.39 433.797C1077.78 415.102 1063.85 399.364 1046.33 388.559C1028.82 377.754 1008.5 372.362 987.935 373.06C967.366 373.758 947.462 380.516 930.72 392.484C913.978 404.452 901.143 421.098 893.826 440.334C886.509 459.57 885.036 480.538 889.592 500.607C894.148 520.677 904.529 538.954 919.434 553.146C920.991 544.951 922.629 537.351 924.125 532.065C927.259 520.798 937.892 510.002 947.5 504.778Z" fill="#B2C3EB"/>
<path d="M1038.19 504.635H1038.05L1038.81 505.188L1038.19 504.635Z" fill="#7C4EFF"/>
<path d="M1051.8 526.985C1053.95 537.657 1055.49 548.444 1056.4 559.292C1060.69 555.891 1064.7 552.165 1068.41 548.148C1062.86 535.329 1055.36 523.443 1046.18 512.911C1049 517.165 1050.91 521.957 1051.8 526.985Z" fill="#7C4EFF"/>
<path d="M1038.05 504.614C1031.9 500.23 1023.71 497.403 1013.47 495.723C1012.51 495.585 1011.54 495.496 1010.58 495.457L1010.9 498.796C1012.07 499.464 1013.05 500.407 1013.77 501.543C1014.48 502.679 1014.9 503.973 1015 505.311C1015 510.76 1007.57 515.165 998.388 515.165C989.21 515.165 981.773 510.76 981.773 505.311C981.864 504.007 982.272 502.746 982.961 501.636C983.65 500.525 984.6 499.6 985.727 498.94L985.522 496.891C975.428 497.849 965.408 499.478 955.531 501.767C961.451 500.743 965.507 503.365 964.565 511.6C963.151 523.708 951.413 554.785 949.098 570.375C949.098 570.887 948.934 571.809 948.873 572.936C962.992 579.226 978.33 582.304 993.783 581.95C1009.24 581.596 1024.42 577.817 1038.23 570.887C1021.09 545.239 1015.12 502.504 1038.05 504.614Z" fill="#7C4EFF"/>
<path d="M947.521 504.737C948.63 504.128 949.772 503.581 950.942 503.099C949.736 503.495 948.586 504.046 947.521 504.737Z" fill="#7C4EFF"/>
<path d="M1046.18 512.809C1044.16 509.871 1041.67 507.289 1038.81 505.168C1041.4 507.581 1043.86 510.132 1046.18 512.809Z" fill="#7C4EFF"/>
<path d="M1046.18 512.809C1043.86 510.132 1041.4 507.581 1038.81 505.168L1038.05 504.614C1015.12 502.566 1021.09 545.239 1038.4 570.723C1044.77 567.533 1050.81 563.703 1056.4 559.292C1055.48 548.478 1053.94 537.726 1051.8 527.088C1050.94 521.988 1049.03 517.124 1046.18 512.809Z" fill="#7C4EFF"/>
<path d="M950.921 503.139C952.486 502.578 954.079 502.099 955.694 501.705C954.054 502 952.452 502.481 950.921 503.139Z" fill="#7C4EFF"/>
<path d="M946.23 561.136C946.23 540.363 935.557 521.823 947.5 504.778C937.892 510.002 927.26 520.799 924.125 531.984C922.63 537.269 920.991 544.952 919.434 553.146C927.938 561.192 937.729 567.756 948.402 572.567C947.94 568.712 947.214 564.892 946.23 561.136Z" fill="#7C4EFF"/>
<path d="M964.79 511.539C965.733 503.344 961.676 500.681 955.756 501.705C954.141 502.099 952.547 502.578 950.983 503.139C949.813 503.622 948.671 504.169 947.561 504.778C935.618 521.823 946.312 540.363 946.291 561.136C947.234 564.895 947.919 568.714 948.34 572.567L949.036 572.874C949.036 571.748 949.18 570.826 949.262 570.314C951.577 554.724 963.315 523.646 964.79 511.539Z" fill="#7C4EFF"/>
<path d="M986.915 509.224L985.891 498.981C984.763 499.641 983.814 500.566 983.125 501.677C982.436 502.787 982.028 504.048 981.937 505.352C981.937 510.801 989.374 515.206 998.552 515.206C1007.73 515.206 1015.17 510.801 1015.17 505.352C1015.07 504.014 1014.64 502.72 1013.93 501.584C1013.22 500.448 1012.23 499.505 1011.07 498.837L1011.72 505.27L986.915 509.224Z" fill="#FF847B"/>
<path d="M979.233 457.967C978.859 456.332 979.127 454.615 979.98 453.171C980.834 451.726 982.209 450.664 983.822 450.203L983.228 445.307C981.528 445.655 979.786 445.922 978.004 446.126L977.799 444.672C977.594 444.938 977.41 445.184 977.226 445.471C976.301 447.731 975.787 450.139 975.71 452.58C975.341 455.017 974.214 457.66 972.002 458.234C972.319 457.213 972.413 456.137 972.279 455.076C972.144 454.016 971.785 452.997 971.223 452.088C970.936 453.153 970.506 454.137 970.117 455.222C969.621 456.175 969.372 457.237 969.394 458.311C969.415 459.385 969.706 460.436 970.24 461.368C971.53 462.946 973.927 463.089 975.341 464.543C977.389 466.592 977 471.058 979.786 472.103C980.913 472.533 982.204 472.226 983.269 472.738L982.306 463.171C981.467 462.558 980.762 461.781 980.233 460.886C979.705 459.991 979.365 458.998 979.233 457.967Z" fill="#FBE4DA"/>
<path d="M990.951 406.035C990.559 405.953 990.155 405.953 989.763 406.035C989.313 406.166 988.913 406.43 988.616 406.793C988.876 406.632 989.15 406.495 989.435 406.383C989.93 406.226 990.437 406.11 990.951 406.035Z" fill="#FBE4DA"/>
<path d="M1010.45 416.749L1011.42 416.36L1021.39 422.977C1021.39 422.977 1020.9 423.571 1019.96 424.534C1023.02 427.583 1025.15 431.442 1026.11 435.658C1026.6 435.517 1027.04 435.249 1027.4 434.88C1027.77 434.425 1028.03 433.882 1028.14 433.302C1028.25 432.722 1028.21 432.123 1028.03 431.561C1027.63 427.941 1026.89 424.367 1025.82 420.887C1024.96 418.101 1023.59 415.131 1020.94 414.045C1019.8 413.757 1018.68 413.395 1017.58 412.959C1016.01 411.781 1014.84 410.151 1014.22 408.288C1013.36 406.527 1012.01 404.683 1010.13 404.58C1008.24 404.478 1006.71 406.014 1004.86 406.096C1002.14 406.219 999.514 403.167 997.077 404.437C996.388 404.926 995.744 405.475 995.151 406.076C998.485 406.738 1001.64 408.099 1004.41 410.071C1006.79 411.938 1008.83 414.196 1010.45 416.749Z" fill="#FBE4DA"/>
<path d="M984.764 458.5L983.822 450.306C982.209 450.767 980.834 451.829 979.98 453.273C979.126 454.718 978.859 456.434 979.233 458.07C979.362 459.109 979.703 460.111 980.235 461.013C980.767 461.916 981.479 462.699 982.326 463.314V462.987C982.204 462.077 982.374 461.151 982.812 460.345C983.25 459.538 983.934 458.892 984.764 458.5Z" fill="#FF847B"/>
<path d="M1023.87 434.736C1023.59 434.183 1023.54 433.527 1023.28 432.974C1022.92 432.434 1022.42 431.996 1021.84 431.705C1021.26 431.414 1020.61 431.28 1019.96 431.315C1018.67 431.433 1017.38 431.287 1016.15 430.885C1015.52 430.594 1014.98 430.15 1014.57 429.594C1007.29 435.811 998.883 440.568 989.804 443.607L992.795 450.531C993.618 452.91 994.837 455.134 996.401 457.107L1002.55 456.492C1003.61 456.418 1004.67 456.748 1005.5 457.416C1006.34 458.084 1006.89 459.041 1007.05 460.098C1013.88 460.009 1020.68 459.178 1027.33 457.619C1027.33 457.25 1027.33 456.882 1027.33 456.513L1026.68 439.243L1021.84 439.981C1021.49 440.032 1021.14 439.942 1020.85 439.731C1020.57 439.52 1020.38 439.204 1020.33 438.854C1020.28 438.503 1020.37 438.147 1020.58 437.862C1020.79 437.578 1021.1 437.389 1021.46 437.338L1026.25 436.6C1026.25 436.293 1026.13 435.965 1026.04 435.658C1025.63 435.782 1025.19 435.758 1024.79 435.59C1024.39 435.421 1024.07 435.119 1023.87 434.736ZM1004.45 448.872C1003.63 448.994 1002.81 448.052 1002.61 446.823C1002.4 445.594 1002.94 444.385 1003.76 444.262C1004.57 444.139 1005.41 445.082 1005.6 446.311C1005.78 447.54 1005.29 448.667 1004.45 448.872ZM1007.44 442.132L1002.55 442.849C1002.22 442.866 1001.89 442.759 1001.63 442.549C1001.38 442.339 1001.21 442.042 1001.16 441.714C1001.11 441.387 1001.19 441.053 1001.37 440.778C1001.56 440.503 1001.84 440.306 1002.16 440.226L1007.05 439.489C1007.22 439.466 1007.4 439.477 1007.56 439.521C1007.73 439.565 1007.89 439.642 1008.02 439.746C1008.16 439.851 1008.28 439.982 1008.36 440.131C1008.45 440.28 1008.51 440.445 1008.53 440.616C1008.58 440.96 1008.5 441.312 1008.3 441.595C1008.09 441.879 1007.79 442.071 1007.44 442.132ZM1017.69 455.448L1015.25 456.554C1014.92 456.697 1014.57 456.754 1014.21 456.717C1013.86 456.681 1013.52 456.553 1013.23 456.347C1012.94 456.14 1012.71 455.861 1012.56 455.539C1012.41 455.216 1012.35 454.86 1012.38 454.505V454.239C1012.65 454.553 1013.02 454.771 1013.42 454.859C1013.83 454.948 1014.25 454.903 1014.63 454.731L1017.07 453.645C1017.54 453.421 1017.92 453.068 1018.19 452.628C1018.46 452.189 1018.6 451.681 1018.59 451.166L1018.83 451.576C1019.04 451.895 1019.18 452.255 1019.23 452.631C1019.29 453.007 1019.27 453.39 1019.16 453.756C1019.06 454.122 1018.88 454.463 1018.64 454.754C1018.39 455.046 1018.09 455.282 1017.75 455.448H1017.69ZM1021.97 441.107C1022.79 440.964 1023.61 441.927 1023.81 443.156C1024.02 444.385 1023.48 445.594 1022.64 445.717C1021.8 445.84 1021 444.897 1020.8 443.668C1020.59 442.439 1021.19 441.21 1022.03 441.087L1021.97 441.107Z" fill="#FF847B"/>
<path d="M1014.57 429.594C1014.98 430.15 1015.52 430.594 1016.15 430.885C1017.38 431.287 1018.67 431.433 1019.96 431.315C1020.61 431.28 1021.26 431.414 1021.84 431.705C1022.42 431.996 1022.92 432.433 1023.28 432.974C1023.54 433.527 1023.59 434.183 1023.87 434.736C1024.07 435.147 1024.42 435.468 1024.84 435.639C1025.27 435.809 1025.74 435.816 1026.17 435.658C1025.22 431.442 1023.08 427.583 1020.02 424.534C1018.3 426.317 1016.48 428.006 1014.57 429.594Z" fill="#FF847B"/>
<path d="M998.552 495.457C999.453 495.457 1000.35 495.457 1001.21 495.58C1004.98 495.396 1008.22 495.355 1010.66 495.457L1009.49 483.739C1006.59 484.191 1003.63 483.945 1000.85 483.022C997.592 481.4 994.516 479.443 991.668 477.183C991.299 476.856 990.972 476.487 990.623 476.118C990.504 476.265 990.374 476.401 990.234 476.528C989.738 476.979 989.113 477.261 988.447 477.335C987.781 477.408 987.108 477.269 986.526 476.938C985.092 475.975 984.928 473.68 983.433 472.84H983.289L985.686 496.83L992.139 496.215C994.238 495.703 996.391 495.449 998.552 495.457Z" fill="#FF847B"/>
<path d="M1001.21 495.58C1004.68 495.844 1008.04 496.947 1010.99 498.796L1010.66 495.457C1008.22 495.355 1004.98 495.396 1001.21 495.58Z" fill="#FF847B"/>
<path d="M992.139 496.215L985.686 496.83L985.891 498.878C987.791 497.611 989.909 496.708 992.139 496.215Z" fill="#FF847B"/>
<path d="M998.552 495.457C996.391 495.449 994.238 495.703 992.139 496.215C995.356 495.928 998.429 495.723 1001.21 495.58C1000.35 495.498 999.453 495.457 998.552 495.457Z" fill="#FF847B"/>
<path d="M992.139 496.215C989.905 496.727 987.786 497.651 985.891 498.94L986.915 509.183L1011.64 505.086L1010.99 498.653C1008.04 496.804 1004.68 495.7 1001.21 495.437C998.429 495.785 995.356 495.928 992.139 496.215Z" fill="#FF847B"/>
<path d="M986.526 476.938C987.108 477.269 987.781 477.408 988.447 477.335C989.113 477.261 989.738 476.979 990.234 476.528C990.374 476.401 990.504 476.264 990.623 476.118C987.716 472.74 985.895 468.563 985.399 464.134C984.305 464.147 983.233 463.825 982.326 463.212L983.228 472.779H983.371C984.928 473.68 985.092 475.975 986.526 476.938Z" fill="#FF847B"/>
<path d="M984.764 458.5C983.949 458.883 983.273 459.512 982.832 460.298C982.392 461.084 982.207 461.988 982.306 462.884V463.212C983.212 463.825 984.284 464.147 985.379 464.134C985.379 463.499 985.235 462.864 985.174 462.249L984.764 458.5Z" fill="#FF847B"/>
<path d="M1007.11 460.098C1006.95 459.041 1006.4 458.084 1005.56 457.416C1004.73 456.748 1003.67 456.418 1002.61 456.492L996.462 457.107C998.039 458.766 1000.15 459.422 1004.27 459.914C1005.13 460.016 1006.11 460.078 1007.11 460.098Z" fill="#FF847B"/>
<path d="M1007.05 439.489L1002.16 440.226C1001.84 440.306 1001.56 440.503 1001.37 440.778C1001.19 441.053 1001.11 441.387 1001.16 441.714C1001.21 442.042 1001.38 442.339 1001.63 442.549C1001.89 442.759 1002.22 442.866 1002.55 442.849L1007.44 442.132C1007.79 442.071 1008.09 441.879 1008.3 441.595C1008.5 441.312 1008.58 440.96 1008.53 440.616C1008.51 440.445 1008.45 440.28 1008.36 440.131C1008.28 439.982 1008.16 439.851 1008.02 439.746C1007.89 439.642 1007.73 439.565 1007.56 439.521C1007.4 439.477 1007.22 439.466 1007.05 439.489Z" fill="#FBE4DA"/>
<path d="M1026.64 439.243C1026.99 439.188 1027.3 438.997 1027.5 438.713C1027.71 438.429 1027.8 438.075 1027.74 437.727C1027.69 437.396 1027.52 437.096 1027.26 436.887C1027 436.678 1026.66 436.576 1026.33 436.6C1026.33 436.969 1026.49 437.317 1026.54 437.686L1026.64 439.243Z" fill="#FBE4DA"/>
<path d="M1021.41 437.338C1021.24 437.363 1021.07 437.423 1020.92 437.513C1020.77 437.603 1020.64 437.722 1020.54 437.862C1020.43 438.003 1020.36 438.163 1020.31 438.333C1020.27 438.503 1020.26 438.68 1020.29 438.854C1020.31 439.027 1020.37 439.194 1020.46 439.345C1020.55 439.495 1020.67 439.627 1020.81 439.731C1020.95 439.836 1021.11 439.912 1021.28 439.954C1021.45 439.997 1021.63 440.006 1021.8 439.981L1026.64 439.243V437.686C1026.64 437.317 1026.49 436.969 1026.43 436.6L1021.41 437.338Z" fill="#FBE4DA"/>
<path d="M1022.7 445.758C1023.54 445.635 1024.06 444.487 1023.87 443.197C1023.69 441.906 1022.85 440.943 1022.03 441.148C1021.21 441.353 1020.68 442.418 1020.86 443.709C1021.05 445 1021.89 445.881 1022.7 445.758Z" fill="#5B0D0D"/>
<path d="M1003.71 444.18C1002.89 444.303 1002.38 445.45 1002.57 446.741C1002.75 448.032 1003.59 448.994 1004.41 448.79C1005.23 448.585 1005.76 447.519 1005.56 446.208C1005.35 444.897 1004.59 444.057 1003.71 444.18Z" fill="#5B0D0D"/>
<path d="M1018.67 451.186C1018.68 451.702 1018.54 452.209 1018.28 452.649C1018.01 453.088 1017.62 453.441 1017.15 453.665L1014.72 454.813C1014.34 454.985 1013.91 455.03 1013.51 454.941C1013.1 454.853 1012.73 454.635 1012.46 454.321V454.587C1012.43 454.942 1012.49 455.298 1012.64 455.62C1012.79 455.943 1013.02 456.222 1013.31 456.429C1013.6 456.635 1013.94 456.763 1014.29 456.799C1014.65 456.836 1015 456.779 1015.33 456.636L1017.77 455.53C1018.11 455.371 1018.42 455.141 1018.67 454.855C1018.92 454.568 1019.11 454.232 1019.22 453.867C1019.33 453.503 1019.36 453.12 1019.31 452.742C1019.26 452.365 1019.14 452.002 1018.94 451.678L1018.67 451.186Z" fill="#FA4F43"/>
<path d="M1012.3 423.756V423.448C1012.13 423.1 1011.95 422.772 1011.77 422.444C1011.52 422.895 1011.2 423.293 1010.8 423.613C1010.4 423.933 1009.94 424.17 1009.45 424.309C1008.45 424.657 1007.4 424.432 1006.34 424.677C1004.16 425.169 1002.83 427.464 1000.97 428.775C998.183 430.721 994.372 430.25 991.566 432.155C989.836 433.639 988.362 435.397 987.202 437.358L988.718 440.902L1012.3 423.756Z" fill="#FBE4DA"/>
<path d="M985.789 438.874L985.522 439.141C983.187 441.333 979.786 442.214 977.82 444.672L978.024 446.126C979.807 445.922 981.548 445.655 983.248 445.307V445.184L985.789 438.874Z" fill="#FBE4DA"/>
<path d="M1014.55 421.092L1011.85 421.912C1011.81 422.096 1011.75 422.275 1011.66 422.444C1011.85 422.772 1012.03 423.1 1012.2 423.448V423.755L1015.68 421.236C1017.16 422.176 1018.54 423.282 1019.78 424.534C1020.72 423.571 1021.21 422.977 1021.21 422.977L1011.23 416.36L1010.27 416.749C1011.04 417.823 1011.59 419.032 1011.91 420.314C1012.81 420.511 1013.69 420.771 1014.55 421.092Z" fill="#FBE4DA"/>
<path d="M1012.3 423.755L988.616 440.882L989.804 443.607C998.883 440.568 1007.29 435.811 1014.57 429.594C1014.11 428.971 1013.75 428.28 1013.51 427.545C1013.04 426.337 1012.79 425.005 1012.3 423.755Z" fill="#FBE4DA"/>
<path d="M1015.78 421.236L1012.3 423.755C1012.79 425.005 1013.04 426.337 1013.51 427.607C1013.75 428.341 1014.11 429.032 1014.57 429.656C1016.46 428.066 1018.25 426.377 1019.96 424.595C1018.7 423.317 1017.3 422.19 1015.78 421.236Z" fill="#FBE4DA"/>
<path d="M1011.91 421.912L1014.61 421.092C1013.73 420.769 1012.83 420.509 1011.91 420.314C1012.01 420.841 1012.01 421.384 1011.91 421.912Z" fill="#FBE4DA"/>
<path d="M1012.69 480.441C1011.51 480.512 1010.34 480.512 1009.16 480.441L1009.49 483.78C1013.59 483.432 1017.93 482.53 1020.41 482.121C1024.51 481.424 1028.32 476.405 1028.6 472.123L1027.56 457.64C1028.54 469.583 1020.39 480.011 1012.69 480.441Z" fill="#FBE4DA"/>
<path d="M984.375 450.183L983.658 445.225H983.248L983.822 450.121H983.924C984.076 450.131 984.226 450.152 984.375 450.183Z" fill="#FBE4DA"/>
<path d="M985.44 457.619L984.498 451.043C984.073 453.279 984.404 455.593 985.44 457.619Z" fill="#FBE4DA"/>
<path d="M985.522 458.234V457.619C984.486 455.593 984.155 453.279 984.58 451.043L984.457 450.183C984.307 450.172 984.157 450.172 984.006 450.183H983.904L984.846 458.377C985.066 458.306 985.293 458.258 985.522 458.234Z" fill="#FBE4DA"/>
<path d="M1007.11 460.098C1007.12 460.207 1007.12 460.317 1007.11 460.426L1009.16 480.4C1010.34 480.471 1011.51 480.471 1012.69 480.4C1020.39 479.97 1028.54 469.542 1027.4 457.578C1020.75 459.151 1013.95 459.996 1007.11 460.098ZM1019.18 463.744C1020.12 467.063 1015.08 467.227 1015.08 467.227C1011.62 467.227 1010.54 465.588 1010.17 464.175L1019.18 463.744Z" fill="#FBE4DA"/>
<path d="M986.116 445.594C985.461 447.057 984.973 448.589 984.662 450.162C986.214 450.33 987.659 451.037 988.744 452.16C989.83 453.283 990.487 454.751 990.603 456.308C990.633 456.758 990.633 457.21 990.603 457.66L996.318 457.087C994.755 455.113 993.536 452.89 992.713 450.51L989.722 443.586C988.554 443.955 987.387 444.283 986.178 444.59C986.241 444.924 986.22 445.269 986.116 445.594Z" fill="#FBE4DA"/>
<path d="M986.116 445.594C986.244 445.283 986.293 444.945 986.26 444.61C985.399 444.836 984.539 445.041 983.658 445.225L984.375 450.183H984.662C984.971 448.603 985.459 447.063 986.116 445.594Z" fill="#FBE4DA"/>
<path d="M986.014 458.131L990.685 457.681C990.715 457.23 990.715 456.779 990.685 456.329C990.569 454.771 989.912 453.303 988.826 452.181C987.741 451.058 986.296 450.351 984.744 450.183C984.744 450.49 984.621 450.777 984.58 451.064L985.522 457.64C985.625 457.824 985.789 458.008 985.911 458.193L986.014 458.131Z" fill="#FBE4DA"/>
<path d="M985.44 457.619V458.234H985.748C985.707 457.988 985.543 457.804 985.44 457.619Z" fill="#FBE4DA"/>
<path d="M984.375 450.183L984.498 451.043C984.498 450.756 984.6 450.469 984.662 450.162L984.375 450.183Z" fill="#FBE4DA"/>
<path d="M992.14 473.557C991.802 474.5 991.288 475.369 990.624 476.118C990.972 476.487 991.3 476.856 991.668 477.183C994.516 479.443 997.592 481.4 1000.85 483.022C1003.63 483.945 1006.59 484.191 1009.49 483.739L1009.16 480.4C1002.88 480.121 996.871 477.708 992.14 473.557Z" fill="#FBE4DA"/>
<path d="M986.444 463.97C986.27 464.03 986.092 464.077 985.912 464.113H985.399C985.895 468.543 987.716 472.72 990.623 476.098C991.287 475.349 991.802 474.479 992.139 473.537C989.343 470.976 987.363 467.649 986.444 463.97Z" fill="#FBE4DA"/>
<path d="M986.444 463.97C986.301 463.355 986.178 462.761 986.075 462.126L985.522 458.234C985.26 458.292 985.005 458.381 984.764 458.5L985.276 462.249C985.276 462.864 985.399 463.499 985.481 464.134H985.993C986.147 464.088 986.297 464.033 986.444 463.97Z" fill="#FBE4DA"/>
<path d="M989.497 461.696C990.857 462.72 991.953 464.054 992.692 465.588C993.492 468.055 993.361 470.73 992.324 473.107L992.139 473.557C996.871 477.708 1002.88 480.121 1009.16 480.4L1007.11 460.426C1007.12 460.317 1007.12 460.207 1007.11 460.098C1006.11 460.098 1005.07 460.098 1004.21 459.914C1000.11 459.422 998.06 458.766 996.4 457.107L990.685 457.681C990.679 459.105 990.267 460.498 989.497 461.696Z" fill="#FBE4DA"/>
<path d="M992.693 465.588C991.953 464.054 990.857 462.72 989.497 461.696C988.797 462.807 987.709 463.617 986.444 463.97C987.359 467.656 989.34 470.991 992.139 473.557L992.324 473.107C993.361 470.73 993.493 468.055 992.693 465.588Z" fill="#FBE4DA"/>
<path d="M985.83 458.172C986.044 458.498 986.284 458.806 986.547 459.094C987.448 460.016 988.595 460.835 989.497 461.696C990.282 460.475 990.695 459.051 990.685 457.599L986.014 458.049L985.83 458.172Z" fill="#FBE4DA"/>
<path d="M989.497 461.696C988.513 460.836 987.448 460.016 986.547 459.094C986.284 458.806 986.044 458.498 985.83 458.172H985.522L986.076 462.065C986.076 462.7 986.301 463.294 986.444 463.908C987.699 463.571 988.786 462.784 989.497 461.696Z" fill="#FBE4DA"/>
<path d="M987.1 437.338L986.711 437.829C986.858 439.18 986.594 440.544 985.953 441.742C985.758 442.099 985.707 442.517 985.809 442.91L988.616 440.861L987.1 437.338Z" fill="#FBE4DA"/>
<path d="M983.556 444.569L985.809 442.951C985.707 442.558 985.758 442.14 985.952 441.783C986.594 440.585 986.858 439.221 986.71 437.87C986.425 438.238 986.117 438.586 985.789 438.915L983.228 445.184V445.307H983.638L983.556 444.569Z" fill="#FBE4DA"/>
<path d="M985.809 442.91C985.912 443.484 986.198 444.016 986.26 444.61C987.468 444.303 988.636 443.975 989.804 443.607L988.616 440.882L985.809 442.91Z" fill="#FBE4DA"/>
<path d="M985.809 442.91L983.555 444.529L983.658 445.225C984.539 445.041 985.399 444.836 986.26 444.61C986.198 444.016 985.911 443.484 985.809 442.91Z" fill="#FBE4DA"/>
<path d="M1015.04 467.227C1015.04 467.227 1020.12 467.063 1019.14 463.745L1010.09 464.175C1010.49 465.588 1011.58 467.207 1015.04 467.227Z" fill="#FF847B"/>
<path d="M971.346 449.117C970.869 447.915 970.329 446.739 969.727 445.594C968.601 442.623 969.932 439.325 971.489 436.58C973.433 433.152 975.703 429.921 978.27 426.931C979.192 425.825 979.827 424.985 981.343 425.005C981.687 424.982 982.033 425.031 982.357 425.15C982.681 425.268 982.977 425.452 983.226 425.691C983.474 425.931 983.671 426.219 983.801 426.538C983.932 426.857 983.995 427.201 983.986 427.545L992.467 424.083L990.255 422.67C994.461 420.787 998.987 419.724 1003.59 419.535L1006.85 418.204C1005.2 417.459 1003.41 417.108 1001.6 417.179C998.879 417.302 996.073 418.286 993.409 417.343C991.26 416.348 989.558 414.588 988.636 412.406C988.01 411.321 987.672 410.094 987.653 408.842C987.701 408.078 988.013 407.354 988.534 406.793C983.597 409.128 982.203 415.192 978.434 418.941C974.337 423.038 968.191 426.111 968.191 433.282C968.283 434.434 968.283 435.592 968.191 436.744C967.966 438.137 967.187 439.345 966.9 440.718C966.04 444.713 969.379 448.462 971.223 452.19C971.516 451.192 971.558 450.136 971.346 449.117Z" fill="#FBE4DA"/>
<path d="M994.413 406.486C994.688 406.395 994.945 406.256 995.171 406.076C993.774 405.841 992.348 405.841 990.951 406.076C992.119 406.24 993.307 406.875 994.413 406.486Z" fill="#FBE4DA"/>
<path d="M972.022 458.234C974.235 457.66 975.361 455.017 975.73 452.58C975.808 450.139 976.321 447.731 977.246 445.471C977.43 445.184 977.615 444.938 977.82 444.672L975.996 430.803L983.986 427.545C983.995 427.201 983.933 426.857 983.802 426.538C983.671 426.219 983.475 425.931 983.226 425.691C982.977 425.452 982.681 425.268 982.357 425.15C982.033 425.031 981.688 424.982 981.343 425.005C979.827 425.005 979.295 425.825 978.27 426.931C975.704 429.921 973.433 433.152 971.489 436.58C969.933 439.325 968.601 442.623 969.728 445.594C970.329 446.739 970.869 447.915 971.346 449.117C971.558 450.121 971.523 451.162 971.244 452.149C971.796 453.051 972.151 454.059 972.285 455.108C972.42 456.157 972.33 457.222 972.022 458.234Z" fill="#FBE4DA"/>
<path d="M988.718 412.427C989.635 414.605 991.329 416.365 993.471 417.364C996.052 418.306 998.859 417.364 1001.67 417.2C1003.47 417.128 1005.27 417.479 1006.91 418.224L1010.52 416.749C1008.9 414.198 1006.86 411.939 1004.49 410.071C1001.72 408.099 998.567 406.738 995.233 406.076C995.006 406.256 994.749 406.395 994.475 406.486C993.368 406.875 992.18 406.24 991.012 406.035C990.498 406.117 989.991 406.24 989.496 406.404C989.212 406.515 988.937 406.653 988.677 406.813C988.156 407.374 987.845 408.098 987.796 408.862C987.796 410.109 988.113 411.336 988.718 412.427Z" fill="#FBE4DA"/>
<path d="M990.254 422.69L992.467 424.104L1003.59 419.556C998.987 419.744 994.461 420.808 990.254 422.69Z" fill="#FBE4DA"/>
<path d="M982.941 429.799C982.786 430.498 982.81 431.225 983.011 431.913C983.211 432.6 983.582 433.226 984.088 433.732C985.086 434.682 985.911 435.798 986.526 437.031L986.731 436.518L987.1 437.338C988.247 435.379 989.708 433.622 991.422 432.134C994.229 430.229 998.039 430.7 1000.83 428.754C1002.69 427.464 1004.02 425.169 1006.19 424.657C1007.22 424.411 1008.24 424.657 1009.31 424.288C1009.8 424.149 1010.26 423.913 1010.65 423.592C1011.05 423.272 1011.38 422.875 1011.62 422.424C1011.62 422.301 1011.48 422.137 1011.4 422.014L996.339 426.583L992.467 424.083L983.986 427.525C983.994 427.689 983.994 427.853 983.986 428.017C983.678 428.672 983.228 429.164 982.941 429.799Z" fill="#FBE4DA"/>
<path d="M1009.47 419.863C1008.68 419.195 1007.8 418.643 1006.85 418.224L1003.59 419.556C1005.56 419.478 1007.52 419.58 1009.47 419.863Z" fill="#FBE4DA"/>
<path d="M985.522 439.141L985.788 438.874L986.526 437.031C985.911 435.798 985.086 434.682 984.088 433.732C983.582 433.226 983.211 432.6 983.011 431.913C982.81 431.225 982.786 430.498 982.941 429.799C983.187 429.164 983.678 428.672 983.904 428.037C983.912 427.873 983.912 427.709 983.904 427.545L975.914 430.803L977.737 444.672C979.786 442.214 983.228 441.333 985.522 439.141Z" fill="#FBE4DA"/>
<path d="M1011.44 422.035C1011.44 422.158 1011.58 422.321 1011.66 422.444C1011.75 422.275 1011.81 422.096 1011.85 421.912L1011.44 422.035Z" fill="#FBE4DA"/>
<path d="M1011.91 420.314C1011.64 419.044 1011.14 417.835 1010.43 416.749L1006.83 418.224C1007.78 418.643 1008.66 419.195 1009.45 419.863C1010.28 419.972 1011.1 420.122 1011.91 420.314Z" fill="#FBE4DA"/>
<path d="M1011.44 422.035C1010.87 421.211 1010.18 420.479 1009.39 419.863C1007.44 419.58 1005.47 419.478 1003.51 419.556L992.467 424.083L996.38 426.583L1011.44 422.035Z" fill="#FBE4DA"/>
<path d="M1011.91 420.314C1011.1 420.122 1010.28 419.972 1009.45 419.863C1010.24 420.479 1010.93 421.211 1011.5 422.035L1011.91 421.912C1012.01 421.384 1012.01 420.841 1011.91 420.314Z" fill="#FBE4DA"/>
<path d="M986.731 436.518L986.526 437.031V437.174C986.589 437.388 986.63 437.607 986.649 437.83L987.038 437.338L986.731 436.518Z" fill="#FBE4DA"/>
<path d="M986.526 437.031L985.789 438.874C986.117 438.546 986.425 438.197 986.71 437.83C986.691 437.607 986.65 437.388 986.588 437.174L986.526 437.031Z" fill="#FBE4DA"/>
<path d="M496.739 520.122C495.811 520.122 494.883 520.122 493.955 520.122C491.515 519.835 489.206 518.868 487.29 517.332C485.373 515.796 483.927 513.752 483.115 511.434C482.246 508.947 482.029 506.005 480.055 504.248C477.251 501.76 471.94 502.688 470.459 499.233C469.432 496.883 471.19 494.277 470.854 491.75C470.42 488.551 467.043 486.774 464.753 484.484C463.165 482.882 462.021 480.895 461.433 478.718C460.844 476.541 460.832 474.248 461.396 472.065C462.443 468.254 465.207 463.871 462.621 460.771C461.712 459.665 460.291 459.093 459.383 457.987C457.408 455.657 458.534 452.064 460.508 449.872C462.482 447.681 465.168 446.239 466.964 443.949C469.057 441.224 469.669 437.631 470.913 434.393C472.157 431.155 474.546 427.897 477.982 427.68C480.647 427.502 483.293 429.22 485.879 428.706C492.691 427.364 495.277 419.822 503.511 419.407C505.697 419.164 507.909 419.36 510.018 419.984C512.127 420.608 514.09 421.647 515.792 423.04C515.93 423.158 516.029 423.316 516.167 423.435C527.204 420.513 538.162 421.302 546.81 425.745C548.508 425.389 549.692 425.468 553.523 425.113C556.038 424.916 558.566 425.247 560.946 426.083C563.326 426.919 565.505 428.243 567.344 429.97C568.347 431.016 569.283 432.124 570.147 433.287C570.898 434.472 571.549 435.716 572.22 436.92C573.445 437.71 577.907 440.987 578.302 444.522C578.973 450.445 577.472 453.367 577.038 454.058C577.197 456.001 577.07 457.956 576.663 459.863L573.109 475.658C572.1 480.141 569.596 484.148 566.007 487.019C562.419 489.889 557.96 491.453 553.365 491.453L548.508 506.676C550.791 508.038 552.952 509.598 554.964 511.336C559.928 515.717 563.578 521.39 565.507 527.723C566.356 530.507 567.087 533.311 567.738 535.621C567.748 535.66 567.748 535.701 567.738 535.739C567.987 536.636 568.185 537.546 568.331 538.464C568.446 539.116 568.499 539.777 568.489 540.439C569.14 548.909 568.074 558.327 567.186 569.719C588.958 558.214 605.964 539.384 615.197 516.555C624.43 493.726 625.297 468.368 617.645 444.962C609.992 421.556 594.313 401.608 573.377 388.643C552.441 375.677 527.596 370.53 503.232 374.109C478.868 377.688 456.553 389.764 440.231 408.203C423.908 426.641 414.628 450.256 414.031 474.874C413.433 499.493 421.557 523.53 436.966 542.738C452.375 561.947 474.077 575.091 498.239 579.848C496.62 571.239 493.836 564.823 492.138 554.635C492.158 554.773 487.202 534.318 496.739 520.122Z" fill="#B2C3EB"/>
<path d="M504.182 512.639L508.131 509.934C514.047 505.874 520.79 503.177 527.875 502.036L535.081 479.469C534.425 478.044 533.942 476.546 533.64 475.007C530.682 473.539 527.855 471.822 525.19 469.873C523.216 468.125 521.472 466.135 519.997 463.95C518.93 462.206 518.313 460.225 518.2 458.185C518.2 458.185 519.977 455.322 518.556 457.434C521.604 453.195 522.956 447.969 522.346 442.784C523.338 439.537 525.186 436.618 527.697 434.334C535.022 427.226 538.813 428.41 543.492 426.791C544.598 426.408 545.725 426.092 546.869 425.844C538.161 421.302 527.203 420.513 516.087 423.395C515.949 423.277 515.851 423.119 515.712 423C514.011 421.607 512.048 420.568 509.939 419.944C507.83 419.32 505.617 419.124 503.431 419.368C495.198 419.782 492.612 427.265 485.8 428.667C483.194 429.18 480.548 427.463 477.902 427.64C474.467 427.857 471.979 431.115 470.834 434.353C469.689 437.591 468.998 441.185 466.885 443.909C465.088 446.239 462.403 447.7 460.429 449.833C458.454 451.965 457.447 455.657 459.303 458.027C460.212 459.132 461.633 459.705 462.541 460.81C465.128 463.91 462.364 468.294 461.317 472.104C460.755 474.289 460.77 476.583 461.362 478.76C461.954 480.938 463.102 482.924 464.693 484.523C466.984 486.814 470.36 488.59 470.794 491.789C471.13 494.316 469.373 496.923 470.4 499.272C471.88 502.727 477.192 501.799 479.995 504.287C481.97 506.044 482.187 508.986 483.056 511.474C483.881 513.789 485.34 515.826 487.267 517.351C489.194 518.877 491.512 519.83 493.954 520.102C494.882 520.102 495.81 520.102 496.738 520.102C498.701 517.146 501.231 514.61 504.182 512.639Z" fill="#FBE4DA"/>
<path d="M491.111 544.269C491.067 544.181 491.041 544.085 491.034 543.987C491.027 543.888 491.039 543.79 491.071 543.696C491.102 543.602 491.151 543.516 491.216 543.442C491.28 543.367 491.359 543.306 491.447 543.262C491.534 543.218 491.628 543.192 491.725 543.186C491.822 543.179 491.919 543.191 492.011 543.223C492.103 543.254 492.188 543.303 492.26 543.368C492.333 543.432 492.392 543.51 492.434 543.598L511.547 581.724L491.803 542.433L496.936 540.458L492.533 530.409C494.716 526.234 498.409 523.049 502.859 521.504C502.439 521.202 501.989 520.944 501.517 520.734C499.961 520.152 498.294 519.929 496.64 520.082C487.202 534.318 492.158 554.773 492.158 554.773C493.856 564.961 496.64 571.378 498.259 579.986C502.077 580.724 505.933 581.251 509.809 581.566L491.111 544.269Z" fill="#010080"/>
<path d="M568.508 540.597C568.518 539.935 568.466 539.274 568.35 538.622C568.204 537.703 568.007 536.794 567.758 535.897C567.767 535.858 567.767 535.818 567.758 535.779C567.107 533.37 566.376 530.566 565.527 527.881C563.618 521.489 559.96 515.757 554.964 511.336C552.99 509.596 550.869 508.031 548.626 506.656L548.113 508.256C549.499 509.024 550.669 510.132 551.511 511.475C552.354 512.818 552.842 514.353 552.93 515.936C552.93 521.761 546.079 526.499 537.648 526.499C529.218 526.499 522.702 521.998 522.386 516.351C520.896 518.007 519.574 519.805 518.437 521.721C521.946 523.241 524.815 525.936 526.552 529.342L526.947 529.105C526.947 529.105 538.793 553.47 544.717 565.474C544.941 565.943 545.119 566.432 545.25 566.935C545.707 568.574 545.611 570.318 544.976 571.896C544.34 573.474 543.201 574.798 541.735 575.662L532.791 580.894C544.789 579.237 556.404 575.488 567.107 569.818C568.015 558.485 569.16 549.067 568.508 540.597Z" fill="#010080"/>
<path d="M518.338 521.8C519.475 519.884 520.798 518.086 522.287 516.43C522.287 516.292 522.287 516.153 522.287 516.015C522.329 514.776 522.636 513.56 523.188 512.45C523.74 511.339 524.523 510.36 525.486 509.579L527.855 502.135C520.771 503.276 514.028 505.973 508.111 510.033L504.162 512.738C501.21 514.714 498.68 517.258 496.719 520.221C498.373 520.067 500.04 520.29 501.595 520.872C502.068 521.083 502.518 521.341 502.938 521.642C507.904 519.731 513.412 519.788 518.338 521.8Z" fill="#010080"/>
<path d="M518.339 521.8C516.167 525.058 513.956 527.723 509.73 526.716C506.986 525.986 505.288 523.222 502.958 521.544C498.508 523.089 494.815 526.273 492.632 530.448L497.035 540.498L526.552 529.342C524.776 525.949 521.871 523.281 518.339 521.8Z" fill="#010080"/>
<path d="M518.339 521.8C513.431 519.761 507.931 519.669 502.958 521.543C505.288 523.222 506.907 525.986 509.73 526.716C513.956 527.822 516.167 525.157 518.339 521.8Z" fill="#010080"/>
<path d="M554.885 431.668C558.154 432.789 561.352 434.108 564.461 435.617L572.122 439.112C572.425 439.222 572.696 439.405 572.912 439.645C573.105 439.947 573.22 440.293 573.247 440.652C573.366 441.58 573.919 443.416 574.096 444.936C575.827 447.696 576.869 450.831 577.137 454.078C577.571 453.387 579.111 450.484 578.401 444.541C578.006 441.007 573.543 437.73 572.319 436.94C571.648 435.735 570.996 434.492 570.246 433.307C569.382 432.144 568.446 431.036 567.442 429.99C565.604 428.263 563.424 426.939 561.045 426.103C558.665 425.266 556.136 424.936 553.622 425.133C549.791 425.488 548.607 425.409 546.909 425.765C549.871 427.284 552.566 429.279 554.885 431.668Z" fill="#FBE4DA"/>
<path d="M527.698 434.334C525.162 436.662 523.312 439.638 522.347 442.942C522.96 448.082 521.644 453.267 518.655 457.493C520.076 455.381 518.299 458.283 518.299 458.244C518.392 460.256 518.975 462.215 519.997 463.95C521.472 466.135 523.217 468.125 525.19 469.873C527.862 471.885 530.702 473.662 533.68 475.184C533.68 474.77 533.542 474.375 533.502 473.96C532.66 473.276 531.982 472.412 531.517 471.431C531.052 470.451 530.813 469.379 530.817 468.293C529.534 468.985 528.29 469.597 527.401 469.991C526.829 464.246 526.612 457.73 522.13 454.018C526.079 450.307 531.034 447.562 534.391 443.278C537.747 438.993 539.544 433.406 544.263 431.431C547.308 430.345 550.635 430.345 553.681 431.431C554.076 431.53 554.451 431.668 554.846 431.787C552.498 429.381 549.77 427.38 546.77 425.863C545.627 426.112 544.5 426.428 543.394 426.811C538.813 428.233 535.023 427.127 527.698 434.334Z" fill="#FBE4DA"/>
<path d="M567.64 449.181C566.679 449.342 565.751 449.663 564.895 450.129L563.533 450.879C564.136 458.178 563.014 465.517 560.255 472.302C560.364 472.624 560.575 472.901 560.857 473.09C561.139 473.279 561.476 473.37 561.815 473.348L564.066 473.111C564.529 473.029 564.959 472.82 565.308 472.505C565.657 472.191 565.911 471.785 566.04 471.334V471.788C566.175 472.47 566.045 473.176 565.679 473.766C565.313 474.356 564.736 474.785 564.066 474.967L561.776 475.204C561.514 475.211 561.253 475.159 561.013 475.053C560.773 474.947 560.56 474.789 560.388 474.591C560.216 474.393 560.091 474.159 560.02 473.907C559.949 473.654 559.935 473.389 559.979 473.131C559.387 474.592 558.735 476.053 558.005 477.494L557.708 478.462L562.664 480.14C562.329 483.496 557.511 481.522 557.511 481.522L556.82 481.206L553.483 491.592C558.079 491.592 562.537 490.028 566.126 487.157C569.714 484.286 572.219 480.28 573.227 475.796L576.781 460.001C577.194 458.055 577.314 456.059 577.137 454.078L577.018 454.255C573.583 453.525 570.641 448.707 567.64 449.181ZM573.247 465.924C572.99 467.148 572.122 467.899 571.273 467.899C570.424 467.899 570.068 466.595 570.325 465.371C570.582 464.147 571.45 463.298 572.299 463.397L574.748 463.93L573.287 464.858C573.332 465.213 573.319 465.573 573.247 465.924ZM576.268 461.778C576.238 462.084 576.088 462.365 575.852 462.561C575.615 462.757 575.31 462.852 575.004 462.824L571.273 461.975C571.008 461.836 570.796 461.613 570.67 461.342C570.545 461.07 570.512 460.765 570.577 460.473C570.642 460.181 570.802 459.918 571.031 459.726C571.26 459.534 571.546 459.422 571.845 459.409L575.557 460.238C575.835 460.345 576.063 460.552 576.194 460.82C576.326 461.087 576.352 461.394 576.268 461.679V461.778Z" fill="#B06649"/>
<path d="M557.077 456.052L558.005 456.25C558.172 456.286 558.33 456.355 558.471 456.452C558.612 456.55 558.732 456.674 558.824 456.818C558.917 456.962 558.98 457.123 559.011 457.291C559.041 457.459 559.038 457.632 559.002 457.799C558.965 457.967 558.897 458.125 558.799 458.266C558.701 458.406 558.577 458.526 558.433 458.619C558.289 458.712 558.129 458.775 557.96 458.805C557.792 458.836 557.619 458.833 557.452 458.797L555.813 458.441C555.675 458.757 555.537 459.053 555.418 459.389C555.3 459.724 555.418 459.389 555.418 459.507L557.531 459.981L556.07 460.909C556.128 461.262 556.128 461.622 556.07 461.975C556.012 462.365 555.861 462.735 555.631 463.054C555.401 463.373 555.098 463.633 554.747 463.812C554.675 465.722 554.322 467.611 553.7 469.419L556.563 470.347C557.5 470.778 558.231 471.558 558.6 472.521C558.969 473.484 558.947 474.553 558.538 475.5L557.926 477.474C558.656 476.033 559.308 474.572 559.9 473.111C559.912 472.858 559.972 472.61 560.078 472.38L560.177 472.144C560.169 472.189 560.169 472.236 560.177 472.282C562.935 465.497 564.057 458.158 563.454 450.859C560.961 452.082 558.78 453.858 557.077 456.052Z" fill="#B06649"/>
<path d="M533.68 475.105C533.981 476.645 534.465 478.143 535.121 479.567L536.089 476.527L533.68 475.105Z" fill="#B06649"/>
<path d="M573.938 446.753C573.227 448.174 571.312 447.819 569.989 447.621C567.645 447.259 565.269 447.147 562.901 447.286C563.162 448.471 563.353 449.671 563.474 450.879L564.836 450.129C565.692 449.663 566.619 449.342 567.58 449.181C570.582 448.707 573.504 453.525 576.959 454.236L577.077 454.058C576.819 450.791 575.776 447.635 574.037 444.857C574.167 445.487 574.133 446.14 573.938 446.753Z" fill="#B06649"/>
<path d="M538.655 461.64C539.482 462.075 540.207 462.683 540.779 463.422C541.351 464.161 541.758 465.014 541.972 465.924C542.352 465.895 542.733 465.935 543.098 466.043L553.641 469.419C554.25 467.655 554.602 465.813 554.688 463.95C554.494 464.008 554.288 464.008 554.095 463.95C553.305 463.772 552.871 462.647 553.147 461.422C553.424 460.198 554.273 459.448 555.122 459.448H555.458C555.458 459.448 555.458 459.448 555.458 459.33C555.458 459.211 555.714 458.698 555.852 458.382L552.693 457.691C552.356 457.618 552.061 457.413 551.874 457.122C551.687 456.832 551.623 456.479 551.696 456.141C551.77 455.803 551.974 455.508 552.265 455.321C552.555 455.134 552.908 455.071 553.246 455.144L557.195 455.993C558.914 453.768 561.123 451.971 563.651 450.741C563.531 449.533 563.34 448.333 563.079 447.147C556.021 447.46 549.3 450.257 544.105 455.045C542.15 457.126 540.33 459.328 538.655 461.64Z" fill="#B06649"/>
<path d="M536.602 474.928H536.424C535.357 474.884 534.332 474.496 533.502 473.822C533.502 474.236 533.502 474.631 533.68 475.046L536.089 476.468L536.602 474.928Z" fill="#B06649"/>
<path d="M551.469 491.394C551.521 492.391 551.36 493.388 550.995 494.318C550.631 495.247 550.072 496.088 549.357 496.784C547.817 497.87 545.585 497.673 544.184 498.936C542.782 500.2 542.782 502.016 542.209 503.695C544.422 504.5 546.551 505.519 548.567 506.735L553.483 491.592C552.809 491.565 552.136 491.499 551.469 491.394Z" fill="#B06649"/>
<path d="M542.347 503.695C542.861 502.017 542.979 500.082 544.322 498.936C545.664 497.791 547.955 497.87 549.495 496.784C550.211 496.088 550.769 495.247 551.134 494.318C551.498 493.388 551.66 492.391 551.607 491.394C550.811 491.317 550.02 491.192 549.238 491.019C546.179 490.327 543.323 488.931 540.897 486.944C538.47 484.956 536.54 482.431 535.259 479.567L527.914 502.135C532.781 501.515 537.726 502.049 542.347 503.695Z" fill="#B06649"/>
<path d="M542.15 504.07C541.938 504.665 541.66 505.235 541.321 505.768C543.736 506.151 546.048 507.024 548.113 508.335L548.626 506.735C546.635 505.523 544.533 504.505 542.347 503.695L542.15 504.07Z" fill="#B06649"/>
<path d="M541.321 505.768C541.66 505.235 541.938 504.665 542.15 504.07L542.269 503.695C537.671 502.062 532.755 501.527 527.915 502.135L525.545 509.578C528.945 506.775 533.244 505.296 537.648 505.412C538.88 505.429 540.109 505.548 541.321 505.768Z" fill="#B06649"/>
<path d="M556.168 480.831C555.418 482.147 554.608 483.464 553.74 484.78C553.522 484.938 552.496 486.498 552.298 486.754C551.822 488.291 551.556 489.885 551.509 491.493C552.164 491.57 552.823 491.61 553.483 491.611L556.76 481.305C556.524 481.088 556.326 480.949 556.168 480.831Z" fill="#B06649"/>
<path d="M557.649 478.462L557.945 477.494C557.807 477.81 557.649 478.106 557.491 478.402L557.649 478.462Z" fill="#B06649"/>
<path d="M549.1 491.019C549.881 491.192 550.673 491.317 551.469 491.394C551.517 489.786 551.782 488.192 552.259 486.656C552.456 486.399 553.483 484.839 553.7 484.681C554.569 483.365 555.379 482.049 556.129 480.732C555.602 480.388 555.2 479.884 554.983 479.293C554.766 478.703 554.746 478.058 554.924 477.455L557.491 478.304C557.649 478.008 557.807 477.711 557.945 477.396L558.557 475.421C558.966 474.474 558.989 473.405 558.62 472.442C558.251 471.479 557.52 470.699 556.583 470.268L553.72 469.34C553.415 470.278 552.902 471.136 552.219 471.847C549.337 474.572 544.322 474.118 541.143 476.626C540.413 477.23 539.803 477.967 539.346 478.797C538.342 477.986 537.287 477.241 536.187 476.566L535.22 479.607C536.496 482.451 538.413 484.962 540.821 486.942C543.229 488.921 546.062 490.317 549.1 491.019Z" fill="#B06649"/>
<path d="M541.972 465.924C542.149 466.608 542.235 467.311 542.229 468.017C542.343 469.659 541.823 471.283 540.776 472.553C539.729 473.824 538.236 474.645 536.602 474.849L536.089 476.448C537.189 477.123 538.244 477.868 539.248 478.679C539.705 477.848 540.314 477.112 541.045 476.507C544.144 474 549.238 474.533 552.121 471.729C552.787 471.076 553.305 470.289 553.641 469.419L543.098 466.122C542.738 465.988 542.357 465.921 541.972 465.924Z" fill="#B06649"/>
<path d="M557.452 481.522C557.452 481.522 562.27 483.497 562.605 480.14L557.649 478.462L556.761 481.206L557.452 481.522Z" fill="white"/>
<path d="M556.168 480.831C556.366 480.95 556.563 481.088 556.8 481.206L557.689 478.462H557.531C557.057 479.232 556.603 480.022 556.168 480.831Z" fill="white"/>
<path d="M554.924 477.553C554.749 478.161 554.776 478.809 555 479.399C555.225 479.99 555.634 480.493 556.168 480.831C556.642 480.021 557.096 479.232 557.531 478.402L554.924 477.553Z" fill="white"/>
<path d="M559.012 457.888C559.082 457.548 559.016 457.194 558.828 456.902C558.639 456.61 558.344 456.404 558.005 456.329L557.077 456.131C556.562 456.874 556.138 457.676 555.813 458.52L557.452 458.876C557.789 458.947 558.141 458.883 558.432 458.699C558.724 458.515 558.932 458.224 559.012 457.888Z" fill="#000543"/>
<path d="M553.207 455.282C553.04 455.246 552.867 455.243 552.698 455.273C552.53 455.304 552.369 455.367 552.225 455.46C552.081 455.552 551.957 455.672 551.86 455.813C551.762 455.953 551.693 456.112 551.657 456.279C551.621 456.446 551.618 456.619 551.648 456.787C551.678 456.956 551.742 457.117 551.834 457.261C551.927 457.404 552.047 457.529 552.188 457.626C552.328 457.724 552.487 457.793 552.654 457.829L555.813 458.52C556.132 457.649 556.556 456.82 557.077 456.052L553.207 455.282Z" fill="#000543"/>
<path d="M575.557 460.179L571.845 459.349C571.546 459.363 571.26 459.475 571.031 459.667C570.802 459.859 570.642 460.122 570.577 460.414C570.512 460.706 570.545 461.011 570.67 461.283C570.796 461.554 571.008 461.777 571.272 461.916L575.004 462.726C575.31 462.753 575.615 462.659 575.851 462.463C576.088 462.267 576.238 461.985 576.268 461.679C576.37 461.386 576.352 461.064 576.219 460.784C576.086 460.503 575.848 460.286 575.557 460.179Z" fill="#000543"/>
<path d="M561.717 475.204L564.066 474.967C564.754 474.819 565.358 474.413 565.755 473.833C566.152 473.252 566.31 472.542 566.199 471.847V471.393C566.069 471.845 565.815 472.251 565.466 472.565C565.117 472.879 564.687 473.089 564.224 473.17L561.914 473.407C561.575 473.429 561.238 473.339 560.956 473.149C560.674 472.96 560.463 472.683 560.354 472.361C560.354 472.637 560.137 472.914 560.019 473.19C559.985 473.436 560.004 473.686 560.073 473.924C560.143 474.163 560.261 474.384 560.421 474.574C560.581 474.763 560.779 474.917 561.002 475.026C561.225 475.135 561.469 475.195 561.717 475.204Z" fill="#3D0C02"/>
<path d="M560.117 472.4C560.012 472.63 559.951 472.878 559.939 473.131C560.058 472.854 560.176 472.578 560.275 472.302C560.267 472.256 560.267 472.209 560.275 472.163L560.117 472.4Z" fill="#3D0C02"/>
<path d="M556.01 461.975C556.069 461.622 556.069 461.262 556.01 460.909L555.635 461.146L555.221 460.021C554.925 461.312 554.746 462.627 554.688 463.95C555.056 463.759 555.371 463.477 555.602 463.132C555.834 462.787 555.974 462.389 556.01 461.975Z" fill="#000543"/>
<path d="M555.063 459.527C554.273 459.349 553.404 460.198 553.088 461.501C552.773 462.805 553.246 463.851 554.036 464.029C554.229 464.087 554.435 464.087 554.629 464.029C554.708 462.751 554.9 461.482 555.201 460.238L555.063 459.527Z" fill="#000543"/>
<path d="M556.05 460.988L557.511 460.06L555.398 459.586C555.398 459.586 555.398 459.586 555.398 459.685C555.597 459.84 555.758 460.038 555.871 460.263C555.984 460.489 556.045 460.736 556.05 460.988Z" fill="#000543"/>
<path d="M555.398 459.586H555.063C555.171 459.619 555.271 459.673 555.359 459.744C555.359 459.744 555.379 459.626 555.398 459.586Z" fill="#000543"/>
<path d="M555.359 459.685C555.359 459.823 555.359 459.961 555.359 460.1L555.773 461.225L556.149 460.988C556.128 460.724 556.045 460.469 555.908 460.243C555.771 460.017 555.583 459.826 555.359 459.685Z" fill="#000543"/>
<path d="M555.359 459.685C555.271 459.614 555.171 459.56 555.063 459.527L555.26 460.1C555.3 460.001 555.319 459.823 555.359 459.685Z" fill="#000543"/>
<path d="M572.299 463.298C571.51 463.121 570.641 463.97 570.325 465.273C570.009 466.576 570.483 467.622 571.273 467.8C572.063 467.978 572.931 467.129 573.247 465.825C573.306 465.473 573.306 465.112 573.247 464.759L572.872 465.016L572.299 463.298Z" fill="#000543"/>
<path d="M572.299 463.298C572.595 463.409 572.849 463.609 573.026 463.871C573.203 464.133 573.294 464.443 573.287 464.759L574.748 463.831L572.299 463.298Z" fill="#000543"/>
<path d="M572.299 463.298L572.911 465.016L573.287 464.759C573.294 464.443 573.203 464.133 573.026 463.871C572.849 463.609 572.595 463.409 572.299 463.298Z" fill="#000543"/>
<path d="M533.778 466.892L533.877 466.418C532.969 467.03 531.903 467.642 530.817 468.214C530.822 469.29 531.065 470.35 531.529 471.32C531.994 472.29 532.667 473.144 533.502 473.822C533.178 471.514 533.272 469.166 533.778 466.892Z" fill="#B06649"/>
<path d="M536.602 474.928L538.399 469.123C538.602 468.292 539.053 467.541 539.69 466.97C540.328 466.4 541.124 466.035 541.972 465.924C541.768 465 541.366 464.131 540.793 463.378C540.221 462.625 539.491 462.005 538.655 461.561C537.699 462.816 536.65 463.998 535.516 465.095C535 465.548 534.452 465.963 533.877 466.339L533.778 466.813C533.262 469.113 533.169 471.488 533.502 473.822C534.342 474.486 535.374 474.86 536.444 474.888L536.602 474.928Z" fill="#B06649"/>
<path d="M542.229 468.096C542.242 467.364 542.156 466.633 541.972 465.924C541.124 466.035 540.328 466.4 539.691 466.97C539.053 467.541 538.603 468.291 538.399 469.123L536.543 474.928C538.187 474.738 539.696 473.923 540.754 472.651C541.813 471.379 542.342 469.747 542.229 468.096Z" fill="#B06649"/>
<path d="M562.486 445.252L572.595 442.745C573.142 443.415 573.643 444.121 574.096 444.857C573.918 443.337 573.365 441.501 573.247 440.573C573.22 440.214 573.105 439.869 572.911 439.566C572.696 439.326 572.424 439.143 572.122 439.033L564.461 435.538C561.352 434.029 558.154 432.71 554.885 431.589C555.477 432.201 556.03 432.813 556.563 433.564C559.347 436.993 561.367 440.979 562.486 445.252Z" fill="#FBE4DA"/>
<path d="M535.003 461.423L537.194 451.55L562.487 445.252C561.37 440.972 559.35 436.979 556.563 433.544C556.03 432.892 555.477 432.28 554.885 431.569C554.49 431.451 554.115 431.313 553.72 431.214C550.675 430.128 547.348 430.128 544.302 431.214C539.544 433.327 537.629 438.973 534.43 443.06C531.232 447.147 526.078 450.089 522.169 453.801C526.552 457.651 526.829 464.167 527.401 469.873C528.29 469.478 529.534 468.866 530.817 468.175C530.807 468.09 530.807 468.004 530.817 467.918C530.766 466.537 531.14 465.174 531.889 464.012C532.637 462.851 533.724 461.947 535.003 461.423Z" fill="#FBE4DA"/>
<path d="M562.486 445.252C562.664 445.923 562.822 446.595 562.96 447.226C565.328 447.088 567.704 447.2 570.048 447.562C571.332 447.76 573.247 448.115 573.997 446.693C574.219 446.059 574.267 445.378 574.136 444.719C573.683 443.982 573.181 443.277 572.635 442.606L562.486 445.252Z" fill="#FBE4DA"/>
<path d="M537.195 451.531L535.003 461.403C535.516 461.215 536.056 461.115 536.602 461.107C537.291 461.127 537.965 461.303 538.577 461.62C540.219 459.366 541.999 457.216 543.908 455.183C549.103 450.395 555.823 447.598 562.882 447.286C562.743 446.595 562.586 445.923 562.408 445.311L537.195 451.531Z" fill="#FBE4DA"/>
<path d="M535.003 461.423C533.728 461.946 532.643 462.847 531.895 464.004C531.146 465.162 530.77 466.521 530.817 467.899C530.807 467.984 530.807 468.07 530.817 468.155C531.883 467.583 532.969 466.971 533.878 466.359L535.003 461.423Z" fill="#FBE4DA"/>
<path d="M535.003 461.423L533.877 466.418C534.452 466.042 535 465.627 535.516 465.174C536.65 464.076 537.699 462.895 538.655 461.64C538.044 461.322 537.369 461.147 536.681 461.126C536.109 461.126 535.54 461.226 535.003 461.423Z" fill="#FBE4DA"/>
<path d="M526.749 513.527C525.236 514.184 523.836 515.077 522.603 516.173C522.508 516.248 522.422 516.335 522.346 516.43C522.662 522.077 529.356 526.578 537.609 526.578C545.862 526.578 552.891 521.84 552.891 516.015C552.802 514.432 552.314 512.897 551.472 511.554C550.629 510.211 549.46 509.103 548.073 508.335L546.415 513.527H526.749Z" fill="#B06649"/>
<path d="M526.749 513.527H524.913C524.767 512.752 524.807 511.954 525.032 511.197L525.545 509.578C524.582 510.36 523.799 511.339 523.247 512.45C522.695 513.56 522.388 514.776 522.346 516.015C522.346 516.153 522.346 516.291 522.346 516.43C522.422 516.335 522.508 516.248 522.603 516.173C523.836 515.077 525.236 514.184 526.749 513.527Z" fill="#B06649"/>
<path d="M526.75 513.527H546.494L548.152 508.335C546.087 507.024 543.776 506.151 541.36 505.768C538.537 510.23 532.001 511.079 526.75 513.527Z" fill="#B06649"/>
<path d="M524.913 513.527H526.75C532.002 511.079 538.596 510.23 541.321 505.768C540.109 505.548 538.88 505.429 537.648 505.413C533.246 505.29 528.948 506.763 525.545 509.559L525.032 511.178C524.804 511.94 524.764 512.746 524.913 513.527Z" fill="#B06649"/>
<path d="M544.796 565.612C545.026 566.054 545.211 566.517 545.349 566.995C545.218 566.492 545.04 566.002 544.816 565.533C538.754 553.529 527.046 529.165 527.046 529.165L526.592 529.342C527.518 531.13 528.17 533.047 528.527 535.029C534.213 545.572 541.42 558.899 544.796 565.612Z" fill="#010080"/>
<path d="M529.119 581.427L541.084 574.517C542.446 573.718 543.451 572.429 543.895 570.913C544.339 569.398 544.188 567.77 543.473 566.363C540.511 560.439 534.628 549.541 529.356 539.846C530.462 545.769 531.765 551.93 533.305 558.09C525.802 564.368 517.509 569.186 509 567.843L497.035 540.498L491.901 542.472L511.645 581.763C513.916 581.901 516.187 582 518.497 582C522.045 581.987 525.59 581.795 529.119 581.427Z" fill="#010080"/>
<path d="M533.285 558.011C531.765 551.851 530.462 545.612 529.336 539.767C528.31 537.793 527.362 536.055 526.375 534.318C526.28 534.148 526.258 533.947 526.311 533.76C526.365 533.573 526.491 533.415 526.661 533.321C526.831 533.227 527.032 533.204 527.219 533.257C527.406 533.311 527.564 533.437 527.658 533.607L528.527 535.029C528.157 533.045 527.492 531.128 526.552 529.342L497.035 540.498L508.98 567.764C517.49 569.107 525.782 564.289 533.285 558.011Z" fill="#010080"/>
<path d="M545.349 566.994C545.706 568.448 545.586 569.977 545.006 571.357C544.426 572.736 543.418 573.893 542.13 574.655L530.955 581.19L532.93 580.954L541.874 575.721C543.332 574.851 544.463 573.525 545.091 571.947C545.719 570.37 545.81 568.629 545.349 566.994Z" fill="#010080"/>
<path d="M492.434 543.598C492.392 543.51 492.333 543.432 492.26 543.368C492.188 543.303 492.103 543.254 492.011 543.223C491.919 543.191 491.822 543.179 491.725 543.186C491.628 543.192 491.534 543.218 491.447 543.262C491.359 543.306 491.28 543.367 491.216 543.441C491.151 543.516 491.102 543.602 491.071 543.696C491.039 543.789 491.027 543.888 491.034 543.986C491.041 544.085 491.067 544.181 491.111 544.269L509.809 581.585L511.547 581.724L492.434 543.598Z" fill="#010080"/>
<path d="M528.527 535.029V535.285C528.783 536.746 529.06 538.247 529.356 539.767C534.628 549.462 540.511 560.42 543.473 566.284C544.212 567.7 544.376 569.346 543.931 570.88C543.486 572.414 542.466 573.717 541.084 574.517L529.119 581.427C529.731 581.427 530.343 581.269 530.955 581.191L542.13 574.655C543.418 573.893 544.426 572.737 545.006 571.357C545.586 569.977 545.706 568.448 545.349 566.994C545.211 566.517 545.026 566.054 544.796 565.612C541.42 558.899 534.213 545.572 528.527 535.029Z" fill="#010080"/>
<path d="M528.527 535.029L527.737 533.607C527.69 533.523 527.627 533.449 527.552 533.389C527.477 533.329 527.39 533.284 527.298 533.257C527.205 533.231 527.108 533.223 527.012 533.234C526.917 533.245 526.824 533.274 526.74 533.321C526.656 533.367 526.581 533.43 526.521 533.506C526.461 533.581 526.417 533.667 526.39 533.76C526.364 533.853 526.356 533.95 526.366 534.045C526.377 534.141 526.407 534.234 526.454 534.318C527.382 536.055 528.428 537.892 529.415 539.767C529.119 538.247 528.843 536.746 528.586 535.285L528.527 535.029Z" fill="#010080"/>
<defs>
<filter id="filter0_d" x="0" y="0" width="1536" height="1088" filterUnits="userSpaceOnUse" color-interpolation-filters="sRGB">
<feFlood flood-opacity="0" result="BackgroundImageFix"/>
<feColorMatrix in="SourceAlpha" type="matrix" values="0 0 0 0 0 0 0 0 0 0 0 0 0 0 0 0 0 0 127 0"/>
<feOffset dy="4"/>
<feGaussianBlur stdDeviation="2"/>
<feColorMatrix type="matrix" values="0 0 0 0 0 0 0 0 0 0 0 0 0 0 0 0 0 0 0.25 0"/>
<feBlend mode="normal" in2="BackgroundImageFix" result="effect1_dropShadow"/>
<feBlend mode="normal" in="SourceGraphic" in2="effect1_dropShadow" result="shape"/>
</filter>
</defs>
</svg>
