<svg width="318" height="125" viewBox="0 0 318 125" fill="none" xmlns="http://www.w3.org/2000/svg">
<path d="M169.26 53.58V93.9C169.26 102.78 167.01 109.38 162.51 113.7C158.01 118.02 151.47 120.18 142.89 120.18C138.33 120.18 134.01 119.61 129.93 118.47C125.91 117.33 122.52 115.68 119.76 113.52L125.34 103.44C127.38 105.12 129.87 106.44 132.81 107.4C135.75 108.36 138.72 108.84 141.72 108.84C146.4 108.84 149.82 107.76 151.98 105.6C154.14 103.44 155.22 100.14 155.22 95.7V94.08C153.42 95.88 151.29 97.26 148.83 98.22C146.37 99.18 143.73 99.66 140.91 99.66C134.55 99.66 129.51 97.86 125.79 94.26C122.07 90.6 120.21 85.14 120.21 77.88V53.58H134.25V75.81C134.25 83.67 137.52 87.6 144.06 87.6C147.42 87.6 150.12 86.52 152.16 84.36C154.2 82.14 155.22 78.87 155.22 74.55V53.58H169.26ZM199.637 102.72C194.177 102.72 189.917 101.28 186.857 98.4C183.797 95.46 182.267 91.32 182.267 85.98V35.22H196.307V85.17C196.307 87.21 196.817 88.8 197.837 89.94C198.917 91.02 200.417 91.56 202.337 91.56C203.057 91.56 203.777 91.47 204.497 91.29C205.277 91.11 205.877 90.9 206.297 90.66L206.927 101.55C204.587 102.33 202.157 102.72 199.637 102.72ZM231.19 102.72C225.73 102.72 221.47 101.28 218.41 98.4C215.35 95.46 213.82 91.32 213.82 85.98V35.22H227.86V85.17C227.86 87.21 228.37 88.8 229.39 89.94C230.47 91.02 231.97 91.56 233.89 91.56C234.61 91.56 235.33 91.47 236.05 91.29C236.83 91.11 237.43 90.9 237.85 90.66L238.48 101.55C236.14 102.33 233.71 102.72 231.19 102.72ZM294.153 53.58V102H280.833V96.24C278.973 98.34 276.753 99.96 274.173 101.1C271.593 102.18 268.803 102.72 265.803 102.72C259.443 102.72 254.403 100.89 250.683 97.23C246.963 93.57 245.103 88.14 245.103 80.94V53.58H259.143V78.87C259.143 86.67 262.413 90.57 268.953 90.57C272.313 90.57 275.013 89.49 277.053 87.33C279.093 85.11 280.113 81.84 280.113 77.52V53.58H294.153Z" fill="white" fill-opacity="0.75"/>
<path d="M73.1334 93.1352L90.7802 97.1871L90.1 96.2802L90.0729 96.2442L90.0528 96.2038L89.0528 94.2038L89.0282 94.1547L89.0149 94.1015L88.5149 92.1015L88.5 92.0418L88.5 91.9802L88.5 90.4802L88.5 88.4802L88.5 88.4187L88.5149 88.359L89.0149 86.359L89.0359 86.2749L89.084 86.2029L90.084 84.7029L90.0917 84.6913L90.1 84.6802L90.8321 83.704L73.1121 86.9719L73.0809 86.9777L73.0492 86.9795L55.0395 87.9795L55.0116 87.981L54.9838 87.9794L37.1467 86.9794L37.1219 86.9781L37.0974 86.9742L19.4382 84.2113L19.8536 84.6267L19.937 84.7101L19.9743 84.8221L20.4631 86.2884L21.4472 88.2566L21.5 88.3622L21.5 88.4802L21.5 90.4802L21.5 92.4802L21.5 92.5983L21.4472 92.7038L20.4631 94.672L19.9743 96.1383L19.937 96.2503L19.8536 96.3338L19.5237 96.6637L37.0761 93.1324L37.1082 93.1259L37.1409 93.1237L54.978 91.9164L55.0116 91.9141L55.0452 91.9164L73.0549 93.1236L73.0946 93.1263L73.1334 93.1352Z" fill="white" stroke="white"/>
<circle cx="99" cy="90.9802" r="7.5" stroke="white" stroke-width="5"/>
<circle cx="11" cy="90.9802" r="7.5" stroke="white" stroke-width="5"/>
<circle cx="11" cy="90.9802" r="10.5" stroke="white"/>
<circle cx="99" cy="90.9802" r="10.5" stroke="white"/>
<path d="M69.4014 36.1109L63.7176 18.9201L63.2947 19.9719L63.2779 20.0137L63.2538 20.0519L62.062 21.9439L62.0328 21.9903L61.9942 22.0293L60.5431 23.4937L60.4998 23.5375L60.4472 23.5694L59.1645 24.347L57.4543 25.3839L57.4016 25.4158L57.3428 25.434L55.3734 26.0433L55.2907 26.0689L55.2041 26.0652L53.403 25.9877L53.3891 25.9871L53.3753 25.9858L52.161 25.8658L64.1421 39.3243L64.1632 39.348L64.1812 39.3742L74.3732 54.2561L74.3889 54.2792L74.402 54.3038L82.7943 70.075L82.8059 70.097L82.8154 70.1199L89.6079 86.6529L89.7478 86.0825L89.7758 85.9678L89.8523 85.8778L90.8527 84.6997L92.0256 82.8378L92.0885 82.7379L92.1894 82.6767L93.8996 81.6399L95.6099 80.603L95.7108 80.5418L95.8285 80.5322L98.0217 80.3533L99.529 80.0111L99.6441 79.985L99.7587 80.0131L100.212 80.1242L88.0924 66.9456L88.0702 66.9214L88.0513 66.8946L77.7716 52.2677L77.7522 52.2401L77.7367 52.2102L69.4322 36.1839L69.4139 36.1486L69.4014 36.1109Z" fill="white" stroke="white"/>
<circle cx="54.1485" cy="15.1091" r="7.5" transform="rotate(-121.227 54.1485 15.1091)" stroke="white" stroke-width="5"/>
<circle cx="54.1485" cy="15.1091" r="10.5" transform="rotate(-121.227 54.1485 15.1091)" stroke="white"/>
<path d="M44.0921 38.8418L55.9897 25.5879L54.8718 25.7379L54.8274 25.7438L54.7827 25.7418L52.5563 25.6412L52.5021 25.6388L52.4498 25.6248L50.46 25.0932L50.4015 25.0775L50.3484 25.0484L49.0336 24.3264L47.2805 23.3637L47.2274 23.3345L47.1828 23.2936L45.6664 21.8998L45.6034 21.8419L45.5632 21.7663L44.7218 20.1821L44.7154 20.17L44.7096 20.1574L44.1998 19.0548L38.6788 35.8937L38.6687 35.9244L38.6548 35.9535L31.0054 51.9611L30.9931 51.9867L30.9781 52.0108L21.6573 66.9069L21.6354 66.9419L21.608 66.9728L9.90796 80.2081L11.5665 80.6571L13 80.6571L13.0417 80.6571L13.0829 80.664L15.4121 81.0555L15.4956 81.0696L15.5699 81.1104L17.3229 82.073L19.076 83.0357L19.1779 83.0917L19.2447 83.1869L20.5042 84.9829L21.5583 86.1103L21.6383 86.1959L21.672 86.3081L21.8054 86.7527L27.0163 69.9316L27.0261 69.8997L27.0401 69.8695L34.4262 53.9109L34.4406 53.8798L34.4591 53.851L44.0433 38.9059L44.0651 38.8719L44.0921 38.8418Z" fill="white" stroke="white"/>
</svg>
